<svg width="197" height="155" fill="none" xmlns="http://www.w3.org/2000/svg"><g clip-path="url(#a)"><path d="M40.414 61.042h144.17c6.577 0 11.915 5.363 11.915 11.97v70.019c0 6.607-5.338 11.969-11.915 11.969H52.329c-6.577 0-11.915-5.362-11.915-11.969V61.042Z" fill="#5878A5"/><path d="M47.563 43.687h63.745c3.944 0 7.149 3.22 7.149 7.182v21.544H40.414V50.87c0-3.962 3.205-7.182 7.149-7.182Z" fill="#5878A5"/><path d="M.5 62.167v61.115h132.255V62.168H.5Zm8.466 57.925H6.85v-3.722h2.115v3.722Zm0-51.814H6.85v-3.723h2.115v3.723Zm12.057 51.814H16.83v-3.722h4.194v3.722Zm0-51.814H16.83v-3.723h4.194v3.723Zm12.058 51.814h-4.194v-3.722h4.194v3.722Zm0-51.814h-4.194v-3.723h4.194v3.723Zm12.058 51.814h-4.194v-3.722h4.194v3.722Zm0-51.814h-4.194v-3.723h4.194v3.723Zm12.058 51.814h-4.194v-3.722h4.194v3.722Zm0-51.814h-4.194v-3.723h4.194v3.723Zm12.058 51.814H65.06v-3.722h4.194v3.722Zm0-51.814H65.06v-3.723h4.194v3.723Zm12.058 51.814h-4.194v-3.722h4.194v3.722Zm0-51.814h-4.194v-3.723h4.194v3.723Zm12.058 51.814h-4.194v-3.722h4.194v3.722Zm0-51.814h-4.194v-3.723h4.194v3.723Zm12.058 51.814h-4.195v-3.722h4.195v3.722Zm0-51.814h-4.195v-3.723h4.195v3.723Zm12.057 51.814h-4.194v-3.722h4.194v3.722Zm0-51.814h-4.194v-3.723h4.194v3.723Zm9.979 51.814h-2.115v-3.722h2.115v3.722Zm0-51.814h-2.115v-3.723h2.115v3.723Z" fill="#3F94B1"/><path d="M6.852 113.719h19.796c2.794 0 5.064-2.28 5.064-5.087V76.824c0-2.807-2.27-5.087-5.064-5.087H6.852v41.982ZM107.663 113.718h19.803V71.731h-19.803c-2.794 0-5.063 2.28-5.063 5.087v31.807c0 2.807 2.269 5.087 5.063 5.087v.006ZM92.245 71.73h-50.18c-2.796 0-5.063 2.278-5.063 5.088v31.807c0 2.81 2.267 5.087 5.064 5.087h50.18c2.796 0 5.063-2.277 5.063-5.087V76.818c0-2.81-2.267-5.087-5.064-5.087Z" fill="#63B9D7"/><path d="M127.466 22.502v57.41a18.536 18.536 0 0 0-8.215-1.91c-10.307 0-18.665 8.397-18.665 18.75 0 10.354 8.358 18.75 18.665 18.75 10.306 0 18.664-8.396 18.664-18.75V39.797l42.56-15.087v32.706a18.537 18.537 0 0 0-8.215-1.91c-10.306 0-18.665 8.397-18.665 18.75 0 10.354 8.359 18.75 18.665 18.75s18.665-8.396 18.665-18.75V0L127.46 22.502h.006Z" fill="#EF5A38"/><path opacity=".8" d="M183.548 155H51.292c-6.583 0-12.951-4.231-14.232-9.455L23.513 90.241c-1.281-5.218 3.02-9.455 9.597-9.455h132.256c6.583 0 12.951 4.23 14.232 9.455l13.547 55.304c1.281 5.218-3.02 9.455-9.597 9.455Z" fill="#7E8CA4"/></g><defs><clipPath id="a"><path fill="#fff" transform="translate(.5)" d="M0 0h196v155H0z"/></clipPath></defs></svg>