<?xml version="1.0" encoding="UTF-8"?><svg id="Layer_2" xmlns="http://www.w3.org/2000/svg" viewBox="0 0 537.31 141.51"><defs><style>.cls-1{fill:#f79014;}.cls-2{fill:#ea4a26;}.cls-3,.cls-4{fill:red;}.cls-5{fill:#c5327b;}.cls-6{fill:#0ea0a0;}.cls-7{fill:#59595b;}.cls-4{opacity:.2;}</style></defs><g id="Layer_1-2"><g><g><path class="cls-7" d="M212.12,27.07s-.05,0-.08,0c-5.54,0-10.05,4.47-10.1,10.02l-.51,63.63s0,.03,0,.04c0,.01,0,.03,0,.04,0,10.86-8.84,19.7-19.7,19.7-6.42,0-12.46-3.15-16.15-8.42-3.2-4.57-9.5-5.68-14.07-2.48-4.57,3.2-5.68,9.5-2.48,14.07,7.47,10.67,19.69,17.04,32.7,17.04,21.96,0,39.82-17.83,39.89-39.77,0-.02,0-.03,0-.05l.5-63.63c.04-5.58-4.44-10.14-10.02-10.18Z"/><path class="cls-7" d="M267.59,26.56c-22,0-39.9,17.9-39.9,39.9s17.9,39.9,39.9,39.9,39.9-17.9,39.9-39.9-17.9-39.9-39.9-39.9Zm0,59.59c-10.86,0-19.7-8.84-19.7-19.7s8.84-19.7,19.7-19.7,19.7,8.84,19.7,19.7-8.84,19.7-19.7,19.7Z"/><path class="cls-7" d="M351.43,26.56c-22,0-39.9,17.9-39.9,39.9s17.9,39.9,39.9,39.9c7.15,0,13.87-1.9,19.68-5.21-.19,10.7-8.93,19.35-19.68,19.35-6.42,0-12.46-3.15-16.15-8.42-3.2-4.57-9.5-5.68-14.07-2.48-4.57,3.2-5.68,9.5-2.48,14.07,7.47,10.67,19.69,17.04,32.7,17.04,22,0,39.9-17.9,39.9-39.9v-36.36c0-.7-.07-1.38-.2-2.03-2.04-20.1-19.06-35.84-39.69-35.84Zm0,59.59c-10.86,0-19.7-8.84-19.7-19.7s8.84-19.7,19.7-19.7,19.7,8.84,19.7,19.7-8.84,19.7-19.7,19.7Z"/><path class="cls-7" d="M475.96,62.4c-2.04-20.1-19.06-35.84-39.69-35.84-22,0-39.9,17.9-39.9,39.9s17.9,39.9,39.9,39.9c7.15,0,13.87-1.9,19.68-5.21-.19,10.7-8.93,19.35-19.68,19.35-6.42,0-12.46-3.15-16.15-8.42-3.2-4.57-9.5-5.68-14.07-2.48-4.57,3.2-5.68,9.5-2.48,14.07,7.47,10.67,19.69,17.04,32.7,17.04,22,0,39.9-17.9,39.9-39.9v-36.36c0-.7-.07-1.38-.2-2.03Zm-39.69,23.75c-10.86,0-19.7-8.84-19.7-19.7s8.84-19.7,19.7-19.7,19.7,8.84,19.7,19.7-8.84,19.7-19.7,19.7Z"/></g><g><g><path class="cls-1" d="M69.31,116.7c-6.61,0-11.97-5.36-11.97-11.97v-34.24c0-6.61,5.36-11.97,11.97-11.97s11.97,5.36,11.97,11.97v34.24c0,6.61-5.36,11.97-11.97,11.97Z"/><path class="cls-5" d="M69.32,116.7c-4.14,0-8.16-2.15-10.38-5.99-3.31-5.73-1.34-13.05,4.38-16.36l78.28-45.2c5.72-3.31,13.05-1.34,16.36,4.38,3.31,5.73,1.34,13.05-4.38,16.36l-78.28,45.2c-1.89,1.09-3.94,1.61-5.98,1.61Z"/><path class="cls-2" d="M147.58,71.5c-2.05,0-4.13-.53-6.03-1.64l-53.38-31.19c-5.71-3.34-7.63-10.67-4.3-16.38,3.34-5.71,10.67-7.63,16.38-4.3l53.38,31.19c5.71,3.34,7.63,10.67,4.3,16.38-2.23,3.81-6.23,5.94-10.35,5.94Z"/></g><circle class="cls-6" cx="69.31" cy="13.97" r="11.97"/></g></g><g><rect class="cls-3" x="0" y="24.45" width="537.31" height="2"/><g><rect class="cls-3" x="0" y="65.46" width="3" height="1"/><path class="cls-3" d="M528.34,66.46h-5.97v-1h5.97v1Zm-11.94,0h-5.97v-1h5.97v1Zm-11.94,0h-5.97v-1h5.97v1Zm-11.94,0h-5.97v-1h5.97v1Zm-11.94,0h-5.97v-1h5.97v1Zm-11.94,0h-5.97v-1h5.97v1Zm-11.94,0h-5.97v-1h5.97v1Zm-11.94,0h-5.97v-1h5.97v1Zm-11.94,0h-5.97v-1h5.97v1Zm-11.94,0h-5.97v-1h5.97v1Zm-11.94,0h-5.97v-1h5.97v1Zm-11.94,0h-5.97v-1h5.97v1Zm-11.94,0h-5.97v-1h5.97v1Zm-11.94,0h-5.97v-1h5.97v1Zm-11.94,0h-5.97v-1h5.97v1Zm-11.94,0h-5.97v-1h5.97v1Zm-11.94,0h-5.97v-1h5.97v1Zm-11.94,0h-5.97v-1h5.97v1Zm-11.94,0h-5.97v-1h5.97v1Zm-11.94,0h-5.97v-1h5.97v1Zm-11.94,0h-5.97v-1h5.97v1Zm-11.94,0h-5.97v-1h5.97v1Zm-11.94,0h-5.97v-1h5.97v1Zm-11.94,0h-5.97v-1h5.97v1Zm-11.94,0h-5.97v-1h5.97v1Zm-11.94,0h-5.97v-1h5.97v1Zm-11.94,0h-5.97v-1h5.97v1Zm-11.94,0h-5.97v-1h5.97v1Zm-11.94,0h-5.97v-1h5.97v1Zm-11.94,0h-5.97v-1h5.97v1Zm-11.94,0h-5.97v-1h5.97v1Zm-11.94,0h-5.97v-1h5.97v1Zm-11.94,0h-5.97v-1h5.97v1Zm-11.94,0h-5.97v-1h5.97v1Zm-11.94,0h-5.97v-1h5.97v1Zm-11.94,0h-5.97v-1h5.97v1Zm-11.94,0h-5.97v-1h5.97v1Zm-11.94,0h-5.97v-1h5.97v1Zm-11.94,0h-5.97v-1h5.97v1Zm-11.94,0h-5.97v-1h5.97v1Zm-11.94,0h-5.97v-1h5.97v1Zm-11.94,0h-5.97v-1h5.97v1Zm-11.94,0h-5.97v-1h5.97v1Zm-11.94,0h-5.97v-1h5.97v1Z"/><rect class="cls-3" x="534.31" y="65.46" width="3" height="1"/></g><g><rect class="cls-3" x="0" y="140.51" width="3" height="1"/><path class="cls-3" d="M528.34,141.51h-5.97v-1h5.97v1Zm-11.94,0h-5.97v-1h5.97v1Zm-11.94,0h-5.97v-1h5.97v1Zm-11.94,0h-5.97v-1h5.97v1Zm-11.94,0h-5.97v-1h5.97v1Zm-11.94,0h-5.97v-1h5.97v1Zm-11.94,0h-5.97v-1h5.97v1Zm-11.94,0h-5.97v-1h5.97v1Zm-11.94,0h-5.97v-1h5.97v1Zm-11.94,0h-5.97v-1h5.97v1Zm-11.94,0h-5.97v-1h5.97v1Zm-11.94,0h-5.97v-1h5.97v1Zm-11.94,0h-5.97v-1h5.97v1Zm-11.94,0h-5.97v-1h5.97v1Zm-11.94,0h-5.97v-1h5.97v1Zm-11.94,0h-5.97v-1h5.97v1Zm-11.94,0h-5.97v-1h5.97v1Zm-11.94,0h-5.97v-1h5.97v1Zm-11.94,0h-5.97v-1h5.97v1Zm-11.94,0h-5.97v-1h5.97v1Zm-11.94,0h-5.97v-1h5.97v1Zm-11.94,0h-5.97v-1h5.97v1Zm-11.94,0h-5.97v-1h5.97v1Zm-11.94,0h-5.97v-1h5.97v1Zm-11.94,0h-5.97v-1h5.97v1Zm-11.94,0h-5.97v-1h5.97v1Zm-11.94,0h-5.97v-1h5.97v1Zm-11.94,0h-5.97v-1h5.97v1Zm-11.94,0h-5.97v-1h5.97v1Zm-11.94,0h-5.97v-1h5.97v1Zm-11.94,0h-5.97v-1h5.97v1Zm-11.94,0h-5.97v-1h5.97v1Zm-11.94,0h-5.97v-1h5.97v1Zm-11.94,0h-5.97v-1h5.97v1Zm-11.94,0h-5.97v-1h5.97v1Zm-11.94,0h-5.97v-1h5.97v1Zm-11.94,0h-5.97v-1h5.97v1Zm-11.94,0h-5.97v-1h5.97v1Zm-11.94,0h-5.97v-1h5.97v1Zm-11.94,0h-5.97v-1h5.97v1Zm-11.94,0h-5.97v-1h5.97v1Zm-11.94,0h-5.97v-1h5.97v1Zm-11.94,0h-5.97v-1h5.97v1Zm-11.94,0h-5.97v-1h5.97v1Z"/><rect class="cls-3" x="534.31" y="140.51" width="3" height="1"/></g><g><rect class="cls-3" x="0" width="3" height="1"/><path class="cls-3" d="M528.34,1h-5.97V0h5.97V1Zm-11.94,0h-5.97V0h5.97V1Zm-11.94,0h-5.97V0h5.97V1Zm-11.94,0h-5.97V0h5.97V1Zm-11.94,0h-5.97V0h5.97V1Zm-11.94,0h-5.97V0h5.97V1Zm-11.94,0h-5.97V0h5.97V1Zm-11.94,0h-5.97V0h5.97V1Zm-11.94,0h-5.97V0h5.97V1Zm-11.94,0h-5.97V0h5.97V1Zm-11.94,0h-5.97V0h5.97V1Zm-11.94,0h-5.97V0h5.97V1Zm-11.94,0h-5.97V0h5.97V1Zm-11.94,0h-5.97V0h5.97V1Zm-11.94,0h-5.97V0h5.97V1Zm-11.94,0h-5.97V0h5.97V1Zm-11.94,0h-5.97V0h5.97V1Zm-11.94,0h-5.97V0h5.97V1Zm-11.94,0h-5.97V0h5.97V1Zm-11.94,0h-5.97V0h5.97V1Zm-11.94,0h-5.97V0h5.97V1Zm-11.94,0h-5.97V0h5.97V1Zm-11.94,0h-5.97V0h5.97V1Zm-11.94,0h-5.97V0h5.97V1Zm-11.94,0h-5.97V0h5.97V1Zm-11.94,0h-5.97V0h5.97V1Zm-11.94,0h-5.97V0h5.97V1Zm-11.94,0h-5.97V0h5.97V1Zm-11.94,0h-5.97V0h5.97V1Zm-11.94,0h-5.97V0h5.97V1Zm-11.94,0h-5.97V0h5.97V1Zm-11.94,0h-5.97V0h5.97V1Zm-11.94,0h-5.97V0h5.97V1Zm-11.94,0h-5.97V0h5.97V1Zm-11.94,0h-5.97V0h5.97V1Zm-11.94,0h-5.97V0h5.97V1Zm-11.94,0h-5.97V0h5.97V1Zm-11.94,0h-5.97V0h5.97V1Zm-11.94,0h-5.97V0h5.97V1Zm-11.94,0h-5.97V0h5.97V1Zm-11.94,0h-5.97V0h5.97V1Zm-11.94,0h-5.97V0h5.97V1Zm-11.94,0h-5.97V0h5.97V1Zm-11.94,0h-5.97V0h5.97V1Z"/><rect class="cls-3" x="534.31" width="3" height="1"/></g><rect class="cls-3" x="0" y="104.85" width="537.31" height="2"/><rect class="cls-4" y="24.01" width="537.31" height="81.19"/></g></g></svg>