<svg width="721" height="172" viewBox="0 0 721 172" fill="none" xmlns="http://www.w3.org/2000/svg">
<g clip-path="url(#clip0_181_3870)">
<path d="M162 172H9C4.04 172 0 167.96 0 163V10C0 5.04 4.04 1 9 1H162C166.96 1 171 5.04 171 10V163C171 167.96 166.96 172 162 172ZM9 5C6.24 5 4 7.24 4 10V163C4 165.76 6.24 168 9 168H162C164.76 168 167 165.76 167 163V10C167 7.24 164.76 5 162 5H9Z" fill="#E0E0E0"/>
<path d="M712 171H559C554.04 171 550 166.96 550 162V9C550 4.04 554.04 0 559 0H712C716.96 0 721 4.04 721 9V162C721 166.96 716.96 171 712 171ZM559 4C556.24 4 554 6.24 554 9V162C554 164.76 556.24 167 559 167H712C714.76 167 717 164.76 717 162V9C717 6.24 714.76 4 712 4H559Z" fill="#E0E0E0"/>
<path d="M345 3H192C188.134 3 185 6.13401 185 10V163C185 166.866 188.134 170 192 170H345C348.866 170 352 166.866 352 163V10C352 6.13401 348.866 3 345 3Z" fill="#C5327B"/>
<path d="M50.8896 146.62C43.9896 146.62 38.3896 141.02 38.3896 134.12V98.38C38.3896 91.48 43.9896 85.88 50.8896 85.88C57.7896 85.88 63.3896 91.48 63.3896 98.38V134.12C63.3896 141.02 57.7896 146.62 50.8896 146.62Z" fill="#F79014"/>
<path d="M50.8998 146.62C46.5798 146.62 42.3798 144.38 40.0598 140.37C36.6098 134.39 38.6598 126.75 44.6398 123.29L126.36 76.11C132.34 72.66 139.98 74.71 143.44 80.69C146.9 86.67 144.84 94.31 138.86 97.77L57.1398 144.95C55.1698 146.09 53.0198 146.63 50.8998 146.63V146.62Z" fill="#C5327B"/>
<path d="M132.6 99.44C130.46 99.44 128.29 98.89 126.31 97.73L70.5896 65.17C64.6296 61.69 62.6196 54.03 66.0996 48.07C69.5796 42.11 77.2396 40.1 83.1996 43.58L138.92 76.14C144.88 79.62 146.89 87.28 143.41 93.24C141.09 97.22 136.9 99.44 132.61 99.44H132.6Z" fill="#EA4A26"/>
<path d="M50.8896 51.88C57.7932 51.88 63.3896 46.2836 63.3896 39.38C63.3896 32.4764 57.7932 26.88 50.8896 26.88C43.9861 26.88 38.3896 32.4764 38.3896 39.38C38.3896 46.2836 43.9861 51.88 50.8896 51.88Z" fill="#0EA0A0"/>
<path d="M683.47 75.44C683.6 75.44 683.74 75.44 683.87 75.44C683.78 75.44 683.69 75.42 683.6 75.42C683.56 75.42 683.51 75.42 683.47 75.42V75.44Z" fill="#59595B"/>
<path d="M700.09 87.14C700.09 86.94 700.06 86.75 700.04 86.55C700.01 86.19 699.98 85.83 699.92 85.47C699.9 85.33 699.87 85.19 699.84 85.05C699.77 84.66 699.69 84.26 699.59 83.87C699.58 83.83 699.57 83.79 699.56 83.74C699.53 83.63 699.49 83.52 699.46 83.41C699.36 83.06 699.25 82.71 699.13 82.37C699.04 82.13 698.95 81.89 698.85 81.66C698.75 81.42 698.66 81.19 698.55 80.96C698.4 80.63 698.23 80.31 698.05 79.99C697.99 79.89 697.95 79.78 697.89 79.68C697.86 79.63 697.83 79.59 697.8 79.54C697.68 79.34 697.56 79.14 697.43 78.94C697.31 78.76 697.19 78.58 697.07 78.41C696.83 78.06 696.57 77.73 696.3 77.41C696.18 77.26 696.06 77.12 695.94 76.98C695.76 76.78 695.58 76.59 695.39 76.4C695.26 76.27 695.13 76.14 694.99 76.01C694.71 75.75 694.43 75.5 694.14 75.25C693.94 75.09 693.75 74.93 693.54 74.77C693.35 74.63 693.17 74.5 692.97 74.37C692.75 74.22 692.53 74.08 692.31 73.94C692.18 73.86 692.06 73.77 691.92 73.69L636.2 41.13C633.67 39.65 630.8 38.87 627.89 38.87C624.4 38.87 621.06 39.99 618.3 41.96C618.35 41.44 618.38 40.91 618.38 40.37C618.38 31.27 610.98 23.87 601.88 23.87C592.78 23.87 585.38 31.27 585.38 40.37C585.38 49.47 592.78 56.87 601.88 56.87C605.46 56.87 608.76 55.71 611.47 53.77C611.28 55.69 611.42 57.64 611.92 59.56C613.04 63.82 615.75 67.4 619.56 69.62L650.75 87.85L618.38 106.54V99.38C618.38 90.28 610.98 82.88 601.88 82.88C592.78 82.88 585.38 90.28 585.38 99.38V135.12C585.38 135.21 585.39 135.29 585.39 135.38C585.39 135.64 585.41 135.9 585.43 136.15C585.45 136.43 585.46 136.71 585.49 137C585.52 137.27 585.57 137.53 585.61 137.79C585.65 138.06 585.69 138.33 585.75 138.6C585.81 138.86 585.88 139.12 585.95 139.37C586.02 139.64 586.09 139.9 586.17 140.16C586.25 140.42 586.35 140.66 586.45 140.91C586.55 141.17 586.64 141.42 586.75 141.68C586.86 141.93 586.99 142.18 587.11 142.42C587.23 142.66 587.34 142.9 587.47 143.13C587.51 143.2 587.54 143.28 587.59 143.36C588.04 144.13 588.55 144.86 589.11 145.54C589.14 145.58 589.18 145.62 589.21 145.66C589.84 146.42 590.54 147.12 591.29 147.75C591.37 147.82 591.45 147.88 591.53 147.95C591.84 148.2 592.17 148.44 592.5 148.67C592.57 148.72 592.64 148.77 592.71 148.82C593.07 149.06 593.44 149.28 593.81 149.49C593.97 149.58 594.14 149.67 594.31 149.76C594.56 149.89 594.82 150.02 595.09 150.13C595.31 150.23 595.52 150.32 595.74 150.41C596.06 150.54 596.39 150.66 596.72 150.77C596.91 150.83 597.1 150.89 597.29 150.95C597.6 151.04 597.92 151.12 598.25 151.2C598.38 151.23 598.51 151.27 598.64 151.29C599.09 151.38 599.55 151.45 600.01 151.5C600.14 151.51 600.26 151.53 600.39 151.54C600.89 151.59 601.39 151.62 601.89 151.62C602.39 151.62 602.91 151.59 603.41 151.54C603.51 151.54 603.6 151.52 603.7 151.51C604.19 151.46 604.68 151.38 605.16 151.29C605.22 151.28 605.28 151.26 605.34 151.25C605.76 151.16 606.17 151.05 606.57 150.93C606.69 150.89 606.81 150.86 606.93 150.82C607.38 150.68 607.82 150.52 608.25 150.34C608.3 150.32 608.35 150.29 608.41 150.27C608.82 150.09 609.21 149.9 609.6 149.7C609.68 149.66 609.75 149.62 609.83 149.58C609.93 149.53 610.03 149.48 610.13 149.42L691.85 102.24C692.01 102.15 692.16 102.04 692.31 101.94C692.5 101.82 692.69 101.7 692.88 101.57C693.09 101.43 693.3 101.28 693.5 101.13C693.66 101.01 693.8 100.89 693.95 100.77C694.3 100.49 694.63 100.2 694.95 99.89C695.07 99.78 695.19 99.66 695.31 99.54C695.5 99.34 695.7 99.15 695.88 98.94C696 98.81 696.1 98.68 696.21 98.55C696.49 98.22 696.75 97.88 697.01 97.53C697.13 97.35 697.26 97.18 697.38 97C697.51 96.81 697.63 96.61 697.75 96.41C697.78 96.36 697.81 96.32 697.84 96.27C697.9 96.17 697.94 96.07 698 95.96C698.18 95.64 698.35 95.32 698.5 94.99C698.61 94.76 698.71 94.52 698.81 94.28C698.91 94.05 699.01 93.81 699.09 93.57C699.21 93.23 699.32 92.88 699.42 92.53C699.45 92.42 699.49 92.32 699.52 92.2C699.53 92.16 699.54 92.12 699.55 92.07C699.65 91.68 699.73 91.28 699.81 90.89C699.84 90.75 699.87 90.62 699.89 90.48C699.95 90.12 699.98 89.76 700.01 89.4C700.03 89.21 700.05 89.01 700.06 88.82C700.08 88.54 700.07 88.26 700.07 87.98C700.07 87.7 700.07 87.42 700.07 87.14H700.09ZM601.89 52.88C594.99 52.88 589.39 47.28 589.39 40.38C589.39 33.48 594.99 27.88 601.89 27.88C608.79 27.88 614.39 33.48 614.39 40.38C614.39 47.28 608.79 52.88 601.89 52.88ZM589.39 99.38C589.39 92.48 594.99 86.88 601.89 86.88C608.79 86.88 614.39 92.48 614.39 99.38V108.85L593.64 120.83C591.98 121.79 590.57 123 589.39 124.38V99.38ZM617.44 140.57L608.14 145.94C608.14 145.94 608.08 145.97 608.04 145.99C607.59 146.25 607.13 146.47 606.66 146.67C606.6 146.69 606.54 146.71 606.49 146.73C606.09 146.89 605.68 147.02 605.27 147.14C605.12 147.18 604.97 147.22 604.82 147.26C604.49 147.34 604.15 147.4 603.82 147.46C603.66 147.49 603.5 147.52 603.33 147.53C602.91 147.58 602.5 147.6 602.08 147.61C602.01 147.61 601.95 147.61 601.88 147.61C601.85 147.61 601.82 147.61 601.8 147.61C601.34 147.61 600.87 147.58 600.41 147.52C600.28 147.5 600.15 147.48 600.02 147.46C599.65 147.4 599.28 147.33 598.91 147.24C598.79 147.21 598.66 147.18 598.54 147.14C598.13 147.03 597.73 146.89 597.33 146.74C597.27 146.72 597.2 146.7 597.14 146.67C596.69 146.48 596.24 146.27 595.81 146.03C595.71 145.97 595.61 145.91 595.5 145.84C595.19 145.66 594.88 145.46 594.59 145.24C594.45 145.14 594.31 145.04 594.18 144.93C593.89 144.71 593.62 144.46 593.35 144.21C593.26 144.13 593.16 144.05 593.07 143.96C592.73 143.62 592.41 143.26 592.11 142.88C592.03 142.77 591.95 142.66 591.87 142.55C591.62 142.22 591.39 141.88 591.18 141.52C591.12 141.42 591.06 141.33 591 141.23C590.86 140.99 590.74 140.75 590.63 140.5C590.57 140.37 590.5 140.24 590.44 140.11C590.34 139.88 590.25 139.64 590.16 139.4C590.1 139.24 590.04 139.09 589.99 138.93C589.92 138.73 589.87 138.52 589.82 138.32C589.77 138.12 589.71 137.92 589.67 137.72C589.63 137.55 589.61 137.38 589.58 137.21C589.54 136.97 589.5 136.72 589.47 136.47C589.45 136.32 589.45 136.17 589.44 136.02C589.42 135.75 589.4 135.49 589.4 135.22C589.36 130.86 591.6 126.6 595.64 124.26L614.39 113.43L618.39 111.12L654.74 90.14L675.29 102.15C676.92 103.1 678.7 103.76 680.54 104.11L617.45 140.54L617.44 140.57ZM696.08 88.59C696.08 88.77 696.05 88.95 696.04 89.13C696.02 89.36 695.99 89.59 695.96 89.82C695.94 89.98 695.9 90.14 695.87 90.3C695.82 90.54 695.78 90.77 695.72 91C695.68 91.16 695.63 91.33 695.58 91.49C695.51 91.71 695.45 91.93 695.37 92.14C695.3 92.33 695.22 92.52 695.15 92.71C695.08 92.89 695 93.07 694.92 93.25C694.81 93.48 694.69 93.71 694.56 93.93C694.49 94.06 694.43 94.18 694.35 94.31C694.08 94.76 693.79 95.19 693.48 95.59C693.42 95.66 693.36 95.73 693.3 95.8C693.04 96.12 692.77 96.42 692.49 96.71C692.38 96.82 692.27 96.93 692.16 97.04C691.89 97.29 691.62 97.52 691.34 97.75C691.23 97.84 691.12 97.93 691.01 98.02C690.61 98.31 690.19 98.59 689.76 98.83L689.73 98.85C687.86 99.9 685.75 100.45 683.6 100.45C681.45 100.45 679.29 99.9 677.31 98.74L658.73 87.88L654.75 85.56L621.59 66.18C615.63 62.7 613.62 55.04 617.1 49.08C617.36 48.63 617.65 48.21 617.96 47.81C618.05 47.69 618.15 47.58 618.24 47.46C618.48 47.17 618.72 46.9 618.98 46.63C619.08 46.53 619.18 46.42 619.29 46.32C619.65 45.98 620.02 45.66 620.41 45.36C620.8 45.07 621.21 44.81 621.63 44.57C621.75 44.5 621.88 44.43 622 44.37C622.32 44.2 622.64 44.05 622.97 43.9C623.1 43.85 623.23 43.79 623.36 43.74C623.81 43.57 624.26 43.41 624.73 43.29H624.75C625.21 43.17 625.67 43.08 626.14 43.01C626.28 42.99 626.42 42.98 626.56 42.96C626.92 42.92 627.27 42.9 627.63 42.89C627.81 42.89 627.98 42.88 628.16 42.89C628.25 42.89 628.34 42.89 628.43 42.89C628.78 42.9 629.14 42.93 629.49 42.97H629.51C629.87 43.02 630.22 43.09 630.58 43.16C630.67 43.18 630.75 43.2 630.84 43.22C631.19 43.31 631.55 43.4 631.9 43.52C632.25 43.64 632.59 43.78 632.94 43.93C633.02 43.97 633.11 44.01 633.19 44.05C633.53 44.21 633.87 44.38 634.2 44.58L680.63 71.71L689.76 77.05C689.69 77.01 689.61 76.98 689.53 76.94C689.66 77.01 689.79 77.08 689.92 77.15C690.31 77.38 690.69 77.62 691.05 77.89C691.16 77.97 691.26 78.06 691.37 78.15C691.66 78.38 691.94 78.62 692.21 78.87C692.3 78.95 692.38 79.04 692.46 79.12C692.49 79.15 692.53 79.19 692.56 79.22C692.82 79.49 693.07 79.76 693.3 80.06C693.39 80.18 693.49 80.29 693.58 80.41C693.87 80.79 694.14 81.19 694.39 81.62C694.46 81.74 694.53 81.87 694.6 82C694.72 82.23 694.84 82.45 694.95 82.69C695.03 82.87 695.1 83.05 695.18 83.23C695.26 83.42 695.33 83.61 695.4 83.8C695.48 84.02 695.54 84.23 695.61 84.45C695.66 84.61 695.71 84.78 695.75 84.94C695.81 85.17 695.85 85.41 695.9 85.64C695.93 85.8 695.96 85.96 695.99 86.13C696.02 86.36 696.05 86.59 696.07 86.82C696.09 87 696.1 87.18 696.11 87.36C696.11 87.57 696.12 87.77 696.12 87.98C696.12 88.19 696.12 88.39 696.11 88.6L696.08 88.59Z" fill="#59595B"/>
<path d="M261.04 42.01C261.39 42.02 261.75 42.05 262.1 42.09C261.75 42.04 261.39 42.02 261.04 42.01Z" fill="white"/>
<path d="M262.11 42.1C262.47 42.15 262.82 42.21 263.18 42.29C262.82 42.21 262.47 42.14 262.11 42.1Z" fill="white"/>
<path d="M260.51 42C260.42 42 260.33 42.02 260.24 42.02C260.42 42.02 260.59 42.01 260.77 42.02C260.68 42.02 260.6 42.02 260.51 42.02V42Z" fill="white"/>
<path d="M254.23 43.69C254.35 43.62 254.48 43.55 254.61 43.49C254.48 43.56 254.36 43.62 254.23 43.69Z" fill="white"/>
<path d="M251.59 45.75C251.69 45.65 251.79 45.54 251.9 45.44C251.8 45.54 251.7 45.65 251.59 45.75Z" fill="white"/>
<path d="M264.5 42.66C264.85 42.78 265.19 42.92 265.54 43.07C265.2 42.92 264.85 42.78 264.5 42.66Z" fill="white"/>
<path d="M234.5 86C227.6 86 222 91.6 222 98.5V120.61C222.99 119.71 224.07 118.9 225.25 118.22L247 105.66V98.5C247 91.6 241.4 86 234.5 86Z" fill="white"/>
<path d="M253.02 44.48C253.41 44.19 253.82 43.93 254.23 43.69C253.81 43.93 253.41 44.19 253.02 44.48Z" fill="white"/>
<path d="M265.54 43.07C265.63 43.11 265.71 43.15 265.79 43.19C265.71 43.15 265.62 43.11 265.54 43.07Z" fill="white"/>
<path d="M259.17 42.08C259.53 42.04 259.88 42.02 260.24 42.01C259.88 42.01 259.52 42.04 259.17 42.08Z" fill="white"/>
<path d="M250.85 46.58C251.09 46.29 251.33 46.02 251.59 45.75C251.33 46.01 251.09 46.29 250.85 46.58Z" fill="white"/>
<path d="M251.9 45.44C252.26 45.1 252.63 44.78 253.02 44.48C252.63 44.77 252.26 45.1 251.9 45.44Z" fill="white"/>
<path d="M255.97 42.86C256.42 42.69 256.87 42.53 257.34 42.41C256.88 42.53 256.42 42.69 255.97 42.86Z" fill="white"/>
<path d="M254.61 43.49C254.93 43.32 255.25 43.17 255.58 43.02C255.25 43.16 254.93 43.32 254.61 43.49Z" fill="white"/>
<path d="M328.7 86.47C328.7 86.29 328.68 86.11 328.66 85.92C328.64 85.69 328.62 85.47 328.58 85.24C328.56 85.08 328.52 84.91 328.49 84.75C328.45 84.52 328.4 84.28 328.34 84.05C328.3 83.88 328.25 83.72 328.2 83.55C328.14 83.33 328.07 83.12 328 82.9C327.93 82.71 327.85 82.52 327.78 82.33C327.71 82.15 327.64 81.97 327.55 81.8C327.44 81.57 327.32 81.34 327.2 81.11C327.13 80.99 327.07 80.86 327 80.74C326.75 80.32 326.48 79.91 326.19 79.53C326.1 79.41 326 79.3 325.91 79.18C325.67 78.89 325.43 78.61 325.17 78.34C325.13 78.3 325.1 78.27 325.06 78.23C325.09 78.26 325.12 78.28 325.14 78.31C325.05 78.22 324.96 78.12 324.86 78.03C324.78 77.96 324.71 77.88 324.63 77.81C324.51 77.7 324.38 77.6 324.25 77.49C324.08 77.35 323.92 77.2 323.75 77.07C323.72 77.05 323.69 77.03 323.67 77.01C323.56 76.92 323.44 76.85 323.33 76.77C323.1 76.61 322.87 76.46 322.63 76.31C322.6 76.29 322.57 76.27 322.54 76.25L322.41 76.17H322.39L310.78 69.37L266.82 43.69C266.49 43.5 266.15 43.33 265.81 43.17C265.73 43.13 265.64 43.09 265.56 43.05C265.22 42.9 264.87 42.76 264.52 42.64C264.17 42.52 263.82 42.42 263.47 42.34C263.38 42.32 263.3 42.3 263.21 42.28C262.85 42.2 262.5 42.13 262.14 42.09H262.12C261.77 42.04 261.41 42.02 261.06 42C260.97 42 260.88 42 260.79 42C260.61 42 260.44 42 260.26 42C259.9 42 259.54 42.03 259.19 42.07C259.05 42.09 258.91 42.1 258.77 42.12C258.3 42.19 257.84 42.27 257.38 42.39H257.35C256.89 42.52 256.43 42.67 255.98 42.85C255.85 42.9 255.72 42.96 255.59 43.01C255.26 43.15 254.94 43.31 254.62 43.48C254.49 43.55 254.37 43.61 254.24 43.68C253.82 43.92 253.42 44.18 253.03 44.47C252.64 44.77 252.27 45.09 251.91 45.43C251.81 45.53 251.71 45.64 251.6 45.74C251.34 46 251.1 46.28 250.86 46.57C250.77 46.69 250.67 46.8 250.58 46.92C250.27 47.32 249.98 47.74 249.72 48.19C246.24 54.15 248.25 61.81 254.21 65.29L285.39 83.51L291.35 86.99L309.93 97.85C311.91 99.01 314.08 99.56 316.22 99.56C318.36 99.56 320.48 99.01 322.35 97.96L322.38 97.94C322.81 97.7 323.23 97.42 323.63 97.13C323.75 97.04 323.85 96.95 323.97 96.86C324.25 96.64 324.53 96.41 324.79 96.16C324.9 96.05 325.02 95.94 325.13 95.83C325.41 95.54 325.68 95.25 325.94 94.93C326 94.86 326.06 94.79 326.12 94.71C326.43 94.31 326.72 93.88 326.98 93.44C327.06 93.31 327.13 93.18 327.2 93.04C327.32 92.82 327.44 92.6 327.54 92.38C327.63 92.2 327.7 92.01 327.78 91.83C327.86 91.65 327.93 91.46 328 91.28C328.08 91.06 328.15 90.84 328.21 90.62C328.26 90.46 328.31 90.3 328.35 90.14C328.41 89.9 328.46 89.67 328.5 89.43C328.53 89.27 328.56 89.11 328.59 88.95C328.63 88.72 328.65 88.49 328.67 88.26C328.69 88.08 328.7 87.91 328.71 87.73C328.72 87.52 328.72 87.31 328.72 87.1C328.72 86.9 328.72 86.69 328.71 86.49L328.7 86.47Z" fill="white"/>
<path d="M306.89 103.03L285.35 90.45L253 109.13L247 112.59L228.25 123.42C224.2 125.76 221.96 130.02 222.01 134.38C222.01 134.65 222.03 134.92 222.05 135.18C222.06 135.33 222.07 135.48 222.08 135.63C222.11 135.88 222.15 136.12 222.19 136.36C222.22 136.53 222.24 136.7 222.28 136.87C222.32 137.07 222.38 137.27 222.43 137.47C222.48 137.68 222.54 137.88 222.6 138.08C222.65 138.24 222.71 138.39 222.77 138.55C222.86 138.79 222.94 139.02 223.05 139.26C223.11 139.39 223.17 139.52 223.24 139.65C223.36 139.9 223.48 140.14 223.61 140.38C223.67 140.48 223.73 140.57 223.79 140.67C224.01 141.03 224.24 141.37 224.48 141.7C224.56 141.81 224.64 141.92 224.72 142.03C225.02 142.41 225.34 142.77 225.68 143.11C225.77 143.2 225.86 143.27 225.95 143.36C226.22 143.61 226.5 143.86 226.79 144.08C226.92 144.18 227.06 144.29 227.2 144.39C227.5 144.6 227.8 144.8 228.12 144.99C228.22 145.05 228.32 145.11 228.42 145.17C228.85 145.41 229.3 145.63 229.75 145.81C229.81 145.83 229.87 145.85 229.94 145.88C230.34 146.04 230.74 146.17 231.16 146.28C231.28 146.31 231.41 146.34 231.53 146.38C231.9 146.47 232.27 146.54 232.64 146.6C232.77 146.62 232.9 146.64 233.03 146.66C233.49 146.71 233.95 146.75 234.42 146.75C234.45 146.75 234.48 146.75 234.5 146.75C234.57 146.75 234.63 146.75 234.7 146.74C235.12 146.74 235.53 146.71 235.95 146.66C236.11 146.64 236.27 146.61 236.44 146.59C236.77 146.54 237.11 146.47 237.44 146.39C237.59 146.35 237.74 146.32 237.9 146.27C238.31 146.15 238.71 146.02 239.11 145.86C239.17 145.84 239.23 145.82 239.29 145.8C239.76 145.61 240.22 145.38 240.67 145.12C240.7 145.1 240.73 145.09 240.77 145.07L252.57 138.26L310.69 104.7C309.38 104.29 308.11 103.74 306.91 103.04L306.89 103.03Z" fill="white"/>
<path d="M234.5 52C241.404 52 247 46.4036 247 39.5C247 32.5964 241.404 27 234.5 27C227.596 27 222 32.5964 222 39.5C222 46.4036 227.596 52 234.5 52Z" fill="white"/>
<path d="M528 171H375C370.04 171 366 166.96 366 162V9C366 4.04 370.04 0 375 0H528C532.96 0 537 4.04 537 9V162C537 166.96 532.96 171 528 171ZM375 4C372.24 4 370 6.24 370 9V162C370 164.76 372.24 167 375 167H528C530.76 167 533 164.76 533 162V9C533 6.24 530.76 4 528 4H375Z" fill="#E0E0E0"/>
<path d="M443.04 40.01C443.39 40.02 443.75 40.05 444.1 40.09C443.75 40.04 443.39 40.02 443.04 40.01Z" fill="#59595B"/>
<path d="M444.11 40.1C444.47 40.15 444.82 40.21 445.18 40.29C444.82 40.21 444.47 40.14 444.11 40.1Z" fill="#59595B"/>
<path d="M442.51 40C442.42 40 442.33 40.02 442.24 40.02C442.42 40.02 442.59 40.01 442.77 40.02C442.68 40.02 442.6 40.02 442.51 40.02V40Z" fill="#59595B"/>
<path d="M436.23 41.69C436.35 41.62 436.48 41.55 436.61 41.49C436.48 41.56 436.36 41.62 436.23 41.69Z" fill="#59595B"/>
<path d="M433.59 43.75C433.69 43.65 433.79 43.54 433.9 43.44C433.8 43.54 433.7 43.65 433.59 43.75Z" fill="#59595B"/>
<path d="M446.5 40.66C446.85 40.78 447.19 40.92 447.54 41.07C447.2 40.92 446.85 40.78 446.5 40.66Z" fill="#59595B"/>
<path d="M416.5 84C409.6 84 404 89.6 404 96.5V118.61C404.99 117.71 406.07 116.9 407.25 116.22L429 103.66V96.5C429 89.6 423.4 84 416.5 84Z" fill="#59595B"/>
<path d="M435.02 42.48C435.41 42.19 435.82 41.93 436.23 41.69C435.81 41.93 435.41 42.19 435.02 42.48Z" fill="#59595B"/>
<path d="M447.54 41.07C447.63 41.11 447.71 41.15 447.79 41.19C447.71 41.15 447.62 41.11 447.54 41.07Z" fill="#59595B"/>
<path d="M441.17 40.08C441.53 40.04 441.88 40.02 442.24 40.01C441.88 40.01 441.52 40.04 441.17 40.08Z" fill="#59595B"/>
<path d="M432.85 44.58C433.09 44.29 433.33 44.02 433.59 43.75C433.33 44.01 433.09 44.29 432.85 44.58Z" fill="#59595B"/>
<path d="M433.9 43.44C434.26 43.1 434.63 42.78 435.02 42.48C434.63 42.77 434.26 43.1 433.9 43.44Z" fill="#59595B"/>
<path d="M437.97 40.86C438.42 40.69 438.87 40.53 439.34 40.41C438.88 40.53 438.42 40.69 437.97 40.86Z" fill="#59595B"/>
<path d="M436.61 41.49C436.93 41.32 437.25 41.17 437.58 41.02C437.25 41.16 436.93 41.32 436.61 41.49Z" fill="#59595B"/>
<path d="M510.7 84.47C510.7 84.29 510.68 84.11 510.66 83.92C510.64 83.69 510.62 83.47 510.58 83.24C510.56 83.08 510.52 82.91 510.49 82.75C510.45 82.52 510.4 82.28 510.34 82.05C510.3 81.88 510.25 81.72 510.2 81.55C510.14 81.33 510.07 81.12 510 80.9C509.93 80.71 509.85 80.52 509.78 80.33C509.71 80.15 509.64 79.97 509.55 79.8C509.44 79.57 509.32 79.34 509.2 79.11C509.13 78.99 509.07 78.86 509 78.74C508.75 78.32 508.48 77.91 508.19 77.53C508.1 77.41 508 77.3 507.91 77.18C507.67 76.89 507.43 76.61 507.17 76.34C507.13 76.3 507.1 76.27 507.06 76.23C507.09 76.26 507.12 76.28 507.14 76.31C507.05 76.22 506.96 76.12 506.86 76.03C506.78 75.96 506.71 75.88 506.63 75.81C506.51 75.7 506.38 75.6 506.25 75.49C506.08 75.35 505.92 75.2 505.75 75.07C505.72 75.05 505.69 75.03 505.67 75.01C505.56 74.92 505.44 74.85 505.33 74.77C505.1 74.61 504.87 74.46 504.63 74.31C504.6 74.29 504.57 74.27 504.54 74.25L504.41 74.17H504.39L492.78 67.37L448.82 41.69C448.49 41.5 448.15 41.33 447.81 41.17C447.73 41.13 447.64 41.09 447.56 41.05C447.22 40.9 446.87 40.76 446.52 40.64C446.17 40.52 445.82 40.42 445.47 40.34C445.38 40.32 445.3 40.3 445.21 40.28C444.85 40.2 444.5 40.13 444.14 40.09H444.12C443.77 40.04 443.41 40.02 443.06 40C442.97 40 442.88 40 442.79 40C442.61 40 442.44 40 442.26 40C441.9 40 441.54 40.03 441.19 40.07C441.05 40.09 440.91 40.1 440.77 40.12C440.3 40.19 439.84 40.27 439.38 40.39H439.35C438.89 40.52 438.43 40.67 437.98 40.85C437.85 40.9 437.72 40.96 437.59 41.01C437.26 41.15 436.94 41.31 436.62 41.48C436.49 41.55 436.37 41.61 436.24 41.68C435.82 41.92 435.42 42.18 435.03 42.47C434.64 42.77 434.27 43.09 433.91 43.43C433.81 43.53 433.71 43.64 433.6 43.74C433.34 44 433.1 44.28 432.86 44.57C432.77 44.69 432.67 44.8 432.58 44.92C432.27 45.32 431.98 45.74 431.72 46.19C428.24 52.15 430.25 59.81 436.21 63.29L467.39 81.51L473.35 84.99L491.93 95.85C493.91 97.01 496.08 97.56 498.22 97.56C500.36 97.56 502.48 97.01 504.35 95.96L504.38 95.94C504.81 95.7 505.23 95.42 505.63 95.13C505.75 95.04 505.85 94.95 505.97 94.86C506.25 94.64 506.53 94.41 506.79 94.16C506.9 94.05 507.02 93.94 507.13 93.83C507.41 93.54 507.68 93.25 507.94 92.93C508 92.86 508.06 92.79 508.12 92.71C508.43 92.31 508.72 91.88 508.98 91.44C509.06 91.31 509.13 91.18 509.2 91.04C509.32 90.82 509.44 90.6 509.54 90.38C509.63 90.2 509.7 90.01 509.78 89.83C509.86 89.65 509.93 89.46 510 89.28C510.08 89.06 510.15 88.84 510.21 88.62C510.26 88.46 510.31 88.3 510.35 88.14C510.41 87.9 510.46 87.67 510.5 87.43C510.53 87.27 510.56 87.11 510.59 86.95C510.63 86.72 510.65 86.49 510.67 86.26C510.69 86.08 510.7 85.91 510.71 85.73C510.72 85.52 510.72 85.31 510.72 85.1C510.72 84.9 510.72 84.69 510.71 84.49L510.7 84.47Z" fill="#59595B"/>
<path d="M488.89 101.03L467.35 88.45L435 107.13L429 110.59L410.25 121.42C406.2 123.76 403.96 128.02 404.01 132.38C404.01 132.65 404.03 132.92 404.05 133.18C404.06 133.33 404.07 133.48 404.08 133.63C404.11 133.88 404.15 134.12 404.19 134.36C404.22 134.53 404.24 134.7 404.28 134.87C404.32 135.07 404.38 135.27 404.43 135.47C404.48 135.68 404.54 135.88 404.6 136.08C404.65 136.24 404.71 136.39 404.77 136.55C404.86 136.79 404.94 137.02 405.05 137.26C405.11 137.39 405.17 137.52 405.24 137.65C405.36 137.9 405.48 138.14 405.61 138.38C405.67 138.48 405.73 138.57 405.79 138.67C406.01 139.03 406.24 139.37 406.48 139.7C406.56 139.81 406.64 139.92 406.72 140.03C407.02 140.41 407.34 140.77 407.68 141.11C407.77 141.2 407.86 141.27 407.95 141.36C408.22 141.61 408.5 141.86 408.79 142.08C408.92 142.18 409.06 142.29 409.2 142.39C409.5 142.6 409.8 142.8 410.12 142.99C410.22 143.05 410.32 143.11 410.42 143.17C410.85 143.41 411.3 143.63 411.75 143.81C411.81 143.83 411.87 143.85 411.94 143.88C412.34 144.04 412.74 144.17 413.16 144.28C413.28 144.31 413.41 144.34 413.53 144.38C413.9 144.47 414.27 144.54 414.64 144.6C414.77 144.62 414.9 144.64 415.03 144.66C415.49 144.71 415.95 144.75 416.42 144.75C416.45 144.75 416.48 144.75 416.5 144.75C416.57 144.75 416.63 144.75 416.7 144.74C417.12 144.74 417.53 144.71 417.95 144.66C418.11 144.64 418.27 144.61 418.44 144.59C418.77 144.54 419.11 144.47 419.44 144.39C419.59 144.35 419.74 144.32 419.9 144.27C420.31 144.15 420.71 144.02 421.11 143.86C421.17 143.84 421.23 143.82 421.29 143.8C421.76 143.61 422.22 143.38 422.67 143.12C422.7 143.1 422.73 143.09 422.77 143.07L434.57 136.26L492.69 102.7C491.38 102.29 490.11 101.74 488.91 101.04L488.89 101.03Z" fill="#59595B"/>
<path d="M416.5 50C423.404 50 429 44.4036 429 37.5C429 30.5964 423.404 25 416.5 25C409.596 25 404 30.5964 404 37.5C404 44.4036 409.596 50 416.5 50Z" fill="#59595B"/>
</g>
<defs>
<clipPath id="clip0_181_3870">
<rect width="721" height="172" fill="white"/>
</clipPath>
</defs>
</svg>
