<svg width="125" height="53" viewBox="0 0 125 53" fill="none" xmlns="http://www.w3.org/2000/svg">
<g clip-path="url(#clip0_330_2903)">
<path d="M107.533 23.1496C105.443 23.6356 99.926 23.9057 99.926 23.9057L99.2475 26.1018C99.2475 26.1018 101.979 25.8678 103.979 26.0658C103.979 26.0658 104.622 26.0118 104.693 26.7859C104.729 27.5779 104.64 28.406 104.64 28.406C104.64 28.406 104.586 28.892 103.926 29.018C103.158 29.144 97.9797 29.3781 97.9797 29.3781L97.1405 32.2223C97.1405 32.2223 96.8369 32.8703 97.5333 32.6903C98.1761 32.5103 103.604 31.4662 104.319 31.6102C105.068 31.7902 105.926 32.8343 105.676 33.7704C105.39 34.9045 99.9617 38.3967 96.6762 38.1627C96.6762 38.1627 94.9442 38.2707 93.4979 35.9126C92.1051 33.6624 93.98 29.4321 93.98 29.4321C93.98 29.4321 93.1408 27.4519 93.7657 26.7319C93.7657 26.7319 94.1229 26.4258 95.1942 26.3358L96.5334 23.5636C96.5334 23.5636 95.0156 23.6536 94.1229 22.5376C93.3015 21.4575 93.2301 20.9894 93.8729 20.7014C94.5514 20.3414 100.837 19.2073 105.158 19.3513C105.158 19.3513 106.675 19.1713 108.015 21.8175C108.015 21.8175 108.622 22.8976 107.55 23.1496H107.533ZM91.2481 33.8064C90.7124 35.1205 89.2304 36.5066 87.4448 35.6605C85.6235 34.7965 82.7487 28.892 82.7487 28.892C82.7487 28.892 81.6774 26.6959 81.4631 26.7679C81.4631 26.7679 81.231 26.3358 81.106 28.748C80.9274 31.1422 81.1417 35.8045 80.1596 36.5426C79.2668 37.2627 78.1955 36.9566 77.5884 36.1106C77.0884 35.2645 76.8742 33.2303 77.1599 29.6841C77.4813 26.1378 78.2848 22.3575 79.3026 21.1875C80.3739 19.9994 81.231 20.8634 81.5524 21.1875C81.5524 21.1875 82.9273 22.4475 85.2485 26.1738L85.6414 26.8579C85.6414 26.8579 87.7483 30.4041 87.9626 30.3861C87.9626 30.3861 88.1412 30.5662 88.284 30.4221C88.4983 30.3681 88.4269 29.2161 88.4269 29.2161C88.4269 29.2161 88.034 25.3818 86.0699 18.9013C86.0699 18.9013 85.7842 18.0732 85.9806 17.2812C86.1592 16.5611 86.927 16.9211 86.927 16.9211C86.927 16.9211 89.891 18.3612 91.3374 23.2216C92.7658 28.082 91.8016 32.4923 91.2659 33.8064H91.2481ZM76.7135 21.3315C76.4278 21.8355 76.3028 22.5376 75.0707 22.7356C75.0707 22.7356 63.1074 23.5816 62.5181 24.4277C62.5181 24.4277 62.1253 24.9317 62.7681 25.0577C63.4466 25.2018 66.1607 25.5618 67.4463 25.6338C68.8391 25.6338 73.5173 25.6698 75.2314 27.7939C75.2314 27.7939 76.2135 28.802 76.1778 31.0882C76.1421 33.4284 75.7314 34.2564 74.8208 35.1025C73.8744 35.8945 65.7679 39.5668 60.5361 33.9504C60.5361 33.9504 58.1435 31.2502 61.3754 29.1981C61.3754 29.1981 63.6966 27.7579 69.6426 29.4321C69.6426 29.4321 71.4282 30.0801 71.3567 30.7462C71.2496 31.4662 69.8747 32.1863 67.8749 32.1503C65.9464 32.0963 64.518 31.1602 64.8037 31.3222C65.0715 31.4122 62.7145 30.1701 61.9825 31.0162C61.2682 31.8082 61.4468 32.2763 62.161 32.7623C63.9466 33.8064 70.9639 33.4284 73.053 31.0702C73.053 31.0702 73.8923 30.1161 72.6245 29.3421C71.3746 28.622 67.732 28.172 66.3214 28.118C64.9822 28.046 59.9648 28.118 59.2148 26.8039C59.2148 26.8039 58.5006 25.8678 59.2862 23.3116C60.1076 20.6114 65.9464 19.5673 68.482 19.3513C68.482 19.3513 75.4457 19.0633 76.7492 20.5034C76.7492 20.5034 76.9277 20.8274 76.7135 21.3135V21.3315ZM56.965 37.1546C56.1258 37.7847 54.3402 37.5147 53.8224 36.7946C53.3224 36.1646 53.1438 33.6804 53.2331 29.7741C53.3581 25.7778 53.4117 20.8814 54.3045 20.0894C55.1973 19.3153 55.7329 19.9994 56.0901 20.5214C56.4472 21.0614 56.9114 21.6555 56.9828 22.8976C57.09 24.1577 57.3935 30.6382 57.3935 30.6382C57.3935 30.6382 57.7864 36.5426 56.9828 37.1546H56.965ZM58.7506 16.0931C56.2865 16.9391 54.608 16.6691 53.1796 16.0391C52.5546 17.1732 52.1796 17.5152 51.7154 17.5872C51.0012 17.6592 50.3762 16.5071 50.2869 16.1471C50.1441 15.8771 49.8048 15.391 50.2155 14.2929C48.8228 13.0328 48.7156 11.3407 48.9656 10.2066C49.287 8.87454 51.644 3.87017 58.7863 3.27612C58.7863 3.27612 62.286 3.02411 62.8931 4.89624H63.0002C63.0002 4.89624 66.3928 4.89624 66.3214 7.95647C66.3214 11.0167 62.5717 14.833 58.7506 16.1471V16.0931ZM61.9289 7.38043C59.6791 7.74046 56.215 10.7647 54.5545 13.2669C57.1078 13.7349 61.5718 13.5549 63.5716 9.48659C63.5716 9.48659 64.518 6.9304 61.9289 7.38043ZM52.0546 9.36058C51.3404 10.5307 51.3047 11.2327 51.644 11.7008C52.4832 10.4407 53.9652 8.46051 56.1972 6.91239C54.483 7.09241 53.0367 7.81246 52.0546 9.36058ZM112.889 37.0286C111.247 41.0969 109.854 45.2192 109.05 51.3937C109.05 51.3937 108.872 52.5998 107.89 52.2038C106.908 51.8437 105.301 50.2236 104.943 47.9374C104.586 44.9492 105.908 39.9088 108.604 34.1124C107.818 32.8523 107.265 30.9802 107.711 28.352C107.711 28.352 108.425 23.4916 113.246 19.0993C113.246 19.0993 113.818 18.6133 114.139 18.7753C114.532 18.9553 114.371 20.5034 114.05 21.2955C113.764 22.0515 111.622 25.7958 111.622 25.7958C111.622 25.7958 110.282 28.352 110.657 30.3501C113.193 26.4258 118.96 18.4693 122.531 20.9894C124.799 22.6096 124.799 27.8299 123.103 30.8542C121.764 33.2484 117.978 38.1987 112.925 37.0466L112.889 37.0286ZM120.353 24.8057C119.032 26.2458 116.675 28.982 114.818 32.6903C116.782 32.4743 118.692 31.3762 119.282 30.8182C120.228 29.9721 122.406 27.6859 122.067 24.6617C122.067 24.6617 121.853 23.0776 120.353 24.8057V24.8057ZM40.3591 39.1528C34.0382 41.0969 28.0743 40.1969 24.8246 39.3328C24.7353 40.6649 24.5925 41.2229 24.3782 41.439C24.1282 41.727 22.0569 42.9151 20.9142 41.2229C20.4142 40.4129 20.1642 38.9548 20.0214 37.6227C12.7005 34.2744 9.30792 29.3421 9.20078 29.162C9.02222 28.982 7.36164 27.2359 9.02222 25.0757C10.5757 23.1316 15.7181 21.1695 20.3249 20.3954C20.5035 16.4351 20.932 13.3749 21.4856 12.0248C22.1462 10.4047 22.9854 11.8448 23.7354 12.9248C24.3425 13.7349 24.7175 17.2092 24.7532 19.9814C27.7529 19.8374 29.5742 20.0534 32.9133 20.7014C37.3058 21.4575 40.2341 23.7256 40.002 26.2818C39.7877 28.802 37.5022 29.8461 36.6094 29.9181C35.7166 29.9901 34.2881 29.3241 34.2881 29.3241C33.2882 28.856 34.1989 28.424 35.3595 27.92C36.6451 27.2899 36.3594 26.6599 36.3594 26.6599C35.8952 25.2198 30.1992 24.2657 24.5389 24.2657C24.5389 27.4159 24.6639 32.6363 24.7532 35.6785C28.7171 36.4346 31.6812 36.2726 31.6812 36.2726C31.6812 36.2726 46.1444 35.8585 46.5551 26.5519C47.0015 17.2272 32.0919 8.2985 21.1106 5.49029C10.1471 2.59207 3.93333 4.64423 3.39765 4.91425C2.80841 5.20227 3.34409 5.31028 3.34409 5.31028C3.34409 5.31028 3.93333 5.40028 5.00467 5.76031C6.07602 6.12034 5.21894 6.66038 5.21894 6.66038C3.34409 7.30842 1.25496 6.9304 0.844277 6.06633C0.433594 5.22027 1.11211 4.44621 1.91562 3.31213C2.66557 2.14204 3.52264 2.17804 3.52264 2.17804C17.093 -2.59231 33.6632 5.95832 33.6632 5.95832C49.162 13.8429 51.8047 23.1136 51.519 26.7139C51.269 30.2601 49.912 36.2546 40.3591 39.1708V39.1528ZM10.54 26.2818C9.00437 27.0019 10.0757 28.154 10.0757 28.154C12.9683 31.2682 16.5038 33.2303 19.8964 34.4544C20.2892 29.054 20.2535 27.1279 20.2535 24.4097C15.0039 24.7697 11.9684 25.6338 10.54 26.2818Z" fill="#59595B"/>
</g>
<defs>
<clipPath id="clip0_330_2903">
<rect width="125" height="53" fill="white"/>
</clipPath>
</defs>
</svg>
