<svg width="177" height="21" viewBox="0 0 177 21" fill="none" xmlns="http://www.w3.org/2000/svg">
<g clip-path="url(#clip0_330_2909)">
<path d="M137.274 0.64209V4.64512H143.555V20.3628H148.099V4.64512H154.378V0.64209H137.274Z" fill="#59595B"/>
<path d="M67.1449 0.64209V12.7857L57.4709 0.64209H53.2842V20.3628H57.7662V7.82705L67.7647 20.3628H71.6293V0.64209H67.1449Z" fill="#59595B"/>
<path d="M106.038 13.3449H112.018C111.739 14.8424 110.199 17.0486 106.35 17.0486C102.576 17.0486 99.5394 14.1831 99.5394 10.5235C99.5394 6.79258 102.494 3.97606 106.422 3.97606C110.377 3.97606 112.206 6.96176 112.283 7.0892L115.805 5.00555C113.739 1.82868 110.32 0.00244141 106.421 0.00244141C100.252 0.00244141 95.2305 4.70148 95.2305 10.4792C95.2305 16.3769 100.081 21.0001 106.274 21.0001C112.018 21.0001 116.515 17.0609 116.515 11.7343V9.44244H106.038V13.3449H106.038Z" fill="#59595B"/>
<path d="M86.7474 9.04771C83.7696 7.98138 80.8303 7.61613 80.8303 5.71636C80.8303 4.61335 82.0316 3.78719 84.5732 3.78719C87.0183 3.78719 89.7869 4.85099 91.6388 5.78498V1.581C89.1398 0.588183 86.7499 0 84.2817 0C79.2927 0 75.917 2.41206 75.917 5.91242C75.917 9.73393 79.3299 11.0847 81.7056 11.9352C84.6808 12.9965 87.5354 13.3864 87.5354 15.286C87.5354 16.3866 86.1633 17.2126 83.6246 17.2152C81.2514 17.2152 78.3699 16.1465 76.519 15.215V19.4361C79.1065 20.4926 81.4695 21 83.9107 21C88.9523 21.0027 92.4435 18.5879 92.4435 15.0877C92.4437 11.2659 89.1244 9.90075 86.7474 9.04771Z" fill="#59595B"/>
<path d="M38.2331 0C32.2275 0 27.3438 4.6622 27.3438 10.3983C27.3438 16.2349 32.1723 20.978 38.1073 20.978C44.308 20.978 49.1661 16.3425 49.1661 10.4203C49.1661 4.6769 44.2605 0 38.2331 0ZM38.1816 16.8721C34.5455 16.8721 31.6935 14.0677 31.6935 10.4889C31.6935 6.92484 34.5852 4.13283 38.2779 4.13283C41.9321 4.13283 44.7892 6.9076 44.7892 10.4424C44.7892 14.1071 41.9526 16.8721 38.1816 16.8721Z" fill="#59595B"/>
<path d="M4.54235 0.644531H0V20.3602H14.8027V16.4187H4.54235V0.644531Z" fill="#59595B"/>
<path d="M171.933 16.5019H162.285V12.3618H171.126C171.065 11.6705 171.026 10.9696 171.026 10.2611C171.026 9.66546 171.054 9.08201 171.105 8.50346H162.285V4.50314H171.828C172.209 3.16469 172.721 1.87034 173.343 0.644794V0.64209H157.774V20.3626H173.486C172.852 19.1372 172.329 17.8453 171.933 16.5019Z" fill="#59595B"/>
<path d="M23.0648 0.644531H18.5225V20.3625H23.0648V0.644531Z" fill="#59595B"/>
<path d="M126.217 0.64209L117.432 20.3603H122.064L123.707 16.4799H132.922L134.565 20.3603H139.318L130.529 0.64716L126.217 0.64209ZM125.247 12.8398L128.312 5.71399L131.399 12.8398H125.247Z" fill="#59595B"/>
<path fill-rule="evenodd" clip-rule="evenodd" d="M175.548 1.24109C175.745 1.24109 175.886 1.26087 175.976 1.30042C176.136 1.36616 176.216 1.48312 176.218 1.67564C176.218 1.80899 176.17 1.90449 176.064 1.96702C176.011 1.99998 175.935 2.02787 175.839 2.03784C175.958 2.05762 176.046 2.10697 176.105 2.18759C176.163 2.26652 176.191 2.33903 176.191 2.41644V2.52833V2.64039C176.196 2.67825 176.198 2.70293 176.212 2.71611L176.221 2.73268H175.962C175.962 2.73268 175.962 2.7293 175.958 2.72118C175.958 2.71628 175.958 2.71628 175.952 2.7031L175.949 2.65527V2.53509C175.949 2.36557 175.898 2.25199 175.8 2.19435C175.744 2.16139 175.64 2.15159 175.495 2.145H175.276V2.73268H175.005V1.24109H175.548ZM175.841 1.47822C175.776 1.44374 175.665 1.42059 175.513 1.42059H175.277V1.9655H175.529C175.64 1.9655 175.728 1.95232 175.785 1.92933C175.893 1.88995 175.947 1.81254 175.949 1.69389C175.949 1.59349 175.913 1.5176 175.841 1.47822ZM176.585 2.95308C176.304 3.223 175.97 3.35466 175.575 3.35466C175.181 3.35466 174.849 3.223 174.571 2.95308C174.297 2.69296 174.161 2.37199 174.161 1.99018C174.161 1.62155 174.297 1.3038 174.572 1.03709C174.849 0.772065 175.181 0.645301 175.575 0.64209C175.969 0.64209 176.304 0.768854 176.585 1.03709C176.858 1.30058 176.998 1.61648 176.999 1.99018C177 2.36878 176.863 2.68298 176.585 2.95308ZM174.714 1.17044C174.477 1.39253 174.36 1.67242 174.36 1.99018C174.36 2.31605 174.477 2.59425 174.714 2.8231C174.946 3.05685 175.238 3.16722 175.575 3.16722C175.917 3.16722 176.203 3.05702 176.444 2.8231C176.681 2.59425 176.794 2.31605 176.794 1.99018C176.794 1.67259 176.681 1.39929 176.444 1.17044C176.203 0.931787 175.917 0.824799 175.575 0.824799C175.241 0.82463 174.955 0.931787 174.714 1.17044Z" fill="#59595B"/>
</g>
<defs>
<clipPath id="clip0_330_2909">
<rect width="177" height="21" fill="white"/>
</clipPath>
</defs>
</svg>
