<svg width="107" height="72" viewBox="0 0 107 72" fill="none" xmlns="http://www.w3.org/2000/svg">
<g clip-path="url(#clip0_333_2997)">
<path d="M12.9008 51.5952C12.9008 51.7646 12.9619 51.8867 12.7513 51.8867H9.30674C9.15727 51.8867 9.13689 51.8256 9.13689 51.7172L9.0078 45.555C8.34199 46.721 7.57427 47.826 6.72502 48.8632C6.57555 48.9852 6.55517 49.0124 6.4057 48.8632C5.54966 47.8125 4.76835 46.7007 4.06856 45.5347L3.9191 51.5748C3.9191 51.846 3.9191 51.8663 3.6881 51.8663H0.49492C0.304688 51.8663 0.304688 51.9341 0.304688 51.7443C0.345452 47.2091 0.535684 41.7249 0.725916 37.5084C0.725916 37.2575 0.895765 37.2372 1.02485 37.3592C2.87282 39.1828 5.60401 42.8706 6.55517 43.9484C7.44518 42.8909 10.0473 39.2031 12.0447 37.2575C12.1466 37.1491 12.3165 37.1491 12.3369 37.3592C12.6358 42.8706 12.7649 46.4906 12.9008 51.5952Z" fill="#59595B"/>
<path d="M18.4514 49.8122C18.2001 50.4088 17.9215 51.1274 17.7109 51.6358C17.6498 51.8053 17.6022 51.8663 17.3304 51.8663H13.8044C13.6345 51.8663 13.6141 51.7849 13.6956 51.5748C15.9037 46.8905 19.0154 40.647 20.9177 37.0473C20.9177 36.9795 21.4 36.9999 21.4272 37.0473C23.4654 41.0063 26.3461 46.8905 28.6832 51.5748C28.8123 51.8459 28.7919 51.8663 28.6017 51.8663H24.6272C24.5117 51.8798 24.403 51.8053 24.3758 51.6968C24.1176 51.1274 23.8051 50.341 23.5877 49.8122H18.4514ZM22.4667 47.0599L20.9584 43.8399L19.5113 47.0599H22.4667Z" fill="#59595B"/>
<path d="M30.0015 51.8663C29.7908 51.8663 29.7637 51.8256 29.7637 51.5748V37.7184C29.7637 37.5286 29.7637 37.5083 29.9539 37.5083H37.6651C37.8757 37.5083 37.8961 37.5083 37.8961 37.7862V40.369C37.8961 40.5589 37.8349 40.6673 37.6651 40.6673L33.48 40.5995V42.9925H37.5564C37.7466 42.9925 37.767 43.04 37.767 43.2908V45.8736C37.767 46.1312 37.767 46.1719 37.5564 46.1719H33.48V48.6259L37.8146 48.5649C37.9686 48.5649 38.0456 48.6575 38.0456 48.8428V51.5544C38.0456 51.8053 38.0456 51.8459 37.8146 51.8459L30.0015 51.8663Z" fill="#59595B"/>
<path d="M68.1288 51.8663C67.9862 51.8663 67.959 51.8663 67.959 51.6765V37.7184C67.959 37.549 67.959 37.5083 68.1288 37.5083H74.0464C78.1228 37.5083 80.5619 40.0301 80.5619 44.6873C80.5619 49.3445 77.7627 51.8663 73.5572 51.8663H68.1288ZM71.6957 48.8225H73.6524C75.7721 48.8225 76.5806 47.1006 76.5806 44.6263C76.5806 42.3146 75.5411 40.5182 73.6931 40.5182H71.6957V48.8225Z" fill="#59595B"/>
<path d="M85.026 49.8122C84.7746 50.4088 84.496 51.1274 84.2854 51.6358C84.2243 51.8053 84.1835 51.8663 83.9049 51.8663H80.3789C80.209 51.8663 80.1886 51.7849 80.2769 51.5748C82.485 46.8905 85.5627 40.647 87.4922 37.0473C87.4922 36.9795 87.9813 36.9999 88.0017 37.0473C90.0399 41.0063 92.9274 46.8905 95.2577 51.5748C95.3868 51.8459 95.3664 51.8663 95.1762 51.8663H91.2085C91.093 51.8798 90.9843 51.8053 90.9503 51.6968C90.6989 51.1274 90.3796 50.341 90.169 49.8122H85.026ZM89.0412 47.0599L87.5329 43.8399L86.0926 47.0599H89.0412Z" fill="#59595B"/>
<path d="M101.623 47.3108V51.6087C101.623 51.8798 101.623 51.9002 101.392 51.9002H97.8662C97.7439 51.9002 97.7235 51.9002 97.7235 51.6087V47.4124C97.7235 47.4124 94.6662 41.8875 92.6076 37.8201C92.4582 37.5422 92.4786 37.5422 92.7299 37.5422H96.3172C96.5618 37.5015 96.7995 37.6439 96.8743 37.8811C97.7439 39.6369 99.6734 44.0229 99.6734 44.0229C99.6734 44.0229 101.65 39.6844 102.33 37.9218C102.452 37.61 102.52 37.5422 102.771 37.5422H105.89C106.338 37.5422 106.399 37.61 106.189 38.0709C104.321 42.1723 101.623 47.3108 101.623 47.3108Z" fill="#59595B"/>
<path d="M63.2575 33.3935C64.066 32.0376 62.7276 29.0617 62.1297 28.4787C60.9611 28.2889 59.7722 28.2007 58.59 28.2143C57.4283 28.8651 56.382 29.7057 55.4852 30.6886C55.3017 30.6818 55.1251 30.648 54.9485 30.5937C54.3913 30.4785 53.8206 30.4378 53.2567 30.4785C52.7268 28.8583 49.0309 23.6995 46.9111 25.1705C46.1706 25.6993 47.0334 29.787 48.0254 33.1291C47.7604 34.3425 47.7264 35.5899 47.9099 36.8169C47.9982 37.5354 48.1409 38.2472 48.3243 38.9523C48.698 40.2132 49.6287 41.6639 49.1668 42.057C48.7048 42.4502 46.0959 44.7687 45.2059 47.2023C45.036 47.7243 44.7031 48.1785 44.2547 48.4903C43.487 49.0394 43.3307 49.9004 42.8959 50.1444C41.7341 51.046 40.9324 52.3205 40.6199 53.7509C40.3753 55.4998 41.1362 56.6862 40.7082 57.1404C40.2802 57.5946 39.1116 58.5504 39.7842 59.1063C39.8658 59.5266 40.2598 59.8045 40.6811 59.7435C41.0072 59.9265 41.4216 59.8113 41.605 59.4859C41.6118 59.4724 41.6254 59.452 41.6322 59.4385C41.6322 59.4385 42.3116 59.2893 42.4271 58.7606C42.4883 58.3538 42.5086 57.9403 42.4883 57.5336C42.4883 57.5336 43.4802 55.832 43.9693 55.7981C44.4585 55.7642 45.5048 55.8591 45.5048 56.3811C45.5048 56.9031 45.4436 58.0352 45.4097 58.7402C45.3757 59.4452 45.6543 58.2454 45.07 62.3534C44.4857 66.4615 44.3906 66.0344 44.18 66.8344C43.8063 67.7902 43.3307 68.6986 42.7532 69.546C42.4747 70.007 42.5902 70.9018 42.9706 70.9018C43.0929 70.9018 43.2288 71.7898 43.5957 71.7898C43.8199 71.7898 44.0237 71.6543 44.1188 71.4509C44.2071 71.7424 44.4517 71.9593 44.7575 72C45.0836 72 45.3689 71.7763 45.4369 71.4577C45.9124 71.4034 46.2589 70.9764 46.2046 70.5018V70.4883C46.2046 69.5731 46.1366 69.0104 46.1366 68.7935C46.1366 68.5766 46.422 68.5698 46.3676 68.1156C46.3269 67.858 46.3133 67.6004 46.3269 67.3428C46.3676 66.7191 46.4831 66.1022 46.6666 65.5057C46.85 65.0447 46.6666 64.6176 47.1286 63.0517C47.5905 61.4857 47.808 61.018 47.9642 60.4485C48.1205 59.8791 48.8203 57.6556 49.588 57.3844L52.0474 57.1675C52.0474 57.1675 55.03 56.8014 55.6143 56.0015C55.7909 57.9403 56.1646 59.8588 56.7149 61.723C56.7489 61.9738 56.7692 62.2314 56.776 62.489C56.776 62.8551 57.272 63.255 57.272 63.6211C57.272 63.9872 57.3603 65.2752 57.6728 65.3362C57.9854 65.3972 58.0397 65.465 58.0397 65.7362C58.1892 66.4886 58.6987 67.1123 59.3985 67.4241C59.5616 67.4241 59.711 67.3428 59.7994 67.2072C59.8537 67.4648 60.3225 67.7021 60.6622 67.7021C61.0019 67.7021 60.9068 67.4241 60.9068 67.4241C61.131 67.275 61.2193 66.9971 61.1242 66.7462C60.8796 65.8853 60.4108 65.0989 59.7654 64.4753C59.0113 63.8652 58.5221 62.9839 58.4066 62.0213C58.4066 61.4112 58.4066 58.7877 58.5561 57.9539C58.624 57.2082 58.624 56.4625 58.5561 55.7168C58.5561 55.7168 60.0032 53.0052 60.0032 51.0257C59.8809 48.6666 59.548 46.3211 59.0181 44.023C58.8074 43.4671 58.7463 42.8638 58.8346 42.274C58.889 41.5961 59.9556 40.0776 60.3769 36.5932C60.4448 35.4746 60.4176 34.3561 60.2953 33.2443C60.4312 32.9596 60.5467 32.6681 60.6418 32.3698C61.3076 33.102 62.2724 33.4816 63.2575 33.3935Z" fill="#59595B"/>
<path d="M51.0625 51.4528L30.9727 20.2151L51.1984 49.3513L51.0625 51.4528Z" fill="#59595B"/>
<path d="M56.8106 51.4528L56.6611 49.3513L76.1124 20.2151L56.8106 51.4528Z" fill="#59595B"/>
<path d="M50.8108 0.122022C48.5348 1.54562 42.461 6.63666 42.658 20.0795C43.4733 18.5677 45.5115 17.4831 47.8894 17.4831C50.2673 17.4831 52.0949 18.5203 52.9441 19.9981L53.3382 0C52.4821 0.013558 51.6261 0.0542322 50.8108 0.122022Z" fill="#59595B"/>
<path d="M45.9398 4.00637C47.088 2.44719 48.5419 1.13884 50.2133 0.155884C39.5942 1.15918 31.5026 7.38232 30.9727 20.1947C31.7404 18.6084 34.1251 17.4831 36.5913 17.4831C38.5276 17.3814 40.3891 18.2627 41.5373 19.8218C41.5169 14.7715 42.4138 8.67034 45.9398 4.00637Z" fill="#59595B"/>
<path d="M56.2731 0.122014C55.4714 0.0542239 54.6629 0.0203288 53.8408 0.0135498L54.1533 19.9778C55.023 18.5203 56.8506 17.4831 59.1877 17.4831C61.5248 17.4831 63.6242 18.5542 64.4463 20.0659C64.6161 6.63666 58.5491 1.54561 56.2731 0.122014Z" fill="#59595B"/>
<path d="M61.1376 4.00637C59.9827 2.44719 58.5287 1.13884 56.8574 0.155884C67.49 1.15918 75.5749 7.38232 76.0844 20.1947C75.3167 18.6084 72.932 17.4831 70.4658 17.4831C68.5295 17.3814 66.668 18.2627 65.5198 19.8218C65.5605 14.7715 64.6637 8.67034 61.1376 4.00637Z" fill="#59595B"/>
</g>
<defs>
<clipPath id="clip0_333_2997">
<rect width="106" height="72" fill="white" transform="translate(0.304688)"/>
</clipPath>
</defs>
</svg>
