<svg width="115" height="75" viewBox="0 0 115 75" fill="none" xmlns="http://www.w3.org/2000/svg">
<g clip-path="url(#clip0_330_2924)">
<path d="M54.5098 0C54.4983 0.271226 54.4868 0.542453 54.4868 0.825472C54.4868 19.8939 54.4868 38.9505 54.4868 58.0189C54.4868 58.8208 54.4868 58.8208 53.7163 58.8208C51.9108 58.8208 50.1168 58.8208 48.3113 58.8208C48.1043 58.8208 47.8973 58.8208 47.6328 58.8208C47.6328 50.1415 47.6328 41.5212 47.6328 32.8302C31.8318 32.8302 16.0883 32.8302 0.298828 32.8302C0.298828 30.4717 0.298828 28.184 0.298828 25.8137C16.0423 25.8137 31.7858 25.8137 47.6213 25.8137C47.6213 17.158 47.6213 8.57311 47.6213 0C49.9098 0 52.2098 0 54.5098 0Z" fill="#59595B"/>
<path d="M67.1598 0C67.1483 0.200472 67.1368 0.389151 67.1368 0.589623C67.1368 8.75 67.1368 16.8986 67.1368 25.059C67.1368 25.2712 67.1368 25.4835 67.1368 25.7783C82.9263 25.7783 98.6698 25.7783 114.448 25.7783C114.448 28.1368 114.448 30.4245 114.448 32.783C98.7043 32.783 82.9608 32.783 67.1598 32.783C67.1598 41.4741 67.1598 50.0825 67.1598 58.7618C64.8483 58.7618 62.6058 58.7618 60.2713 58.7618C60.2713 58.4906 60.2713 58.2193 60.2713 57.9599C60.2713 38.9151 60.2713 19.8703 60.2713 0.825472C60.2713 0.554245 60.2598 0.271226 60.2598 0C62.5598 0 64.8598 0 67.1598 0Z" fill="#59595B"/>
<path d="M26.335 74.9999C26.358 74.1391 26.381 73.2782 26.3925 72.4174C26.404 71.1792 26.3925 69.941 26.3925 68.7028C26.3925 68.4905 26.4155 68.2783 26.4155 68.066C27.692 68.066 28.9225 67.9952 30.13 68.0896C31.1765 68.1603 31.832 68.8561 32.016 69.8467C32.2115 70.8962 31.832 71.7806 30.9235 72.3466C30.843 72.3938 30.7625 72.4528 30.659 72.5117C31.1765 73.349 31.6825 74.1745 32.1885 74.9882C31.6135 74.9882 31.0385 74.9882 30.4635 74.9882C30.1415 74.4693 29.8195 73.9386 29.486 73.4198C28.9915 72.665 28.8535 72.6179 27.9335 72.8537C27.9335 73.5613 27.9335 74.2806 27.9335 74.9999C27.4045 74.9999 26.8755 74.9999 26.335 74.9999ZM27.9335 71.4504C28.612 71.4151 29.2215 71.4268 29.831 71.3443C30.3025 71.2853 30.5555 70.9198 30.567 70.4245C30.5785 69.9292 30.3255 69.54 29.8655 69.4929C29.233 69.4221 28.589 69.4693 27.945 69.4693C27.9335 70.1297 27.9335 70.7311 27.9335 71.4504Z" fill="#59595B"/>
<path d="M56.3496 75.0001C56.3611 72.96 56.3726 70.9199 56.3841 68.8798C56.3841 68.6321 56.3841 68.3727 56.3841 67.96C57.8216 68.0425 59.2131 68.0189 60.5816 68.2194C61.4326 68.3491 61.9386 69.0685 62.0306 69.9883C62.1341 70.9081 61.8926 71.6982 61.0991 72.2406C60.9611 72.335 60.8116 72.4175 60.6391 72.5354C61.1681 73.3727 61.6856 74.1864 62.2031 75.0119C61.6281 75.0119 61.0531 75.0119 60.4781 75.0119C60.1561 74.5048 59.8341 73.9977 59.5121 73.4906C58.9831 72.677 58.9026 72.6416 57.8331 72.8774C57.8331 73.5732 57.8331 74.2925 57.8331 75.0119C57.3501 75.0001 56.8441 75.0001 56.3496 75.0001ZM57.9021 71.4387C58.5691 71.4034 59.2016 71.427 59.8111 71.3326C60.3056 71.2619 60.5356 70.8845 60.5241 70.3538C60.5126 69.8468 60.2481 69.5048 59.7766 69.4694C59.1671 69.4104 58.5346 69.4576 57.8906 69.4576C57.9021 70.1062 57.9021 70.7076 57.9021 71.4387Z" fill="#59595B"/>
<path d="M49.2197 75.0001C49.2312 72.9364 49.2427 70.8845 49.2542 68.8209C49.2542 68.585 49.2542 68.361 49.2542 68.019C49.8867 68.019 50.4732 68.019 51.0482 68.019C51.6002 68.019 52.1637 68.0072 52.7157 68.0426C53.8427 68.1133 54.6362 68.7383 54.8432 69.6817C55.1077 70.8374 54.7282 71.7572 53.7277 72.3822C53.6702 72.4176 53.6127 72.4647 53.5207 72.5355C54.0497 73.3727 54.5672 74.1864 55.0847 75.0001C54.5097 75.0001 53.9347 75.0001 53.3597 75.0001C53.0377 74.493 52.7157 73.986 52.3822 73.4789C51.8417 72.6534 51.7727 72.6298 50.7147 72.8657C50.7147 73.5614 50.7147 74.2808 50.7147 75.0001C50.2202 75.0001 49.7142 75.0001 49.2197 75.0001ZM50.7377 69.4694C50.7377 70.0473 50.7262 70.5897 50.7492 71.1322C50.7492 71.2383 50.9217 71.4152 51.0137 71.4152C51.5887 71.4152 52.1637 71.427 52.7157 71.3327C53.1872 71.2619 53.4057 70.8728 53.3942 70.3893C53.3827 69.894 53.1182 69.5402 52.6582 69.493C52.0487 69.4223 51.4277 69.4694 50.7377 69.4694Z" fill="#59595B"/>
<path d="M91.54 74.9998C91.54 72.7121 91.54 70.4243 91.54 68.0187C93.0005 68.113 94.4265 67.7828 95.7835 68.3371C97.06 68.8559 97.842 70.1295 97.8305 71.5328C97.819 72.9715 96.991 74.2097 95.6915 74.7168C95.427 74.8229 95.151 74.9055 94.875 74.9998C93.7595 74.9998 92.6555 74.9998 91.54 74.9998ZM93.081 69.4456C93.081 70.8607 93.081 72.205 93.081 73.5847C94.139 73.6201 95.22 73.8088 95.91 72.7475C96.4045 71.9809 96.416 71.1319 95.9445 70.3536C95.2775 69.2215 94.1735 69.4102 93.081 69.4456Z" fill="#59595B"/>
<path d="M104.19 75C104.052 74.9175 103.902 74.8231 103.753 74.7406C102.258 73.9859 101.51 72.3467 101.89 70.6486C102.269 69.0095 103.707 67.8892 105.443 67.901C107.168 67.9128 108.56 69.0213 108.916 70.6604C109.284 72.3349 108.514 73.9977 107.019 74.7406C106.869 74.8113 106.731 74.9057 106.582 74.9882C105.8 75 104.995 75 104.19 75ZM107.444 71.5213C107.444 70.2477 106.57 69.3161 105.374 69.3279C104.201 69.3397 103.35 70.2477 103.362 71.4977C103.362 72.7595 104.247 73.7029 105.432 73.6911C106.593 73.6911 107.456 72.7713 107.444 71.5213Z" fill="#59595B"/>
<path d="M42.665 74.9998C42.665 72.7003 42.665 70.4125 42.665 68.0776C44.413 68.0776 46.092 68.0776 47.794 68.0776C47.794 68.5022 47.794 68.9031 47.794 69.3866C46.5865 69.3866 45.4135 69.3866 44.206 69.3866C44.206 69.8819 44.206 70.3064 44.206 70.8017C45.2525 70.8017 46.276 70.8017 47.3455 70.8017C47.3455 71.2734 47.3455 71.6743 47.3455 72.1578C46.322 72.1578 45.2755 72.1578 44.206 72.1578C44.206 72.6767 44.206 73.1248 44.206 73.6201C45.4135 73.6201 46.598 73.6201 47.84 73.6201C47.84 74.1154 47.84 74.5635 47.84 74.9998C46.115 74.9998 44.39 74.9998 42.665 74.9998Z" fill="#59595B"/>
<path d="M19.8952 75.0002C19.8837 72.8186 19.8722 70.637 19.8837 68.4554C19.8837 68.3139 20.0792 68.0426 20.1942 68.0426C21.7582 68.019 23.3337 68.019 24.9552 68.019C24.9552 68.4672 24.9552 68.8563 24.9552 69.3516C23.8052 69.3516 22.6322 69.3516 21.4132 69.3516C21.4132 69.8587 21.4132 70.2832 21.4132 70.7785C22.4252 70.7785 23.4487 70.7785 24.5182 70.7785C24.5182 71.2738 24.5182 71.6865 24.5182 72.17C23.4717 72.17 22.4482 72.17 21.4017 72.17C21.4017 72.6771 21.4017 73.1134 21.4017 73.6323C22.6207 73.6323 23.8167 73.6323 25.0702 73.6323C25.0702 74.1393 25.0702 74.5639 25.0702 75.0002C23.3452 75.0002 21.6202 75.0002 19.8952 75.0002Z" fill="#59595B"/>
<path d="M86.1347 74.9999C84.7203 74.4103 84.2603 73.2782 84.2948 71.8041C84.3178 70.5777 84.3063 69.3395 84.3063 68.0659C84.8237 68.0659 85.2722 68.0659 85.8012 68.0659C85.8012 69.1272 85.7897 70.1532 85.8012 71.1909C85.8127 71.6626 85.8013 72.1343 85.8933 72.5942C86.0312 73.3371 86.5602 73.7027 87.3077 73.6909C88.0667 73.6791 88.5957 73.2782 88.6647 72.5235C88.7567 71.5329 88.7222 70.5187 88.7452 69.5282C88.7567 69.0565 88.7452 68.5848 88.7452 68.0777C89.2397 68.0777 89.6882 68.0777 90.1827 68.0777C90.2057 68.1956 90.2402 68.3371 90.2402 68.4551C90.2402 69.5989 90.2402 70.731 90.2402 71.8749C90.2517 73.29 89.7572 74.3867 88.4462 74.9999C87.6642 74.9999 86.9052 74.9999 86.1347 74.9999Z" fill="#59595B"/>
<path d="M73.3698 74.9999C72.8178 74.7051 72.2772 74.3985 71.6562 74.0565C71.9897 73.632 72.2543 73.29 72.5418 72.9245C72.7488 73.066 72.9097 73.2193 73.0937 73.2782C73.6917 73.4433 74.2897 73.632 74.8992 73.6792C75.1062 73.7028 75.4742 73.3726 75.5087 73.1485C75.5432 72.9481 75.2672 72.5825 75.0487 72.4764C74.4507 72.2169 73.8068 72.0754 73.1973 71.8396C72.2313 71.4622 71.8633 70.8254 71.9553 69.7759C72.0243 69.0801 72.3808 68.573 72.9673 68.2311C74.0482 67.6179 75.8652 67.9009 76.7967 68.8443C76.5667 69.1863 76.3252 69.54 76.0952 69.8938C75.6467 69.6933 75.2327 69.4811 74.8072 69.3514C74.5427 69.2688 74.2208 69.257 73.9678 69.3396C73.7723 69.3985 73.4963 69.6344 73.4848 69.8113C73.4733 70.0235 73.6458 70.3065 73.8298 70.4598C74.0252 70.6131 74.3242 70.6485 74.5772 70.7311C74.9797 70.8608 75.3938 70.9669 75.7733 71.1202C76.5207 71.4268 77.0152 71.9457 77.0382 72.8301C77.0497 73.7146 76.7162 74.3867 75.9227 74.7877C75.8307 74.8348 75.7388 74.9174 75.6583 74.9881C74.8993 74.9999 74.1402 74.9999 73.3698 74.9999Z" fill="#59595B"/>
<path d="M111.32 75.0002C110.757 74.6936 110.205 74.387 109.584 74.045C109.929 73.6087 110.193 73.2785 110.481 72.9247C110.711 73.078 110.906 73.2667 111.136 73.3375C111.677 73.5026 112.229 73.6677 112.792 73.6912C113.022 73.703 113.39 73.3964 113.482 73.1606C113.632 72.7832 113.287 72.5592 112.965 72.453C112.355 72.2408 111.711 72.0757 111.113 71.8398C110.159 71.4625 109.802 70.7903 109.929 69.7526C110.021 68.9979 110.435 68.4908 111.09 68.1842C112.171 67.6771 113.85 67.9719 114.77 68.8563C114.54 69.2101 114.299 69.5521 114.057 69.9412C113.781 69.7997 113.54 69.6229 113.275 69.5521C112.861 69.446 112.424 69.3398 111.999 69.3634C111.803 69.3752 111.47 69.6582 111.458 69.8351C111.447 70.0592 111.642 70.4012 111.849 70.4955C112.286 70.7195 112.792 70.8139 113.264 70.9672C114.046 71.203 114.701 71.604 115.012 72.4295C115.012 72.7832 115.012 73.137 115.012 73.4908C114.747 74.2337 114.23 74.7408 113.517 75.0238C112.781 75.0002 112.045 75.0002 111.32 75.0002Z" fill="#59595B"/>
<path d="M36.2247 75.0001C36.2017 74.1156 36.1787 73.243 36.1672 72.3586C36.1557 70.9435 36.1672 69.5402 36.1672 67.96C37.4667 68.0307 38.7317 68.0071 39.9622 68.2076C40.9282 68.3609 41.4802 69.2689 41.5262 70.2831C41.5722 71.4034 41.1007 72.2524 40.1462 72.6298C39.7437 72.7831 39.2952 72.842 38.8582 72.8892C38.4902 72.9246 38.0992 72.901 37.5932 72.901C37.5932 73.6439 37.5932 74.3279 37.5932 75.0001C37.1447 75.0001 36.6847 75.0001 36.2247 75.0001ZM37.7312 69.4458C37.7312 70.1887 37.7312 70.8609 37.7312 71.5803C38.2832 71.5449 38.7662 71.5567 39.2377 71.4741C39.7782 71.368 40.0427 70.9435 40.0197 70.4128C39.9967 69.8821 39.6862 69.5166 39.1112 69.4576C38.6627 69.4104 38.2142 69.4458 37.7312 69.4458Z" fill="#59595B"/>
<path d="M65.0902 75C65.1017 74.1981 65.1247 73.3844 65.0902 72.5825C65.0787 72.3231 64.9752 72.0518 64.8372 71.8278C64.0897 70.5896 63.3307 69.375 62.4912 68.0306C63.1007 68.0306 63.6067 68.007 64.1012 68.0542C64.2392 68.066 64.3887 68.2901 64.4807 68.4434C64.9292 69.1981 65.3662 69.9528 65.8607 70.8136C66.2977 70.0825 66.7347 69.4457 67.0682 68.75C67.3557 68.1485 67.7582 67.9245 68.3792 68.0188C68.5977 68.0542 68.8277 68.0188 69.1497 68.0188C69.0347 68.2547 68.9657 68.3962 68.8737 68.5377C68.2412 69.5518 67.6317 70.566 66.9762 71.5566C66.6772 72.0047 66.5507 72.4528 66.5737 72.9834C66.6082 73.6556 66.5737 74.316 66.5622 74.9882C66.0907 75 65.5847 75 65.0902 75Z" fill="#59595B"/>
<path d="M8.97041 74.9998C8.95891 74.8583 8.93591 74.7286 8.94741 74.5871C9.16591 72.9479 8.71741 71.521 7.70541 70.2239C7.21091 69.5871 6.84291 68.8442 6.33691 68.0305C6.93491 68.0305 7.42941 68.0069 7.90091 68.0541C8.03891 68.0658 8.19991 68.2663 8.29191 68.4196C8.75191 69.1861 9.20041 69.9526 9.69491 70.8135C10.1549 70.0352 10.5919 69.363 10.9714 68.6437C11.2244 68.172 11.5234 67.9479 12.0524 68.0187C12.3284 68.0541 12.6159 68.0305 13.0069 68.0305C12.7539 68.455 12.5699 68.7734 12.3629 69.1036C12.1099 69.5163 11.8914 69.9762 11.5809 70.33C10.4079 71.6979 10.2814 73.3017 10.4654 74.9998C9.97091 74.9998 9.46491 74.9998 8.97041 74.9998Z" fill="#59595B"/>
<path d="M0 68.0425C1.8515 68.0425 3.703 68.0425 5.589 68.0425C5.589 68.5024 5.589 68.9269 5.589 69.4222C4.945 69.4222 4.2895 69.4222 3.565 69.4222C3.565 71.3326 3.565 73.1604 3.565 75C3.0705 75 2.5645 75 2.07 75C2.07 73.1722 2.07 71.3326 2.07 69.4576C1.334 69.4576 0.667 69.4576 0 69.4576C0 68.9859 0 68.5142 0 68.0425Z" fill="#59595B"/>
<path d="M79.8099 75C79.8099 73.1721 79.8099 71.3561 79.8099 69.4693C79.1199 69.4693 78.4759 69.4693 77.7399 69.4693C77.7399 69.0448 77.7169 68.6792 77.7514 68.3137C77.7629 68.2075 77.9354 68.0424 78.0274 68.0424C79.7869 68.0306 81.5464 68.0306 83.3405 68.0306C83.3405 68.5141 83.3405 68.9387 83.3405 69.4221C82.6735 69.4221 82.0409 69.4221 81.3049 69.4221C81.3049 71.3207 81.3049 73.1604 81.3049 74.9882C80.8104 75 80.3044 75 79.8099 75Z" fill="#59595B"/>
<path d="M13.915 74.9999C13.915 72.7003 13.915 70.4126 13.915 68.0659C14.375 68.0659 14.8235 68.0659 15.364 68.0659C15.364 68.5966 15.364 69.1154 15.364 69.6461C15.364 70.8018 15.3755 71.9692 15.364 73.1249C15.364 73.4786 15.4675 73.6202 15.824 73.6084C16.606 73.5848 17.3995 73.6202 18.1815 73.5966C18.6185 73.5848 18.837 73.6909 18.768 74.1862C18.7335 74.4574 18.7565 74.7404 18.7565 75.0117C17.135 74.9999 15.525 74.9999 13.915 74.9999Z" fill="#59595B"/>
<path d="M99.0146 75C99.0261 73.1367 99.0492 71.2853 99.0607 69.4221C99.0607 68.974 99.0607 68.5377 99.0607 68.0542C99.5896 68.0542 100.05 68.0542 100.579 68.0542C100.579 68.29 100.579 68.5023 100.579 68.7146C100.579 70.6014 100.579 72.4764 100.579 74.3632C100.579 74.5754 100.613 74.7877 100.625 75C100.084 75 99.5551 75 99.0146 75Z" fill="#59595B"/>
<path d="M73.5888 56.3913C74.8308 56.1672 74.2673 57.3701 74.8078 57.7592C74.8768 57.4998 74.9803 57.2286 75.0148 56.9573C75.0838 56.4385 75.3253 56.2262 75.9118 56.4267C75.9118 57.1106 75.9233 57.83 75.9003 58.5493C75.9003 58.6437 75.7508 58.7262 75.6703 58.8088C75.6013 58.7144 75.4748 58.6201 75.4748 58.5139C75.4518 58.1484 75.4633 57.771 75.3483 57.3819C75.2563 57.7592 75.1643 58.1366 75.0493 58.5021C75.0148 58.6201 74.8423 58.8087 74.7733 58.797C74.6468 58.7616 74.4858 58.6319 74.4398 58.5021C74.3248 58.172 74.2558 57.83 74.0373 57.488C74.0373 57.7946 74.0603 58.1012 74.0258 58.4078C74.0143 58.5493 73.8878 58.679 73.8188 58.8088C73.7383 58.679 73.6118 58.5611 73.6003 58.4314C73.5773 57.7592 73.5888 57.0988 73.5888 56.3913Z" fill="#59595B"/>
<path d="M72.0013 56.8042C71.8058 56.7806 71.7023 56.7924 71.6218 56.757C71.5068 56.698 71.4148 56.6037 71.2998 56.5212C71.4033 56.4622 71.5068 56.3679 71.6103 56.3561C72.0128 56.3325 72.4153 56.3325 72.8178 56.3561C72.9443 56.3679 73.0708 56.4622 73.1858 56.5212C73.0593 56.6037 72.9443 56.698 72.8178 56.757C72.7373 56.7924 72.6338 56.7924 72.4728 56.816C72.4728 57.3348 72.4958 57.8419 72.4613 58.3372C72.4498 58.5023 72.3003 58.6556 72.2198 58.8089C72.1393 58.6556 72.0128 58.5141 72.0013 58.349C71.9898 57.8537 72.0013 57.3466 72.0013 56.8042Z" fill="#59595B"/>
</g>
<defs>
<clipPath id="clip0_330_2924">
<rect width="115" height="75" fill="white"/>
</clipPath>
</defs>
</svg>
