<svg width="64" height="71" viewBox="0 0 64 71" fill="none" xmlns="http://www.w3.org/2000/svg">
<g clip-path="url(#clip0_330_2905)">
<path d="M31.988 0.000488281C30.4247 0.355095 16.6663 2.26982 14.9535 3.17959C14.5588 4.0196 13.7339 6.64039 13.4723 7.05507C12.3666 7.30794 7.8859 8.21383 7.60423 8.38726C7.44654 8.89107 6.41695 11.042 6.17995 11.2939C5.23104 11.5458 0.807328 12.4175 0.254934 12.838C-0.0604594 14.8533 -1.26461 35.0183 6.63572 48.2017C14.536 61.3851 28.3536 70.1604 31.988 71.0004H32.0164C35.6508 70.1604 49.4399 61.3851 57.3402 48.2017C65.2396 35.0174 64.0667 14.8533 63.7495 12.838C63.1962 12.4175 58.7715 11.5458 57.8244 11.2939C57.5874 11.042 56.5588 8.89107 56.4002 8.38726C56.1194 8.21383 51.6396 7.30697 50.5321 7.05507C50.2705 6.64039 49.4465 4.0196 49.0509 3.17959C47.3435 2.27273 33.5731 0.361876 31.988 0.000488281V0.000488281ZM31.988 5.14761C33.3425 5.45571 45.1132 7.12773 46.5726 7.90283C46.909 8.62076 47.6036 10.8484 47.826 11.203C48.7713 11.4181 52.6273 12.1751 52.8679 12.3233C53.0029 12.7535 53.8611 14.6212 54.0643 14.8363C54.8747 15.0514 58.6626 15.7797 59.1348 16.1382C59.4055 17.8609 60.4182 35.0869 53.6655 46.3548C46.9128 57.6237 35.123 65.1364 32.0164 65.8533H31.988C28.8814 65.1364 17.0916 57.6228 10.3389 46.3548C3.58707 35.0869 4.59979 17.8609 4.86961 16.1382C5.3427 15.7788 9.1297 15.0514 9.94006 14.8363C10.1433 14.6212 11.0015 12.7535 11.1365 12.3233C11.3771 12.1751 15.2047 11.4181 16.1499 11.203C16.3733 10.8484 17.0945 8.62076 17.4318 7.90283C18.8948 7.12483 30.6516 5.44989 31.988 5.14761V5.14761Z" fill="#59595B"/>
<path d="M34.1524 10.6575C33.7086 10.704 33.6424 11.0341 33.6397 11.1722C33.5485 27.3 33.5918 44.4095 33.4688 60.9781C33.569 61.5022 34.3555 60.6966 34.8076 60.4331C40.563 57.0702 58.5144 38.5909 48.1958 31.9726C56.097 26.481 54.6889 21.2402 51.1868 18.3781C43.9455 12.4574 35.6838 10.9874 34.7221 10.718C34.4817 10.6507 34.3003 10.642 34.1524 10.6575V10.6575ZM38.9665 17.2882C39.0786 17.2232 43.7202 19.0522 46.2588 20.8911C49.1693 22.9994 48.184 25.0255 46.4867 26.2502C45.5651 26.9177 39.8621 31.2714 38.9095 31.5184C38.8885 30.6784 38.8844 21.2063 38.9665 17.2882V17.2882ZM43.2108 35.7269C43.8467 35.7477 44.4508 35.9638 44.8915 36.4536C45.2853 36.8537 47.0211 38.8426 43.3248 44.5376C41.9484 47.1206 39.0622 50.3603 38.7386 50.6839C38.6994 50.6955 38.6832 50.6313 38.6531 50.6536C38.6832 48.8021 38.6365 39.8391 38.7386 37.3316C38.943 37.2183 41.3032 35.6645 43.2108 35.7269V35.7269Z" fill="#59595B"/>
<path d="M14.5325 16.4649C14.0594 16.68 10.0295 19.4073 9.62383 19.8375C9.51171 23.6394 10.4707 33.8968 14.0029 41.9025C14.4495 42.915 14.9345 43.8645 15.4595 44.7239C16.4668 46.5725 16.5233 46.4262 17.6955 44.6561C18.5077 43.4886 19.679 41.7572 19.9726 41.4007C20.3773 42.8356 22.9943 51.786 26.6751 57.1952C28.3068 59.5951 30.8126 61.8622 30.8026 60.9282C30.7023 51.7889 30.4562 12.228 30.726 10.6158C29.6404 10.5887 26.079 11.0818 25.3743 11.4704C25.316 12.9169 25.8638 40.0433 25.5266 43.1282C23.0317 36.6677 22.1803 19.6195 22.6735 12.5855C21.3235 12.8723 18.031 14.2762 17.5588 14.779C16.9517 16.0705 17.7803 30.2354 18.6426 34.9897C18.3482 35.4828 17.4995 36.8218 17.3646 37.0369C15.6564 33.7708 14.0238 23.6733 14.5325 16.4649Z" fill="#59595B"/>
</g>
<defs>
<clipPath id="clip0_330_2905">
<rect width="64" height="71" fill="white"/>
</clipPath>
</defs>
</svg>
