<svg width="143" height="70" viewBox="0 0 143 70" fill="none" xmlns="http://www.w3.org/2000/svg">
<g clip-path="url(#clip0_181_3949)">
<path d="M21.9811 36.4057C21.9811 38.0752 21.7399 39.4681 21.2475 40.5692C20.7953 41.6804 20.1623 42.5766 19.3735 43.2424C17.6904 44.6404 15.9118 45.3164 14.0779 45.2806C12.7214 45.2806 11.5256 44.9426 10.5308 44.282L10.4806 44.2512C9.46065 43.6777 8.61658 42.9351 7.97347 42.0389L7.53134 41.4193L0 46.9859L0.411988 47.6004C3.5019 52.2196 8.1644 54.6316 14.2889 54.7853C18.6751 54.7341 22.5789 53.1414 25.8799 50.0636C29.2361 47.032 30.9895 42.6995 31.085 37.1739V0H21.9811V36.4057Z" fill="#59595B"/>
<path d="M65.1897 19.8544C64.1949 18.5382 62.7831 17.3502 60.9844 16.3157C59.1405 15.3222 56.7238 14.7896 53.7696 14.7435C50.9309 14.7947 48.5594 15.3222 46.7055 16.3157C44.8717 17.3399 43.4096 18.5229 42.3696 19.8339C40.9779 21.3344 39.9278 23.1984 39.2546 25.3851C38.6165 27.5769 38.2949 30.7264 38.2949 34.7465C38.2949 38.7665 38.6165 41.8852 39.2596 44.031C39.9278 46.2023 40.9779 48.1125 42.3646 49.6949C43.4096 50.9495 44.8717 52.0813 46.6854 53.0492C48.5343 54.1502 50.9158 54.734 53.7897 54.7852C56.7138 54.734 59.1254 54.1605 60.9693 53.0697C61.9541 52.6088 62.7831 52.0506 63.4262 51.4053C64.1145 50.8522 64.7074 50.2787 65.1595 49.7256C66.6618 48.1227 67.737 46.1972 68.365 44.0054C68.9529 41.8699 69.2543 38.7511 69.2543 34.7413C69.2543 30.7315 68.9579 27.5923 68.365 25.3954C67.742 23.2189 66.6718 21.3548 65.1897 19.8492V19.8544ZM60.5774 34.8181C60.5774 37.3275 60.4669 39.1864 60.2458 40.3438C60.0398 41.4551 59.6128 42.4434 58.9647 43.2987C58.5075 43.9285 57.8041 44.5021 56.8695 45.004C55.9953 45.4751 54.9503 45.7158 53.7696 45.7158C52.6743 45.7158 51.6544 45.4751 50.755 45.0142C49.8658 44.5124 49.1322 43.9337 48.5745 43.2935C48.0219 42.4383 47.6149 41.4397 47.3637 40.3182C47.1024 39.1711 46.9668 37.2968 46.9668 34.7516C46.9668 32.2064 47.0974 30.2809 47.3587 29.1133C47.6099 28.0276 48.0219 27.0648 48.5745 26.2711C49.1171 25.5285 49.8356 24.9345 50.7098 24.5043C51.6393 24.0485 52.6643 23.8181 53.7646 23.8181C54.9503 23.8181 55.9953 24.0485 56.8997 24.5094C57.8091 24.9345 58.4723 25.4978 58.9245 26.225L58.9747 26.2967C59.6078 27.0904 60.0298 28.0327 60.2358 29.0825C60.4569 30.2655 60.5674 32.2013 60.5674 34.8284L60.5774 34.8181Z" fill="#59595B"/>
<path d="M96.541 18.1081C94.0942 15.8753 91.2504 14.7435 88.06 14.7435C85.6283 14.7947 83.5633 15.3017 81.9204 16.2491C80.2323 17.2375 78.9159 18.3744 78.0216 19.6086C77.0167 20.8991 76.2882 22.502 75.8511 24.3609C75.3939 26.225 75.1729 29.6407 75.1729 34.8028C75.1729 39.9648 75.3939 43.227 75.8461 45.0552C76.2832 46.9449 77.0117 48.5682 78.0166 49.8895C78.9209 51.0468 80.2323 52.1376 81.8852 53.1055C83.5332 54.1656 85.6032 54.734 88.0852 54.7852C91.4012 54.7033 94.2348 53.6074 96.5309 51.5333V53.4947C96.4907 55.876 95.8225 57.6786 94.4961 58.9896C93.1345 60.2955 91.371 60.9254 89.1252 60.9305C87.9445 60.8844 86.7889 60.5413 85.6635 59.8858C84.5431 59.2918 83.5332 58.5646 82.6741 57.7196L82.1917 57.2485L75.5095 62.8407L76.0069 63.4347C79.554 67.6903 83.905 69.8975 88.9544 69.9948C93.3405 69.9948 97.164 68.5507 100.314 65.7136C103.469 62.9226 105.117 58.539 105.213 52.6702V15.2147H96.5309V18.1081H96.541ZM93.3104 44.8452C92.5015 45.429 91.4665 45.7209 90.2355 45.7209C89.0046 45.7209 87.9646 45.4239 87.1607 44.8452L87.0904 44.7991C86.2061 44.2973 85.5479 43.7493 85.1058 43.1348C84.5983 42.4998 84.2718 41.6702 84.1261 40.6511C83.9502 39.6115 83.8598 37.6501 83.8598 34.8182C83.8598 31.9862 83.9502 29.9275 84.1261 28.8214C84.2667 27.8381 84.5883 27.0392 85.0857 26.4503L85.1259 26.3991C85.5529 25.7999 86.2262 25.1905 87.1004 24.6118C87.9244 24.1253 88.9745 23.8539 90.2355 23.8078C91.4816 23.8539 92.5266 24.1202 93.3455 24.5965C94.1997 25.1905 94.8478 25.7999 95.2698 26.394L95.31 26.4452C95.8175 27.0392 96.1641 27.8484 96.335 28.8009C96.4706 29.9019 96.5359 31.9247 96.5359 34.813C96.5359 37.7013 96.4706 39.6268 96.34 40.6357C96.1591 41.6394 95.8024 42.4793 95.2648 43.1604C94.8478 43.7493 94.2047 44.3024 93.3606 44.7991L93.3054 44.835L93.3104 44.8452Z" fill="#59595B"/>
<path d="M134.323 15.2147V18.1081C131.876 15.8753 129.033 14.7435 125.842 14.7435C123.411 14.7947 121.346 15.3017 119.703 16.2491C118.014 17.2375 116.698 18.3744 115.804 19.6086C114.799 20.8991 114.07 22.502 113.633 24.3609C113.176 26.225 112.955 29.6407 112.955 34.8028C112.955 39.9648 113.176 43.227 113.628 45.0552C114.065 46.9449 114.794 48.5682 115.799 49.8895C116.703 51.0468 118.014 52.1376 119.667 53.1055C121.315 54.1656 123.385 54.734 125.867 54.7852C129.183 54.7033 132.017 53.6074 134.313 51.5333V53.4947C134.273 55.876 133.605 57.6786 132.278 58.9896C130.917 60.2955 129.153 60.9254 126.907 60.9305C125.727 60.8844 124.571 60.5413 123.446 59.8858C122.325 59.2918 121.315 58.5646 120.456 57.7196L119.974 57.2485L113.292 62.8407L113.789 63.4347C117.336 67.6903 121.687 69.8975 126.737 69.9948C131.123 69.9948 134.946 68.5507 138.096 65.7136C141.252 62.9226 142.9 58.539 142.995 52.6702V15.2147H134.313H134.323ZM131.093 44.8401C130.284 45.4239 129.249 45.7158 128.018 45.7158C126.787 45.7158 125.747 45.4188 124.943 44.8401L124.873 44.794C123.988 44.2921 123.33 43.7442 122.888 43.1297C122.381 42.4946 122.054 41.665 121.908 40.6459C121.732 39.6064 121.642 37.645 121.642 34.813C121.642 31.9811 121.732 29.9224 121.908 28.8163C122.049 27.833 122.371 27.0341 122.868 26.4452L122.908 26.394C123.335 25.7948 124.008 25.1854 124.883 24.6067C125.707 24.1202 126.757 23.8488 128.018 23.8027C129.264 23.8488 130.309 24.1151 131.128 24.5914C131.982 25.1854 132.63 25.7948 133.052 26.3889L133.092 26.4401C133.6 27.0341 133.946 27.8432 134.117 28.7958C134.253 29.8968 134.318 31.9196 134.318 34.8079C134.318 37.6962 134.253 39.6217 134.122 40.6306C133.941 41.6343 133.585 42.4742 133.047 43.1553C132.63 43.7442 131.987 44.2973 131.143 44.794L131.088 44.8299L131.093 44.8401Z" fill="#59595B"/>
</g>
<defs>
<clipPath id="clip0_181_3949">
<rect width="143" height="70" fill="white"/>
</clipPath>
</defs>
</svg>
