<svg width="139" height="68" viewBox="0 0 139 68" fill="none" xmlns="http://www.w3.org/2000/svg">
<g clip-path="url(#clip0_181_3943)">
<path d="M52.4883 17.6885C47.1902 17.6885 43.6147 19.7746 41.4096 22.1337C38.1767 25.5359 37.3516 29.64 37.3516 36.1715C37.3516 42.7029 38.1767 46.8752 41.4096 50.2774C43.6099 52.6414 47.1902 54.7227 52.4883 54.7227C57.7864 54.7227 61.4294 52.6365 63.6345 50.2774C66.8674 46.8703 67.6925 42.7711 67.6925 36.1715C67.6925 29.5718 66.8674 25.5359 63.6345 22.1337C61.4342 19.7698 57.7864 17.6885 52.4883 17.6885ZM56.6862 44.9986C55.6536 46.0417 54.2784 46.5974 52.4883 46.5974C50.6981 46.5974 49.3905 46.0417 48.3579 44.9986C46.5002 43.1221 46.2927 39.9246 46.2927 36.1715C46.2927 32.4183 46.5002 29.2891 48.3579 27.4125C49.3905 26.3694 50.6981 25.8138 52.4883 25.8138C54.2784 25.8138 55.6536 26.3694 56.6862 27.4125C58.5439 29.2891 58.7466 32.4134 58.7466 36.1715C58.7466 39.9295 58.5391 43.1221 56.6862 44.9986Z" fill="#5A595C"/>
<path d="M26.3361 0C23.6967 0 21.5543 2.16415 21.5543 4.83034V37.6337C21.5543 43.3317 18.5289 46.1148 13.8484 46.1148C10.6831 46.1148 9.17279 44.9353 7.59012 43.3365L7.57082 43.356C6.76984 42.5518 5.66486 42.0546 4.44408 42.0546C1.99287 42.0546 0.00488281 44.0628 0.00488281 46.5389C0.00488281 47.7526 0.487404 48.8541 1.25944 49.6633C1.25944 49.6633 1.26426 49.6681 1.26909 49.673C1.31252 49.7169 1.35594 49.7559 1.39455 49.7997C4.99416 53.3823 8.61789 54.7422 13.8484 54.7422C22.9295 54.7422 31.1179 48.9711 31.1179 38.0626V4.88883C31.1179 4.88883 31.1179 4.84983 31.1179 4.83034C31.1179 2.16415 28.9755 0 26.3361 0Z" fill="#5A595C"/>
<path d="M102.588 21.505V21.4952C102.579 19.0825 100.639 17.1279 98.2458 17.1279C95.8525 17.1279 93.9176 19.0825 93.9079 21.4952C91.4374 18.7267 88.9621 17.6885 85.1839 17.6885C81.676 17.6885 78.5782 18.868 76.5854 20.8859C73.2174 24.293 72.9375 28.8796 72.9375 35.2015C72.9375 41.5233 73.2126 46.1831 76.5854 49.5852C78.5831 51.5983 81.6085 52.7827 85.1164 52.7827C88.6243 52.7827 91.3071 51.8079 93.6474 49.1709V52.8558C93.6474 56.5407 91.7897 60.3621 86.424 60.3621C83.3986 60.3621 81.401 59.5286 79.4082 57.5838C78.694 56.8868 77.729 56.4579 76.6578 56.4579C74.4671 56.4579 72.6963 58.2516 72.6963 60.4645C72.6963 61.5612 73.1354 62.5604 73.8447 63.2818C77.5601 66.8984 81.3431 68.0097 86.8486 68.0097C96.4798 68.0097 102.603 61.683 102.603 53.0021V21.505H102.588ZM87.7268 44.6526C82.4287 44.6526 81.8787 39.9977 81.8787 35.2015C81.8787 30.4053 82.4287 25.8186 87.7268 25.8186C93.0249 25.8186 93.6426 30.4053 93.6426 35.2015C93.6426 39.9977 93.0249 44.6526 87.7268 44.6526Z" fill="#5A595C"/>
<path d="M139 21.5147C139 19.0922 137.055 17.1279 134.657 17.1279C132.259 17.1279 130.329 19.0825 130.319 21.4952C127.848 18.7267 125.373 17.6885 121.595 17.6885C118.087 17.6885 114.989 18.868 112.996 20.8859C109.628 24.293 109.349 28.8796 109.349 35.2015C109.349 41.5233 109.624 46.1831 112.996 49.5852C114.994 51.5983 118.02 52.7827 121.527 52.7827C125.035 52.7827 127.718 51.8079 130.058 49.1709V52.8558C130.058 56.5407 128.201 60.3621 122.835 60.3621C119.81 60.3621 117.812 59.5286 115.819 57.5838C115.105 56.8868 114.135 56.4579 113.064 56.4579C110.878 56.4579 109.103 58.2516 109.103 60.4645C109.103 61.5612 109.542 62.5604 110.251 63.2818C113.966 66.8984 117.749 68.0097 123.255 68.0097C132.886 68.0097 139.009 61.683 139.009 53.0021V21.6853H139C139 21.6268 139.009 21.5732 139.009 21.5147H139ZM124.138 44.6526C118.84 44.6526 118.29 39.9977 118.29 35.2015C118.29 30.4053 118.84 25.8186 124.138 25.8186C129.436 25.8186 130.054 30.4053 130.054 35.2015C130.054 39.9977 129.436 44.6526 124.138 44.6526Z" fill="#5A595C"/>
</g>
<defs>
<clipPath id="clip0_181_3943">
<rect width="139" height="68" fill="white"/>
</clipPath>
</defs>
</svg>
