<svg width="153" height="53" viewBox="0 0 153 53" fill="none" xmlns="http://www.w3.org/2000/svg">
<g clip-path="url(#clip0_181_3959)">
<path d="M55.9925 36.5531C46.0363 36.5531 37.9365 28.4651 37.9365 18.5266C37.9365 8.58804 46.0363 0.5 55.9925 0.5C65.9488 0.5 74.0485 8.58804 74.0485 18.5266C74.0485 28.4651 65.9488 36.5531 55.9925 36.5531ZM55.9925 8.88053C50.6671 8.88053 46.332 13.2076 46.332 18.5266C46.332 23.8455 50.6671 28.1726 55.9925 28.1726C61.318 28.1726 65.6531 23.8455 65.6531 18.5266C65.6531 13.2076 61.318 8.88053 55.9925 8.88053Z" fill="#59595B" fill-opacity="0.41" stroke="#59595B"/>
<path d="M25.9572 4.89122L25.9572 4.89087C25.9739 2.5797 27.8701 0.717712 30.1889 0.734488C32.5056 0.751249 34.3694 2.64554 34.3526 4.95866L34.1177 34.507V34.511V34.511V34.5111V34.5111V34.5112V34.5112V34.5113V34.5113V34.5114V34.5115V34.5115V34.5116V34.5116V34.5117V34.5117V34.5118V34.5118V34.5119V34.5119V34.512V34.5121V34.5121V34.5122V34.5122V34.5123V34.5123V34.5124V34.5124V34.5125V34.5126V34.5126V34.5127V34.5127V34.5128V34.5128V34.5129V34.5129V34.513V34.5131V34.5131V34.5132V34.5132V34.5133V34.5133V34.5134V34.5134V34.5135V34.5135V34.5136V34.5137V34.5137V34.5138V34.5138V34.5139V34.5139V34.514V34.514V34.5141V34.5141V34.5142V34.5143V34.5143V34.5144V34.5144V34.5145V34.5145V34.5146V34.5146V34.5147V34.5148V34.5148V34.5149V34.5149V34.515V34.515V34.5151V34.5151V34.5152V34.5152V34.5153V34.5154V34.5154V34.5155V34.5155V34.5156V34.5156V34.5157V34.5157V34.5158V34.5159V34.5159V34.516V34.516V34.5161V34.5161V34.5162V34.5162V34.5163V34.5163V34.5164V34.5165V34.5165V34.5166V34.5166V34.5167V34.5167V34.5168V34.5168V34.5169V34.5169V34.517V34.5171V34.5171V34.5172V34.5172V34.5173V34.5173V34.5174V34.5174V34.5175V34.5176V34.5176V34.5177V34.5177V34.5178V34.5178V34.5179V34.5179V34.518V34.5181V34.5181V34.5182V34.5182V34.5183V34.5183V34.5184V34.5184V34.5185V34.5185V34.5186V34.5187V34.5187V34.5188V34.5188V34.5189V34.5189V34.519V34.519V34.5191V34.5191V34.5192V34.5193V34.5193V34.5194V34.5194V34.5195V34.5195V34.5196V34.5196V34.5197V34.5198V34.5198V34.5199V34.5199V34.52V34.52V34.5201V34.5201V34.5202V34.5202V34.5203V34.5204V34.5204V34.5205V34.5205V34.5206V34.5206V34.5207V34.5207V34.5208V34.5209V34.5209V34.521V34.521V34.5211V34.5211V34.5212V34.5212V34.5213V34.5213V34.5214V34.5215V34.5215V34.5216V34.5216V34.5217V34.5217V34.5218V34.5218V34.5219V34.522V34.522V34.5221V34.5221V34.5222V34.5222V34.5223V34.5223V34.5224V34.5224V34.5225V34.5226V34.5226V34.5227V34.5227V34.5228V34.5228V34.5229V34.5229V34.523V34.5231V34.5231V34.5232V34.5232V34.5233V34.5233V34.5234V34.5234V34.5235V34.5235V34.5236V34.5237V34.5237V34.5238V34.5238V34.5239V34.5239V34.524V34.524V34.5241V34.5242V34.5242V34.5243V34.5243V34.5244V34.5244V34.5245V34.5245V34.5246V34.5246V34.5247V34.5248V34.5248V34.5249V34.5249V34.525V34.525V34.5251V34.5251V34.5252V34.5252V34.5253V34.5254V34.5254V34.5255V34.5255V34.5256V34.5256V34.5257V34.5257V34.5258V34.5259V34.5259V34.526V34.526V34.5261V34.5261V34.5262V34.5262V34.5263V34.5263V34.5264V34.5265V34.5265V34.5266V34.5266V34.5267V34.5267V34.5268V34.5268V34.5269V34.527V34.527V34.5271V34.5271V34.5272V34.5272V34.5273V34.5273V34.5274V34.5274V34.5275V34.5276V34.5276V34.5277V34.5277V34.5278V34.5278V34.5279V34.5279V34.528V34.5281V34.5281V34.5282V34.5282V34.5283V34.5283V34.5284V34.5284V34.5285V34.5285V34.5286V34.5287V34.5287V34.5288V34.5288V34.5289V34.5289V34.529V34.529V34.5291V34.5292V34.5292V34.5293V34.5293V34.5294V34.5294V34.5295V34.5295V34.5296V34.5296V34.5297V34.5298V34.5298V34.5299V34.5299V34.53V34.53V34.5301V34.5301V34.5302V34.5303V34.5303V34.5304V34.5304V34.5305V34.5305V34.5306V34.5306V34.5307V34.5307V34.5308V34.5309V34.5309V34.531V34.531V34.5311V34.5311V34.5312V34.5312V34.5313V34.5313V34.5314V34.5315V34.5315V34.5316V34.5316V34.5317V34.5317V34.5318V34.5318V34.5319V34.532V34.532V34.5321V34.5321V34.5322V34.5322V34.5323V34.5323V34.5324V34.5325V34.5325V34.5326V34.5326V34.5327V34.5327V34.5328V34.5328V34.5329V34.5329V34.533V34.5331V34.5331V34.5332V34.5332V34.5333V34.5333V34.5334V34.5334V34.5335V34.5336V34.5336V34.5337V34.5337V34.5338V34.5338V34.5339V34.5339V34.534V34.534V34.5341V34.5342V34.5342V34.5343V34.5343V34.5344V34.5344V34.5345V34.5345V34.5346V34.5346V34.5347V34.5348V34.5348V34.5349V34.5349V34.535V34.535V34.5351V34.5351V34.5352V34.5353V34.5353V34.5354V34.5354V34.5355V34.5355V34.5356V34.5356V34.5357V34.5357V34.5358V34.5359V34.5359V34.536V34.536V34.5361V34.5361V34.5362V34.5362V34.5363V34.5364V34.5364V34.5365V34.5365V34.5366V34.5366V34.5367V34.5367V34.5368V34.5368V34.5369V34.537V34.537V34.5371V34.5371V34.5372L34.1177 34.5373L34.1177 34.5373V34.5373V34.5374V34.5375V34.5375V34.5376V34.5376V34.5377V34.5377V34.5378V34.5378V34.5379V34.5379V34.538V34.5381V34.5381V34.5382V34.5382V34.5383C34.0806 44.4491 25.9947 52.5 16.0618 52.5C10.1741 52.5 4.63798 49.6199 1.25998 44.8005C-0.0703837 42.9024 0.390878 40.2926 2.29244 38.9639C4.19491 37.6393 6.81046 38.1011 8.14095 39.9952C9.94913 42.5766 12.911 44.1195 16.0618 44.1195C21.3872 44.1195 25.7223 39.7924 25.7223 34.4734V34.4734V34.4733V34.4733V34.4732V34.4732V34.4731V34.4731V34.473V34.4729V34.4729V34.4728V34.4728V34.4727V34.4727V34.4726V34.4726V34.4725V34.4725V34.4724V34.4724V34.4723V34.4723V34.4722V34.4721V34.4721V34.472V34.472V34.4719V34.4719V34.4718V34.4718V34.4717V34.4717V34.4716V34.4716V34.4715V34.4715V34.4714V34.4714V34.4713V34.4713V34.4712V34.4712V34.4711V34.4711V34.471V34.471V34.4709V34.4709V34.4708V34.4708V34.4707V34.4707V34.4706V34.4706V34.4705V34.4705V34.4704V34.4704V34.4703V34.4703V34.4702V34.4702V34.4701V34.4701V34.47V34.47V34.4699V34.4699V34.4698V34.4698V34.4697V34.4697V34.4697V34.4696V34.4696V34.4695V34.4695V34.4694V34.4694V34.4693V34.4693V34.4692V34.4692V34.4691V34.4691V34.469V34.469V34.4689V34.4689V34.4689V34.4688V34.4688V34.4687V34.4687V34.4686V34.4686V34.4685V34.4685V34.4684V34.4684V34.4684V34.4683V34.4683V34.4682V34.4682V34.4681V34.4681V34.468V34.468V34.4679V34.4679V34.4679V34.4678V34.4678V34.4677V34.4677V34.4676V34.4676V34.4676V34.4675V34.4675V34.4674V34.4674V34.4673V34.4673V34.4673V34.4672V34.4672V34.4671V34.4671V34.467V34.467V34.467V34.4669V34.4669V34.4668V34.4668V34.4667V34.4667V34.4667V34.4666V34.4666V34.4665V34.4665V34.4664V34.4664V34.4664V34.4663V34.4663V34.4662V34.4662V34.4662V34.4661V34.4661V34.466V34.466V34.466V34.4659V34.4659V34.4658V34.4658V34.4658V34.4657V34.4657V34.4656V34.4656V34.4656V34.4655V34.4655V34.4654V34.4654V34.4654V34.4653V34.4653V34.4652V34.4652V34.4652V34.4651V34.4651V34.465V34.465V34.465V34.4649V34.4649V34.4648V34.4648V34.4648V34.4647V34.4647V34.4647V34.4646V34.4646V34.4645V34.4645V34.4645V34.4644V34.4644V34.4644V34.4643V34.4643V34.4642V34.4642V34.4642V34.4641V34.4641V34.4641V34.464V34.464V34.4639V34.4639V34.4639V34.4638V34.4638V34.4638V34.4637V34.4637V34.4636V34.4636V34.4636V34.4635V34.4635V34.4635V34.4634V34.4634V34.4634V34.4633V34.4633V34.4632V34.4632V34.4632V34.4631V34.4631V34.4631V34.463V34.463V34.463V34.4629V34.4629V34.4629V34.4628V34.4628V34.4627V34.4627V34.4627V34.4626V34.4626V34.4626V34.4625V34.4625V34.4625V34.4624V34.4624V34.4624V34.4623V34.4623V34.4623V34.4622V34.4622V34.4622V34.4621V34.4621V34.4621V34.462V34.462V34.462V34.4619V34.4619V34.4619V34.4618V34.4618V34.4618V34.4617V34.4617V34.4617V34.4616V34.4616V34.4616V34.4615V34.4615V34.4615V34.4614V34.4614V34.4614V34.4613V34.4613V34.4613V34.4612V34.4612V34.4612V34.4611V34.4611V34.4611V34.461V34.461V34.461V34.4609V34.4609V34.4609V34.4608V34.4608V34.4608V34.4607V34.4607V34.4607V34.4606V34.4606V34.4606V34.4605V34.4605V34.4605V34.4605V34.4604V34.4604V34.4604V34.4603V34.4603V34.4603V34.4602V34.4602V34.4602V34.4601V34.4601V34.4601V34.46V34.46V34.46V34.4599V34.4599V34.4599V34.4599V34.4598V34.4598V34.4598V34.4597V34.4597V34.4597V34.4596V34.4596V34.4596V34.4595V34.4595V34.4595V34.4594V34.4594V34.4594V34.4593V34.4593V34.4593V34.4592V34.4592V34.4592V34.4592V34.4591V34.4591V34.459V34.459V34.459V34.4589V34.4589V34.4589V34.4588V34.4588V34.4588V34.4587V34.4587V34.4586V34.4586V34.4586V34.4585V34.4585V34.4584V34.4584V34.4584V34.4583V34.4583V34.4582V34.4582V34.4581V34.4581V34.458V34.458V34.4579V34.4579V34.4578V34.4578V34.4577V34.4577V34.4576V34.4576V34.4575V34.4575V34.4574V34.4573V34.4573V34.4573V34.4572V34.4571V34.4571V34.4571V34.457V34.457V34.4569V34.4569V34.4568V34.4568V34.4567V34.4567V34.4566V34.4566V34.4566V34.4565V34.4565V34.4564V34.4564V34.4564V34.4563V34.4563V34.4562V34.4562V34.4561V34.4561V34.456V34.456V34.4559V34.4559V34.4558V34.4557V34.4557V34.4556V34.4556V34.4555V34.4555V34.4554V34.4554V34.4553V34.4553V34.4553V34.4552V34.4551V34.4551V34.455V34.455V34.455V34.4549V34.4549V34.4548V34.4548V34.4547V34.4547V34.4546V34.4546V34.4545V34.4545V34.4544V34.4544V34.4544V34.4543V34.4543V34.4542V34.4542V34.4542V34.4541V34.4541V34.4541V34.4541V34.454V34.454V34.454V34.4539V34.4539V34.4539V34.4538V34.4538V34.4538V34.4537V34.4537V34.4537V34.4536V34.4536V34.4536V34.4535V34.4535V34.4535V34.4534V34.4534V34.4533V34.4533V34.4533V34.4532V34.4532V34.4532V34.4531V34.4531V34.4531V34.453V34.453V34.4529V34.4529V34.4529V34.4528V34.4528V34.4528V34.4527V34.4527V34.4526V34.4526V34.4526V34.4525V34.4525V34.4524V34.4524V34.4524V34.4523V34.4523V34.4522V34.4522V34.4522V34.4521V34.4521V34.452V34.452V34.452V34.4519V34.4519V34.4518V34.4518V34.4518V34.4517V34.4517V34.4516V34.4516V34.4515V34.4515V34.4515V34.4514V34.4514V34.4513V34.4513V34.4512V34.4512V34.4512V34.4511V34.4511V34.451V34.451V34.4509V34.4509V34.4509V34.4508V34.4508V34.4507V34.4507V34.4506V34.4506V34.4505V34.4505V34.4505V34.4504V34.4504V34.4503V34.4503V34.4502V34.4502V34.4501V34.4501V34.45V34.45V34.45V34.4499V34.4499V34.4498V34.4498V34.4497V34.4497V34.4496V34.4496V34.4495V34.4495V34.4494V34.4494V34.4493V34.4493V34.4493V34.4492V34.4492V34.4491V34.4491V34.449V34.449V34.4489V34.4489V34.4488V34.4488V34.4487V34.4487V34.4486V34.4486V34.4485V34.4485V34.4484V34.4484V34.4483V34.4483V34.4482V34.4482V34.4482V34.4481V34.4481V34.448V34.448V34.4479V34.4479V34.4478V34.4478V34.4477V34.4477V34.4476V34.4476V34.4475V34.4475V34.4474V34.4474V34.4473V34.4473V34.4472V34.4472V34.4471V34.4471V34.447V34.447V34.4469V34.4469V34.4468V34.4468V34.4467V34.4467V34.4466V34.4466V34.4465V34.4465V34.4464V34.4464V34.4463V34.4463V34.4462V34.4462V34.4461V34.4461V34.446V34.446V34.4459V34.4459V34.4458V34.4458V34.4457V34.4457V34.4456V34.4456V34.4455V34.4455V34.4454V34.4454V34.4453V34.4453V34.4452V34.4452V34.4451V34.4451V34.445V34.445V34.445V34.4449V34.4449V34.4448V34.4448V34.4447V34.4447V34.4446V34.4446V34.4445V34.4445V34.4444V34.4444V34.4443V34.4443V34.4442V34.4442V34.4441V34.4441V34.444V34.444V34.4439V34.4439V34.4438V34.4438V34.4437V34.4437V34.4436V34.4436V34.4435V34.4435V34.4434V34.4434V34.4433V34.4433V34.4432V34.4432V34.4432V34.4431V34.4431V34.443V34.443V34.4429V34.4429V34.4428V34.4428V34.4427V34.4427V34.4426V34.4426V34.4425V34.4425V34.4424V34.4424V34.4424V34.4423V34.4423V34.4422V34.4422V34.4421V34.4421V34.442V34.442V34.4419V34.4419V34.4418V34.4418V34.4418V34.4417V34.4417V34.4416V34.4416V34.4415V34.4415V34.4414V34.4414V34.4414V34.4413V34.4413V34.4412V34.4412V34.4411V34.4411V34.441V34.441V34.441V34.4409V34.4409V34.4408V34.4408V34.4407V34.4407V34.4407V34.4406V34.4406V34.4405V34.4405V34.4404V34.4404V34.4404V34.4403V34.4403V34.4402V34.4402V34.4402V34.4401V34.4401V34.44V34.44V34.4399V34.4399L25.7223 34.4399L25.7223 34.4398V34.4398V34.4397V34.4397V34.4397V34.4396V34.4396V34.4396V34.4395V34.4395V34.4394V34.4394V34.4394V34.4393V34.4393V34.4392V34.4392V34.4392V34.4391V34.4391V34.4391V34.439V34.439V34.4389V34.4389V34.4389V34.4388V34.4388V34.4388V34.4387V34.4387V34.4387V34.4386V34.4386V34.4386V34.4385V34.4385V34.4385V34.4384V34.4384V34.4384V34.4383V34.4383V34.4383V34.4382V34.4382V34.4382V34.4381V34.4381V34.4381V34.438V34.438V34.438V34.4379V34.4379V34.4379V34.4378V34.4378V34.4378V34.4377V34.4377V34.4377V34.4376V34.4376V34.4375V34.4375V34.4374V34.4374V34.4373V34.4373V34.4372V34.4372V34.4371V34.4371V34.437V34.437V34.4369V34.4369V34.4368V34.4368V34.4367V34.4367V34.4367V34.4366V34.4366V34.4365V34.4365V34.4365V34.4364V34.4364V34.4364V34.4363V34.4363V34.4363V34.4362V34.4362V34.4362V34.4361V34.4361V34.4361V34.436V34.436V34.436V34.4359L25.9572 4.89122Z" fill="#59595B" fill-opacity="0.41" stroke="#59595B"/>
<path d="M144.104 17.5885C144.104 15.2763 145.984 13.3982 148.302 13.3982C150.62 13.3982 152.5 15.2763 152.5 17.5885V34.4734C152.5 44.4119 144.4 52.5 134.444 52.5C128.556 52.5 123.02 49.6199 119.642 44.8005C118.311 42.9024 118.773 40.2924 120.674 38.9638C122.577 37.6394 125.192 38.101 126.522 39.9947C128.331 42.5764 131.293 44.1194 134.444 44.1194C139.769 44.1194 144.104 39.7923 144.104 34.4734V17.5885Z" fill="#59595B" fill-opacity="0.41" stroke="#59595B"/>
<path d="M105.216 17.5885C105.216 15.2763 107.096 13.3982 109.414 13.3982C111.732 13.3982 113.612 15.2763 113.612 17.5885V34.4734C113.612 44.4119 105.512 52.5 95.5559 52.5C89.6682 52.5 84.1321 49.6199 80.7541 44.8005C79.4237 42.9024 79.885 40.2924 81.7867 38.9638C83.689 37.6394 86.3042 38.101 87.6348 39.9947C89.443 42.5764 92.4049 44.1194 95.5559 44.1194C100.881 44.1194 105.216 39.7923 105.216 34.4734V17.5885Z" fill="#59595B" fill-opacity="0.41" stroke="#59595B"/>
<path d="M134.444 36.5531C124.487 36.5531 116.388 28.4651 116.388 18.5266C116.388 8.58804 124.487 0.5 134.444 0.5C144.4 0.5 152.5 8.58804 152.5 18.5266C152.5 28.4651 144.4 36.5531 134.444 36.5531ZM134.444 8.88053C129.118 8.88053 124.783 13.2076 124.783 18.5266C124.783 23.8455 129.118 28.1726 134.444 28.1726C139.769 28.1726 144.104 23.8455 144.104 18.5266C144.104 13.2076 139.769 8.88053 134.444 8.88053Z" fill="#59595B" fill-opacity="0.41" stroke="#59595B"/>
<path d="M95.556 36.5531C85.5998 36.5531 77.5 28.4651 77.5 18.5266C77.5 8.58804 85.5998 0.5 95.556 0.5C105.512 0.5 113.612 8.58804 113.612 18.5266C113.612 28.4651 105.512 36.5531 95.556 36.5531ZM95.556 8.88053C90.2305 8.88053 85.8954 13.2076 85.8954 18.5266C85.8954 23.8455 90.2305 28.1726 95.556 28.1726C100.881 28.1726 105.217 23.8455 105.217 18.5266C105.217 13.2076 100.881 8.88053 95.556 8.88053Z" fill="#59595B" fill-opacity="0.41" stroke="#59595B"/>
</g>
<defs>
<clipPath id="clip0_181_3959">
<rect width="153" height="53" fill="white"/>
</clipPath>
</defs>
</svg>
