<svg width="445" height="100" viewBox="0 0 445 100" fill="none" xmlns="http://www.w3.org/2000/svg">
<rect width="100" height="100" rx="50" fill="#F2F2F2"/>
<path d="M32.8976 66.12C35.8494 66.12 38.2424 63.7142 38.2424 60.7466C38.2424 57.779 35.8494 55.3733 32.8976 55.3733C29.9457 55.3733 27.5527 57.779 27.5527 60.7466C27.5527 63.7142 29.9457 66.12 32.8976 66.12Z" fill="#3F94B1"/>
<path d="M31.8281 47.3982C31.8281 44.6805 34.0196 42.4774 36.7229 42.4774H69.6919C72.3952 42.4774 74.5866 44.6805 74.5866 47.3982V48.3032C74.5866 51.0209 72.3952 53.224 69.6919 53.224H36.7228C34.0196 53.224 31.8281 51.0209 31.8281 48.3032V47.3982Z" fill="#63B9D7"/>
<path d="M40.3789 60.2941C40.3789 57.5765 42.5703 55.3733 45.2736 55.3733H76.1048C78.8081 55.3733 80.9995 57.5765 80.9995 60.2942V61.1991C80.9995 63.9168 78.8081 66.12 76.1048 66.12H45.2736C42.5704 66.12 40.3789 63.9168 40.3789 61.1991V60.2941Z" fill="#5878A5"/>
<path d="M19 38.8009C19 36.0832 21.1914 33.8801 23.8947 33.8801H59.0017C61.705 33.8801 63.8965 36.0832 63.8965 38.8009V39.7059C63.8965 42.4236 61.705 44.6267 59.0017 44.6267H23.8947C21.1914 44.6267 19 42.4236 19 39.7059V38.8009Z" fill="#3F94B1"/>
<rect x="115" width="100" height="100" rx="50" fill="#F2F2F2"/>
<path d="M147.896 66.1201C150.848 66.1201 153.241 63.7144 153.241 60.7468C153.241 57.7791 150.848 55.3734 147.896 55.3734C144.944 55.3734 142.551 57.7791 142.551 60.7468C142.551 63.7144 144.944 66.1201 147.896 66.1201Z" fill="#E05959"/>
<path d="M146.828 47.3981C146.828 44.6804 149.02 42.4772 151.723 42.4772H184.692C187.396 42.4772 189.587 44.6804 189.587 47.3981V48.3031C189.587 51.0208 187.396 53.224 184.692 53.224H151.723C149.02 53.224 146.828 51.0208 146.828 48.3031V47.3981Z" fill="#5878A5"/>
<path d="M155.379 60.2943C155.379 57.5765 157.57 55.3734 160.274 55.3734H191.105C193.808 55.3734 196 57.5765 196 60.2943V61.1993C196 63.917 193.808 66.1201 191.105 66.1201H160.274C157.57 66.1201 155.379 63.917 155.379 61.1993V60.2943Z" fill="#3D4657"/>
<path d="M134 38.8007C134 36.083 136.191 33.8799 138.895 33.8799H174.002C176.705 33.8799 178.897 36.083 178.897 38.8007V39.7057C178.897 42.4235 176.705 44.6266 174.002 44.6266H138.895C136.191 44.6266 134 42.4235 134 39.7057V38.8007Z" fill="#B74848"/>
<rect x="230" width="100" height="100" rx="50" fill="#3F94B1"/>
<path d="M261.896 66.62C264.847 66.62 267.24 64.2142 267.24 61.2466C267.24 58.279 264.847 55.8733 261.896 55.8733C258.944 55.8733 256.551 58.279 256.551 61.2466C256.551 64.2142 258.944 66.62 261.896 66.62Z" stroke="white" stroke-width="2"/>
<path d="M262.501 44.4067C262.073 45.1375 261.828 45.9891 261.828 46.8982V47.8032C261.828 50.5209 264.02 52.724 266.723 52.724H299.692C302.395 52.724 304.587 50.5209 304.587 47.8032V46.8982C304.587 44.1805 302.395 41.9774 299.692 41.9774H293.001" stroke="white" stroke-width="2"/>
<path d="M270.379 60.7941C270.379 58.0765 272.57 55.8733 275.274 55.8733H306.105C308.808 55.8733 310.999 58.0765 310.999 60.7942V61.6991C310.999 64.4168 308.808 66.62 306.105 66.62H275.274C272.57 66.62 270.379 64.4168 270.379 61.6991V60.7941Z" stroke="white" stroke-width="2"/>
<path d="M249 38.3009C249 35.5832 251.191 33.3801 253.895 33.3801H289.002C291.705 33.3801 293.896 35.5832 293.896 38.3009V39.2059C293.896 41.9236 291.705 44.1267 289.002 44.1267H253.895C251.191 44.1267 249 41.9236 249 39.2059V38.3009Z" stroke="white" stroke-width="2"/>
<rect x="345" width="100" height="100" rx="50" fill="#3F94B1"/>
<path d="M374.54 68.4656C377.698 68.4656 380.258 65.892 380.258 62.7174C380.258 59.5427 377.698 56.9691 374.54 56.9691C371.382 56.9691 368.822 59.5427 368.822 62.7174C368.822 65.892 371.382 68.4656 374.54 68.4656Z" fill="white"/>
<path d="M382.547 62.2333C382.547 59.326 384.891 56.9691 387.783 56.9691H420.765C423.657 56.9691 426.002 59.326 426.002 62.2333V63.2014C426.002 66.1087 423.657 68.4656 420.765 68.4656H387.783C384.891 68.4656 382.547 66.1087 382.547 63.2014V62.2333Z" fill="white"/>
<path d="M373.398 48.4947C373.398 45.4601 375.743 43 378.635 43H413.904C416.796 43 419.14 45.4601 419.14 48.4947V49.5053C419.14 52.5399 416.796 55 413.904 55H378.635C375.743 55 373.398 52.5399 373.398 49.5053V48.4947Z" fill="white"/>
<path d="M369.236 30.5344C365.787 30.5344 363 33.344 363 36.7986V37.7667C363 41.2213 365.787 44.0309 369.236 44.0309H402.218C405.668 44.0309 408.455 41.2213 408.455 37.7667V36.7986C408.455 33.344 405.668 30.5344 402.218 30.5344H369.236Z" fill="white" stroke="#3F94B1" stroke-width="2"/>
</svg>
