<svg width="320" height="46" viewBox="0 0 320 46" fill="none" xmlns="http://www.w3.org/2000/svg">
<g clip-path="url(#clip0_211_8256)">
<path d="M19.2275 5.94349L3.83855 21.4083C1.75955 23.4965 1.75955 26.8844 3.83855 28.9727L19.2348 44.4375C20.2743 45.4816 21.6336 46 23.0003 46V4.38095C21.6409 4.38095 20.2743 4.89936 19.2348 5.94349H19.2275Z" fill="#D32A7F"/>
<path d="M42.1539 21.4083L34.4558 13.6759L31.6789 10.8867L26.7577 5.94349C25.7182 4.89936 24.3588 4.38095 22.9922 4.38095V46C24.3515 46 25.7182 45.4816 26.7577 44.4375L31.6789 39.4943L42.1539 28.9727C44.2329 26.8844 44.2329 23.4965 42.1539 21.4083Z" fill="#F484C1"/>
<path d="M5.81539 11.6825C9.02714 11.6825 11.6308 9.06731 11.6308 5.84127C11.6308 2.61523 9.02714 0 5.81539 0C2.60364 0 0 2.61523 0 5.84127C0 9.06731 2.60364 11.6825 5.81539 11.6825Z" fill="#D32A7F"/>
<path d="M51.8882 22.5035L38.1057 8.6597C35.8304 6.3743 32.0286 7.81271 31.6797 10.894L34.4565 13.6832L42.1547 21.4156C44.2337 23.5038 44.2337 26.8918 42.1547 28.98L31.6797 39.5016C32.0286 42.5756 35.8304 44.0213 38.1057 41.7359L51.8882 27.8921C53.3638 26.4099 53.3638 24.0003 51.8882 22.5181V22.5035Z" fill="#A5136A"/>
</g>
<g clip-path="url(#clip1_211_8256)">
<path d="M82.905 9.76016C85.6139 9.76016 87.8099 7.57527 87.8099 4.88008C87.8099 2.18489 85.6139 0 82.905 0C80.196 0 78 2.18489 78 4.88008C78 7.57527 80.196 9.76016 82.905 9.76016Z" fill="#D32A7F"/>
<path d="M88.8975 16.4571L88.937 42.9368C88.937 45.3441 91.6005 46.8002 93.6508 45.5277L117.563 30.5989C119.606 29.3198 119.441 26.3026 117.272 25.2531L93.3146 13.6957C91.2708 12.7118 88.8909 14.1942 88.8975 16.4571Z" fill="#A5136A"/>
<path d="M99.1031 24.4725L99.0768 7.75303C99.0768 5.96235 97.0528 4.91287 95.576 5.92956L79.892 16.7195C78.4152 17.7362 78.6855 19.986 80.3667 20.6223L96.0837 26.5518C97.5472 27.1028 99.1097 26.0271 99.1097 24.4725H99.1031Z" fill="#F484C1"/>
</g>
<g clip-path="url(#clip2_211_8256)">
<path d="M172.772 20.7897H150.049C146.708 20.7897 144 23.4661 144 26.7675V39.5424C144 42.8439 146.708 45.5203 150.049 45.5203H172.772C176.113 45.5203 178.821 42.8439 178.821 39.5424V26.7675C178.821 23.4661 176.113 20.7897 172.772 20.7897Z" fill="#A5136A"/>
<path d="M169.486 36.2952L185.653 45.5203C188.028 46.8782 191 45.1808 191 42.4723V24.0221C191 21.3136 188.028 19.6162 185.653 20.9742L169.486 30.1992C167.111 31.5572 167.111 34.9446 169.486 36.3026V36.2952Z" fill="#ED2EA8"/>
<path d="M150.168 19.0037C153.575 19.0037 156.336 16.2744 156.336 12.9077C156.336 9.54104 153.575 6.8118 150.168 6.8118C146.762 6.8118 144 9.54104 144 12.9077C144 16.2744 146.762 19.0037 150.168 19.0037Z" fill="#D32A7F"/>
<path d="M170.838 18.6421C176.046 18.6421 180.269 14.4689 180.269 9.32103C180.269 4.17317 176.046 0 170.838 0C165.629 0 161.406 4.17317 161.406 9.32103C161.406 14.4689 165.629 18.6421 170.838 18.6421Z" fill="#F484C1"/>
</g>
<g clip-path="url(#clip3_211_8256)">
<path d="M222.038 15.0755C225.372 15.0755 228.075 12.3723 228.075 9.03774C228.075 5.70319 225.372 3 222.038 3C218.703 3 216 5.70319 216 9.03774C216 12.3723 218.703 15.0755 222.038 15.0755Z" fill="#D32A7F"/>
<path d="M225.495 43H251.042C253.782 43 256 40.7811 256 38.0415V12.4943C256 8.07171 250.657 5.86038 247.533 8.98491L221.985 34.5321C218.861 37.6566 221.072 43 225.495 43Z" fill="#A5136A"/>
<path d="M221.162 31.7774H240.936C243.057 31.7774 244.777 30.0566 244.777 27.9358V8.16226C244.777 4.74339 240.641 3.03019 238.219 5.44528L218.445 25.2189C216.023 27.6415 217.736 31.7774 221.162 31.7774Z" fill="#F484C1"/>
</g>
<g clip-path="url(#clip4_211_8256)">
<path d="M315.482 34.8674C317.977 34.8674 320 32.8402 320 30.3395C320 27.8388 317.977 25.8116 315.482 25.8116C312.987 25.8116 310.964 27.8388 310.964 30.3395C310.964 32.8402 312.987 34.8674 315.482 34.8674Z" fill="#D32A7F"/>
<path d="M306.348 27.1581L286.5 15.6744C284.056 14.2581 281 16.0302 281 18.8558V41.8233C281 44.6558 284.056 46.4209 286.5 45.0047L306.341 33.5209C308.785 32.1047 308.785 28.5674 306.341 27.1512L306.348 27.1581Z" fill="#ED72BC"/>
<path d="M301.808 14.0768L312.801 20.4395C314.583 21.4721 316.804 20.1814 316.804 18.1233V5.39768C316.804 3.33954 314.576 2.04885 312.801 3.08141L301.808 9.4442C300.026 10.4768 300.026 13.0512 301.808 14.0768Z" fill="#A5136A"/>
<path d="M291.804 14.9139L304.955 22.5256C307.378 23.9279 310.406 22.1767 310.406 19.3721V4.14882C310.406 1.34417 307.378 -0.406991 304.955 0.995334L291.804 8.60696C289.382 10.0093 289.382 13.5116 291.804 14.9139Z" fill="#D83A91"/>
</g>
<defs>
<clipPath id="clip0_211_8256">
<rect width="53" height="46" fill="white"/>
</clipPath>
<clipPath id="clip1_211_8256">
<rect width="41" height="46" fill="white" transform="translate(78)"/>
</clipPath>
<clipPath id="clip2_211_8256">
<rect width="47" height="46" fill="white" transform="translate(144)"/>
</clipPath>
<clipPath id="clip3_211_8256">
<rect width="40" height="40" fill="white" transform="translate(216 3)"/>
</clipPath>
<clipPath id="clip4_211_8256">
<rect width="39" height="45" fill="white" transform="translate(281 0.5)"/>
</clipPath>
</defs>
</svg>
