<svg width="446" height="277" viewBox="0 0 446 277" fill="none" xmlns="http://www.w3.org/2000/svg">
<rect width="217" height="108" fill="#1D2530"/>
<path d="M18.7109 88.6562C18.8359 88.6562 18.9323 88.6797 19 88.7266C19.0677 88.7734 19.1172 88.8594 19.1484 88.9844C19.1849 89.1094 19.2031 89.2943 19.2031 89.5391C19.2031 89.7839 19.1849 89.9688 19.1484 90.0938C19.1172 90.2188 19.0677 90.3047 19 90.3516C18.9323 90.3932 18.8359 90.4141 18.7109 90.4141H17.4922L17.0156 92.2344H18.0078C18.1328 92.2344 18.2292 92.2578 18.2969 92.3047C18.3646 92.3516 18.4141 92.4375 18.4453 92.5625C18.4818 92.6875 18.5 92.8724 18.5 93.1172C18.5 93.362 18.4818 93.5469 18.4453 93.6719C18.4141 93.7969 18.3646 93.8828 18.2969 93.9297C18.2292 93.9714 18.1328 93.9922 18.0078 93.9922H16.5625L16.0625 95.9141C16.0417 95.9974 15.974 96.0599 15.8594 96.1016C15.75 96.1484 15.6172 96.1719 15.4609 96.1719C15.2266 96.1719 15.013 96.1302 14.8203 96.0469C14.6328 95.9635 14.5391 95.8542 14.5391 95.7188C14.5391 95.6875 14.5417 95.6641 14.5469 95.6484L14.9766 93.9922H13.25L12.75 95.9141C12.7292 95.9974 12.6615 96.0599 12.5469 96.1016C12.4375 96.1484 12.3047 96.1719 12.1484 96.1719C11.9141 96.1719 11.7005 96.1302 11.5078 96.0469C11.3203 95.9635 11.2266 95.8542 11.2266 95.7188C11.2266 95.6875 11.2292 95.6641 11.2344 95.6484L11.6641 93.9922H10.8828C10.7578 93.9922 10.6615 93.9714 10.5938 93.9297C10.526 93.8828 10.474 93.7969 10.4375 93.6719C10.4062 93.5469 10.3906 93.362 10.3906 93.1172C10.3906 92.8724 10.4062 92.6875 10.4375 92.5625C10.474 92.4375 10.526 92.3516 10.5938 92.3047C10.6615 92.2578 10.7578 92.2344 10.8828 92.2344H12.125L12.5938 90.4141H11.5859C11.4609 90.4141 11.3646 90.3932 11.2969 90.3516C11.2292 90.3047 11.1771 90.2188 11.1406 90.0938C11.1094 89.9688 11.0938 89.7839 11.0938 89.5391C11.0938 89.2943 11.1094 89.1094 11.1406 88.9844C11.1771 88.8594 11.2292 88.7734 11.2969 88.7266C11.3646 88.6797 11.4609 88.6562 11.5859 88.6562H13.0547L13.5312 86.8125C13.5521 86.7292 13.6172 86.6667 13.7266 86.625C13.8411 86.5781 13.9766 86.5547 14.1328 86.5547C14.3672 86.5547 14.5781 86.5964 14.7656 86.6797C14.9583 86.763 15.0547 86.8724 15.0547 87.0078C15.0547 87.0391 15.0521 87.0625 15.0469 87.0781L14.6328 88.6562H16.3672L16.8438 86.8125C16.8646 86.7292 16.9297 86.6667 17.0391 86.625C17.1536 86.5781 17.2891 86.5547 17.4453 86.5547C17.6797 86.5547 17.8906 86.5964 18.0781 86.6797C18.2708 86.763 18.3672 86.8724 18.3672 87.0078C18.3672 87.0391 18.3646 87.0625 18.3594 87.0781L17.9453 88.6562H18.7109ZM15.4375 92.2344L15.9062 90.4141H14.1797L13.7031 92.2344H15.4375ZM28.7253 94.3984C28.8503 94.3984 28.9467 94.4219 29.0144 94.4688C29.0821 94.5104 29.1316 94.5885 29.1628 94.7031C29.1993 94.8177 29.2175 94.9844 29.2175 95.2031C29.2175 95.4219 29.1993 95.5885 29.1628 95.7031C29.1316 95.8177 29.0821 95.8958 29.0144 95.9375C28.9467 95.9792 28.8503 96 28.7253 96H23.0066C22.8816 96 22.7852 95.9792 22.7175 95.9375C22.6498 95.8958 22.5977 95.8177 22.5612 95.7031C22.53 95.5885 22.5144 95.4219 22.5144 95.2031C22.5144 94.9844 22.53 94.8177 22.5612 94.7031C22.5977 94.5885 22.6498 94.5104 22.7175 94.4688C22.7852 94.4219 22.8816 94.3984 23.0066 94.3984H24.9284V89.1328L23.2956 90.0625C23.2019 90.1146 23.1185 90.1406 23.0456 90.1406C22.9467 90.1406 22.8503 90.0938 22.7566 90C22.668 89.9062 22.5769 89.7578 22.4831 89.5547C22.379 89.3255 22.3269 89.1354 22.3269 88.9844C22.3269 88.875 22.3503 88.7839 22.3972 88.7109C22.4493 88.638 22.5274 88.5729 22.6316 88.5156L25.9284 86.6562C26.0743 86.5729 26.2227 86.5312 26.3737 86.5312C26.5248 86.5312 26.6472 86.5729 26.7409 86.6562C26.8347 86.7396 26.8816 86.8646 26.8816 87.0312V94.3984H28.7253ZM36.3881 86.7266C37.2996 86.7266 38.0834 86.9062 38.7397 87.2656C39.3959 87.625 39.8985 88.1536 40.2475 88.8516C40.5965 89.5443 40.7709 90.3802 40.7709 91.3594C40.7709 92.3385 40.5965 93.1771 40.2475 93.875C39.8985 94.5677 39.3959 95.0964 38.7397 95.4609C38.0834 95.8203 37.2996 96 36.3881 96H32.7084C32.5834 96 32.4871 95.9792 32.4194 95.9375C32.3517 95.8958 32.2996 95.8177 32.2631 95.7031C32.2319 95.5885 32.2162 95.4219 32.2162 95.2031C32.2162 94.9844 32.2319 94.8177 32.2631 94.7031C32.2996 94.5885 32.3517 94.5104 32.4194 94.4688C32.4871 94.4219 32.5834 94.3984 32.7084 94.3984H33.4662V88.3281H32.7084C32.5834 88.3281 32.4871 88.3073 32.4194 88.2656C32.3517 88.224 32.2996 88.1458 32.2631 88.0312C32.2319 87.9167 32.2162 87.75 32.2162 87.5312C32.2162 87.3125 32.2319 87.1458 32.2631 87.0312C32.2996 86.9167 32.3517 86.8385 32.4194 86.7969C32.4871 86.75 32.5834 86.7266 32.7084 86.7266H36.3881ZM35.4194 94.3203H36.2319C37.0392 94.3203 37.6485 94.0703 38.06 93.5703C38.4715 93.0651 38.6772 92.3281 38.6772 91.3594C38.6772 90.3906 38.4715 89.6562 38.06 89.1562C37.6485 88.6562 37.0392 88.4062 36.2319 88.4062H35.4194V94.3203ZM47.3088 86.5547C47.991 86.5547 48.5718 86.6745 49.0509 86.9141C49.5353 87.1484 49.8999 87.4792 50.1447 87.9062C50.3947 88.3333 50.5197 88.8333 50.5197 89.4062C50.5197 89.9323 50.3999 90.4167 50.1603 90.8594C49.9259 91.3021 49.5509 91.7708 49.0353 92.2656L46.9025 94.3203H49.1056V93.6016C49.1056 93.4193 49.1655 93.2917 49.2853 93.2188C49.4051 93.1458 49.6265 93.1094 49.9494 93.1094C50.2827 93.1094 50.5249 93.1484 50.6759 93.2266C50.827 93.2995 50.9025 93.4245 50.9025 93.6016V95.4922C50.9025 95.6693 50.8634 95.7995 50.7853 95.8828C50.7072 95.9609 50.577 96 50.3947 96H44.3478C44.2228 96 44.1265 95.9792 44.0588 95.9375C43.991 95.8906 43.939 95.8099 43.9025 95.6953C43.8713 95.5807 43.8556 95.4141 43.8556 95.1953C43.8556 94.987 43.8686 94.8307 43.8947 94.7266C43.9207 94.6224 43.9702 94.5365 44.0431 94.4688L47.3947 91.2422C47.827 90.8255 48.1239 90.4896 48.2853 90.2344C48.452 89.9792 48.5353 89.7161 48.5353 89.4453C48.5353 89.0859 48.4311 88.7969 48.2228 88.5781C48.0145 88.3594 47.7124 88.25 47.3166 88.25C46.8634 88.25 46.4129 88.3594 45.965 88.5781V89.6719C45.965 89.8542 45.9051 89.9818 45.7853 90.0547C45.6655 90.1276 45.4442 90.1641 45.1213 90.1641C44.7879 90.1641 44.5457 90.1276 44.3947 90.0547C44.2436 89.9766 44.1681 89.849 44.1681 89.6719V87.8203C44.1681 87.6068 44.2801 87.4401 44.5041 87.3203C44.9676 87.0651 45.439 86.875 45.9181 86.75C46.3973 86.6198 46.8608 86.5547 47.3088 86.5547ZM60.6903 86.7266C60.8726 86.7266 61.0002 86.7865 61.0731 86.9062C61.146 87.026 61.1825 87.2474 61.1825 87.5703C61.1825 87.8932 61.146 88.1146 61.0731 88.2344C61.0002 88.349 60.8726 88.4062 60.6903 88.4062H57.2372L57.1278 90.1484C57.6278 89.9557 58.1278 89.8594 58.6278 89.8594C59.2736 89.8594 59.8231 89.9922 60.2762 90.2578C60.7346 90.5182 61.0809 90.8854 61.3153 91.3594C61.5497 91.8281 61.6669 92.3698 61.6669 92.9844C61.6669 94.0312 61.3387 94.8255 60.6825 95.3672C60.0315 95.9036 59.1304 96.1719 57.9794 96.1719C57.4846 96.1719 56.9924 96.112 56.5028 95.9922C56.0184 95.8672 55.5731 95.6953 55.1669 95.4766C54.969 95.3672 54.87 95.2005 54.87 94.9766C54.87 94.8359 54.9143 94.6484 55.0028 94.4141C55.1799 93.9766 55.3778 93.7578 55.5966 93.7578C55.6382 93.7578 55.6903 93.7708 55.7528 93.7969C56.5549 94.1979 57.2971 94.3984 57.9794 94.3984C58.4585 94.3984 58.844 94.2734 59.1356 94.0234C59.4273 93.7734 59.5731 93.4271 59.5731 92.9844C59.5731 92.5625 59.4533 92.2318 59.2137 91.9922C58.9794 91.7526 58.646 91.6328 58.2137 91.6328C57.7242 91.6328 57.2242 91.7266 56.7137 91.9141C56.495 91.9974 56.2815 92.0391 56.0731 92.0391C55.7398 92.0391 55.5028 92 55.3622 91.9219C55.2268 91.8438 55.1643 91.7135 55.1747 91.5312L55.4325 87.2344C55.4429 87.0521 55.4846 86.9219 55.5575 86.8438C55.6356 86.7656 55.7632 86.7266 55.9403 86.7266H60.6903ZM68.9781 86.5547C70.0302 86.5547 70.8401 86.7839 71.4078 87.2422C71.9807 87.6953 72.2672 88.3516 72.2672 89.2109C72.2672 90.1016 71.9 90.7396 71.1656 91.125C71.5979 91.3229 71.9339 91.599 72.1734 91.9531C72.4182 92.3021 72.5406 92.724 72.5406 93.2188C72.5406 94.1927 72.2099 94.9297 71.5484 95.4297C70.887 95.9245 69.9625 96.1719 68.775 96.1719C67.7438 96.1719 66.8505 95.9714 66.0953 95.5703C65.8974 95.4714 65.7984 95.3047 65.7984 95.0703C65.7984 94.9297 65.8427 94.7422 65.9313 94.5078C66.1083 94.0703 66.3063 93.8516 66.525 93.8516C66.5667 93.8516 66.6188 93.8646 66.6813 93.8906C67.0198 94.0521 67.3688 94.1771 67.7281 94.2656C68.0875 94.3542 68.4365 94.3984 68.775 94.3984C69.3271 94.3984 69.7438 94.2969 70.025 94.0938C70.3063 93.8854 70.4469 93.5885 70.4469 93.2031C70.4469 92.8281 70.3349 92.5469 70.1109 92.3594C69.887 92.1667 69.5563 92.0703 69.1188 92.0703H68.3141C68.1318 92.0703 68.0042 92.013 67.9313 91.8984C67.8583 91.7786 67.8219 91.5573 67.8219 91.2344C67.8219 90.9115 67.8583 90.6901 67.9313 90.5703C68.0042 90.4505 68.1318 90.3906 68.3141 90.3906H68.9078C69.3714 90.3906 69.7151 90.3047 69.9391 90.1328C70.1682 89.9609 70.2828 89.6927 70.2828 89.3281C70.2828 88.974 70.1734 88.7057 69.9547 88.5234C69.7359 88.3411 69.413 88.25 68.9859 88.25C68.5953 88.25 68.1969 88.3099 67.7906 88.4297V89.0469C67.7906 89.2292 67.7307 89.3568 67.6109 89.4297C67.4911 89.5026 67.2698 89.5391 66.9469 89.5391C66.6135 89.5391 66.3714 89.5026 66.2203 89.4297C66.0693 89.3516 65.9938 89.224 65.9938 89.0469V87.5859C65.9938 87.3516 66.1214 87.1849 66.3766 87.0859C66.788 86.9193 67.2151 86.7891 67.6578 86.6953C68.1057 86.6016 68.5458 86.5547 68.9781 86.5547ZM80.0394 86.5547C80.805 86.5547 81.4717 86.7604 82.0394 87.1719C82.6071 87.5781 83.042 88.1458 83.3441 88.875C83.6461 89.599 83.7972 90.4297 83.7972 91.3672C83.7972 92.3047 83.6461 93.138 83.3441 93.8672C83.042 94.5911 82.6071 95.1562 82.0394 95.5625C81.4717 95.9688 80.805 96.1719 80.0394 96.1719C79.2738 96.1719 78.6071 95.9688 78.0394 95.5625C77.4717 95.1562 77.0368 94.5911 76.7347 93.8672C76.4326 93.138 76.2816 92.3047 76.2816 91.3672C76.2816 90.4297 76.4326 89.599 76.7347 88.875C77.0368 88.1458 77.4717 87.5781 78.0394 87.1719C78.6071 86.7604 79.2738 86.5547 80.0394 86.5547ZM80.0394 88.3281C79.4977 88.3281 79.0836 88.5859 78.7972 89.1016C78.5159 89.612 78.3753 90.3672 78.3753 91.3672C78.3753 92.3672 78.5159 93.1224 78.7972 93.6328C79.0836 94.1432 79.4977 94.3984 80.0394 94.3984C80.581 94.3984 80.9925 94.1432 81.2738 93.6328C81.5602 93.1224 81.7034 92.3672 81.7034 91.3672C81.7034 90.3672 81.5602 89.612 81.2738 89.1016C80.9925 88.5859 80.581 88.3281 80.0394 88.3281Z" fill="white"/>
<rect x="229" width="217" height="108" fill="#2A3647"/>
<path d="M247.711 88.6562C247.836 88.6562 247.932 88.6797 248 88.7266C248.068 88.7734 248.117 88.8594 248.148 88.9844C248.185 89.1094 248.203 89.2943 248.203 89.5391C248.203 89.7839 248.185 89.9688 248.148 90.0938C248.117 90.2188 248.068 90.3047 248 90.3516C247.932 90.3932 247.836 90.4141 247.711 90.4141H246.492L246.016 92.2344H247.008C247.133 92.2344 247.229 92.2578 247.297 92.3047C247.365 92.3516 247.414 92.4375 247.445 92.5625C247.482 92.6875 247.5 92.8724 247.5 93.1172C247.5 93.362 247.482 93.5469 247.445 93.6719C247.414 93.7969 247.365 93.8828 247.297 93.9297C247.229 93.9714 247.133 93.9922 247.008 93.9922H245.562L245.062 95.9141C245.042 95.9974 244.974 96.0599 244.859 96.1016C244.75 96.1484 244.617 96.1719 244.461 96.1719C244.227 96.1719 244.013 96.1302 243.82 96.0469C243.633 95.9635 243.539 95.8542 243.539 95.7188C243.539 95.6875 243.542 95.6641 243.547 95.6484L243.977 93.9922H242.25L241.75 95.9141C241.729 95.9974 241.661 96.0599 241.547 96.1016C241.438 96.1484 241.305 96.1719 241.148 96.1719C240.914 96.1719 240.701 96.1302 240.508 96.0469C240.32 95.9635 240.227 95.8542 240.227 95.7188C240.227 95.6875 240.229 95.6641 240.234 95.6484L240.664 93.9922H239.883C239.758 93.9922 239.661 93.9714 239.594 93.9297C239.526 93.8828 239.474 93.7969 239.438 93.6719C239.406 93.5469 239.391 93.362 239.391 93.1172C239.391 92.8724 239.406 92.6875 239.438 92.5625C239.474 92.4375 239.526 92.3516 239.594 92.3047C239.661 92.2578 239.758 92.2344 239.883 92.2344H241.125L241.594 90.4141H240.586C240.461 90.4141 240.365 90.3932 240.297 90.3516C240.229 90.3047 240.177 90.2188 240.141 90.0938C240.109 89.9688 240.094 89.7839 240.094 89.5391C240.094 89.2943 240.109 89.1094 240.141 88.9844C240.177 88.8594 240.229 88.7734 240.297 88.7266C240.365 88.6797 240.461 88.6562 240.586 88.6562H242.055L242.531 86.8125C242.552 86.7292 242.617 86.6667 242.727 86.625C242.841 86.5781 242.977 86.5547 243.133 86.5547C243.367 86.5547 243.578 86.5964 243.766 86.6797C243.958 86.763 244.055 86.8724 244.055 87.0078C244.055 87.0391 244.052 87.0625 244.047 87.0781L243.633 88.6562H245.367L245.844 86.8125C245.865 86.7292 245.93 86.6667 246.039 86.625C246.154 86.5781 246.289 86.5547 246.445 86.5547C246.68 86.5547 246.891 86.5964 247.078 86.6797C247.271 86.763 247.367 86.8724 247.367 87.0078C247.367 87.0391 247.365 87.0625 247.359 87.0781L246.945 88.6562H247.711ZM244.438 92.2344L244.906 90.4141H243.18L242.703 92.2344H244.438ZM254.561 86.5547C255.244 86.5547 255.824 86.6745 256.303 86.9141C256.788 87.1484 257.152 87.4792 257.397 87.9062C257.647 88.3333 257.772 88.8333 257.772 89.4062C257.772 89.9323 257.652 90.4167 257.413 90.8594C257.178 91.3021 256.803 91.7708 256.288 92.2656L254.155 94.3203H256.358V93.6016C256.358 93.4193 256.418 93.2917 256.538 93.2188C256.658 93.1458 256.879 93.1094 257.202 93.1094C257.535 93.1094 257.777 93.1484 257.928 93.2266C258.079 93.2995 258.155 93.4245 258.155 93.6016V95.4922C258.155 95.6693 258.116 95.7995 258.038 95.8828C257.96 95.9609 257.829 96 257.647 96H251.6C251.475 96 251.379 95.9792 251.311 95.9375C251.244 95.8906 251.191 95.8099 251.155 95.6953C251.124 95.5807 251.108 95.4141 251.108 95.1953C251.108 94.987 251.121 94.8307 251.147 94.7266C251.173 94.6224 251.223 94.5365 251.296 94.4688L254.647 91.2422C255.079 90.8255 255.376 90.4896 255.538 90.2344C255.704 89.9792 255.788 89.7161 255.788 89.4453C255.788 89.0859 255.684 88.7969 255.475 88.5781C255.267 88.3594 254.965 88.25 254.569 88.25C254.116 88.25 253.665 88.3594 253.217 88.5781V89.6719C253.217 89.8542 253.158 89.9818 253.038 90.0547C252.918 90.1276 252.697 90.1641 252.374 90.1641C252.04 90.1641 251.798 90.1276 251.647 90.0547C251.496 89.9766 251.421 89.849 251.421 89.6719V87.8203C251.421 87.6068 251.533 87.4401 251.757 87.3203C252.22 87.0651 252.691 86.875 253.171 86.75C253.65 86.6198 254.113 86.5547 254.561 86.5547ZM266.193 86.7266C266.401 86.7266 266.57 86.7682 266.701 86.8516C266.831 86.9297 266.925 87.0573 266.982 87.2344L269.247 94.3984H269.927C270.052 94.3984 270.149 94.4193 270.216 94.4609C270.284 94.5026 270.333 94.5807 270.365 94.6953C270.401 94.8099 270.419 94.9766 270.419 95.1953C270.419 95.4141 270.401 95.5807 270.365 95.6953C270.333 95.8099 270.284 95.8906 270.216 95.9375C270.149 95.9792 270.052 96 269.927 96H266.615C266.49 96 266.393 95.9792 266.326 95.9375C266.258 95.8906 266.206 95.8099 266.169 95.6953C266.138 95.5807 266.122 95.4141 266.122 95.1953C266.122 94.9766 266.138 94.8099 266.169 94.6953C266.206 94.5807 266.258 94.5026 266.326 94.4609C266.393 94.4193 266.49 94.3984 266.615 94.3984H267.287L266.935 93.2656H264.091L263.74 94.3984H264.318C264.443 94.3984 264.539 94.4193 264.607 94.4609C264.675 94.5026 264.724 94.5807 264.755 94.6953C264.792 94.8099 264.81 94.9766 264.81 95.1953C264.81 95.4141 264.792 95.5807 264.755 95.6953C264.724 95.8099 264.675 95.8906 264.607 95.9375C264.539 95.9792 264.443 96 264.318 96H261.162C261.037 96 260.94 95.9792 260.872 95.9375C260.805 95.8906 260.755 95.8099 260.724 95.6953C260.688 95.5807 260.669 95.4141 260.669 95.1953C260.669 94.9766 260.688 94.8099 260.724 94.6953C260.755 94.5807 260.805 94.5026 260.872 94.4609C260.94 94.4193 261.037 94.3984 261.162 94.3984H261.818L263.794 88.3281H262.49C262.365 88.3281 262.268 88.3073 262.201 88.2656C262.133 88.2188 262.081 88.138 262.044 88.0234C262.013 87.9089 261.997 87.7422 261.997 87.5234C261.997 87.3047 262.013 87.138 262.044 87.0234C262.081 86.9089 262.133 86.8307 262.201 86.7891C262.268 86.7474 262.365 86.7266 262.49 86.7266H266.193ZM265.505 88.3281L264.544 91.6641H266.49L265.552 88.3281H265.505ZM276.231 86.5547C277.283 86.5547 278.093 86.7839 278.66 87.2422C279.233 87.6953 279.52 88.3516 279.52 89.2109C279.52 90.1016 279.153 90.7396 278.418 91.125C278.85 91.3229 279.186 91.599 279.426 91.9531C279.671 92.3021 279.793 92.724 279.793 93.2188C279.793 94.1927 279.462 94.9297 278.801 95.4297C278.139 95.9245 277.215 96.1719 276.028 96.1719C274.996 96.1719 274.103 95.9714 273.348 95.5703C273.15 95.4714 273.051 95.3047 273.051 95.0703C273.051 94.9297 273.095 94.7422 273.184 94.5078C273.361 94.0703 273.559 93.8516 273.778 93.8516C273.819 93.8516 273.871 93.8646 273.934 93.8906C274.272 94.0521 274.621 94.1771 274.981 94.2656C275.34 94.3542 275.689 94.3984 276.028 94.3984C276.58 94.3984 276.996 94.2969 277.278 94.0938C277.559 93.8854 277.699 93.5885 277.699 93.2031C277.699 92.8281 277.587 92.5469 277.363 92.3594C277.139 92.1667 276.809 92.0703 276.371 92.0703H275.567C275.384 92.0703 275.257 92.013 275.184 91.8984C275.111 91.7786 275.074 91.5573 275.074 91.2344C275.074 90.9115 275.111 90.6901 275.184 90.5703C275.257 90.4505 275.384 90.3906 275.567 90.3906H276.16C276.624 90.3906 276.968 90.3047 277.192 90.1328C277.421 89.9609 277.535 89.6927 277.535 89.3281C277.535 88.974 277.426 88.7057 277.207 88.5234C276.988 88.3411 276.666 88.25 276.238 88.25C275.848 88.25 275.449 88.3099 275.043 88.4297V89.0469C275.043 89.2292 274.983 89.3568 274.863 89.4297C274.744 89.5026 274.522 89.5391 274.199 89.5391C273.866 89.5391 273.624 89.5026 273.473 89.4297C273.322 89.3516 273.246 89.224 273.246 89.0469V87.5859C273.246 87.3516 273.374 87.1849 273.629 87.0859C274.041 86.9193 274.468 86.7891 274.91 86.6953C275.358 86.6016 275.798 86.5547 276.231 86.5547ZM290.128 86.5547C290.263 86.5495 290.367 86.6146 290.44 86.75C290.518 86.8854 290.571 87.099 290.597 87.3906C290.607 87.4792 290.612 87.5964 290.612 87.7422C290.612 88.1953 290.505 88.4297 290.292 88.4453C289.334 88.4922 288.539 88.6146 287.909 88.8125C287.284 89.0104 286.797 89.2969 286.448 89.6719C286.104 90.0469 285.88 90.5312 285.776 91.125C286.057 90.8125 286.373 90.5833 286.722 90.4375C287.071 90.2865 287.472 90.2109 287.925 90.2109C288.503 90.2109 289.018 90.3359 289.472 90.5859C289.925 90.8307 290.279 91.1745 290.534 91.6172C290.789 92.0599 290.917 92.5677 290.917 93.1406C290.917 93.724 290.766 94.2474 290.464 94.7109C290.167 95.1693 289.753 95.5286 289.222 95.7891C288.69 96.0443 288.091 96.1719 287.425 96.1719C286.768 96.1719 286.188 96.0391 285.682 95.7734C285.177 95.5078 284.755 95.125 284.417 94.625C284.203 94.3073 284.037 93.9219 283.917 93.4688C283.802 93.0156 283.745 92.526 283.745 92C283.745 90.901 283.987 89.9557 284.472 89.1641C284.961 88.3672 285.682 87.7474 286.636 87.3047C287.589 86.8568 288.753 86.6068 290.128 86.5547ZM287.479 91.8672C287.177 91.8672 286.909 91.9193 286.675 92.0234C286.44 92.1276 286.258 92.2734 286.128 92.4609C285.998 92.6484 285.932 92.862 285.932 93.1016C285.932 93.3411 285.99 93.5625 286.104 93.7656C286.224 93.9688 286.396 94.1302 286.62 94.25C286.849 94.3698 287.115 94.4297 287.417 94.4297C287.865 94.4297 288.224 94.3151 288.495 94.0859C288.766 93.8516 288.901 93.5391 288.901 93.1484C288.901 92.7474 288.774 92.4349 288.518 92.2109C288.268 91.9818 287.922 91.8672 287.479 91.8672ZM299.291 86.5547C299.593 86.5547 299.804 86.6146 299.923 86.7344C300.048 86.8542 300.111 87.0286 300.111 87.2578V91.5078H301.455C301.58 91.5078 301.676 91.5312 301.744 91.5781C301.811 91.6198 301.861 91.6979 301.892 91.8125C301.929 91.9271 301.947 92.0938 301.947 92.3125C301.947 92.5312 301.929 92.6979 301.892 92.8125C301.861 92.9271 301.811 93.0052 301.744 93.0469C301.676 93.0885 301.58 93.1094 301.455 93.1094H300.111V94.3984H301.22C301.345 94.3984 301.442 94.4219 301.509 94.4688C301.577 94.5104 301.627 94.5885 301.658 94.7031C301.694 94.8177 301.713 94.9844 301.713 95.2031C301.713 95.4219 301.694 95.5885 301.658 95.7031C301.627 95.8177 301.577 95.8958 301.509 95.9375C301.442 95.9792 301.345 96 301.22 96H296.83C296.705 96 296.608 95.9792 296.541 95.9375C296.473 95.8958 296.421 95.8177 296.384 95.7031C296.353 95.5885 296.338 95.4219 296.338 95.2031C296.338 94.9844 296.353 94.8177 296.384 94.7031C296.421 94.5885 296.473 94.5104 296.541 94.4688C296.608 94.4219 296.705 94.3984 296.83 94.3984H298.158V93.1094H294.798C294.673 93.1094 294.577 93.0885 294.509 93.0469C294.442 93.0052 294.39 92.9271 294.353 92.8125C294.322 92.6979 294.306 92.5312 294.306 92.3125C294.306 91.974 294.356 91.7422 294.455 91.6172L298.127 87.0938C298.267 86.9167 298.429 86.7839 298.611 86.6953C298.798 86.6016 299.025 86.5547 299.291 86.5547ZM296.517 91.5078H298.228L298.353 89.2266L296.517 91.5078ZM312.188 86.7266C312.313 86.7266 312.409 86.75 312.477 86.7969C312.545 86.8385 312.594 86.9167 312.625 87.0312C312.662 87.1458 312.68 87.3125 312.68 87.5312C312.68 87.7865 312.657 87.974 312.61 88.0938L309.352 95.8125C309.3 95.9323 309.209 96.0208 309.078 96.0781C308.953 96.1406 308.802 96.1719 308.625 96.1719C308.474 96.1719 308.326 96.1536 308.18 96.1172C307.946 96.0651 307.753 95.9818 307.602 95.8672C307.456 95.7474 307.383 95.6094 307.383 95.4531C307.383 95.3906 307.399 95.3203 307.43 95.2422L310.368 88.4062H307.508V89.9062C307.508 90.0885 307.448 90.2161 307.328 90.2891C307.209 90.362 306.987 90.3984 306.664 90.3984C306.331 90.3984 306.089 90.362 305.938 90.2891C305.787 90.2109 305.711 90.0833 305.711 89.9062V87.2344C305.711 87.0521 305.75 86.9219 305.828 86.8438C305.912 86.7656 306.042 86.7266 306.219 86.7266H312.188Z" fill="white"/>
<rect y="121" width="141" height="72" fill="#3F94B1"/>
<path d="M17.7109 173.656C17.8359 173.656 17.9323 173.68 18 173.727C18.0677 173.773 18.1172 173.859 18.1484 173.984C18.1849 174.109 18.2031 174.294 18.2031 174.539C18.2031 174.784 18.1849 174.969 18.1484 175.094C18.1172 175.219 18.0677 175.305 18 175.352C17.9323 175.393 17.8359 175.414 17.7109 175.414H16.4922L16.0156 177.234H17.0078C17.1328 177.234 17.2292 177.258 17.2969 177.305C17.3646 177.352 17.4141 177.438 17.4453 177.562C17.4818 177.688 17.5 177.872 17.5 178.117C17.5 178.362 17.4818 178.547 17.4453 178.672C17.4141 178.797 17.3646 178.883 17.2969 178.93C17.2292 178.971 17.1328 178.992 17.0078 178.992H15.5625L15.0625 180.914C15.0417 180.997 14.974 181.06 14.8594 181.102C14.75 181.148 14.6172 181.172 14.4609 181.172C14.2266 181.172 14.013 181.13 13.8203 181.047C13.6328 180.964 13.5391 180.854 13.5391 180.719C13.5391 180.688 13.5417 180.664 13.5469 180.648L13.9766 178.992H12.25L11.75 180.914C11.7292 180.997 11.6615 181.06 11.5469 181.102C11.4375 181.148 11.3047 181.172 11.1484 181.172C10.9141 181.172 10.7005 181.13 10.5078 181.047C10.3203 180.964 10.2266 180.854 10.2266 180.719C10.2266 180.688 10.2292 180.664 10.2344 180.648L10.6641 178.992H9.88281C9.75781 178.992 9.66146 178.971 9.59375 178.93C9.52604 178.883 9.47396 178.797 9.4375 178.672C9.40625 178.547 9.39062 178.362 9.39062 178.117C9.39062 177.872 9.40625 177.688 9.4375 177.562C9.47396 177.438 9.52604 177.352 9.59375 177.305C9.66146 177.258 9.75781 177.234 9.88281 177.234H11.125L11.5938 175.414H10.5859C10.4609 175.414 10.3646 175.393 10.2969 175.352C10.2292 175.305 10.1771 175.219 10.1406 175.094C10.1094 174.969 10.0938 174.784 10.0938 174.539C10.0938 174.294 10.1094 174.109 10.1406 173.984C10.1771 173.859 10.2292 173.773 10.2969 173.727C10.3646 173.68 10.4609 173.656 10.5859 173.656H12.0547L12.5312 171.812C12.5521 171.729 12.6172 171.667 12.7266 171.625C12.8411 171.578 12.9766 171.555 13.1328 171.555C13.3672 171.555 13.5781 171.596 13.7656 171.68C13.9583 171.763 14.0547 171.872 14.0547 172.008C14.0547 172.039 14.0521 172.062 14.0469 172.078L13.6328 173.656H15.3672L15.8438 171.812C15.8646 171.729 15.9297 171.667 16.0391 171.625C16.1536 171.578 16.2891 171.555 16.4453 171.555C16.6797 171.555 16.8906 171.596 17.0781 171.68C17.2708 171.763 17.3672 171.872 17.3672 172.008C17.3672 172.039 17.3646 172.062 17.3594 172.078L16.9453 173.656H17.7109ZM14.4375 177.234L14.9062 175.414H13.1797L12.7031 177.234H14.4375ZM24.4831 171.555C25.5352 171.555 26.3451 171.784 26.9128 172.242C27.4857 172.695 27.7722 173.352 27.7722 174.211C27.7722 175.102 27.405 175.74 26.6706 176.125C27.1029 176.323 27.4389 176.599 27.6784 176.953C27.9232 177.302 28.0456 177.724 28.0456 178.219C28.0456 179.193 27.7149 179.93 27.0534 180.43C26.392 180.924 25.4675 181.172 24.28 181.172C23.2487 181.172 22.3555 180.971 21.6003 180.57C21.4024 180.471 21.3034 180.305 21.3034 180.07C21.3034 179.93 21.3477 179.742 21.4362 179.508C21.6133 179.07 21.8112 178.852 22.03 178.852C22.0717 178.852 22.1237 178.865 22.1862 178.891C22.5248 179.052 22.8737 179.177 23.2331 179.266C23.5925 179.354 23.9415 179.398 24.28 179.398C24.8321 179.398 25.2487 179.297 25.53 179.094C25.8112 178.885 25.9519 178.589 25.9519 178.203C25.9519 177.828 25.8399 177.547 25.6159 177.359C25.392 177.167 25.0612 177.07 24.6237 177.07H23.8191C23.6368 177.07 23.5092 177.013 23.4362 176.898C23.3633 176.779 23.3269 176.557 23.3269 176.234C23.3269 175.911 23.3633 175.69 23.4362 175.57C23.5092 175.451 23.6368 175.391 23.8191 175.391H24.4128C24.8764 175.391 25.2201 175.305 25.4441 175.133C25.6732 174.961 25.7878 174.693 25.7878 174.328C25.7878 173.974 25.6784 173.706 25.4597 173.523C25.2409 173.341 24.918 173.25 24.4909 173.25C24.1003 173.25 23.7019 173.31 23.2956 173.43V174.047C23.2956 174.229 23.2357 174.357 23.1159 174.43C22.9961 174.503 22.7748 174.539 22.4519 174.539C22.1185 174.539 21.8764 174.503 21.7253 174.43C21.5743 174.352 21.4987 174.224 21.4987 174.047V172.586C21.4987 172.352 21.6264 172.185 21.8816 172.086C22.293 171.919 22.7201 171.789 23.1628 171.695C23.6107 171.602 24.0508 171.555 24.4831 171.555ZM38.9897 171.727C39.172 171.727 39.3022 171.766 39.3803 171.844C39.4584 171.922 39.4975 172.052 39.4975 172.234V174.594C39.4975 174.771 39.422 174.898 39.2709 174.977C39.1199 175.049 38.8777 175.086 38.5444 175.086C38.2215 175.086 38.0001 175.049 37.8803 174.977C37.7605 174.904 37.7006 174.776 37.7006 174.594V173.406H34.6537V175.789H37.0287C37.211 175.789 37.3386 175.849 37.4116 175.969C37.4845 176.089 37.5209 176.31 37.5209 176.633C37.5209 176.956 37.4845 177.177 37.4116 177.297C37.3386 177.411 37.211 177.469 37.0287 177.469H34.6537V179.398H36.3491C36.4741 179.398 36.5704 179.422 36.6381 179.469C36.7058 179.51 36.7553 179.589 36.7866 179.703C36.823 179.818 36.8412 179.984 36.8412 180.203C36.8412 180.422 36.823 180.589 36.7866 180.703C36.7553 180.818 36.7058 180.896 36.6381 180.938C36.5704 180.979 36.4741 181 36.3491 181H31.7084C31.5834 181 31.4871 180.979 31.4194 180.938C31.3517 180.896 31.2996 180.818 31.2631 180.703C31.2319 180.589 31.2162 180.422 31.2162 180.203C31.2162 179.984 31.2319 179.818 31.2631 179.703C31.2996 179.589 31.3517 179.51 31.4194 179.469C31.4871 179.422 31.5834 179.398 31.7084 179.398H32.7006V173.328H31.7084C31.5834 173.328 31.4871 173.307 31.4194 173.266C31.3517 173.224 31.2996 173.146 31.2631 173.031C31.2319 172.917 31.2162 172.75 31.2162 172.531C31.2162 172.312 31.2319 172.146 31.2631 172.031C31.2996 171.917 31.3517 171.839 31.4194 171.797C31.4871 171.75 31.5834 171.727 31.7084 171.727H38.9897ZM46.2853 171.555C46.9416 171.555 47.5223 171.688 48.0275 171.953C48.5327 172.219 48.9546 172.602 49.2931 173.102C49.5067 173.419 49.6707 173.805 49.7853 174.258C49.9051 174.711 49.965 175.201 49.965 175.727C49.965 177.424 49.4858 178.737 48.5275 179.664C47.5744 180.591 46.0822 181.094 44.0509 181.172C43.9155 181.177 43.8088 181.112 43.7306 180.977C43.6577 180.841 43.6082 180.628 43.5822 180.336C43.5718 180.247 43.5666 180.13 43.5666 179.984C43.5666 179.531 43.6733 179.297 43.8869 179.281C44.8348 179.234 45.5874 179.115 46.1447 178.922C46.7072 178.724 47.1265 178.44 47.4025 178.07C47.6785 177.701 47.8556 177.211 47.9338 176.602C47.6525 176.914 47.3374 177.146 46.9884 177.297C46.6395 177.443 46.2384 177.516 45.7853 177.516C45.2072 177.516 44.6916 177.393 44.2384 177.148C43.7853 176.898 43.4311 176.552 43.1759 176.109C42.9207 175.667 42.7931 175.159 42.7931 174.586C42.7931 174.003 42.9416 173.482 43.2384 173.023C43.5405 172.56 43.9572 172.201 44.4884 171.945C45.0197 171.685 45.6186 171.555 46.2853 171.555ZM46.2931 173.297C45.8452 173.297 45.4858 173.414 45.215 173.648C44.9442 173.878 44.8088 174.188 44.8088 174.578C44.8088 174.979 44.9338 175.294 45.1838 175.523C45.439 175.747 45.7879 175.859 46.2306 175.859C46.5327 175.859 46.8009 175.807 47.0353 175.703C47.2697 175.599 47.452 175.453 47.5822 175.266C47.7124 175.078 47.7775 174.865 47.7775 174.625C47.7775 174.385 47.7176 174.164 47.5978 173.961C47.4832 173.758 47.3114 173.596 47.0822 173.477C46.8582 173.357 46.5952 173.297 46.2931 173.297ZM58.4169 171.555C58.719 171.555 58.9299 171.615 59.0497 171.734C59.1747 171.854 59.2372 172.029 59.2372 172.258V176.508H60.5809C60.7059 176.508 60.8023 176.531 60.87 176.578C60.9377 176.62 60.9872 176.698 61.0184 176.812C61.0549 176.927 61.0731 177.094 61.0731 177.312C61.0731 177.531 61.0549 177.698 61.0184 177.812C60.9872 177.927 60.9377 178.005 60.87 178.047C60.8023 178.089 60.7059 178.109 60.5809 178.109H59.2372V179.398H60.3466C60.4716 179.398 60.5679 179.422 60.6356 179.469C60.7033 179.51 60.7528 179.589 60.7841 179.703C60.8205 179.818 60.8387 179.984 60.8387 180.203C60.8387 180.422 60.8205 180.589 60.7841 180.703C60.7528 180.818 60.7033 180.896 60.6356 180.938C60.5679 180.979 60.4716 181 60.3466 181H55.9559C55.8309 181 55.7346 180.979 55.6669 180.938C55.5992 180.896 55.5471 180.818 55.5106 180.703C55.4794 180.589 55.4637 180.422 55.4637 180.203C55.4637 179.984 55.4794 179.818 55.5106 179.703C55.5471 179.589 55.5992 179.51 55.6669 179.469C55.7346 179.422 55.8309 179.398 55.9559 179.398H57.2841V178.109H53.9247C53.7997 178.109 53.7033 178.089 53.6356 178.047C53.5679 178.005 53.5158 177.927 53.4794 177.812C53.4481 177.698 53.4325 177.531 53.4325 177.312C53.4325 176.974 53.482 176.742 53.5809 176.617L57.2528 172.094C57.3934 171.917 57.5549 171.784 57.7372 171.695C57.9247 171.602 58.1512 171.555 58.4169 171.555ZM55.6434 176.508H57.3544L57.4794 174.227L55.6434 176.508ZM68.4781 171.727C69.5667 171.727 70.3714 171.951 70.8922 172.398C71.4182 172.841 71.6813 173.458 71.6813 174.25C71.6813 174.677 71.5745 175.044 71.3609 175.352C71.1526 175.654 70.8583 175.896 70.4781 176.078C71.6708 176.401 72.2672 177.146 72.2672 178.312C72.2672 179.193 71.9781 179.862 71.4 180.32C70.8219 180.773 69.9938 181 68.9156 181H64.4078C64.2828 181 64.1865 180.979 64.1188 180.938C64.051 180.896 63.999 180.818 63.9625 180.703C63.9313 180.589 63.9156 180.422 63.9156 180.203C63.9156 179.984 63.9313 179.818 63.9625 179.703C63.999 179.589 64.051 179.51 64.1188 179.469C64.1865 179.422 64.2828 179.398 64.4078 179.398H65.2438V173.328H64.4078C64.2828 173.328 64.1865 173.307 64.1188 173.266C64.051 173.224 63.999 173.146 63.9625 173.031C63.9313 172.917 63.9156 172.75 63.9156 172.531C63.9156 172.312 63.9313 172.146 63.9625 172.031C63.999 171.917 64.051 171.839 64.1188 171.797C64.1865 171.75 64.2828 171.727 64.4078 171.727H68.4781ZM67.1969 175.422H68.3063C68.775 175.422 69.124 175.339 69.3531 175.172C69.5823 175.005 69.6969 174.75 69.6969 174.406C69.6969 174.057 69.5849 173.805 69.3609 173.648C69.1422 173.487 68.7906 173.406 68.3063 173.406H67.1969V175.422ZM67.1969 179.32H68.6969C69.7073 179.32 70.2125 178.958 70.2125 178.234C70.2125 177.849 70.0875 177.565 69.8375 177.383C69.5927 177.195 69.2125 177.102 68.6969 177.102H67.1969V179.32ZM82.0941 179.398C82.2191 179.398 82.3154 179.422 82.3831 179.469C82.4508 179.51 82.5003 179.589 82.5316 179.703C82.568 179.818 82.5863 179.984 82.5863 180.203C82.5863 180.422 82.568 180.589 82.5316 180.703C82.5003 180.818 82.4508 180.896 82.3831 180.938C82.3154 180.979 82.2191 181 82.0941 181H76.3753C76.2503 181 76.154 180.979 76.0863 180.938C76.0185 180.896 75.9665 180.818 75.93 180.703C75.8988 180.589 75.8831 180.422 75.8831 180.203C75.8831 179.984 75.8988 179.818 75.93 179.703C75.9665 179.589 76.0185 179.51 76.0863 179.469C76.154 179.422 76.2503 179.398 76.3753 179.398H78.2972V174.133L76.6644 175.062C76.5706 175.115 76.4873 175.141 76.4144 175.141C76.3154 175.141 76.2191 175.094 76.1253 175C76.0368 174.906 75.9456 174.758 75.8519 174.555C75.7477 174.326 75.6956 174.135 75.6956 173.984C75.6956 173.875 75.7191 173.784 75.7659 173.711C75.818 173.638 75.8961 173.573 76.0003 173.516L79.2972 171.656C79.443 171.573 79.5915 171.531 79.7425 171.531C79.8935 171.531 80.0159 171.573 80.1097 171.656C80.2034 171.74 80.2503 171.865 80.2503 172.031V179.398H82.0941Z" fill="white"/>
<rect y="205" width="141" height="72" fill="#7E8CA4"/>
<rect x="153" y="121" width="141" height="72" fill="#63B9D7"/>
<path d="M172.711 173.656C172.836 173.656 172.932 173.68 173 173.727C173.068 173.773 173.117 173.859 173.148 173.984C173.185 174.109 173.203 174.294 173.203 174.539C173.203 174.784 173.185 174.969 173.148 175.094C173.117 175.219 173.068 175.305 173 175.352C172.932 175.393 172.836 175.414 172.711 175.414H171.492L171.016 177.234H172.008C172.133 177.234 172.229 177.258 172.297 177.305C172.365 177.352 172.414 177.438 172.445 177.562C172.482 177.688 172.5 177.872 172.5 178.117C172.5 178.362 172.482 178.547 172.445 178.672C172.414 178.797 172.365 178.883 172.297 178.93C172.229 178.971 172.133 178.992 172.008 178.992H170.562L170.062 180.914C170.042 180.997 169.974 181.06 169.859 181.102C169.75 181.148 169.617 181.172 169.461 181.172C169.227 181.172 169.013 181.13 168.82 181.047C168.633 180.964 168.539 180.854 168.539 180.719C168.539 180.688 168.542 180.664 168.547 180.648L168.977 178.992H167.25L166.75 180.914C166.729 180.997 166.661 181.06 166.547 181.102C166.438 181.148 166.305 181.172 166.148 181.172C165.914 181.172 165.701 181.13 165.508 181.047C165.32 180.964 165.227 180.854 165.227 180.719C165.227 180.688 165.229 180.664 165.234 180.648L165.664 178.992H164.883C164.758 178.992 164.661 178.971 164.594 178.93C164.526 178.883 164.474 178.797 164.438 178.672C164.406 178.547 164.391 178.362 164.391 178.117C164.391 177.872 164.406 177.688 164.438 177.562C164.474 177.438 164.526 177.352 164.594 177.305C164.661 177.258 164.758 177.234 164.883 177.234H166.125L166.594 175.414H165.586C165.461 175.414 165.365 175.393 165.297 175.352C165.229 175.305 165.177 175.219 165.141 175.094C165.109 174.969 165.094 174.784 165.094 174.539C165.094 174.294 165.109 174.109 165.141 173.984C165.177 173.859 165.229 173.773 165.297 173.727C165.365 173.68 165.461 173.656 165.586 173.656H167.055L167.531 171.812C167.552 171.729 167.617 171.667 167.727 171.625C167.841 171.578 167.977 171.555 168.133 171.555C168.367 171.555 168.578 171.596 168.766 171.68C168.958 171.763 169.055 171.872 169.055 172.008C169.055 172.039 169.052 172.062 169.047 172.078L168.633 173.656H170.367L170.844 171.812C170.865 171.729 170.93 171.667 171.039 171.625C171.154 171.578 171.289 171.555 171.445 171.555C171.68 171.555 171.891 171.596 172.078 171.68C172.271 171.763 172.367 171.872 172.367 172.008C172.367 172.039 172.365 172.062 172.359 172.078L171.945 173.656H172.711ZM169.438 177.234L169.906 175.414H168.18L167.703 177.234H169.438ZM182.507 171.555C182.642 171.549 182.746 171.615 182.819 171.75C182.897 171.885 182.949 172.099 182.975 172.391C182.986 172.479 182.991 172.596 182.991 172.742C182.991 173.195 182.884 173.43 182.671 173.445C181.712 173.492 180.918 173.615 180.288 173.812C179.663 174.01 179.176 174.297 178.827 174.672C178.483 175.047 178.259 175.531 178.155 176.125C178.436 175.812 178.751 175.583 179.1 175.438C179.449 175.286 179.85 175.211 180.303 175.211C180.882 175.211 181.397 175.336 181.85 175.586C182.303 175.831 182.658 176.174 182.913 176.617C183.168 177.06 183.296 177.568 183.296 178.141C183.296 178.724 183.145 179.247 182.842 179.711C182.546 180.169 182.132 180.529 181.6 180.789C181.069 181.044 180.47 181.172 179.803 181.172C179.147 181.172 178.566 181.039 178.061 180.773C177.556 180.508 177.134 180.125 176.796 179.625C176.582 179.307 176.415 178.922 176.296 178.469C176.181 178.016 176.124 177.526 176.124 177C176.124 175.901 176.366 174.956 176.85 174.164C177.34 173.367 178.061 172.747 179.014 172.305C179.967 171.857 181.132 171.607 182.507 171.555ZM179.858 176.867C179.556 176.867 179.288 176.919 179.053 177.023C178.819 177.128 178.637 177.273 178.507 177.461C178.376 177.648 178.311 177.862 178.311 178.102C178.311 178.341 178.369 178.562 178.483 178.766C178.603 178.969 178.775 179.13 178.999 179.25C179.228 179.37 179.494 179.43 179.796 179.43C180.244 179.43 180.603 179.315 180.874 179.086C181.145 178.852 181.28 178.539 181.28 178.148C181.28 177.747 181.152 177.435 180.897 177.211C180.647 176.982 180.301 176.867 179.858 176.867ZM190.357 171.555C191.409 171.555 192.219 171.784 192.787 172.242C193.359 172.695 193.646 173.352 193.646 174.211C193.646 175.102 193.279 175.74 192.544 176.125C192.977 176.323 193.313 176.599 193.552 176.953C193.797 177.302 193.919 177.724 193.919 178.219C193.919 179.193 193.589 179.93 192.927 180.43C192.266 180.924 191.341 181.172 190.154 181.172C189.122 181.172 188.229 180.971 187.474 180.57C187.276 180.471 187.177 180.305 187.177 180.07C187.177 179.93 187.221 179.742 187.31 179.508C187.487 179.07 187.685 178.852 187.904 178.852C187.945 178.852 187.997 178.865 188.06 178.891C188.399 179.052 188.747 179.177 189.107 179.266C189.466 179.354 189.815 179.398 190.154 179.398C190.706 179.398 191.122 179.297 191.404 179.094C191.685 178.885 191.826 178.589 191.826 178.203C191.826 177.828 191.714 177.547 191.49 177.359C191.266 177.167 190.935 177.07 190.497 177.07H189.693C189.511 177.07 189.383 177.013 189.31 176.898C189.237 176.779 189.201 176.557 189.201 176.234C189.201 175.911 189.237 175.69 189.31 175.57C189.383 175.451 189.511 175.391 189.693 175.391H190.287C190.75 175.391 191.094 175.305 191.318 175.133C191.547 174.961 191.662 174.693 191.662 174.328C191.662 173.974 191.552 173.706 191.333 173.523C191.115 173.341 190.792 173.25 190.365 173.25C189.974 173.25 189.576 173.31 189.169 173.43V174.047C189.169 174.229 189.109 174.357 188.99 174.43C188.87 174.503 188.649 174.539 188.326 174.539C187.992 174.539 187.75 174.503 187.599 174.43C187.448 174.352 187.372 174.224 187.372 174.047V172.586C187.372 172.352 187.5 172.185 187.755 172.086C188.167 171.919 188.594 171.789 189.037 171.695C189.484 171.602 189.925 171.555 190.357 171.555ZM201.731 171.727C202.819 171.727 203.624 171.951 204.145 172.398C204.671 172.841 204.934 173.458 204.934 174.25C204.934 174.677 204.827 175.044 204.613 175.352C204.405 175.654 204.111 175.896 203.731 176.078C204.923 176.401 205.52 177.146 205.52 178.312C205.52 179.193 205.231 179.862 204.653 180.32C204.074 180.773 203.246 181 202.168 181H197.66C197.535 181 197.439 180.979 197.371 180.938C197.304 180.896 197.251 180.818 197.215 180.703C197.184 180.589 197.168 180.422 197.168 180.203C197.168 179.984 197.184 179.818 197.215 179.703C197.251 179.589 197.304 179.51 197.371 179.469C197.439 179.422 197.535 179.398 197.66 179.398H198.496V173.328H197.66C197.535 173.328 197.439 173.307 197.371 173.266C197.304 173.224 197.251 173.146 197.215 173.031C197.184 172.917 197.168 172.75 197.168 172.531C197.168 172.312 197.184 172.146 197.215 172.031C197.251 171.917 197.304 171.839 197.371 171.797C197.439 171.75 197.535 171.727 197.66 171.727H201.731ZM200.449 175.422H201.559C202.028 175.422 202.376 175.339 202.606 175.172C202.835 175.005 202.949 174.75 202.949 174.406C202.949 174.057 202.837 173.805 202.613 173.648C202.395 173.487 202.043 173.406 201.559 173.406H200.449V175.422ZM200.449 179.32H201.949C202.96 179.32 203.465 178.958 203.465 178.234C203.465 177.849 203.34 177.565 203.09 177.383C202.845 177.195 202.465 177.102 201.949 177.102H200.449V179.32ZM212.159 171.555C212.815 171.555 213.396 171.688 213.901 171.953C214.406 172.219 214.828 172.602 215.167 173.102C215.38 173.419 215.544 173.805 215.659 174.258C215.779 174.711 215.839 175.201 215.839 175.727C215.839 177.424 215.36 178.737 214.401 179.664C213.448 180.591 211.956 181.094 209.925 181.172C209.789 181.177 209.682 181.112 209.604 180.977C209.531 180.841 209.482 180.628 209.456 180.336C209.446 180.247 209.44 180.13 209.44 179.984C209.44 179.531 209.547 179.297 209.761 179.281C210.709 179.234 211.461 179.115 212.018 178.922C212.581 178.724 213 178.44 213.276 178.07C213.552 177.701 213.729 177.211 213.807 176.602C213.526 176.914 213.211 177.146 212.862 177.297C212.513 177.443 212.112 177.516 211.659 177.516C211.081 177.516 210.565 177.393 210.112 177.148C209.659 176.898 209.305 176.552 209.05 176.109C208.794 175.667 208.667 175.159 208.667 174.586C208.667 174.003 208.815 173.482 209.112 173.023C209.414 172.56 209.831 172.201 210.362 171.945C210.893 171.685 211.492 171.555 212.159 171.555ZM212.167 173.297C211.719 173.297 211.36 173.414 211.089 173.648C210.818 173.878 210.682 174.188 210.682 174.578C210.682 174.979 210.807 175.294 211.057 175.523C211.313 175.747 211.662 175.859 212.104 175.859C212.406 175.859 212.675 175.807 212.909 175.703C213.143 175.599 213.326 175.453 213.456 175.266C213.586 175.078 213.651 174.865 213.651 174.625C213.651 174.385 213.591 174.164 213.472 173.961C213.357 173.758 213.185 173.596 212.956 173.477C212.732 173.357 212.469 173.297 212.167 173.297ZM223.009 171.727C223.921 171.727 224.705 171.906 225.361 172.266C226.017 172.625 226.52 173.154 226.869 173.852C227.218 174.544 227.392 175.38 227.392 176.359C227.392 177.339 227.218 178.177 226.869 178.875C226.52 179.568 226.017 180.096 225.361 180.461C224.705 180.82 223.921 181 223.009 181H219.33C219.205 181 219.108 180.979 219.041 180.938C218.973 180.896 218.921 180.818 218.884 180.703C218.853 180.589 218.838 180.422 218.838 180.203C218.838 179.984 218.853 179.818 218.884 179.703C218.921 179.589 218.973 179.51 219.041 179.469C219.108 179.422 219.205 179.398 219.33 179.398H220.088V173.328H219.33C219.205 173.328 219.108 173.307 219.041 173.266C218.973 173.224 218.921 173.146 218.884 173.031C218.853 172.917 218.838 172.75 218.838 172.531C218.838 172.312 218.853 172.146 218.884 172.031C218.921 171.917 218.973 171.839 219.041 171.797C219.108 171.75 219.205 171.727 219.33 171.727H223.009ZM222.041 179.32H222.853C223.66 179.32 224.27 179.07 224.681 178.57C225.093 178.065 225.298 177.328 225.298 176.359C225.298 175.391 225.093 174.656 224.681 174.156C224.27 173.656 223.66 173.406 222.853 173.406H222.041V179.32ZM237.188 171.727C237.313 171.727 237.409 171.75 237.477 171.797C237.545 171.839 237.594 171.917 237.625 172.031C237.662 172.146 237.68 172.312 237.68 172.531C237.68 172.786 237.657 172.974 237.61 173.094L234.352 180.812C234.3 180.932 234.209 181.021 234.078 181.078C233.953 181.141 233.802 181.172 233.625 181.172C233.474 181.172 233.326 181.154 233.18 181.117C232.946 181.065 232.753 180.982 232.602 180.867C232.456 180.747 232.383 180.609 232.383 180.453C232.383 180.391 232.399 180.32 232.43 180.242L235.368 173.406H232.508V174.906C232.508 175.089 232.448 175.216 232.328 175.289C232.209 175.362 231.987 175.398 231.664 175.398C231.331 175.398 231.089 175.362 230.938 175.289C230.787 175.211 230.711 175.083 230.711 174.906V172.234C230.711 172.052 230.75 171.922 230.828 171.844C230.912 171.766 231.042 171.727 231.219 171.727H237.188Z" fill="white"/>
<rect x="153" y="205" width="141" height="72" fill="#E05959"/>
<rect x="305" y="121" width="141" height="72" fill="#5878A5"/>
<path d="M327.711 173.656C327.836 173.656 327.932 173.68 328 173.727C328.068 173.773 328.117 173.859 328.148 173.984C328.185 174.109 328.203 174.294 328.203 174.539C328.203 174.784 328.185 174.969 328.148 175.094C328.117 175.219 328.068 175.305 328 175.352C327.932 175.393 327.836 175.414 327.711 175.414H326.492L326.016 177.234H327.008C327.133 177.234 327.229 177.258 327.297 177.305C327.365 177.352 327.414 177.438 327.445 177.562C327.482 177.688 327.5 177.872 327.5 178.117C327.5 178.362 327.482 178.547 327.445 178.672C327.414 178.797 327.365 178.883 327.297 178.93C327.229 178.971 327.133 178.992 327.008 178.992H325.562L325.062 180.914C325.042 180.997 324.974 181.06 324.859 181.102C324.75 181.148 324.617 181.172 324.461 181.172C324.227 181.172 324.013 181.13 323.82 181.047C323.633 180.964 323.539 180.854 323.539 180.719C323.539 180.688 323.542 180.664 323.547 180.648L323.977 178.992H322.25L321.75 180.914C321.729 180.997 321.661 181.06 321.547 181.102C321.438 181.148 321.305 181.172 321.148 181.172C320.914 181.172 320.701 181.13 320.508 181.047C320.32 180.964 320.227 180.854 320.227 180.719C320.227 180.688 320.229 180.664 320.234 180.648L320.664 178.992H319.883C319.758 178.992 319.661 178.971 319.594 178.93C319.526 178.883 319.474 178.797 319.438 178.672C319.406 178.547 319.391 178.362 319.391 178.117C319.391 177.872 319.406 177.688 319.438 177.562C319.474 177.438 319.526 177.352 319.594 177.305C319.661 177.258 319.758 177.234 319.883 177.234H321.125L321.594 175.414H320.586C320.461 175.414 320.365 175.393 320.297 175.352C320.229 175.305 320.177 175.219 320.141 175.094C320.109 174.969 320.094 174.784 320.094 174.539C320.094 174.294 320.109 174.109 320.141 173.984C320.177 173.859 320.229 173.773 320.297 173.727C320.365 173.68 320.461 173.656 320.586 173.656H322.055L322.531 171.812C322.552 171.729 322.617 171.667 322.727 171.625C322.841 171.578 322.977 171.555 323.133 171.555C323.367 171.555 323.578 171.596 323.766 171.68C323.958 171.763 324.055 171.872 324.055 172.008C324.055 172.039 324.052 172.062 324.047 172.078L323.633 173.656H325.367L325.844 171.812C325.865 171.729 325.93 171.667 326.039 171.625C326.154 171.578 326.289 171.555 326.445 171.555C326.68 171.555 326.891 171.596 327.078 171.68C327.271 171.763 327.367 171.872 327.367 172.008C327.367 172.039 327.365 172.062 327.359 172.078L326.945 173.656H327.711ZM324.438 177.234L324.906 175.414H323.18L322.703 177.234H324.438ZM337.069 171.727C337.251 171.727 337.379 171.786 337.452 171.906C337.525 172.026 337.561 172.247 337.561 172.57C337.561 172.893 337.525 173.115 337.452 173.234C337.379 173.349 337.251 173.406 337.069 173.406H333.616L333.507 175.148C334.007 174.956 334.507 174.859 335.007 174.859C335.652 174.859 336.202 174.992 336.655 175.258C337.113 175.518 337.46 175.885 337.694 176.359C337.928 176.828 338.046 177.37 338.046 177.984C338.046 179.031 337.717 179.826 337.061 180.367C336.41 180.904 335.509 181.172 334.358 181.172C333.863 181.172 333.371 181.112 332.882 180.992C332.397 180.867 331.952 180.695 331.546 180.477C331.348 180.367 331.249 180.201 331.249 179.977C331.249 179.836 331.293 179.648 331.382 179.414C331.559 178.977 331.757 178.758 331.975 178.758C332.017 178.758 332.069 178.771 332.132 178.797C332.934 179.198 333.676 179.398 334.358 179.398C334.837 179.398 335.223 179.273 335.514 179.023C335.806 178.773 335.952 178.427 335.952 177.984C335.952 177.562 335.832 177.232 335.592 176.992C335.358 176.753 335.025 176.633 334.592 176.633C334.103 176.633 333.603 176.727 333.092 176.914C332.874 176.997 332.66 177.039 332.452 177.039C332.119 177.039 331.882 177 331.741 176.922C331.606 176.844 331.543 176.714 331.553 176.531L331.811 172.234C331.822 172.052 331.863 171.922 331.936 171.844C332.014 171.766 332.142 171.727 332.319 171.727H337.069ZM345.544 171.555C346.18 171.555 346.737 171.672 347.216 171.906C347.695 172.141 348.063 172.461 348.318 172.867C348.573 173.268 348.701 173.711 348.701 174.195C348.701 174.674 348.589 175.078 348.365 175.406C348.141 175.729 347.828 175.982 347.427 176.164C347.922 176.346 348.307 176.622 348.583 176.992C348.865 177.362 349.005 177.826 349.005 178.383C349.005 178.956 348.859 179.453 348.568 179.875C348.281 180.292 347.878 180.612 347.357 180.836C346.836 181.06 346.232 181.172 345.544 181.172C344.857 181.172 344.253 181.06 343.732 180.836C343.211 180.612 342.805 180.292 342.513 179.875C342.227 179.453 342.083 178.956 342.083 178.383C342.083 177.82 342.221 177.357 342.497 176.992C342.774 176.622 343.162 176.346 343.662 176.164C343.261 175.987 342.948 175.734 342.724 175.406C342.5 175.078 342.388 174.674 342.388 174.195C342.388 173.711 342.516 173.268 342.771 172.867C343.026 172.461 343.393 172.141 343.872 171.906C344.352 171.672 344.909 171.555 345.544 171.555ZM345.544 173.258C345.175 173.258 344.88 173.359 344.662 173.562C344.443 173.76 344.333 174.023 344.333 174.352C344.333 174.68 344.44 174.943 344.654 175.141C344.867 175.339 345.164 175.438 345.544 175.438C345.925 175.438 346.221 175.339 346.435 175.141C346.649 174.943 346.755 174.68 346.755 174.352C346.755 174.023 346.646 173.76 346.427 173.562C346.208 173.359 345.914 173.258 345.544 173.258ZM345.544 176.953C345.096 176.953 344.753 177.068 344.513 177.297C344.274 177.526 344.154 177.833 344.154 178.219C344.154 178.604 344.274 178.909 344.513 179.133C344.753 179.357 345.096 179.469 345.544 179.469C345.992 179.469 346.336 179.357 346.576 179.133C346.815 178.909 346.935 178.604 346.935 178.219C346.935 177.833 346.815 177.526 346.576 177.297C346.336 177.068 345.992 176.953 345.544 176.953ZM359.567 171.727C359.692 171.727 359.788 171.75 359.856 171.797C359.923 171.839 359.973 171.917 360.004 172.031C360.041 172.146 360.059 172.312 360.059 172.531C360.059 172.786 360.035 172.974 359.988 173.094L356.731 180.812C356.679 180.932 356.587 181.021 356.457 181.078C356.332 181.141 356.181 181.172 356.004 181.172C355.853 181.172 355.705 181.154 355.559 181.117C355.324 181.065 355.132 180.982 354.981 180.867C354.835 180.747 354.762 180.609 354.762 180.453C354.762 180.391 354.778 180.32 354.809 180.242L357.746 173.406H354.887V174.906C354.887 175.089 354.827 175.216 354.707 175.289C354.587 175.362 354.366 175.398 354.043 175.398C353.71 175.398 353.468 175.362 353.317 175.289C353.166 175.211 353.09 175.083 353.09 174.906V172.234C353.09 172.052 353.129 171.922 353.207 171.844C353.291 171.766 353.421 171.727 353.598 171.727H359.567ZM367.292 171.555C367.927 171.555 368.485 171.672 368.964 171.906C369.443 172.141 369.81 172.461 370.065 172.867C370.321 173.268 370.448 173.711 370.448 174.195C370.448 174.674 370.336 175.078 370.112 175.406C369.888 175.729 369.576 175.982 369.175 176.164C369.669 176.346 370.055 176.622 370.331 176.992C370.612 177.362 370.753 177.826 370.753 178.383C370.753 178.956 370.607 179.453 370.315 179.875C370.029 180.292 369.625 180.612 369.104 180.836C368.584 181.06 367.979 181.172 367.292 181.172C366.604 181.172 366 181.06 365.479 180.836C364.959 180.612 364.552 180.292 364.261 179.875C363.974 179.453 363.831 178.956 363.831 178.383C363.831 177.82 363.969 177.357 364.245 176.992C364.521 176.622 364.909 176.346 365.409 176.164C365.008 175.987 364.696 175.734 364.472 175.406C364.248 175.078 364.136 174.674 364.136 174.195C364.136 173.711 364.263 173.268 364.518 172.867C364.774 172.461 365.141 172.141 365.62 171.906C366.099 171.672 366.656 171.555 367.292 171.555ZM367.292 173.258C366.922 173.258 366.628 173.359 366.409 173.562C366.19 173.76 366.081 174.023 366.081 174.352C366.081 174.68 366.188 174.943 366.401 175.141C366.615 175.339 366.912 175.438 367.292 175.438C367.672 175.438 367.969 175.339 368.182 175.141C368.396 174.943 368.503 174.68 368.503 174.352C368.503 174.023 368.393 173.76 368.175 173.562C367.956 173.359 367.662 173.258 367.292 173.258ZM367.292 176.953C366.844 176.953 366.5 177.068 366.261 177.297C366.021 177.526 365.901 177.833 365.901 178.219C365.901 178.604 366.021 178.909 366.261 179.133C366.5 179.357 366.844 179.469 367.292 179.469C367.74 179.469 368.084 179.357 368.323 179.133C368.563 178.909 368.682 178.604 368.682 178.219C368.682 177.833 368.563 177.526 368.323 177.297C368.084 177.068 367.74 176.953 367.292 176.953ZM378.814 171.727C379.022 171.727 379.192 171.768 379.322 171.852C379.452 171.93 379.546 172.057 379.603 172.234L381.869 179.398H382.548C382.673 179.398 382.77 179.419 382.838 179.461C382.905 179.503 382.955 179.581 382.986 179.695C383.022 179.81 383.041 179.977 383.041 180.195C383.041 180.414 383.022 180.581 382.986 180.695C382.955 180.81 382.905 180.891 382.838 180.938C382.77 180.979 382.673 181 382.548 181H379.236C379.111 181 379.015 180.979 378.947 180.938C378.879 180.891 378.827 180.81 378.791 180.695C378.759 180.581 378.744 180.414 378.744 180.195C378.744 179.977 378.759 179.81 378.791 179.695C378.827 179.581 378.879 179.503 378.947 179.461C379.015 179.419 379.111 179.398 379.236 179.398H379.908L379.556 178.266H376.713L376.361 179.398H376.939C377.064 179.398 377.16 179.419 377.228 179.461C377.296 179.503 377.345 179.581 377.377 179.695C377.413 179.81 377.431 179.977 377.431 180.195C377.431 180.414 377.413 180.581 377.377 180.695C377.345 180.81 377.296 180.891 377.228 180.938C377.16 180.979 377.064 181 376.939 181H373.783C373.658 181 373.561 180.979 373.494 180.938C373.426 180.891 373.377 180.81 373.345 180.695C373.309 180.581 373.291 180.414 373.291 180.195C373.291 179.977 373.309 179.81 373.345 179.695C373.377 179.581 373.426 179.503 373.494 179.461C373.561 179.419 373.658 179.398 373.783 179.398H374.439L376.416 173.328H375.111C374.986 173.328 374.89 173.307 374.822 173.266C374.754 173.219 374.702 173.138 374.666 173.023C374.634 172.909 374.619 172.742 374.619 172.523C374.619 172.305 374.634 172.138 374.666 172.023C374.702 171.909 374.754 171.831 374.822 171.789C374.89 171.747 374.986 171.727 375.111 171.727H378.814ZM378.127 173.328L377.166 176.664H379.111L378.173 173.328H378.127ZM391.438 171.727C391.62 171.727 391.748 171.786 391.821 171.906C391.894 172.026 391.93 172.247 391.93 172.57C391.93 172.893 391.894 173.115 391.821 173.234C391.748 173.349 391.62 173.406 391.438 173.406H387.985L387.875 175.148C388.375 174.956 388.875 174.859 389.375 174.859C390.021 174.859 390.571 174.992 391.024 175.258C391.482 175.518 391.828 175.885 392.063 176.359C392.297 176.828 392.414 177.37 392.414 177.984C392.414 179.031 392.086 179.826 391.43 180.367C390.779 180.904 389.878 181.172 388.727 181.172C388.232 181.172 387.74 181.112 387.25 180.992C386.766 180.867 386.321 180.695 385.914 180.477C385.716 180.367 385.618 180.201 385.618 179.977C385.618 179.836 385.662 179.648 385.75 179.414C385.927 178.977 386.125 178.758 386.344 178.758C386.386 178.758 386.438 178.771 386.5 178.797C387.302 179.198 388.045 179.398 388.727 179.398C389.206 179.398 389.591 179.273 389.883 179.023C390.175 178.773 390.321 178.427 390.321 177.984C390.321 177.562 390.201 177.232 389.961 176.992C389.727 176.753 389.394 176.633 388.961 176.633C388.472 176.633 387.972 176.727 387.461 176.914C387.243 176.997 387.029 177.039 386.821 177.039C386.487 177.039 386.25 177 386.11 176.922C385.974 176.844 385.912 176.714 385.922 176.531L386.18 172.234C386.19 172.052 386.232 171.922 386.305 171.844C386.383 171.766 386.511 171.727 386.688 171.727H391.438Z" fill="white"/>
<rect x="305" y="205" width="141" height="72" fill="#B74848"/>
<path d="M17.7109 257.656C17.8359 257.656 17.9323 257.68 18 257.727C18.0677 257.773 18.1172 257.859 18.1484 257.984C18.1849 258.109 18.2031 258.294 18.2031 258.539C18.2031 258.784 18.1849 258.969 18.1484 259.094C18.1172 259.219 18.0677 259.305 18 259.352C17.9323 259.393 17.8359 259.414 17.7109 259.414H16.4922L16.0156 261.234H17.0078C17.1328 261.234 17.2292 261.258 17.2969 261.305C17.3646 261.352 17.4141 261.438 17.4453 261.562C17.4818 261.688 17.5 261.872 17.5 262.117C17.5 262.362 17.4818 262.547 17.4453 262.672C17.4141 262.797 17.3646 262.883 17.2969 262.93C17.2292 262.971 17.1328 262.992 17.0078 262.992H15.5625L15.0625 264.914C15.0417 264.997 14.974 265.06 14.8594 265.102C14.75 265.148 14.6172 265.172 14.4609 265.172C14.2266 265.172 14.013 265.13 13.8203 265.047C13.6328 264.964 13.5391 264.854 13.5391 264.719C13.5391 264.688 13.5417 264.664 13.5469 264.648L13.9766 262.992H12.25L11.75 264.914C11.7292 264.997 11.6615 265.06 11.5469 265.102C11.4375 265.148 11.3047 265.172 11.1484 265.172C10.9141 265.172 10.7005 265.13 10.5078 265.047C10.3203 264.964 10.2266 264.854 10.2266 264.719C10.2266 264.688 10.2292 264.664 10.2344 264.648L10.6641 262.992H9.88281C9.75781 262.992 9.66146 262.971 9.59375 262.93C9.52604 262.883 9.47396 262.797 9.4375 262.672C9.40625 262.547 9.39062 262.362 9.39062 262.117C9.39062 261.872 9.40625 261.688 9.4375 261.562C9.47396 261.438 9.52604 261.352 9.59375 261.305C9.66146 261.258 9.75781 261.234 9.88281 261.234H11.125L11.5938 259.414H10.5859C10.4609 259.414 10.3646 259.393 10.2969 259.352C10.2292 259.305 10.1771 259.219 10.1406 259.094C10.1094 258.969 10.0938 258.784 10.0938 258.539C10.0938 258.294 10.1094 258.109 10.1406 257.984C10.1771 257.859 10.2292 257.773 10.2969 257.727C10.3646 257.68 10.4609 257.656 10.5859 257.656H12.0547L12.5312 255.812C12.5521 255.729 12.6172 255.667 12.7266 255.625C12.8411 255.578 12.9766 255.555 13.1328 255.555C13.3672 255.555 13.5781 255.596 13.7656 255.68C13.9583 255.763 14.0547 255.872 14.0547 256.008C14.0547 256.039 14.0521 256.062 14.0469 256.078L13.6328 257.656H15.3672L15.8438 255.812C15.8646 255.729 15.9297 255.667 16.0391 255.625C16.1536 255.578 16.2891 255.555 16.4453 255.555C16.6797 255.555 16.8906 255.596 17.0781 255.68C17.2708 255.763 17.3672 255.872 17.3672 256.008C17.3672 256.039 17.3646 256.062 17.3594 256.078L16.9453 257.656H17.7109ZM14.4375 261.234L14.9062 259.414H13.1797L12.7031 261.234H14.4375ZM27.8191 255.727C27.9441 255.727 28.0404 255.75 28.1081 255.797C28.1758 255.839 28.2253 255.917 28.2566 256.031C28.293 256.146 28.3112 256.312 28.3112 256.531C28.3112 256.786 28.2878 256.974 28.2409 257.094L24.9831 264.812C24.931 264.932 24.8399 265.021 24.7097 265.078C24.5847 265.141 24.4336 265.172 24.2566 265.172C24.1055 265.172 23.9571 265.154 23.8112 265.117C23.5769 265.065 23.3842 264.982 23.2331 264.867C23.0873 264.747 23.0144 264.609 23.0144 264.453C23.0144 264.391 23.03 264.32 23.0612 264.242L25.9987 257.406H23.1394V258.906C23.1394 259.089 23.0795 259.216 22.9597 259.289C22.8399 259.362 22.6185 259.398 22.2956 259.398C21.9623 259.398 21.7201 259.362 21.5691 259.289C21.418 259.211 21.3425 259.083 21.3425 258.906V256.234C21.3425 256.052 21.3816 255.922 21.4597 255.844C21.543 255.766 21.6732 255.727 21.8503 255.727H27.8191ZM38.8334 255.727C39.0157 255.727 39.1459 255.766 39.2241 255.844C39.3022 255.922 39.3412 256.052 39.3412 256.234V258.594C39.3412 258.771 39.2657 258.898 39.1147 258.977C38.9636 259.049 38.7215 259.086 38.3881 259.086C38.0652 259.086 37.8439 259.049 37.7241 258.977C37.6043 258.904 37.5444 258.776 37.5444 258.594V257.406H34.4194V259.383H36.3256C36.5079 259.383 36.6355 259.443 36.7084 259.562C36.7814 259.682 36.8178 259.904 36.8178 260.227C36.8178 260.549 36.7814 260.771 36.7084 260.891C36.6355 261.005 36.5079 261.062 36.3256 261.062H34.4194V263.32H37.6225V261.742C37.6225 261.565 37.698 261.44 37.8491 261.367C38.0053 261.289 38.2579 261.25 38.6069 261.25C38.9506 261.25 39.185 261.286 39.31 261.359C39.435 261.432 39.4975 261.56 39.4975 261.742V264.492C39.4975 264.669 39.4584 264.799 39.3803 264.883C39.3022 264.961 39.172 265 38.9897 265H31.7084C31.5834 265 31.4871 264.979 31.4194 264.938C31.3517 264.896 31.2996 264.818 31.2631 264.703C31.2319 264.589 31.2162 264.422 31.2162 264.203C31.2162 263.984 31.2319 263.818 31.2631 263.703C31.2996 263.589 31.3517 263.51 31.4194 263.469C31.4871 263.422 31.5834 263.398 31.7084 263.398H32.4662V257.328H31.7084C31.5834 257.328 31.4871 257.307 31.4194 257.266C31.3517 257.224 31.2996 257.146 31.2631 257.031C31.2319 256.917 31.2162 256.75 31.2162 256.531C31.2162 256.312 31.2319 256.146 31.2631 256.031C31.2996 255.917 31.3517 255.839 31.4194 255.797C31.4871 255.75 31.5834 255.727 31.7084 255.727H38.8334ZM46.4181 255.555C47.0535 255.555 47.6108 255.672 48.09 255.906C48.5692 256.141 48.9364 256.461 49.1916 256.867C49.4468 257.268 49.5744 257.711 49.5744 258.195C49.5744 258.674 49.4624 259.078 49.2384 259.406C49.0145 259.729 48.702 259.982 48.3009 260.164C48.7957 260.346 49.1811 260.622 49.4572 260.992C49.7384 261.362 49.8791 261.826 49.8791 262.383C49.8791 262.956 49.7332 263.453 49.4416 263.875C49.1551 264.292 48.7515 264.612 48.2306 264.836C47.7098 265.06 47.1056 265.172 46.4181 265.172C45.7306 265.172 45.1265 265.06 44.6056 264.836C44.0848 264.612 43.6785 264.292 43.3869 263.875C43.1004 263.453 42.9572 262.956 42.9572 262.383C42.9572 261.82 43.0952 261.357 43.3713 260.992C43.6473 260.622 44.0353 260.346 44.5353 260.164C44.1343 259.987 43.8218 259.734 43.5978 259.406C43.3739 259.078 43.2619 258.674 43.2619 258.195C43.2619 257.711 43.3895 257.268 43.6447 256.867C43.8999 256.461 44.2671 256.141 44.7463 255.906C45.2254 255.672 45.7827 255.555 46.4181 255.555ZM46.4181 257.258C46.0483 257.258 45.7541 257.359 45.5353 257.562C45.3166 257.76 45.2072 258.023 45.2072 258.352C45.2072 258.68 45.314 258.943 45.5275 259.141C45.741 259.339 46.0379 259.438 46.4181 259.438C46.7983 259.438 47.0952 259.339 47.3088 259.141C47.5223 258.943 47.6291 258.68 47.6291 258.352C47.6291 258.023 47.5197 257.76 47.3009 257.562C47.0822 257.359 46.7879 257.258 46.4181 257.258ZM46.4181 260.953C45.9702 260.953 45.6265 261.068 45.3869 261.297C45.1473 261.526 45.0275 261.833 45.0275 262.219C45.0275 262.604 45.1473 262.909 45.3869 263.133C45.6265 263.357 45.9702 263.469 46.4181 263.469C46.866 263.469 47.2098 263.357 47.4494 263.133C47.689 262.909 47.8088 262.604 47.8088 262.219C47.8088 261.833 47.689 261.526 47.4494 261.297C47.2098 261.068 46.866 260.953 46.4181 260.953ZM60.3544 255.555C60.6773 255.555 60.8986 255.591 61.0184 255.664C61.1382 255.737 61.1981 255.865 61.1981 256.047V259.047C61.1981 259.224 61.1174 259.352 60.9559 259.43C60.7997 259.503 60.5367 259.539 60.1669 259.539C59.9221 259.539 59.732 259.523 59.5966 259.492C59.4664 259.456 59.3752 259.404 59.3231 259.336C59.271 259.268 59.245 259.172 59.245 259.047C59.245 258.526 59.1018 258.109 58.8153 257.797C58.5341 257.484 58.1304 257.328 57.6044 257.328C56.8804 257.328 56.3309 257.589 55.9559 258.109C55.5809 258.63 55.3934 259.38 55.3934 260.359C55.3934 261.328 55.5914 262.078 55.9872 262.609C56.3882 263.135 56.9533 263.398 57.6825 263.398C58.1356 263.398 58.5705 263.339 58.9872 263.219C59.4039 263.094 59.857 262.906 60.3466 262.656C60.4299 262.615 60.508 262.594 60.5809 262.594C60.8257 262.594 61.0289 262.81 61.1903 263.242C61.2632 263.44 61.2997 263.617 61.2997 263.773C61.2997 264.039 61.1799 264.229 60.9403 264.344C59.8257 264.896 58.7137 265.172 57.6044 265.172C56.7502 265.172 55.9976 264.977 55.3466 264.586C54.6955 264.195 54.1903 263.638 53.8309 262.914C53.4768 262.185 53.2997 261.333 53.2997 260.359C53.2997 259.391 53.4742 258.544 53.8231 257.82C54.1721 257.091 54.6539 256.531 55.2684 256.141C55.8882 255.75 56.5887 255.555 57.37 255.555C58.2815 255.555 58.9585 255.883 59.4012 256.539V256.047C59.4012 255.87 59.4768 255.745 59.6278 255.672C59.7789 255.594 60.021 255.555 60.3544 255.555ZM68.8141 255.727C69.0224 255.727 69.1917 255.768 69.3219 255.852C69.4521 255.93 69.5458 256.057 69.6031 256.234L71.8688 263.398H72.5484C72.6734 263.398 72.7698 263.419 72.8375 263.461C72.9052 263.503 72.9547 263.581 72.9859 263.695C73.0224 263.81 73.0406 263.977 73.0406 264.195C73.0406 264.414 73.0224 264.581 72.9859 264.695C72.9547 264.81 72.9052 264.891 72.8375 264.938C72.7698 264.979 72.6734 265 72.5484 265H69.2359C69.1109 265 69.0146 264.979 68.9469 264.938C68.8792 264.891 68.8271 264.81 68.7906 264.695C68.7594 264.581 68.7438 264.414 68.7438 264.195C68.7438 263.977 68.7594 263.81 68.7906 263.695C68.8271 263.581 68.8792 263.503 68.9469 263.461C69.0146 263.419 69.1109 263.398 69.2359 263.398H69.9078L69.5563 262.266H66.7125L66.3609 263.398H66.9391C67.0641 263.398 67.1604 263.419 67.2281 263.461C67.2958 263.503 67.3453 263.581 67.3766 263.695C67.413 263.81 67.4313 263.977 67.4313 264.195C67.4313 264.414 67.413 264.581 67.3766 264.695C67.3453 264.81 67.2958 264.891 67.2281 264.938C67.1604 264.979 67.0641 265 66.9391 265H63.7828C63.6578 265 63.5615 264.979 63.4938 264.938C63.426 264.891 63.3766 264.81 63.3453 264.695C63.3089 264.581 63.2906 264.414 63.2906 264.195C63.2906 263.977 63.3089 263.81 63.3453 263.695C63.3766 263.581 63.426 263.503 63.4938 263.461C63.5615 263.419 63.6578 263.398 63.7828 263.398H64.4391L66.4156 257.328H65.1109C64.9859 257.328 64.8896 257.307 64.8219 257.266C64.7542 257.219 64.7021 257.138 64.6656 257.023C64.6344 256.909 64.6188 256.742 64.6188 256.523C64.6188 256.305 64.6344 256.138 64.6656 256.023C64.7021 255.909 64.7542 255.831 64.8219 255.789C64.8896 255.747 64.9859 255.727 65.1109 255.727H68.8141ZM68.1266 257.328L67.1656 260.664H69.1109L68.1734 257.328H68.1266ZM80.1644 255.555C80.4665 255.555 80.6774 255.615 80.7972 255.734C80.9222 255.854 80.9847 256.029 80.9847 256.258V260.508H82.3284C82.4534 260.508 82.5498 260.531 82.6175 260.578C82.6852 260.62 82.7347 260.698 82.7659 260.812C82.8024 260.927 82.8206 261.094 82.8206 261.312C82.8206 261.531 82.8024 261.698 82.7659 261.812C82.7347 261.927 82.6852 262.005 82.6175 262.047C82.5498 262.089 82.4534 262.109 82.3284 262.109H80.9847V263.398H82.0941C82.2191 263.398 82.3154 263.422 82.3831 263.469C82.4508 263.51 82.5003 263.589 82.5316 263.703C82.568 263.818 82.5863 263.984 82.5863 264.203C82.5863 264.422 82.568 264.589 82.5316 264.703C82.5003 264.818 82.4508 264.896 82.3831 264.938C82.3154 264.979 82.2191 265 82.0941 265H77.7034C77.5784 265 77.4821 264.979 77.4144 264.938C77.3467 264.896 77.2946 264.818 77.2581 264.703C77.2269 264.589 77.2113 264.422 77.2113 264.203C77.2113 263.984 77.2269 263.818 77.2581 263.703C77.2946 263.589 77.3467 263.51 77.4144 263.469C77.4821 263.422 77.5784 263.398 77.7034 263.398H79.0316V262.109H75.6722C75.5472 262.109 75.4508 262.089 75.3831 262.047C75.3154 262.005 75.2633 261.927 75.2269 261.812C75.1956 261.698 75.18 261.531 75.18 261.312C75.18 260.974 75.2295 260.742 75.3284 260.617L79.0003 256.094C79.1409 255.917 79.3024 255.784 79.4847 255.695C79.6722 255.602 79.8988 255.555 80.1644 255.555ZM77.3909 260.508H79.1019L79.2269 258.227L77.3909 260.508Z" fill="white"/>
<path d="M172.711 257.656C172.836 257.656 172.932 257.68 173 257.727C173.068 257.773 173.117 257.859 173.148 257.984C173.185 258.109 173.203 258.294 173.203 258.539C173.203 258.784 173.185 258.969 173.148 259.094C173.117 259.219 173.068 259.305 173 259.352C172.932 259.393 172.836 259.414 172.711 259.414H171.492L171.016 261.234H172.008C172.133 261.234 172.229 261.258 172.297 261.305C172.365 261.352 172.414 261.438 172.445 261.562C172.482 261.688 172.5 261.872 172.5 262.117C172.5 262.362 172.482 262.547 172.445 262.672C172.414 262.797 172.365 262.883 172.297 262.93C172.229 262.971 172.133 262.992 172.008 262.992H170.562L170.062 264.914C170.042 264.997 169.974 265.06 169.859 265.102C169.75 265.148 169.617 265.172 169.461 265.172C169.227 265.172 169.013 265.13 168.82 265.047C168.633 264.964 168.539 264.854 168.539 264.719C168.539 264.688 168.542 264.664 168.547 264.648L168.977 262.992H167.25L166.75 264.914C166.729 264.997 166.661 265.06 166.547 265.102C166.438 265.148 166.305 265.172 166.148 265.172C165.914 265.172 165.701 265.13 165.508 265.047C165.32 264.964 165.227 264.854 165.227 264.719C165.227 264.688 165.229 264.664 165.234 264.648L165.664 262.992H164.883C164.758 262.992 164.661 262.971 164.594 262.93C164.526 262.883 164.474 262.797 164.438 262.672C164.406 262.547 164.391 262.362 164.391 262.117C164.391 261.872 164.406 261.688 164.438 261.562C164.474 261.438 164.526 261.352 164.594 261.305C164.661 261.258 164.758 261.234 164.883 261.234H166.125L166.594 259.414H165.586C165.461 259.414 165.365 259.393 165.297 259.352C165.229 259.305 165.177 259.219 165.141 259.094C165.109 258.969 165.094 258.784 165.094 258.539C165.094 258.294 165.109 258.109 165.141 257.984C165.177 257.859 165.229 257.773 165.297 257.727C165.365 257.68 165.461 257.656 165.586 257.656H167.055L167.531 255.812C167.552 255.729 167.617 255.667 167.727 255.625C167.841 255.578 167.977 255.555 168.133 255.555C168.367 255.555 168.578 255.596 168.766 255.68C168.958 255.763 169.055 255.872 169.055 256.008C169.055 256.039 169.052 256.062 169.047 256.078L168.633 257.656H170.367L170.844 255.812C170.865 255.729 170.93 255.667 171.039 255.625C171.154 255.578 171.289 255.555 171.445 255.555C171.68 255.555 171.891 255.596 172.078 255.68C172.271 255.763 172.367 255.872 172.367 256.008C172.367 256.039 172.365 256.062 172.359 256.078L171.945 257.656H172.711ZM169.438 261.234L169.906 259.414H168.18L167.703 261.234H169.438ZM182.96 255.727C183.142 255.727 183.272 255.766 183.35 255.844C183.428 255.922 183.467 256.052 183.467 256.234V258.594C183.467 258.771 183.392 258.898 183.241 258.977C183.09 259.049 182.848 259.086 182.514 259.086C182.191 259.086 181.97 259.049 181.85 258.977C181.731 258.904 181.671 258.776 181.671 258.594V257.406H178.546V259.383H180.452C180.634 259.383 180.762 259.443 180.835 259.562C180.908 259.682 180.944 259.904 180.944 260.227C180.944 260.549 180.908 260.771 180.835 260.891C180.762 261.005 180.634 261.062 180.452 261.062H178.546V263.32H181.749V261.742C181.749 261.565 181.824 261.44 181.975 261.367C182.132 261.289 182.384 261.25 182.733 261.25C183.077 261.25 183.311 261.286 183.436 261.359C183.561 261.432 183.624 261.56 183.624 261.742V264.492C183.624 264.669 183.585 264.799 183.507 264.883C183.428 264.961 183.298 265 183.116 265H175.835C175.71 265 175.613 264.979 175.546 264.938C175.478 264.896 175.426 264.818 175.389 264.703C175.358 264.589 175.342 264.422 175.342 264.203C175.342 263.984 175.358 263.818 175.389 263.703C175.426 263.589 175.478 263.51 175.546 263.469C175.613 263.422 175.71 263.398 175.835 263.398H176.592V257.328H175.835C175.71 257.328 175.613 257.307 175.546 257.266C175.478 257.224 175.426 257.146 175.389 257.031C175.358 256.917 175.342 256.75 175.342 256.531C175.342 256.312 175.358 256.146 175.389 256.031C175.426 255.917 175.478 255.839 175.546 255.797C175.613 255.75 175.71 255.727 175.835 255.727H182.96ZM190.544 255.555C191.31 255.555 191.977 255.76 192.544 256.172C193.112 256.578 193.547 257.146 193.849 257.875C194.151 258.599 194.302 259.43 194.302 260.367C194.302 261.305 194.151 262.138 193.849 262.867C193.547 263.591 193.112 264.156 192.544 264.562C191.977 264.969 191.31 265.172 190.544 265.172C189.779 265.172 189.112 264.969 188.544 264.562C187.977 264.156 187.542 263.591 187.24 262.867C186.938 262.138 186.787 261.305 186.787 260.367C186.787 259.43 186.938 258.599 187.24 257.875C187.542 257.146 187.977 256.578 188.544 256.172C189.112 255.76 189.779 255.555 190.544 255.555ZM190.544 257.328C190.003 257.328 189.589 257.586 189.302 258.102C189.021 258.612 188.88 259.367 188.88 260.367C188.88 261.367 189.021 262.122 189.302 262.633C189.589 263.143 190.003 263.398 190.544 263.398C191.086 263.398 191.497 263.143 191.779 262.633C192.065 262.122 192.208 261.367 192.208 260.367C192.208 259.367 192.065 258.612 191.779 258.102C191.497 257.586 191.086 257.328 190.544 257.328ZM203.817 255.727C203.999 255.727 204.126 255.786 204.199 255.906C204.272 256.026 204.309 256.247 204.309 256.57C204.309 256.893 204.272 257.115 204.199 257.234C204.126 257.349 203.999 257.406 203.817 257.406H200.363L200.254 259.148C200.754 258.956 201.254 258.859 201.754 258.859C202.4 258.859 202.949 258.992 203.403 259.258C203.861 259.518 204.207 259.885 204.442 260.359C204.676 260.828 204.793 261.37 204.793 261.984C204.793 263.031 204.465 263.826 203.809 264.367C203.158 264.904 202.257 265.172 201.106 265.172C200.611 265.172 200.119 265.112 199.629 264.992C199.145 264.867 198.699 264.695 198.293 264.477C198.095 264.367 197.996 264.201 197.996 263.977C197.996 263.836 198.041 263.648 198.129 263.414C198.306 262.977 198.504 262.758 198.723 262.758C198.764 262.758 198.817 262.771 198.879 262.797C199.681 263.198 200.423 263.398 201.106 263.398C201.585 263.398 201.97 263.273 202.262 263.023C202.554 262.773 202.699 262.427 202.699 261.984C202.699 261.562 202.58 261.232 202.34 260.992C202.106 260.753 201.772 260.633 201.34 260.633C200.85 260.633 200.35 260.727 199.84 260.914C199.621 260.997 199.408 261.039 199.199 261.039C198.866 261.039 198.629 261 198.488 260.922C198.353 260.844 198.291 260.714 198.301 260.531L198.559 256.234C198.569 256.052 198.611 255.922 198.684 255.844C198.762 255.766 198.889 255.727 199.067 255.727H203.817ZM212.159 255.555C212.815 255.555 213.396 255.688 213.901 255.953C214.406 256.219 214.828 256.602 215.167 257.102C215.38 257.419 215.544 257.805 215.659 258.258C215.779 258.711 215.839 259.201 215.839 259.727C215.839 261.424 215.36 262.737 214.401 263.664C213.448 264.591 211.956 265.094 209.925 265.172C209.789 265.177 209.682 265.112 209.604 264.977C209.531 264.841 209.482 264.628 209.456 264.336C209.446 264.247 209.44 264.13 209.44 263.984C209.44 263.531 209.547 263.297 209.761 263.281C210.709 263.234 211.461 263.115 212.018 262.922C212.581 262.724 213 262.44 213.276 262.07C213.552 261.701 213.729 261.211 213.807 260.602C213.526 260.914 213.211 261.146 212.862 261.297C212.513 261.443 212.112 261.516 211.659 261.516C211.081 261.516 210.565 261.393 210.112 261.148C209.659 260.898 209.305 260.552 209.05 260.109C208.794 259.667 208.667 259.159 208.667 258.586C208.667 258.003 208.815 257.482 209.112 257.023C209.414 256.56 209.831 256.201 210.362 255.945C210.893 255.685 211.492 255.555 212.159 255.555ZM212.167 257.297C211.719 257.297 211.36 257.414 211.089 257.648C210.818 257.878 210.682 258.188 210.682 258.578C210.682 258.979 210.807 259.294 211.057 259.523C211.313 259.747 211.662 259.859 212.104 259.859C212.406 259.859 212.675 259.807 212.909 259.703C213.143 259.599 213.326 259.453 213.456 259.266C213.586 259.078 213.651 258.865 213.651 258.625C213.651 258.385 213.591 258.164 213.472 257.961C213.357 257.758 213.185 257.596 212.956 257.477C212.732 257.357 212.469 257.297 212.167 257.297ZM225.564 255.727C225.746 255.727 225.874 255.786 225.947 255.906C226.02 256.026 226.056 256.247 226.056 256.57C226.056 256.893 226.02 257.115 225.947 257.234C225.874 257.349 225.746 257.406 225.564 257.406H222.111L222.002 259.148C222.502 258.956 223.002 258.859 223.502 258.859C224.147 258.859 224.697 258.992 225.15 259.258C225.608 259.518 225.955 259.885 226.189 260.359C226.423 260.828 226.541 261.37 226.541 261.984C226.541 263.031 226.213 263.826 225.556 264.367C224.905 264.904 224.004 265.172 222.853 265.172C222.358 265.172 221.866 265.112 221.377 264.992C220.892 264.867 220.447 264.695 220.041 264.477C219.843 264.367 219.744 264.201 219.744 263.977C219.744 263.836 219.788 263.648 219.877 263.414C220.054 262.977 220.252 262.758 220.47 262.758C220.512 262.758 220.564 262.771 220.627 262.797C221.429 263.198 222.171 263.398 222.853 263.398C223.332 263.398 223.718 263.273 224.009 263.023C224.301 262.773 224.447 262.427 224.447 261.984C224.447 261.562 224.327 261.232 224.088 260.992C223.853 260.753 223.52 260.633 223.088 260.633C222.598 260.633 222.098 260.727 221.588 260.914C221.369 260.997 221.155 261.039 220.947 261.039C220.614 261.039 220.377 261 220.236 260.922C220.101 260.844 220.038 260.714 220.048 260.531L220.306 256.234C220.317 256.052 220.358 255.922 220.431 255.844C220.509 255.766 220.637 255.727 220.814 255.727H225.564ZM233.907 255.555C234.563 255.555 235.144 255.688 235.649 255.953C236.154 256.219 236.576 256.602 236.914 257.102C237.128 257.419 237.292 257.805 237.407 258.258C237.526 258.711 237.586 259.201 237.586 259.727C237.586 261.424 237.107 262.737 236.149 263.664C235.196 264.591 233.703 265.094 231.672 265.172C231.537 265.177 231.43 265.112 231.352 264.977C231.279 264.841 231.229 264.628 231.203 264.336C231.193 264.247 231.188 264.13 231.188 263.984C231.188 263.531 231.295 263.297 231.508 263.281C232.456 263.234 233.209 263.115 233.766 262.922C234.328 262.724 234.748 262.44 235.024 262.07C235.3 261.701 235.477 261.211 235.555 260.602C235.274 260.914 234.959 261.146 234.61 261.297C234.261 261.443 233.86 261.516 233.407 261.516C232.828 261.516 232.313 261.393 231.86 261.148C231.407 260.898 231.052 260.552 230.797 260.109C230.542 259.667 230.414 259.159 230.414 258.586C230.414 258.003 230.563 257.482 230.86 257.023C231.162 256.56 231.578 256.201 232.11 255.945C232.641 255.685 233.24 255.555 233.907 255.555ZM233.914 257.297C233.466 257.297 233.107 257.414 232.836 257.648C232.565 257.878 232.43 258.188 232.43 258.578C232.43 258.979 232.555 259.294 232.805 259.523C233.06 259.747 233.409 259.859 233.852 259.859C234.154 259.859 234.422 259.807 234.657 259.703C234.891 259.599 235.073 259.453 235.203 259.266C235.334 259.078 235.399 258.865 235.399 258.625C235.399 258.385 235.339 258.164 235.219 257.961C235.104 257.758 234.933 257.596 234.703 257.477C234.479 257.357 234.216 257.297 233.914 257.297Z" fill="white"/>
<path d="M327.711 257.656C327.836 257.656 327.932 257.68 328 257.727C328.068 257.773 328.117 257.859 328.148 257.984C328.185 258.109 328.203 258.294 328.203 258.539C328.203 258.784 328.185 258.969 328.148 259.094C328.117 259.219 328.068 259.305 328 259.352C327.932 259.393 327.836 259.414 327.711 259.414H326.492L326.016 261.234H327.008C327.133 261.234 327.229 261.258 327.297 261.305C327.365 261.352 327.414 261.438 327.445 261.562C327.482 261.688 327.5 261.872 327.5 262.117C327.5 262.362 327.482 262.547 327.445 262.672C327.414 262.797 327.365 262.883 327.297 262.93C327.229 262.971 327.133 262.992 327.008 262.992H325.562L325.062 264.914C325.042 264.997 324.974 265.06 324.859 265.102C324.75 265.148 324.617 265.172 324.461 265.172C324.227 265.172 324.013 265.13 323.82 265.047C323.633 264.964 323.539 264.854 323.539 264.719C323.539 264.688 323.542 264.664 323.547 264.648L323.977 262.992H322.25L321.75 264.914C321.729 264.997 321.661 265.06 321.547 265.102C321.438 265.148 321.305 265.172 321.148 265.172C320.914 265.172 320.701 265.13 320.508 265.047C320.32 264.964 320.227 264.854 320.227 264.719C320.227 264.688 320.229 264.664 320.234 264.648L320.664 262.992H319.883C319.758 262.992 319.661 262.971 319.594 262.93C319.526 262.883 319.474 262.797 319.438 262.672C319.406 262.547 319.391 262.362 319.391 262.117C319.391 261.872 319.406 261.688 319.438 261.562C319.474 261.438 319.526 261.352 319.594 261.305C319.661 261.258 319.758 261.234 319.883 261.234H321.125L321.594 259.414H320.586C320.461 259.414 320.365 259.393 320.297 259.352C320.229 259.305 320.177 259.219 320.141 259.094C320.109 258.969 320.094 258.784 320.094 258.539C320.094 258.294 320.109 258.109 320.141 257.984C320.177 257.859 320.229 257.773 320.297 257.727C320.365 257.68 320.461 257.656 320.586 257.656H322.055L322.531 255.812C322.552 255.729 322.617 255.667 322.727 255.625C322.841 255.578 322.977 255.555 323.133 255.555C323.367 255.555 323.578 255.596 323.766 255.68C323.958 255.763 324.055 255.872 324.055 256.008C324.055 256.039 324.052 256.062 324.047 256.078L323.633 257.656H325.367L325.844 255.812C325.865 255.729 325.93 255.667 326.039 255.625C326.154 255.578 326.289 255.555 326.445 255.555C326.68 255.555 326.891 255.596 327.078 255.68C327.271 255.763 327.367 255.872 327.367 256.008C327.367 256.039 327.365 256.062 327.359 256.078L326.945 257.656H327.711ZM324.438 261.234L324.906 259.414H323.18L322.703 261.234H324.438ZM334.983 255.727C336.072 255.727 336.876 255.951 337.397 256.398C337.923 256.841 338.186 257.458 338.186 258.25C338.186 258.677 338.079 259.044 337.866 259.352C337.658 259.654 337.363 259.896 336.983 260.078C338.176 260.401 338.772 261.146 338.772 262.312C338.772 263.193 338.483 263.862 337.905 264.32C337.327 264.773 336.499 265 335.421 265H330.913C330.788 265 330.691 264.979 330.624 264.938C330.556 264.896 330.504 264.818 330.467 264.703C330.436 264.589 330.421 264.422 330.421 264.203C330.421 263.984 330.436 263.818 330.467 263.703C330.504 263.589 330.556 263.51 330.624 263.469C330.691 263.422 330.788 263.398 330.913 263.398H331.749V257.328H330.913C330.788 257.328 330.691 257.307 330.624 257.266C330.556 257.224 330.504 257.146 330.467 257.031C330.436 256.917 330.421 256.75 330.421 256.531C330.421 256.312 330.436 256.146 330.467 256.031C330.504 255.917 330.556 255.839 330.624 255.797C330.691 255.75 330.788 255.727 330.913 255.727H334.983ZM333.702 259.422H334.811C335.28 259.422 335.629 259.339 335.858 259.172C336.087 259.005 336.202 258.75 336.202 258.406C336.202 258.057 336.09 257.805 335.866 257.648C335.647 257.487 335.296 257.406 334.811 257.406H333.702V259.422ZM333.702 263.32H335.202C336.212 263.32 336.717 262.958 336.717 262.234C336.717 261.849 336.592 261.565 336.342 261.383C336.098 261.195 335.717 261.102 335.202 261.102H333.702V263.32ZM348.693 255.727C348.818 255.727 348.914 255.75 348.982 255.797C349.05 255.839 349.099 255.917 349.13 256.031C349.167 256.146 349.185 256.312 349.185 256.531C349.185 256.786 349.162 256.974 349.115 257.094L345.857 264.812C345.805 264.932 345.714 265.021 345.583 265.078C345.458 265.141 345.307 265.172 345.13 265.172C344.979 265.172 344.831 265.154 344.685 265.117C344.451 265.065 344.258 264.982 344.107 264.867C343.961 264.747 343.888 264.609 343.888 264.453C343.888 264.391 343.904 264.32 343.935 264.242L346.872 257.406H344.013V258.906C344.013 259.089 343.953 259.216 343.833 259.289C343.714 259.362 343.492 259.398 343.169 259.398C342.836 259.398 342.594 259.362 342.443 259.289C342.292 259.211 342.216 259.083 342.216 258.906V256.234C342.216 256.052 342.255 255.922 342.333 255.844C342.417 255.766 342.547 255.727 342.724 255.727H348.693ZM357.543 255.555C357.845 255.555 358.056 255.615 358.176 255.734C358.301 255.854 358.363 256.029 358.363 256.258V260.508H359.707C359.832 260.508 359.929 260.531 359.996 260.578C360.064 260.62 360.113 260.698 360.145 260.812C360.181 260.927 360.199 261.094 360.199 261.312C360.199 261.531 360.181 261.698 360.145 261.812C360.113 261.927 360.064 262.005 359.996 262.047C359.929 262.089 359.832 262.109 359.707 262.109H358.363V263.398H359.473C359.598 263.398 359.694 263.422 359.762 263.469C359.83 263.51 359.879 263.589 359.91 263.703C359.947 263.818 359.965 263.984 359.965 264.203C359.965 264.422 359.947 264.589 359.91 264.703C359.879 264.818 359.83 264.896 359.762 264.938C359.694 264.979 359.598 265 359.473 265H355.082C354.957 265 354.861 264.979 354.793 264.938C354.725 264.896 354.673 264.818 354.637 264.703C354.606 264.589 354.59 264.422 354.59 264.203C354.59 263.984 354.606 263.818 354.637 263.703C354.673 263.589 354.725 263.51 354.793 263.469C354.861 263.422 354.957 263.398 355.082 263.398H356.41V262.109H353.051C352.926 262.109 352.83 262.089 352.762 262.047C352.694 262.005 352.642 261.927 352.606 261.812C352.574 261.698 352.559 261.531 352.559 261.312C352.559 260.974 352.608 260.742 352.707 260.617L356.379 256.094C356.52 255.917 356.681 255.784 356.863 255.695C357.051 255.602 357.278 255.555 357.543 255.555ZM354.77 260.508H356.481L356.606 258.227L354.77 260.508ZM367.292 255.555C367.927 255.555 368.485 255.672 368.964 255.906C369.443 256.141 369.81 256.461 370.065 256.867C370.321 257.268 370.448 257.711 370.448 258.195C370.448 258.674 370.336 259.078 370.112 259.406C369.888 259.729 369.576 259.982 369.175 260.164C369.669 260.346 370.055 260.622 370.331 260.992C370.612 261.362 370.753 261.826 370.753 262.383C370.753 262.956 370.607 263.453 370.315 263.875C370.029 264.292 369.625 264.612 369.104 264.836C368.584 265.06 367.979 265.172 367.292 265.172C366.604 265.172 366 265.06 365.479 264.836C364.959 264.612 364.552 264.292 364.261 263.875C363.974 263.453 363.831 262.956 363.831 262.383C363.831 261.82 363.969 261.357 364.245 260.992C364.521 260.622 364.909 260.346 365.409 260.164C365.008 259.987 364.696 259.734 364.472 259.406C364.248 259.078 364.136 258.674 364.136 258.195C364.136 257.711 364.263 257.268 364.518 256.867C364.774 256.461 365.141 256.141 365.62 255.906C366.099 255.672 366.656 255.555 367.292 255.555ZM367.292 257.258C366.922 257.258 366.628 257.359 366.409 257.562C366.19 257.76 366.081 258.023 366.081 258.352C366.081 258.68 366.188 258.943 366.401 259.141C366.615 259.339 366.912 259.438 367.292 259.438C367.672 259.438 367.969 259.339 368.182 259.141C368.396 258.943 368.503 258.68 368.503 258.352C368.503 258.023 368.393 257.76 368.175 257.562C367.956 257.359 367.662 257.258 367.292 257.258ZM367.292 260.953C366.844 260.953 366.5 261.068 366.261 261.297C366.021 261.526 365.901 261.833 365.901 262.219C365.901 262.604 366.021 262.909 366.261 263.133C366.5 263.357 366.844 263.469 367.292 263.469C367.74 263.469 368.084 263.357 368.323 263.133C368.563 262.909 368.682 262.604 368.682 262.219C368.682 261.833 368.563 261.526 368.323 261.297C368.084 261.068 367.74 260.953 367.292 260.953ZM379.291 255.555C379.593 255.555 379.804 255.615 379.923 255.734C380.048 255.854 380.111 256.029 380.111 256.258V260.508H381.455C381.58 260.508 381.676 260.531 381.744 260.578C381.811 260.62 381.861 260.698 381.892 260.812C381.929 260.927 381.947 261.094 381.947 261.312C381.947 261.531 381.929 261.698 381.892 261.812C381.861 261.927 381.811 262.005 381.744 262.047C381.676 262.089 381.58 262.109 381.455 262.109H380.111V263.398H381.22C381.345 263.398 381.442 263.422 381.509 263.469C381.577 263.51 381.627 263.589 381.658 263.703C381.694 263.818 381.713 263.984 381.713 264.203C381.713 264.422 381.694 264.589 381.658 264.703C381.627 264.818 381.577 264.896 381.509 264.938C381.442 264.979 381.345 265 381.22 265H376.83C376.705 265 376.608 264.979 376.541 264.938C376.473 264.896 376.421 264.818 376.384 264.703C376.353 264.589 376.338 264.422 376.338 264.203C376.338 263.984 376.353 263.818 376.384 263.703C376.421 263.589 376.473 263.51 376.541 263.469C376.608 263.422 376.705 263.398 376.83 263.398H378.158V262.109H374.798C374.673 262.109 374.577 262.089 374.509 262.047C374.442 262.005 374.39 261.927 374.353 261.812C374.322 261.698 374.306 261.531 374.306 261.312C374.306 260.974 374.356 260.742 374.455 260.617L378.127 256.094C378.267 255.917 378.429 255.784 378.611 255.695C378.798 255.602 379.025 255.555 379.291 255.555ZM376.517 260.508H378.228L378.353 258.227L376.517 260.508ZM389.039 255.555C389.675 255.555 390.232 255.672 390.711 255.906C391.19 256.141 391.558 256.461 391.813 256.867C392.068 257.268 392.196 257.711 392.196 258.195C392.196 258.674 392.084 259.078 391.86 259.406C391.636 259.729 391.323 259.982 390.922 260.164C391.417 260.346 391.802 260.622 392.078 260.992C392.36 261.362 392.5 261.826 392.5 262.383C392.5 262.956 392.354 263.453 392.063 263.875C391.776 264.292 391.373 264.612 390.852 264.836C390.331 265.06 389.727 265.172 389.039 265.172C388.352 265.172 387.748 265.06 387.227 264.836C386.706 264.612 386.3 264.292 386.008 263.875C385.722 263.453 385.578 262.956 385.578 262.383C385.578 261.82 385.716 261.357 385.993 260.992C386.269 260.622 386.657 260.346 387.157 260.164C386.756 259.987 386.443 259.734 386.219 259.406C385.995 259.078 385.883 258.674 385.883 258.195C385.883 257.711 386.011 257.268 386.266 256.867C386.521 256.461 386.888 256.141 387.368 255.906C387.847 255.672 388.404 255.555 389.039 255.555ZM389.039 257.258C388.67 257.258 388.375 257.359 388.157 257.562C387.938 257.76 387.828 258.023 387.828 258.352C387.828 258.68 387.935 258.943 388.149 259.141C388.362 259.339 388.659 259.438 389.039 259.438C389.42 259.438 389.716 259.339 389.93 259.141C390.144 258.943 390.25 258.68 390.25 258.352C390.25 258.023 390.141 257.76 389.922 257.562C389.703 257.359 389.409 257.258 389.039 257.258ZM389.039 260.953C388.591 260.953 388.248 261.068 388.008 261.297C387.769 261.526 387.649 261.833 387.649 262.219C387.649 262.604 387.769 262.909 388.008 263.133C388.248 263.357 388.591 263.469 389.039 263.469C389.487 263.469 389.831 263.357 390.071 263.133C390.31 262.909 390.43 262.604 390.43 262.219C390.43 261.833 390.31 261.526 390.071 261.297C389.831 261.068 389.487 260.953 389.039 260.953Z" fill="white"/>
</svg>
