<svg width="203" height="140" fill="none" xmlns="http://www.w3.org/2000/svg"><g clip-path="url(#a)"><path d="m152.713 122.506.26-39.031c.039-6.255 5.166-11.35 11.427-11.35.96 0 1.912.13 2.833.37v-50.51C167.233 9.845 157.387 0 145.246 0H21.986C9.847 0 0 9.845 0 21.985v96.03C0 130.155 9.846 140 21.987 140h123.259c6.093 0 11.609-2.482 15.596-6.488a11.592 11.592 0 0 1-4.829-2.897c-2.152-2.165-3.319-5.043-3.3-8.109Z" fill="#5878A5"/><path d="m198.255 124.101-6.546-11.518 8.796-5.003c3.305-1.88 3.338-6.624.058-8.55l-33.674-19.742c-3.279-1.918-7.408.428-7.434 4.226l-.26 39.031c-.025 3.799 4.071 6.203 7.377 4.324l8.796-5.004 6.546 11.517a4.91 4.91 0 0 0 6.69 1.841l7.817-4.44a4.91 4.91 0 0 0 1.841-6.689l-.007.007Z" fill="#44566B"/><path d="M72.047 40.833h102.874a8.526 8.526 0 0 0 8.524-8.523V15.653a8.526 8.526 0 0 0-8.524-8.523H72.047a8.526 8.526 0 0 0-8.524 8.523v16.664a8.526 8.526 0 0 0 8.524 8.523v-.007Zm50.403-22.037h52.562v10.37H122.45v-10.37Zm-44.647 0h36.273v10.37H77.803v-10.37Z" fill="#63B9D7"/><path d="M114.081 18.796H77.809v10.37h36.272v-10.37Z" fill="#fff"/><path d="M56.394 18.796H29.11v10.37h27.283v-10.37ZM79.728 88.796H29.111v10.37h50.617v-10.37ZM112.138 88.796h-23.14v10.37h23.14v-10.37ZM68.061 111.481h-38.95v10.371h38.95v-10.371ZM141.306 111.481H74.543v10.371h66.763v-10.371ZM120.758 88.796v10.37h32.111l.071-10.37h-32.182Z" fill="#65A3E0"/><path d="M175.013 18.796h-52.562v10.37h52.562v-10.37Z" fill="#fff"/><path d="M164.401 72.126c2.016 0 4.012.544 5.769 1.575l7.357 4.317c3.429-1.102 5.911-4.317 5.911-8.109V53.245a8.525 8.525 0 0 0-8.523-8.523H26.025a8.525 8.525 0 0 0-8.523 8.523V69.91a8.526 8.526 0 0 0 8.524 8.523h128.179c1.886-3.727 5.75-6.3 10.19-6.3l.006-.006ZM56.789 66.759H28.936V56.39h27.846v10.37h.007Zm78.683 0h-69.59V56.39h69.59v10.37Zm8.194-10.37h31.346v10.37h-31.346V56.39Z" fill="#63B9D7"/><path d="M56.782 56.389H28.936v10.37h27.846V56.39ZM135.472 56.389h-69.59v10.37h69.59V56.39ZM175.012 56.389h-31.346v10.37h31.346V56.39Z" fill="#fff"/></g><defs><clipPath id="a"><path fill="#fff" d="M0 0h203v140H0z"/></clipPath></defs></svg>