<svg width="218" height="49" viewBox="0 0 218 49" fill="none" xmlns="http://www.w3.org/2000/svg">
<g clip-path="url(#clip0_211_8260)">
<path d="M33.5511 18.3385H4.3558C1.95016 18.3385 0 20.463 0 23.0837V43.2739C0 45.8946 1.95016 48.0191 4.3558 48.0191H33.5511C35.9567 48.0191 37.9069 45.8946 37.9069 43.2739V23.0837C37.9069 20.463 35.9567 18.3385 33.5511 18.3385Z" fill="#991155"/>
<path d="M46.5094 20.2149L27.399 9.52673C26.6898 9.13275 25.8861 8.92614 25.0685 8.92759C24.2508 8.92904 23.448 9.13851 22.7403 9.535C22.0325 9.9315 21.4449 10.5011 21.0361 11.1867C20.6273 11.8724 20.4118 12.65 20.4111 13.4417V34.8038C20.4092 35.5967 20.6229 36.3761 21.0306 37.0637C21.4383 37.7514 22.0258 38.323 22.7339 38.7211C23.442 39.1193 24.2459 39.33 25.0648 39.3321C25.8837 39.3342 26.6887 39.1275 27.399 38.733L46.5094 28.0306C47.2183 27.6349 47.807 27.0654 48.2164 26.3794C48.6257 25.6934 48.8413 24.9151 48.8413 24.1228C48.8413 23.3305 48.6257 22.5521 48.2164 21.8661C47.807 21.1801 47.2183 20.6106 46.5094 20.2149Z" fill="#E298BD"/>
<path d="M40.4768 13.1247C43.4088 13.1247 45.7857 10.7576 45.7857 7.83764C45.7857 4.91769 43.4088 2.5506 40.4768 2.5506C37.5448 2.5506 35.168 4.91769 35.168 7.83764C35.168 10.7576 37.5448 13.1247 40.4768 13.1247Z" fill="#C5327B"/>
</g>
<g clip-path="url(#clip1_211_8260)">
<path d="M76.6394 31.6206C75.5689 30.9565 74.3768 30.4232 73.0959 30.0444C71.7262 29.6421 70.4454 29.2118 69.286 28.7722C68.0752 28.3138 67.0374 27.7572 66.2053 27.1258C65.2143 26.3727 64.7141 25.2923 64.7141 23.9078C64.7141 23.0191 64.9058 22.2334 65.2891 21.5645C65.6631 20.9144 66.1633 20.3718 66.7803 19.9602C67.3694 19.5673 68.0378 19.2773 68.7624 19.0996C69.459 18.9312 70.1882 18.8423 70.9315 18.8423C72.175 18.8423 73.3811 19.0715 74.5124 19.5299C75.3679 19.876 76.1065 20.3671 76.7189 21.0032L79.7061 17.8508C78.6729 17.0229 77.5276 16.4008 76.2935 16.0032C74.7648 15.5121 73.1614 15.2596 71.5299 15.2596C70.1041 15.2596 68.683 15.4513 67.3133 15.8302C65.9669 16.2044 64.7608 16.775 63.7184 17.528C62.6993 18.2717 61.8578 19.2165 61.2267 20.3391C60.6096 21.4382 60.2918 22.7806 60.2918 24.3241C60.2918 26.0921 60.633 27.5 61.3062 28.5102C62.0027 29.558 62.8816 30.4092 63.91 31.036C64.9852 31.6908 66.1773 32.2146 67.4582 32.5935C68.8326 33.0004 70.1134 33.4354 71.2775 33.8891C72.5022 34.3709 73.5447 34.9695 74.3815 35.6711C75.3492 36.485 75.84 37.6403 75.84 39.0996C75.84 39.9929 75.6297 40.7974 75.2136 41.499C74.8116 42.1772 74.274 42.7432 73.6148 43.1828C72.9884 43.6038 72.2825 43.9218 71.5159 44.1276C70.7679 44.3334 70.0059 44.4363 69.258 44.4363C67.8322 44.4363 66.4625 44.0996 65.1862 43.4401C64.2092 42.9303 63.3678 42.2614 62.6759 41.4429L59.5625 44.4597C60.7078 45.6431 62.0401 46.513 63.5361 47.0509C65.3171 47.6917 67.2011 48.0191 69.1271 48.0191C70.6417 48.0191 72.1002 47.8133 73.4699 47.4064C74.8116 47.0088 75.999 46.4008 77.004 45.6103C77.9951 44.8292 78.7945 43.8283 79.3835 42.6356C79.9725 41.4476 80.267 40.021 80.267 38.4027C80.267 36.6347 79.9258 35.2174 79.2479 34.1884C78.5467 33.1267 77.6679 32.2614 76.6394 31.6206Z" fill="#59595B"/>
<path d="M93.464 19.7216V20.5635V47.1865H97.6012V20.5635V19.7216H98.4473H107.647V16.1389H83.418V19.7216H92.6179H93.464Z" fill="#59595B"/>
<path d="M128.132 43.3465C127.075 43.8844 125.771 44.1557 124.256 44.1557C122.737 44.1557 121.433 43.8844 120.376 43.3465C119.329 42.8133 118.469 42.1164 117.824 41.2792C117.188 40.456 116.73 39.5393 116.454 38.5617C116.188 37.6122 116.052 36.6861 116.052 35.8115V16.0968H111.91V35.9939C111.91 37.8508 112.223 39.5393 112.84 41.0173C113.453 42.4906 114.318 43.7535 115.416 44.7778C116.515 45.8068 117.833 46.6113 119.324 47.1726C120.825 47.7338 122.484 48.0238 124.256 48.0238C126.028 48.0238 127.687 47.7385 129.188 47.1726C130.679 46.6113 131.984 45.8068 133.068 44.7825C134.153 43.7581 135.018 42.4859 135.649 41.0126C136.28 39.5346 136.598 37.8461 136.598 35.9986V16.0968H132.456V35.8115C132.456 36.6861 132.32 37.6122 132.054 38.5617C131.778 39.5439 131.315 40.456 130.684 41.2792C130.039 42.1164 129.179 42.8133 128.132 43.3465Z" fill="#59595B"/>
<path d="M166.002 19.9135C164.553 18.6366 162.861 17.673 160.972 17.051C159.06 16.4195 157.05 16.0968 154.988 16.0968H142.923V47.1913H154.297C156.176 47.1913 158.121 46.8685 160.075 46.2371C162.019 45.6103 163.814 44.6422 165.408 43.3699C166.989 42.1071 168.302 40.4841 169.303 38.5477C170.298 36.6253 170.803 34.3054 170.803 31.644C170.803 29.0014 170.359 26.6768 169.49 24.7451C168.625 22.8087 167.447 21.1857 166.002 19.9135ZM165.259 37.1351C164.506 38.6553 163.464 39.9134 162.155 40.8676C160.869 41.8077 159.35 42.5093 157.63 42.949C155.947 43.3793 154.142 43.5991 152.258 43.5991H147.906H147.06V42.7525V20.5262V19.6796H147.906H153.231C155.087 19.6796 156.821 19.8994 158.387 20.3344C159.986 20.7787 161.398 21.485 162.576 22.4345C163.772 23.398 164.721 24.6656 165.39 26.2044C166.049 27.7245 166.385 29.5533 166.385 31.6347C166.39 33.7722 166.012 35.6197 165.259 37.1351Z" fill="#59595B"/>
<path d="M179.943 16.0968H175.801V47.1913H179.943V16.0968Z" fill="#59595B"/>
<path d="M213.344 19.6047C211.895 18.1828 210.142 17.0837 208.136 16.3447C206.192 15.6244 204.022 15.2596 201.68 15.2596C201.587 15.2596 201.498 15.2596 201.405 15.2596C198.983 15.2596 196.739 15.6524 194.734 16.4289C192.742 17.2006 190.999 18.3138 189.563 19.7357C188.124 21.1623 186.983 22.9116 186.165 24.9368C185.347 26.9714 184.931 29.2726 184.931 31.775C184.931 34.2165 185.347 36.4616 186.165 38.4448C186.978 40.4279 188.124 42.1491 189.563 43.557C191.003 44.9649 192.742 46.0734 194.738 46.8451C196.744 47.6215 198.988 48.0144 201.4 48.0144C203.835 47.9864 206.098 47.5607 208.122 46.7563C210.137 45.9518 211.895 44.8245 213.349 43.3933C214.802 41.9667 215.952 40.2408 216.771 38.2577C217.589 36.2698 218.005 34.0247 218.005 31.5879C218.005 29.0855 217.589 26.7937 216.771 24.7731C215.948 22.7712 214.798 21.0266 213.344 19.6047ZM212.717 36.5598C212.142 38.1407 211.315 39.5252 210.254 40.6852C209.193 41.8498 207.898 42.7712 206.411 43.4354C204.92 44.0996 203.251 44.4363 201.442 44.4363C199.633 44.4363 197.964 44.0996 196.491 43.4354C195.019 42.7759 193.733 41.8498 192.672 40.6898C191.616 39.5346 190.788 38.1454 190.213 36.5645C189.643 34.9976 189.353 33.2623 189.353 31.4148C189.353 29.6842 189.643 28.0378 190.218 26.5318C190.793 25.0163 191.62 23.6693 192.681 22.528C193.743 21.3821 195.028 20.4747 196.501 19.8292C197.973 19.1838 199.637 18.8564 201.447 18.8564C203.251 18.8564 204.925 19.1838 206.411 19.8292C207.902 20.4747 209.193 21.3821 210.259 22.5327C211.315 23.674 212.142 25.021 212.722 26.5364C213.297 28.0472 213.587 29.6936 213.587 31.4195C213.582 33.2577 213.292 34.9929 212.717 36.5598Z" fill="#59595B"/>
</g>
<defs>
<clipPath id="clip0_211_8260">
<rect width="48.8415" height="47.0546" fill="white" transform="translate(0 0.964478)"/>
</clipPath>
<clipPath id="clip1_211_8260">
<rect width="158.437" height="32.7596" fill="white" transform="translate(59.5625 15.2596)"/>
</clipPath>
</defs>
</svg>
