<svg width="223" height="155" fill="none" xmlns="http://www.w3.org/2000/svg"><g clip-path="url(#a)"><path d="M118.813 118.774H75.709v29.1h43.104v-29.1ZM176.495 11.877H17.73a5.336 5.336 0 0 0-5.34 5.333v93.262a5.336 5.336 0 0 0 5.34 5.333h158.765a5.337 5.337 0 0 0 5.339-5.333V17.21a5.336 5.336 0 0 0-5.339-5.333Z" fill="#44566B"/><path d="M176.495 11.877a5.336 5.336 0 0 1 5.339 5.333v93.262a5.336 5.336 0 0 1-5.339 5.333H17.73a5.336 5.336 0 0 1-5.34-5.333V17.21a5.336 5.336 0 0 1 5.34-5.333h158.765Zm0-11.877H17.73C8.229 0 .5 7.72.5 17.21v93.262c0 9.49 7.729 17.21 17.23 17.21h158.765c9.5 0 17.229-7.72 17.229-17.21V17.21c0-9.49-7.729-17.21-17.229-17.21ZM142.684 140.931H51.541c-3.89 0-7.045 3.15-7.045 7.035 0 3.885 3.154 7.034 7.045 7.034h91.143c3.891 0 7.045-3.149 7.045-7.034s-3.154-7.035-7.045-7.035Z" fill="#5878A5"/><path d="M40.928 24.046v83.427h181.571V24.046H40.928ZM52.55 103.12h-2.907v-5.078h2.907v5.078Zm0-70.73h-2.907v-5.078h2.907v5.078Zm16.552 70.73h-5.755v-5.078h5.755v5.078Zm0-70.73h-5.755v-5.078h5.755v5.078Zm16.552 70.73H79.9v-5.078h5.755v5.078Zm0-70.73H79.9v-5.078h5.755v5.078Zm16.552 70.73h-5.761v-5.078h5.761v5.078Zm0-70.73h-5.761v-5.078h5.761v5.078Zm16.552 70.73h-5.756v-5.078h5.756v5.078Zm0-70.73h-5.756v-5.078h5.756v5.078Zm16.551 70.73h-5.755v-5.078h5.755v5.078Zm0-70.73h-5.755v-5.078h5.755v5.078Zm16.552 70.73h-5.761v-5.078h5.761v5.078Zm0-70.73h-5.761v-5.078h5.761v5.078Zm16.552 70.73h-5.755v-5.078h5.755v5.078Zm0-70.73h-5.755v-5.078h5.755v5.078Zm16.552 70.73h-5.755v-5.078h5.755v5.078Zm0-70.73h-5.755v-5.078h5.755v5.078Zm16.552 70.73h-5.761v-5.078h5.761v5.078Zm0-70.73h-5.761v-5.078h5.761v5.078Zm13.698 70.73h-2.907v-5.078h2.907v5.078Zm0-70.73h-2.907v-5.078h2.907v5.078Z" fill="#3F94B1"/><path d="M49.645 94.42h29.078a5.054 5.054 0 0 0 5.054-5.049V42.153a5.054 5.054 0 0 0-5.054-5.048H49.645v57.314ZM186.155 94.42h29.079V37.104h-29.079a5.054 5.054 0 0 0-5.053 5.048V89.37a5.054 5.054 0 0 0 5.053 5.048ZM168.785 37.105H96.097a5.05 5.05 0 0 0-5.054 5.048V89.37a5.05 5.05 0 0 0 5.053 5.048h72.689a5.05 5.05 0 0 0 5.053-5.047v-47.22a5.05 5.05 0 0 0-5.053-5.047Z" fill="#63B9D7"/><path d="m144.454 62.428-19.423-11.2c-2.866-1.652-6.451.415-6.451 3.717v22.4c0 3.308 3.585 5.37 6.451 3.718l19.423-11.2c2.866-1.651 2.866-5.785 0-7.435Z" fill="#fff"/></g><defs><clipPath id="a"><path fill="#fff" transform="translate(.5)" d="M0 0h222v155H0z"/></clipPath></defs></svg>