<svg width="201" height="32" viewBox="0 0 201 32" fill="none" xmlns="http://www.w3.org/2000/svg">
<path d="M32.119 14.1417C32.119 8.1039 27.0432 3.20929 20.782 3.20929C14.5207 3.20929 9.44498 8.1039 9.44498 14.1417C9.44498 20.1795 14.5207 25.0741 20.782 25.0741C27.0432 25.0741 32.119 20.1795 32.119 14.1417Z" fill="#FF886D"/>
<path d="M6.3267 28.1774C6.3267 26.5163 4.93031 25.1698 3.20778 25.1698C1.48525 25.1698 0.0888671 26.5163 0.0888672 28.1774C0.0888673 29.8384 1.48525 31.185 3.20778 31.185C4.93031 31.185 6.3267 29.8384 6.3267 28.1774Z" fill="#FD9256"/>
<path d="M20.7826 20.2525C20.7826 16.0603 17.2584 12.6619 12.911 12.6619C8.56371 12.6619 5.0395 16.0603 5.0395 20.2525C5.0395 24.4447 8.56371 27.8431 12.911 27.8431C17.2584 27.8431 20.7826 24.4447 20.7826 20.2525Z" fill="#EA4A26"/>
<path d="M193.187 27.8766C191.416 27.8766 189.85 27.5928 188.488 27.0251C187.148 26.4575 186.081 25.6969 185.286 24.7433L188.59 21.8825C189.294 22.5863 190.088 23.1085 190.974 23.4491C191.859 23.767 192.699 23.9259 193.494 23.9259C193.812 23.9259 194.096 23.8919 194.345 23.8237C194.595 23.7556 194.799 23.6648 194.958 23.5513C195.14 23.4151 195.276 23.2675 195.367 23.1085C195.458 22.9269 195.503 22.7226 195.503 22.4955C195.503 22.0414 195.299 21.6895 194.89 21.4397C194.686 21.3262 194.345 21.19 193.869 21.031C193.392 20.8721 192.779 20.6905 192.029 20.4861C190.962 20.2137 190.031 19.8958 189.237 19.5325C188.465 19.1465 187.829 18.7038 187.33 18.2043C186.875 17.7275 186.524 17.2053 186.274 16.6376C186.024 16.0473 185.899 15.3889 185.899 14.6623C185.899 13.8222 186.092 13.0616 186.478 12.3805C186.887 11.6993 187.42 11.109 188.079 10.6095C188.76 10.11 189.532 9.73535 190.395 9.48559C191.28 9.21313 192.188 9.0769 193.119 9.0769C194.118 9.0769 195.072 9.19043 195.98 9.41748C196.888 9.64453 197.728 9.9624 198.5 10.3711C199.295 10.7798 199.999 11.2679 200.612 11.8356L197.751 15.0369C197.342 14.651 196.877 14.3104 196.355 14.0152C195.855 13.6974 195.333 13.4476 194.788 13.266C194.243 13.0843 193.744 12.9935 193.29 12.9935C192.949 12.9935 192.643 13.0276 192.37 13.0957C192.12 13.1411 191.905 13.2319 191.723 13.3681C191.541 13.4817 191.405 13.6292 191.314 13.8109C191.223 13.9698 191.178 14.1628 191.178 14.3899C191.178 14.6169 191.235 14.8326 191.348 15.0369C191.485 15.2413 191.666 15.4116 191.893 15.5478C192.12 15.684 192.484 15.843 192.983 16.0246C193.483 16.1835 194.164 16.3879 195.027 16.6376C196.094 16.9328 197.013 17.262 197.785 17.6253C198.557 17.9886 199.17 18.42 199.624 18.9195C199.988 19.3055 200.26 19.7596 200.442 20.2818C200.623 20.7813 200.714 21.3262 200.714 21.9165C200.714 23.0745 200.385 24.1076 199.726 25.0157C199.091 25.9012 198.205 26.6051 197.07 27.1273C195.935 27.6268 194.641 27.8766 193.187 27.8766Z" fill="#59595B"/>
<path d="M176.774 27.8766C174.776 27.8766 173.039 27.4792 171.563 26.6846C170.088 25.8672 168.941 24.766 168.124 23.381C167.306 21.9733 166.897 20.3726 166.897 18.5789C166.897 17.1939 167.125 15.9224 167.579 14.7645C168.033 13.6065 168.668 12.6075 169.486 11.7674C170.303 10.9046 171.268 10.2462 172.381 9.79211C173.516 9.31531 174.753 9.0769 176.093 9.0769C177.364 9.0769 178.522 9.30395 179.567 9.75805C180.634 10.2122 181.553 10.8479 182.325 11.6653C183.097 12.4826 183.688 13.4476 184.096 14.5601C184.505 15.6727 184.687 16.8874 184.641 18.2043L184.607 19.6687H170.201L169.418 16.6036H180.18L179.601 17.2507V16.5695C179.555 16.0019 179.374 15.5024 179.056 15.071C178.761 14.6169 178.363 14.265 177.864 14.0152C177.364 13.7655 176.797 13.6406 176.161 13.6406C175.276 13.6406 174.515 13.8222 173.879 14.1855C173.266 14.5261 172.801 15.0369 172.483 15.7181C172.165 16.3765 172.006 17.1939 172.006 18.1702C172.006 19.1692 172.21 20.0434 172.619 20.7926C173.05 21.5192 173.664 22.0868 174.458 22.4955C175.276 22.9042 176.241 23.1085 177.353 23.1085C178.125 23.1085 178.806 22.995 179.397 22.768C180.01 22.5409 180.668 22.1549 181.372 21.61L183.926 25.2201C183.222 25.8331 182.473 26.3326 181.678 26.7186C180.884 27.1046 180.066 27.3884 179.226 27.57C178.409 27.7744 177.591 27.8766 176.774 27.8766Z" fill="#59595B"/>
<path d="M158.609 27.536V9.45153H164.059V27.536H158.609ZM161.334 5.87551C160.312 5.87551 159.506 5.63711 158.916 5.1603C158.348 4.6608 158.064 3.95694 158.064 3.04875C158.064 2.23137 158.36 1.56157 158.95 1.03936C159.54 0.517149 160.335 0.256042 161.334 0.256042C162.356 0.256042 163.15 0.505796 163.718 1.0053C164.286 1.48211 164.569 2.16326 164.569 3.04875C164.569 3.88883 164.274 4.56997 163.684 5.09219C163.116 5.6144 162.333 5.87551 161.334 5.87551Z" fill="#59595B"/>
<path d="M143.826 27.536V9.45154H149.003L149.241 15.3435L148.22 14.2196C148.492 13.2433 148.935 12.3691 149.548 11.5971C150.184 10.8252 150.921 10.2122 151.762 9.75805C152.602 9.30395 153.498 9.0769 154.452 9.0769C154.861 9.0769 155.235 9.11096 155.576 9.17908C155.939 9.24719 156.268 9.32666 156.564 9.41748L155.065 15.4456C154.815 15.2867 154.475 15.1618 154.043 15.071C153.635 14.9575 153.203 14.9007 152.749 14.9007C152.25 14.9007 151.784 14.9915 151.353 15.1732C150.921 15.3321 150.558 15.5705 150.263 15.8884C149.968 16.2062 149.729 16.5809 149.548 17.0123C149.389 17.4437 149.309 17.9318 149.309 18.4767V27.536H143.826Z" fill="#59595B"/>
<path d="M131.545 27.8766C129.66 27.8766 127.98 27.4679 126.504 26.6505C125.051 25.8331 123.893 24.7206 123.031 23.3129C122.191 21.9052 121.771 20.2931 121.771 18.4767C121.771 16.6603 122.191 15.0483 123.031 13.6406C123.893 12.2329 125.051 11.1203 126.504 10.303C127.98 9.48559 129.66 9.0769 131.545 9.0769C133.429 9.0769 135.098 9.48559 136.551 10.303C138.027 11.1203 139.185 12.2329 140.025 13.6406C140.865 15.0483 141.285 16.6603 141.285 18.4767C141.285 20.2931 140.865 21.9052 140.025 23.3129C139.185 24.7206 138.027 25.8331 136.551 26.6505C135.098 27.4679 133.429 27.8766 131.545 27.8766ZM131.545 23.1767C132.362 23.1767 133.089 22.9723 133.725 22.5636C134.36 22.1549 134.86 21.5987 135.223 20.8948C135.586 20.191 135.757 19.3849 135.734 18.4767C135.757 17.5685 135.586 16.7625 135.223 16.0587C134.86 15.3321 134.36 14.7645 133.725 14.3558C133.089 13.9471 132.362 13.7428 131.545 13.7428C130.728 13.7428 129.99 13.9471 129.331 14.3558C128.696 14.7645 128.196 15.3321 127.833 16.0587C127.469 16.7625 127.299 17.5685 127.322 18.4767C127.299 19.3849 127.469 20.191 127.833 20.8948C128.196 21.5987 128.696 22.1549 129.331 22.5636C129.99 22.9723 130.728 23.1767 131.545 23.1767Z" fill="#59595B"/>
<path d="M91.2568 27.5361V9.4516H96.4336L96.6038 12.7211L95.8886 12.7552C96.1611 12.1648 96.5017 11.6426 96.9104 11.1885C97.3418 10.7344 97.8186 10.3598 98.3408 10.0646C98.8857 9.74676 99.442 9.50836 100.01 9.34942C100.6 9.19049 101.19 9.11102 101.781 9.11102C102.666 9.11102 103.472 9.24725 104.199 9.51971C104.925 9.79217 105.561 10.2349 106.106 10.8479C106.651 11.4383 107.082 12.2443 107.4 13.266L106.549 13.1979L106.821 12.653C107.116 12.1081 107.491 11.6199 107.945 11.1885C108.422 10.7344 108.944 10.3598 109.512 10.0646C110.079 9.74676 110.67 9.50836 111.283 9.34942C111.896 9.19049 112.486 9.11102 113.054 9.11102C114.484 9.11102 115.676 9.39483 116.63 9.96246C117.583 10.5074 118.298 11.3361 118.775 12.4486C119.275 13.5612 119.524 14.9121 119.524 16.5015V27.5361H114.041V16.9442C114.041 16.2177 113.939 15.616 113.735 15.1392C113.53 14.6624 113.224 14.3104 112.815 14.0834C112.429 13.8336 111.941 13.7088 111.351 13.7088C110.874 13.7088 110.431 13.7882 110.022 13.9472C109.636 14.1061 109.296 14.3218 109.001 14.5943C108.728 14.8667 108.513 15.1846 108.354 15.5479C108.195 15.9111 108.115 16.3198 108.115 16.7739V27.5361H102.632V16.9102C102.632 16.229 102.53 15.65 102.325 15.1732C102.121 14.6964 101.815 14.3332 101.406 14.0834C100.997 13.8336 100.52 13.7088 99.9755 13.7088C99.4987 13.7088 99.056 13.7882 98.6473 13.9472C98.2613 14.1061 97.9207 14.3218 97.6256 14.5943C97.3531 14.8667 97.1374 15.1846 96.9785 15.5479C96.8195 15.9111 96.7401 16.3085 96.7401 16.7399V27.5361H91.2568Z" fill="#59595B"/>
<path d="M80.9743 27.8766C78.9763 27.8766 77.2393 27.4792 75.7635 26.6846C74.2877 25.8672 73.1411 24.766 72.3237 23.381C71.5063 21.9733 71.0977 20.3726 71.0977 18.5789C71.0977 17.1939 71.3247 15.9224 71.7788 14.7645C72.2329 13.6065 72.8686 12.6075 73.686 11.7674C74.5034 10.9046 75.4683 10.2462 76.5809 9.79211C77.7161 9.31531 78.9536 9.0769 80.2931 9.0769C81.5646 9.0769 82.7226 9.30395 83.767 9.75805C84.8341 10.2122 85.7537 10.8479 86.5256 11.6653C87.2976 12.4826 87.8879 13.4476 88.2966 14.5601C88.7053 15.6727 88.8869 16.8874 88.8415 18.2043L88.8075 19.6687H74.4012L73.6179 16.6036H84.38L83.8011 17.2507V16.5695C83.7556 16.0019 83.574 15.5024 83.2561 15.071C82.961 14.6169 82.5636 14.265 82.0641 14.0152C81.5646 13.7655 80.997 13.6406 80.3613 13.6406C79.4758 13.6406 78.7152 13.8222 78.0794 14.1855C77.4664 14.5261 77.0009 15.0369 76.6831 15.7181C76.3652 16.3765 76.2063 17.1939 76.2063 18.1702C76.2063 19.1692 76.4106 20.0434 76.8193 20.7926C77.2507 21.5192 77.8637 22.0868 78.6584 22.4955C79.4758 22.9042 80.4407 23.1085 81.5533 23.1085C82.3252 23.1085 83.0064 22.995 83.5967 22.768C84.2097 22.5409 84.8682 22.1549 85.572 21.61L88.1263 25.2201C87.4225 25.8331 86.6732 26.3326 85.8785 26.7186C85.0839 27.1046 84.2665 27.3884 83.4264 27.57C82.609 27.7744 81.7917 27.8766 80.9743 27.8766Z" fill="#59595B"/>
<path d="M40.585 27.5361V9.4516H45.7617L45.932 12.7211L45.2168 12.7552C45.4892 12.1648 45.8298 11.6426 46.2385 11.1885C46.6699 10.7344 47.1467 10.3598 47.6689 10.0646C48.2138 9.74676 48.7701 9.50836 49.3377 9.34942C49.928 9.19049 50.5184 9.11102 51.1087 9.11102C51.9942 9.11102 52.8002 9.24725 53.5268 9.51971C54.2533 9.79217 54.8891 10.2349 55.434 10.8479C55.9789 11.4383 56.4103 12.2443 56.7281 13.266L55.8767 13.1979L56.1492 12.653C56.4443 12.1081 56.819 11.6199 57.2731 11.1885C57.7499 10.7344 58.2721 10.3598 58.8397 10.0646C59.4073 9.74676 59.9977 9.50836 60.6107 9.34942C61.2237 9.19049 61.814 9.11102 62.3817 9.11102C63.8121 9.11102 65.0041 9.39483 65.9577 9.96246C66.9113 10.5074 67.6265 11.3361 68.1033 12.4486C68.6028 13.5612 68.8526 14.9121 68.8526 16.5015V27.5361H63.3693V16.9442C63.3693 16.2177 63.2672 15.616 63.0628 15.1392C62.8585 14.6624 62.552 14.3104 62.1433 14.0834C61.7573 13.8336 61.2691 13.7088 60.6788 13.7088C60.202 13.7088 59.7593 13.7882 59.3506 13.9472C58.9646 14.1061 58.624 14.3218 58.3288 14.5943C58.0564 14.8667 57.8407 15.1846 57.6818 15.5479C57.5228 15.9111 57.4434 16.3198 57.4434 16.7739V27.5361H51.9601V16.9102C51.9601 16.229 51.8579 15.65 51.6536 15.1732C51.4493 14.6964 51.1427 14.3332 50.7341 14.0834C50.3254 13.8336 49.8486 13.7088 49.3036 13.7088C48.8268 13.7088 48.3841 13.7882 47.9754 13.9472C47.5894 14.1061 47.2489 14.3218 46.9537 14.5943C46.6812 14.8667 46.4655 15.1846 46.3066 15.5479C46.1477 15.9111 46.0682 16.3085 46.0682 16.7399V27.5361H40.585Z" fill="#59595B"/>
</svg>
