<svg width="151" height="52" viewBox="0 0 151 52" fill="none" xmlns="http://www.w3.org/2000/svg">
<g clip-path="url(#clip0_181_3954)">
<path d="M29.7958 0.232422C29.7958 0.232422 29.7728 0.232422 29.7591 0.232422C27.216 0.232422 25.1458 2.26905 25.1228 4.79774L24.8887 33.7889C24.8887 33.7889 24.8887 33.8026 24.8887 33.8071C24.8887 33.8117 24.8887 33.8208 24.8887 33.8253C24.8887 38.7734 20.8308 42.8011 15.8457 42.8011C12.8987 42.8011 10.1261 41.3659 8.43225 38.9647C6.96333 36.8826 4.0714 36.3768 1.97361 37.8348C-0.124189 39.2928 -0.633719 42.1632 0.835197 44.2454C4.2642 49.1069 9.87362 52.0092 15.8457 52.0092C25.9261 52.0092 34.1245 43.8855 34.1566 33.8891C34.1566 33.88 34.1566 33.8755 34.1566 33.8664L34.3862 4.8752C34.4045 2.33283 32.348 0.255203 29.7866 0.236978L29.7958 0.232422Z" fill="#59595B"/>
<path d="M55.2589 0C45.1601 0 36.9434 8.15561 36.9434 18.1793C36.9434 28.2029 45.1601 36.3585 55.2589 36.3585C65.3577 36.3585 73.5745 28.2029 73.5745 18.1793C73.5745 8.15561 65.3577 0 55.2589 0ZM55.2589 27.1504C50.2738 27.1504 46.2159 23.1228 46.2159 18.1747C46.2159 13.2267 50.2738 9.19899 55.2589 9.19899C60.244 9.19899 64.3019 13.2267 64.3019 18.1747C64.3019 23.1228 60.244 27.1504 55.2589 27.1504Z" fill="#59595B"/>
<path d="M93.7394 0C83.6406 0 75.4238 8.15561 75.4238 18.1793C75.4238 28.2029 83.6406 36.3585 93.7394 36.3585C97.0215 36.3585 100.106 35.4929 102.773 33.9848C102.686 38.8599 98.674 42.801 93.7394 42.801C90.7924 42.801 88.0198 41.3658 86.3259 38.9647C84.857 36.8825 81.9651 36.3768 79.8673 37.8348C77.7695 39.2927 77.26 42.1631 78.7289 44.2453C82.1579 49.1068 87.7673 52.0091 93.7394 52.0091C103.838 52.0091 112.055 43.8535 112.055 33.8298V17.2589C112.055 16.94 112.023 16.6302 111.963 16.334C111.027 7.17147 103.209 0 93.7394 0ZM93.7394 27.1504C88.7542 27.1504 84.6964 23.1228 84.6964 18.1747C84.6964 13.2267 88.7542 9.19898 93.7394 9.19898C98.7245 9.19898 102.782 13.2267 102.782 18.1747C102.782 23.1228 98.7245 27.1504 93.7394 27.1504Z" fill="#59595B"/>
<path d="M150.908 16.3294C149.971 7.17147 142.159 0 132.689 0C122.59 0 114.373 8.15561 114.373 18.1793C114.373 28.2029 122.59 36.3585 132.689 36.3585C135.971 36.3585 139.055 35.4929 141.722 33.9848C141.635 38.8599 137.623 42.801 132.689 42.801C129.742 42.801 126.969 41.3658 125.275 38.9647C123.806 36.8825 120.914 36.3768 118.817 37.8348C116.719 39.2927 116.209 42.1631 117.678 44.2453C121.107 49.1068 126.717 52.0091 132.689 52.0091C142.787 52.0091 151.004 43.8535 151.004 33.8298V17.2589C151.004 16.94 150.972 16.6302 150.912 16.334L150.908 16.3294ZM132.689 27.1504C127.703 27.1504 123.646 23.1228 123.646 18.1747C123.646 13.2267 127.703 9.19898 132.689 9.19898C137.674 9.19898 141.732 13.2267 141.732 18.1747C141.732 23.1228 137.674 27.1504 132.689 27.1504Z" fill="#59595B"/>
</g>
<defs>
<clipPath id="clip0_181_3954">
<rect width="151" height="52" fill="white"/>
</clipPath>
</defs>
</svg>
