<svg width="203" height="25" viewBox="0 0 203 25" fill="none" xmlns="http://www.w3.org/2000/svg">
<path d="M9.57788 24.7952C11.4659 24.7952 12.9965 23.2646 12.9965 21.3765C12.9965 19.4885 11.4659 17.9579 9.57788 17.9579C7.68983 17.9579 6.15926 19.4885 6.15926 21.3765C6.15926 23.2646 7.68983 24.7952 9.57788 24.7952Z" fill="#3F94B1"/>
<path d="M8.89416 12.8839C8.89416 11.1549 10.2958 9.75319 12.0249 9.75319H33.1124C34.8415 9.75319 36.2432 11.1549 36.2432 12.8839V13.4597C36.2432 15.1888 34.8415 16.5904 33.1124 16.5904H12.0249C10.2958 16.5904 8.89416 15.1888 8.89416 13.4597V12.8839Z" fill="#63B9D7"/>
<path d="M14.364 21.0886C14.364 19.3596 15.7656 17.9579 17.4947 17.9579H37.2148C38.9438 17.9579 40.3455 19.3596 40.3455 21.0886V21.6644C40.3455 23.3935 38.9438 24.7952 37.2148 24.7952H17.4947C15.7656 24.7952 14.364 23.3935 14.364 21.6644V21.0886Z" fill="#5878A5"/>
<path d="M0.689453 7.41413C0.689453 5.68507 2.09113 4.28339 3.8202 4.28339H26.2752C28.0042 4.28339 29.4059 5.68507 29.4059 7.41413V7.9899C29.4059 9.71896 28.0042 11.1206 26.2752 11.1206H3.8202C2.09114 11.1206 0.689453 9.71896 0.689453 7.9899V7.41413Z" fill="#3F94B1"/>
<path d="M50.6943 22.2726C52.3434 23.8534 54.9625 24.7952 57.6786 24.7952C62.0114 24.7952 64.4365 22.5753 64.4365 19.5819C64.4365 15.5458 60.8474 14.8058 58.1636 14.2677C56.4176 13.8977 55.1888 13.5277 55.1888 12.5187C55.1888 11.577 56.1589 11.0052 57.6463 11.0052C59.554 11.0052 61.3324 11.846 62.2701 12.8887L63.8868 9.96253C62.3671 8.68443 60.2654 7.74267 57.6139 7.74267C53.5074 7.74267 51.2117 10.1307 51.2117 12.8551C51.2117 16.723 54.6715 17.3957 57.3553 17.9338C59.1337 18.3038 60.4917 18.7074 60.4917 19.851C60.4917 20.86 59.651 21.499 57.8726 21.499C55.9325 21.499 53.6044 20.3891 52.4727 19.2792L50.6943 22.2726Z" fill="#59595B"/>
<path d="M72.7 24.7952C74.4138 24.7952 75.5131 24.3243 76.1275 23.7525L75.2545 20.5236C75.0281 20.7591 74.4461 20.9945 73.8317 20.9945C72.9264 20.9945 72.409 20.2209 72.409 19.2119V11.8797H75.5778V8.14628H72.409V3.70658H68.2702V8.14628H65.6834V11.8797H68.2702V20.3555C68.2702 23.248 69.8223 24.7952 72.7 24.7952Z" fill="#59595B"/>
<path d="M91.8709 24.3916V13.8977C91.8709 9.22258 88.6051 7.74267 85.0483 7.74267C82.5909 7.74267 80.1334 8.54989 78.2257 10.2989L79.7778 13.1578C81.1035 11.8797 82.6555 11.2406 84.3369 11.2406C86.4063 11.2406 87.7644 12.3169 87.7644 13.965V16.2185C86.7297 14.9067 84.8866 14.2341 82.8172 14.2341C80.3274 14.2341 77.385 15.6131 77.385 19.4137C77.385 23.0462 80.3274 24.7952 82.8172 24.7952C84.8543 24.7952 86.6974 24.0216 87.7644 22.7099V24.3916H91.8709ZM87.7644 20.49C87.0854 21.4318 85.792 21.9026 84.4663 21.9026C82.8495 21.9026 81.5238 21.0282 81.5238 19.5146C81.5238 17.9674 82.8495 17.0593 84.4663 17.0593C85.792 17.0593 87.0854 17.5302 87.7644 18.472V20.49Z" fill="#59595B"/>
<path d="M101.182 24.7952C102.896 24.7952 103.995 24.3243 104.61 23.7525L103.737 20.5236C103.51 20.7591 102.928 20.9945 102.314 20.9945C101.409 20.9945 100.891 20.2209 100.891 19.2119V11.8797H104.06V8.14628H100.891V3.70658H96.7524V8.14628H94.1656V11.8797H96.7524V20.3555C96.7524 23.248 98.3045 24.7952 101.182 24.7952Z" fill="#59595B"/>
<path d="M105.867 16.2521C105.867 21.4654 109.456 24.7952 114.21 24.7952C116.635 24.7952 119.06 24.0552 120.644 22.5417L118.833 19.7837C117.831 20.7927 116.117 21.3981 114.662 21.3981C112.011 21.3981 110.426 19.6828 110.168 17.6311H121.776V16.6894C121.776 11.3752 118.607 7.74267 113.951 7.74267C109.198 7.74267 105.867 11.5433 105.867 16.2521ZM113.951 11.1397C116.667 11.1397 117.702 13.1914 117.799 14.7386H110.103C110.297 13.1241 111.396 11.1397 113.951 11.1397Z" fill="#59595B"/>
<path d="M148.249 24.3916V12.6533C148.249 9.32348 146.535 7.74267 143.658 7.74267C141.265 7.74267 139.196 9.22258 138.29 10.7025C137.708 8.8526 136.253 7.74267 133.957 7.74267C131.565 7.74267 129.495 9.28985 128.848 10.2652V8.14628H124.742V24.3916H128.848V13.4605C129.463 12.5524 130.659 11.5433 132.082 11.5433C133.763 11.5433 134.41 12.6196 134.41 14.1332V24.3916H138.549V13.4268C139.131 12.5524 140.327 11.5433 141.782 11.5433C143.464 11.5433 144.11 12.6196 144.11 14.1332V24.3916H148.249Z" fill="#59595B"/>
<path d="M154.314 5.75826C155.672 5.75826 156.771 4.6147 156.771 3.20207C156.771 1.78943 155.672 0.645874 154.314 0.645874C152.988 0.645874 151.857 1.78943 151.857 3.20207C151.857 4.6147 152.988 5.75826 154.314 5.75826ZM156.383 24.3916V8.14628H152.277V24.3916H156.383Z" fill="#59595B"/>
<path d="M175.103 24.3916V12.9223C175.103 9.76072 173.454 7.74267 170.026 7.74267C167.472 7.74267 165.564 9.02077 164.562 10.2652V8.14628H160.455V24.3916H164.562V13.4605C165.241 12.4851 166.502 11.5433 168.119 11.5433C169.865 11.5433 170.996 12.3169 170.996 14.5704V24.3916H175.103Z" fill="#59595B"/>
<path d="M184.418 24.7952C186.132 24.7952 187.232 24.3243 187.846 23.7525L186.973 20.5236C186.747 20.7591 186.165 20.9945 185.55 20.9945C184.645 20.9945 184.127 20.2209 184.127 19.2119V11.8797H187.296V8.14628H184.127V3.70658H179.989V8.14628H177.402V11.8797H179.989V20.3555C179.989 23.248 181.541 24.7952 184.418 24.7952Z" fill="#59595B"/>
<path d="M188.748 22.2726C190.397 23.8534 193.016 24.7952 195.732 24.7952C200.065 24.7952 202.49 22.5753 202.49 19.5819C202.49 15.5458 198.901 14.8058 196.217 14.2677C194.471 13.8977 193.242 13.5277 193.242 12.5187C193.242 11.577 194.212 11.0052 195.7 11.0052C197.607 11.0052 199.386 11.846 200.324 12.8887L201.94 9.96253C200.421 8.68443 198.319 7.74267 195.667 7.74267C191.561 7.74267 189.265 10.1307 189.265 12.8551C189.265 16.723 192.725 17.3957 195.409 17.9338C197.187 18.3038 198.545 18.7074 198.545 19.851C198.545 20.86 197.704 21.499 195.926 21.499C193.986 21.499 191.658 20.3891 190.526 19.2792L188.748 22.2726Z" fill="#59595B"/>
</svg>
