<svg width="191" height="36" viewBox="0 0 191 36" fill="none" xmlns="http://www.w3.org/2000/svg">
<g style="mix-blend-mode:multiply">
<path d="M31.9502 1.483C35.1521 4.65099 32.8844 10.0678 28.3561 10.0678C25.549 10.0678 23.2734 7.81628 23.2734 5.03893C23.2734 0.558704 28.7482 -1.685 31.9502 1.483Z" fill="#F6901E"/>
</g>
<path d="M11.2607 8.26236C11.261 7.75948 11.3948 7.26552 11.6485 6.83006C11.9023 6.3946 12.2672 6.03296 12.7065 5.78144C13.1458 5.52992 13.6442 5.39737 14.1515 5.3971C14.6588 5.39682 15.1573 5.52882 15.5969 5.77985L25.1197 11.2265L34.6378 16.6732C35.0785 16.9246 35.4445 17.2866 35.699 17.7229C35.9535 18.1591 36.0875 18.6541 36.0875 19.1581C36.0875 19.662 35.9535 20.157 35.699 20.5932C35.4445 21.0295 35.0785 21.3915 34.6378 21.6429L25.1197 27.0896L15.5969 32.5363C15.1576 32.7888 14.6588 32.922 14.1509 32.9224C13.643 32.9228 13.1439 32.7905 12.7041 32.5387C12.2643 32.2869 11.8993 31.9246 11.6459 31.4883C11.3925 31.052 11.2596 30.5572 11.2607 30.0538V8.26236Z" fill="#F1AF42"/>
<path d="M0.466797 11.3094C0.467083 10.9346 0.568974 10.5664 0.762236 10.242C0.955498 9.91749 1.23333 9.64808 1.56782 9.46081C1.90231 9.27353 2.28168 9.17498 2.66783 9.17505C3.05399 9.17512 3.43332 9.27381 3.76774 9.4612L11.0139 13.495L18.26 17.5565C18.5936 17.745 18.8705 18.0151 19.063 18.3399C19.2554 18.6646 19.3567 19.0328 19.3567 19.4074C19.3567 19.7821 19.2554 20.1502 19.063 20.475C18.8705 20.7998 18.5936 21.0699 18.26 21.2584L11.0139 25.342L3.76774 29.398C3.43332 29.5854 3.05399 29.684 2.66783 29.6841C2.28168 29.6842 1.90231 29.5856 1.56782 29.3984C1.23333 29.2111 0.955498 28.9417 0.762236 28.6172C0.568974 28.2927 0.467083 27.9246 0.466797 27.5498L0.466797 11.3094Z" fill="#D95A05"/>
<path d="M55.588 29.945C55.076 29.945 54.6052 29.9085 54.1801 29.8355C53.7549 29.7624 53.3572 29.6575 52.9961 29.5296V35.1535C52.763 35.2174 52.4247 35.2813 51.9859 35.3452C51.547 35.4091 51.0716 35.4411 50.5596 35.4411C49.4945 35.4411 48.7266 35.2676 48.2557 34.9161C47.7849 34.5646 47.5518 33.889 47.5518 32.8893V17.3234C47.5518 16.7482 47.6752 16.2689 47.922 15.8854C48.1689 15.502 48.5026 15.1733 48.9323 14.8949C49.5951 14.4704 50.4408 14.1234 51.4739 13.8587C52.507 13.5939 53.6635 13.457 54.9435 13.457C56.2234 13.457 57.3982 13.6167 58.4633 13.9363C59.5284 14.2558 60.4472 14.7442 61.2152 15.4061C61.9832 16.068 62.5728 16.908 62.9888 17.9305C63.4048 18.953 63.6151 20.1764 63.6151 21.6051C63.6151 23.0339 63.414 24.166 63.0071 25.2022C62.6003 26.2339 62.038 27.1057 61.3112 27.8087C60.5844 28.5117 59.7387 29.0458 58.765 29.4064C57.7959 29.767 56.7354 29.9496 55.5834 29.9496L55.588 29.945ZM54.756 25.6633C55.8211 25.6633 56.6394 25.3209 57.2062 24.6407C57.7731 23.9606 58.0519 22.9472 58.0519 21.6051C58.0519 20.2631 57.7913 19.2497 57.2702 18.6335C56.7491 18.0172 55.9766 17.7068 54.948 17.7068C54.5412 17.7068 54.1709 17.7524 53.8281 17.8483C53.4852 17.9442 53.1972 18.0537 52.9641 18.1815V25.2113C53.2201 25.3392 53.4989 25.4441 53.7961 25.5309C54.0932 25.6176 54.4132 25.6587 54.756 25.6587V25.6633Z" fill="#59595B"/>
<path d="M71.7168 29.4338C71.4837 29.4977 71.1454 29.5616 70.7066 29.6255C70.2677 29.6894 69.7923 29.7214 69.2803 29.7214C68.2152 29.7214 67.4473 29.5434 66.9764 29.1919C66.5056 28.8404 66.2725 28.1648 66.2725 27.1651V17.6749C66.2725 17.0586 66.4325 16.52 66.7524 16.0589C67.0724 15.6025 67.5113 15.2008 68.0644 14.863C68.8095 14.4156 69.6826 14.0732 70.6746 13.8404C71.6665 13.6076 72.7088 13.489 73.7967 13.489C76.1235 13.489 77.2846 14.3106 77.2846 15.9494C77.2846 16.3328 77.2297 16.6889 77.1246 17.0175C77.0194 17.3462 76.8914 17.6292 76.7406 17.862C76.3338 17.7753 75.7486 17.7342 74.9807 17.7342C74.4276 17.7342 73.8561 17.7981 73.2665 17.9259C72.6768 18.0538 72.1602 18.2455 71.7168 18.5011V29.4292V29.4338Z" fill="#59595B"/>
<path d="M79.2998 9.62253C79.2998 8.81456 79.5695 8.12984 80.1135 7.5775C80.6575 7.02516 81.3797 6.7467 82.2757 6.7467C83.1716 6.7467 83.8939 7.02516 84.4333 7.5775C84.9773 8.12984 85.2516 8.81456 85.2516 9.62253C85.2516 10.4305 84.9819 11.1152 84.4333 11.6676C83.8893 12.2199 83.1716 12.4984 82.2757 12.4984C81.3797 12.4984 80.6575 12.2199 80.1135 11.6676C79.5695 11.1152 79.2998 10.4305 79.2998 9.62253V9.62253ZM79.5558 14.1599C79.7889 14.096 80.1272 14.0321 80.566 13.9682C81.0049 13.9043 81.4803 13.8724 81.9923 13.8724C83.0574 13.8724 83.8253 14.0504 84.2962 14.4019C84.767 14.7534 85.0001 15.429 85.0001 16.4287V29.4338C84.767 29.4977 84.4287 29.5616 83.9899 29.6255C83.5511 29.6894 83.0756 29.7214 82.5637 29.7214C81.4986 29.7214 80.7306 29.5433 80.2598 29.1918C79.7889 28.8403 79.5558 28.1648 79.5558 27.1651V14.1599Z" fill="#59595B"/>
<path d="M103.745 29.4338C103.511 29.4977 103.173 29.5616 102.734 29.6255C102.296 29.6894 101.825 29.7214 101.313 29.7214C100.248 29.7214 99.4796 29.5433 99.0088 29.1918C98.5379 28.8404 98.3048 28.1648 98.3048 27.1651V19.624C98.3048 18.9621 98.1082 18.4783 97.7151 18.1678C97.322 17.8574 96.8009 17.7068 96.1609 17.7068C95.7358 17.7068 95.3335 17.7616 94.9632 17.8666C94.5884 17.9716 94.2318 18.1131 93.8936 18.282V29.4338C93.6604 29.4977 93.3222 29.5616 92.8833 29.6255C92.4445 29.6894 91.9691 29.7214 91.4571 29.7214C90.392 29.7214 89.624 29.5433 89.1532 29.1918C88.6823 28.8404 88.4492 28.1648 88.4492 27.1651V17.547C88.4492 16.9719 88.5726 16.5017 88.8195 16.1411C89.0663 15.7805 89.4 15.4472 89.8297 15.1505C90.5566 14.6393 91.4662 14.2284 92.5633 13.918C93.6604 13.6076 94.8855 13.457 96.2295 13.457C98.6385 13.457 100.494 13.9819 101.797 15.0364C103.1 16.0909 103.749 17.5653 103.749 19.4597V29.4292L103.745 29.4338Z" fill="#59595B"/>
<path d="M115.872 17.7388C115.337 17.7388 114.83 17.8255 114.35 17.9944C113.87 18.1633 113.454 18.4189 113.102 18.7613C112.75 19.1036 112.467 19.5236 112.256 20.0257C112.042 20.5279 111.936 21.1076 111.936 21.7649C111.936 23.0842 112.311 24.0656 113.056 24.7047C113.801 25.3437 114.729 25.6633 115.84 25.6633C116.48 25.6633 117.047 25.5857 117.536 25.4259C118.025 25.2661 118.455 25.1018 118.816 24.9329C119.223 25.2296 119.525 25.5491 119.73 25.8915C119.931 26.2339 120.037 26.6493 120.037 27.1377C120.037 27.9913 119.616 28.6715 118.775 29.1827C117.934 29.694 116.732 29.9496 115.173 29.9496C113.829 29.9496 112.618 29.7762 111.539 29.4247C110.46 29.0732 109.546 28.5528 108.787 27.8589C108.028 27.1651 107.447 26.316 107.041 25.3026C106.634 24.2893 106.433 23.1115 106.433 21.7695C106.433 20.4274 106.661 19.1402 107.118 18.0948C107.575 17.0495 108.202 16.1867 108.988 15.5066C109.779 14.8264 110.688 14.3152 111.726 13.9728C112.759 13.6304 113.856 13.4615 115.004 13.4615C116.54 13.4615 117.724 13.74 118.556 14.2923C119.388 14.8447 119.803 15.5614 119.803 16.4332C119.803 16.8395 119.707 17.2138 119.516 17.5653C119.324 17.9168 119.1 18.2226 118.844 18.4783C118.482 18.3094 118.044 18.145 117.532 17.9853C117.02 17.8255 116.466 17.7479 115.868 17.7479L115.872 17.7388Z" fill="#59595B"/>
<path d="M122.626 9.62253C122.626 8.81456 122.896 8.12984 123.44 7.5775C123.984 7.02516 124.706 6.7467 125.602 6.7467C126.498 6.7467 127.22 7.02516 127.759 7.5775C128.303 8.12984 128.578 8.81456 128.578 9.62253C128.578 10.4305 128.308 11.1152 127.759 11.6676C127.216 12.2199 126.498 12.4984 125.602 12.4984C124.706 12.4984 123.984 12.2199 123.44 11.6676C122.896 11.1152 122.626 10.4305 122.626 9.62253V9.62253ZM122.882 14.1599C123.115 14.096 123.453 14.0321 123.892 13.9682C124.331 13.9043 124.806 13.8724 125.318 13.8724C126.384 13.8724 127.152 14.0504 127.622 14.4019C128.093 14.7534 128.326 15.429 128.326 16.4287V29.4338C128.093 29.4977 127.755 29.5616 127.316 29.6255C126.877 29.6894 126.402 29.7214 125.89 29.7214C124.825 29.7214 124.057 29.5433 123.586 29.1918C123.115 28.8403 122.882 28.1648 122.882 27.1651V14.1599Z" fill="#59595B"/>
<path d="M139.808 29.945C139.296 29.945 138.825 29.9085 138.4 29.8355C137.975 29.7624 137.577 29.6575 137.216 29.5296V35.1535C136.983 35.2174 136.644 35.2813 136.206 35.3452C135.767 35.4091 135.291 35.4411 134.779 35.4411C133.714 35.4411 132.946 35.2676 132.475 34.9161C132.005 34.5646 131.771 33.889 131.771 32.8893V17.3234C131.771 16.7482 131.895 16.2689 132.142 15.8854C132.389 15.502 132.722 15.1733 133.152 14.8949C133.815 14.4704 134.661 14.1234 135.694 13.8587C136.727 13.5939 137.883 13.457 139.163 13.457C140.443 13.457 141.618 13.6167 142.683 13.9363C143.748 14.2558 144.667 14.7442 145.435 15.4061C146.203 16.068 146.793 16.908 147.209 17.9305C147.625 18.953 147.835 20.1764 147.835 21.6051C147.835 23.0339 147.634 24.166 147.227 25.2022C146.82 26.2339 146.258 27.1057 145.531 27.8087C144.804 28.5117 143.958 29.0458 142.985 29.4064C142.016 29.767 140.955 29.9496 139.803 29.9496L139.808 29.945ZM138.976 25.6633C140.041 25.6633 140.859 25.3209 141.426 24.6407C141.993 23.9606 142.272 22.9472 142.272 21.6051C142.272 20.2631 142.011 19.2497 141.49 18.6335C140.969 18.0172 140.196 17.7068 139.168 17.7068C138.761 17.7068 138.391 17.7524 138.048 17.8483C137.705 17.9442 137.417 18.0537 137.184 18.1815V25.2113C137.44 25.3392 137.719 25.4441 138.016 25.5309C138.313 25.6176 138.633 25.6587 138.976 25.6587V25.6633Z" fill="#59595B"/>
<path d="M153.658 29.7214C152.593 29.7214 151.825 29.5434 151.354 29.1919C150.884 28.8404 150.65 28.1648 150.65 27.1651V8.632C150.884 8.5681 151.222 8.50419 151.661 8.44028C152.099 8.37638 152.575 8.34442 153.082 8.34442C154.147 8.34442 154.915 8.52245 155.386 8.86937C155.857 9.22086 156.09 9.89645 156.09 10.9007V29.4338C155.857 29.4977 155.519 29.5616 155.08 29.6255C154.641 29.6894 154.17 29.7214 153.658 29.7214V29.7214Z" fill="#59595B"/>
<path d="M164.25 23.8419C164.547 24.6088 165.05 25.1475 165.754 25.4533C166.458 25.7637 167.249 25.9189 168.122 25.9189C168.995 25.9189 169.873 25.8048 170.682 25.5857C171.491 25.362 172.145 25.1018 172.634 24.8005C172.977 25.0151 173.265 25.3118 173.498 25.6952C173.731 26.0787 173.85 26.4849 173.85 26.9095C173.85 27.4436 173.699 27.9 173.402 28.2835C173.105 28.6669 172.679 28.9865 172.14 29.2421C171.596 29.4977 170.951 29.6849 170.202 29.8036C169.457 29.9222 168.634 29.9816 167.738 29.9816C166.481 29.9816 165.311 29.8036 164.232 29.4521C163.153 29.1006 162.22 28.5756 161.434 27.8726C160.643 27.1697 160.026 26.2841 159.578 25.2205C159.13 24.1569 158.906 22.9107 158.906 21.4819C158.906 20.0531 159.135 18.8663 159.592 17.8575C160.049 16.8441 160.657 16.0133 161.416 15.3651C162.175 14.7169 163.034 14.2376 163.989 13.9272C164.949 13.6168 165.932 13.4661 166.933 13.4661C168.062 13.4661 169.091 13.635 170.019 13.9774C170.947 14.3197 171.747 14.7854 172.419 15.3833C173.091 15.9813 173.607 16.6934 173.968 17.5242C174.33 18.355 174.512 19.2589 174.512 20.2403C174.512 20.9661 174.311 21.5184 173.904 21.9019C173.498 22.2853 172.935 22.5318 172.209 22.6368L164.241 23.8511L164.25 23.8419ZM166.97 17.4192C166.161 17.4192 165.484 17.6657 164.94 18.1542C164.396 18.6426 164.072 19.3365 163.967 20.2312L169.406 19.3365C169.384 19.1219 169.32 18.9074 169.214 18.6791C169.109 18.4555 168.958 18.25 168.766 18.0538C168.574 17.862 168.328 17.7068 168.03 17.5927C167.733 17.474 167.381 17.4147 166.974 17.4147L166.97 17.4192Z" fill="#59595B"/>
<path d="M190.265 24.8324C190.265 26.4529 189.658 27.7173 188.442 28.6349C187.226 29.5524 185.434 30.0089 183.066 30.0089C182.17 30.0089 181.338 29.945 180.57 29.8172C179.802 29.6893 179.144 29.4931 178.604 29.2283C178.06 28.9635 177.635 28.6257 177.324 28.2195C177.013 27.8132 176.858 27.3339 176.858 26.7816C176.858 26.2703 176.963 25.8412 177.178 25.4897C177.393 25.1382 177.649 24.8461 177.946 24.6087C178.563 24.9511 179.276 25.2524 180.076 25.5217C180.876 25.7864 181.8 25.9234 182.842 25.9234C183.505 25.9234 184.012 25.8275 184.364 25.6358C184.716 25.4441 184.894 25.1884 184.894 24.8689C184.894 24.5722 184.766 24.3348 184.51 24.1659C184.254 23.997 183.829 23.8555 183.23 23.7505L182.27 23.5588C180.414 23.1982 179.034 22.6276 178.129 21.8516C177.224 21.0756 176.767 19.9617 176.767 18.5147C176.767 17.725 176.936 17.0129 177.279 16.3738C177.621 15.7347 178.101 15.2007 178.719 14.7761C179.336 14.3516 180.076 14.0184 180.94 13.7856C181.804 13.5528 182.76 13.4341 183.806 13.4341C184.597 13.4341 185.338 13.4934 186.033 13.6121C186.727 13.7308 187.326 13.9043 187.838 14.1371C188.35 14.3699 188.757 14.6757 189.054 15.05C189.351 15.4243 189.502 15.8671 189.502 16.3738C189.502 16.8805 189.411 17.2868 189.232 17.6383C189.05 17.9898 188.821 18.2819 188.542 18.5193C188.373 18.4143 188.117 18.3002 187.774 18.1815C187.431 18.0628 187.061 17.9578 186.654 17.8619C186.247 17.7661 185.836 17.6839 185.425 17.62C185.009 17.5561 184.629 17.5241 184.286 17.5241C183.582 17.5241 183.038 17.6063 182.654 17.7661C182.27 17.9258 182.078 18.1769 182.078 18.5193C182.078 18.7521 182.184 18.9438 182.398 19.0944C182.613 19.2451 183.015 19.382 183.614 19.5098L184.606 19.7335C186.654 20.2037 188.112 20.8473 188.972 21.6644C189.836 22.4861 190.265 23.5451 190.265 24.8461V24.8324Z" fill="#59595B"/>
</svg>
