<svg width="242" height="36" viewBox="0 0 242 36" fill="none" xmlns="http://www.w3.org/2000/svg">
<g clip-path="url(#clip0_331_2975)">
<path d="M109.969 12.6698C110.017 11.2581 109.436 9.992 108.419 9.1649C107.548 8.48348 106.288 8.14228 105.174 7.89884L103.141 7.41197C101.785 7.07077 100.235 6.43823 100.235 4.58851C100.235 2.88446 101.833 1.91071 103.383 1.91071C105.707 1.91071 106.87 3.17678 107.499 3.90611C107.79 4.24731 108.032 4.48976 108.226 4.48976C108.323 4.48976 108.419 4.44088 108.468 4.392C108.613 4.24633 108.613 3.90513 108.613 3.71057V3.66169C108.613 3.36937 108.613 2.63907 108.564 2.34773C108.467 2.05541 108.322 1.90974 108.031 1.76407C106.917 1.08264 105.416 0.644653 103.915 0.644653C102.219 0.644653 100.912 1.08264 99.8948 1.95862C98.8297 2.8346 98.1994 4.10066 98.1994 5.41463C98.1994 8.62719 101.008 9.26071 103.672 9.89326C105.996 10.429 108.176 10.9159 108.176 13.1058C108.176 15.2958 106.045 16.5618 103.914 16.5618C102.703 16.5618 101.589 16.2695 100.718 15.6859C99.8948 15.1501 99.4581 14.5176 99.0223 13.6905C98.8287 13.3493 98.6352 13.0579 98.1994 13.0579C97.7637 13.0579 97.5215 13.447 97.5215 13.8371C97.5215 14.9565 98.7811 16.2226 99.459 16.7574C100.524 17.5366 101.929 17.9257 103.624 17.9257C105.464 17.9257 106.966 17.4388 108.08 16.5139C109.242 15.5402 109.969 14.1285 109.969 12.6678V12.6698Z" fill="#59595B"/>
<path d="M89.5307 33.796L87.4483 29.464H86.4805L89.2409 35.2566H89.8216L92.6306 29.464H91.6132L89.5307 33.796Z" fill="#59595B"/>
<path d="M97.1352 32.5798H99.3626V31.7517H97.1352V30.2911H100.816V29.464H96.2627V35.2566H101.058V34.4295H97.1352V32.5798Z" fill="#59595B"/>
<path d="M35.8222 16.4179C35.4351 16.1745 35.2415 16.0767 35.047 15.6387L34.1755 13.2044C32.9159 9.26149 31.1242 5.07518 29.3812 2.05716L29.3326 1.95939C28.9931 1.32685 28.4611 0.498779 28.073 0.498779C27.7335 0.498779 27.3951 1.13132 27.0079 1.91051L26.9107 2.05618C25.4488 4.69194 23.873 8.28677 22.5891 11.8542C21.2819 12.4467 19.8949 13.0968 18.3386 13.6424C13.06 15.4921 6.66668 17.1472 2.30819 12.2795C1.53298 11.4035 0.710107 9.65059 1.77517 8.67685C2.11463 8.38453 2.9375 7.99543 3.22832 8.38453C3.51915 8.82252 3.56778 9.40716 4.43929 9.21163C5.31079 9.01707 5.31079 7.7999 4.92367 7.26414C4.29436 6.38816 2.93847 6.2904 1.87244 6.82615C-0.354957 7.99445 0.0807952 10.9636 1.38805 12.6676C6.0646 18.7115 15.6784 16.9566 21.7964 14.1097L21.2926 15.54C21.099 15.978 21.0018 16.1236 20.6146 16.3671C20.4211 16.4648 20.2275 16.6594 20.2275 16.9507C20.2275 17.5344 21.0027 17.5344 21.2926 17.5344H23.5686C23.9557 17.5344 24.4401 17.4855 24.4401 16.9507C24.4401 16.6584 24.1979 16.5127 23.9557 16.415C23.6163 16.2204 23.2291 16.0259 23.2291 15.2467C23.2291 15.1489 23.2291 15.0032 23.2778 14.8576C23.3575 14.3942 23.5132 13.8213 23.733 13.1457C26.257 11.8444 28.9105 10.5031 31.452 11.687C31.952 12.9736 32.2953 14.0158 32.4801 14.7608L32.5288 14.8586C32.6737 15.3454 32.7709 15.6856 32.7709 15.8323C32.7709 16.1735 32.5288 16.2703 32.2379 16.368C31.9471 16.4658 31.6572 16.6115 31.6572 17.0006C31.6572 17.5843 32.2866 17.5843 32.5288 17.5843H35.3864C35.58 17.5843 35.7735 17.5843 35.9671 17.5354C36.1607 17.4376 36.2579 17.2919 36.2579 17.0485C36.2093 16.6594 36.0157 16.5127 35.8222 16.416V16.4179ZM24.4858 11.0379C24.6512 10.6009 24.8301 10.1394 25.0227 9.65157L25.0714 9.5059C25.8942 7.46163 26.7667 5.61191 26.863 5.36847L27.7345 3.37308L28.7033 5.51512C28.9455 6.00199 29.5748 7.36484 30.3014 8.97112L30.3986 9.16568L30.4473 9.26344C30.6447 9.71316 30.8276 10.1453 30.9988 10.5569C28.643 9.76498 26.6179 10.1971 24.4868 11.0389L24.4858 11.0379Z" fill="#59595B"/>
<path d="M73.5493 31.9462C73.8402 31.7027 73.9851 31.3625 73.9851 30.9236C73.9851 30.2421 73.6943 29.4141 72.1934 29.4141H68.8037V35.2067H72.388C73.5989 35.2067 74.3732 34.5252 74.3732 33.4058C74.3732 32.8222 74.0823 32.3353 73.5503 31.9452L73.5493 31.9462ZM69.6752 30.291H72.2421C72.7751 30.291 73.0649 30.5345 73.0649 30.9724C73.0649 31.4593 72.7741 31.6539 72.2421 31.6539H69.6752V30.291ZM72.5329 34.4284H69.7238V32.5298H72.5329C73.1136 32.5298 73.453 32.871 73.453 33.5036C73.453 34.0393 73.1136 34.4284 72.5329 34.4284Z" fill="#59595B"/>
<path d="M60.3759 0.937989H57.6155C57.1797 0.937989 56.9375 1.13254 56.9375 1.47374C56.9375 1.91173 57.277 2.0095 57.5668 2.10629C57.6155 2.10629 57.6641 2.15517 57.7118 2.15517C58.0512 2.25293 58.1962 2.30084 58.2448 2.64204C58.2934 2.83659 58.2934 3.27458 58.2934 3.5669V13.0101C57.1311 11.1115 55.9688 9.26173 54.8064 7.65545L53.6441 6.14595C53.5955 6.09707 49.8177 0.937012 49.0434 0.937012H46.4766C45.8959 0.937012 45.75 1.18045 45.75 1.42388C45.75 1.81299 46.1371 1.91075 46.3793 1.95964H46.4766C47.3967 2.15419 47.3967 2.83561 47.3967 3.71159V15.1511C47.3967 15.9303 47.3967 16.1737 46.4766 16.3194C46.1858 16.3683 45.8959 16.514 45.8959 16.9031C45.8959 17.2443 46.1381 17.4867 46.5252 17.4867H49.5764C49.9636 17.4867 50.2058 17.2433 50.2058 16.9031C50.2058 16.4162 49.8663 16.3194 49.5278 16.2216H49.4792C48.8985 16.076 48.8499 15.7837 48.8499 15.199V3.27458C51.2232 5.80573 53.1121 8.77486 54.9523 11.6472C55.1459 11.9395 55.2918 12.183 55.4854 12.4743C55.8248 12.9612 56.1147 13.448 56.4541 13.9349C57.1807 14.9575 57.9073 16.0281 58.4393 17.1964C58.5366 17.4398 58.7788 17.8289 59.1173 17.8289C59.2622 17.8289 59.4081 17.78 59.5044 17.6832C59.698 17.4887 59.698 17.0507 59.698 16.7584V3.46913C59.698 3.17682 59.698 2.68994 59.7466 2.54427C59.7952 2.34972 60.0374 2.25196 60.2796 2.15517C60.3282 2.15517 60.3769 2.10629 60.4245 2.10629H60.4732C60.7154 2.00852 61.0538 1.91173 61.0538 1.57053C61.1025 1.18143 60.8116 0.937989 60.3759 0.937989Z" fill="#59595B"/>
<path d="M87.0609 17.5376C87.2544 17.4398 87.3517 17.2941 87.3517 17.0507C87.3517 16.6616 87.1582 16.5149 86.9646 16.4182C86.5775 16.1747 86.3839 16.077 86.1894 15.639L85.3179 13.2046C84.0583 9.26173 82.2666 5.07542 80.5236 2.0574L80.475 1.95964C80.1355 1.3271 79.6035 0.499023 79.2154 0.499023C78.8759 0.499023 78.5375 1.18045 78.1017 1.91076L78.0044 2.05643C76.3577 5.02556 74.6147 9.11508 73.2102 13.2036L72.3873 15.5402C72.1938 15.9782 72.0965 16.1239 71.7094 16.3673C71.5158 16.4651 71.3223 16.6596 71.3223 16.951C71.3223 17.5346 72.0975 17.5346 72.3397 17.5346H74.6157C74.8579 17.5346 75.4872 17.5346 75.4872 16.951C75.4872 16.6587 75.245 16.513 75.0028 16.4152C74.6634 16.2207 74.2762 16.0261 74.2762 15.2469C74.2762 15.1492 74.2762 15.0035 74.3249 14.8578C74.3871 14.4971 74.4912 14.0689 74.6342 13.5781C77.5152 11.614 80.1433 10.562 82.4787 11.525C82.9456 12.7021 83.3735 13.888 83.5758 14.761L83.6245 14.8588C83.7694 15.3457 83.8667 15.6859 83.8667 15.8325C83.8667 16.1737 83.6245 16.2705 83.3336 16.3683C83.0428 16.4661 82.753 16.6117 82.753 17.0008C82.753 17.5845 83.3336 17.5845 83.6245 17.5845H86.4822C86.6757 17.5845 86.8693 17.5845 87.0628 17.5356L87.0609 17.5376ZM75.4142 11.2904C75.6078 10.781 75.8257 10.2345 76.0669 9.65084L76.1155 9.50517C77.0357 7.26634 77.9558 5.31886 77.9558 5.31886L78.8273 3.37137L79.7961 5.51341C79.9896 5.9514 80.6676 7.36313 81.3942 8.96941L81.4914 9.16397L81.5401 9.26173C81.6753 9.57849 81.8192 9.91774 81.9651 10.2687C79.798 9.57458 77.6796 9.76425 75.4152 11.2904H75.4142Z" fill="#59595B"/>
<path d="M79.5541 32.5798H81.7825V31.7517H79.5541V30.2911H83.2833V29.464H78.6826V35.2566H83.4778V34.4295H79.5541V32.5798Z" fill="#59595B"/>
<path d="M123.432 31.606L121.495 29.464H120.333L122.996 32.3842V35.2566H123.869V32.3842L126.532 29.464H125.369L123.432 31.606Z" fill="#59595B"/>
<path d="M170.893 31.7517C170.603 31.7028 170.313 31.7028 170.071 31.7028C169.441 31.6539 168.957 31.6539 168.617 31.4105C168.472 31.2648 168.375 31.1671 168.375 30.9725C168.375 30.5345 168.957 30.1933 169.731 30.1933C170.505 30.1933 171.233 30.4856 171.911 31.0204L172.008 31.0693L172.541 30.339L172.444 30.2901C171.621 29.6576 170.652 29.3652 169.732 29.3652C168.376 29.3652 167.456 30.0467 167.456 31.0204C167.456 31.5562 167.747 31.9941 168.328 32.2865C168.861 32.5299 169.441 32.5788 170.265 32.6277C170.41 32.6277 170.556 32.6277 170.701 32.6765C171.476 32.7254 171.912 33.0657 171.912 33.5525C171.912 34.1851 171.234 34.6231 170.265 34.6231C169.442 34.6231 168.57 34.2819 167.843 33.6982L167.746 33.6493L167.213 34.4285L167.31 34.4774C168.182 35.1588 169.15 35.5 170.264 35.5C172.008 35.5 172.831 34.5263 172.831 33.6014C172.831 32.5788 172.104 31.8974 170.893 31.7517Z" fill="#59595B"/>
<path d="M157.14 16.4182C156.753 16.1747 156.559 16.077 156.413 15.639L155.542 13.2046C154.282 9.26173 152.49 5.07542 150.747 2.0574C150.747 2.00852 150.699 2.00852 150.699 1.95964C150.312 1.22933 149.827 0.499023 149.439 0.499023C149.1 0.499023 148.761 1.18045 148.326 1.91076L148.277 2.05643C146.63 5.02556 144.839 9.21187 143.483 13.2036L142.66 15.5402C142.466 15.9782 142.369 16.1239 141.982 16.3673C141.788 16.4651 141.595 16.6596 141.595 16.951C141.595 17.5346 142.37 17.5346 142.612 17.5346H144.888C145.275 17.5346 145.76 17.4858 145.76 16.951C145.76 16.6587 145.517 16.513 145.275 16.4152C144.936 16.2207 144.549 16.0261 144.549 15.2469C144.549 15.1492 144.549 15.0035 144.597 14.8578V14.8089C144.671 14.3807 144.803 13.8733 144.99 13.277C147.793 11.3803 150.355 10.3587 152.64 11.2356C153.149 12.4909 153.629 13.7873 153.847 14.7601L153.896 14.8578C154.041 15.3447 154.138 15.6849 154.138 15.7827C154.138 16.1239 153.896 16.2207 153.605 16.3184C153.314 16.4162 153.023 16.5619 153.023 16.951C153.023 17.5346 153.653 17.5346 153.895 17.5346H156.753C156.946 17.5346 157.14 17.5346 157.333 17.4858C157.527 17.388 157.624 17.2423 157.624 16.9989C157.576 16.6577 157.382 16.512 157.14 16.4152V16.4182ZM145.819 10.9609C145.979 10.5513 146.152 10.1152 146.339 9.65182L146.388 9.50615C147.308 7.26732 148.228 5.31983 148.228 5.31983L149.1 3.37235L150.069 5.51439C150.311 6.00126 150.94 7.41299 151.667 8.97039L151.764 9.16495L151.813 9.26271C151.912 9.49539 152.015 9.73883 152.121 9.98911C150.036 9.35168 147.994 9.54232 145.819 10.9609Z" fill="#59595B"/>
<path d="M160.384 29.464H159.513V35.2566H164.017V34.4295H160.384V29.464Z" fill="#59595B"/>
<path d="M178.206 9.1649C177.335 8.48348 176.075 8.14228 174.961 7.89884L172.928 7.41197C171.572 7.07077 170.022 6.43823 170.022 4.58851C170.022 2.88446 171.62 1.91071 173.17 1.91071C175.495 1.91071 176.608 3.17678 177.286 3.90611C177.577 4.24731 177.819 4.48976 178.013 4.48976C178.11 4.48976 178.206 4.44088 178.304 4.392C178.448 4.24633 178.448 3.90513 178.448 3.71057V3.66169C178.448 3.36937 178.448 2.63907 178.351 2.34773C178.254 2.05541 178.109 1.90974 177.818 1.76407C176.705 1.08264 175.203 0.644653 173.702 0.644653C172.007 0.644653 170.699 1.08264 169.682 1.95862C168.617 2.8346 167.987 4.10066 167.987 5.41463C167.987 8.62719 170.796 9.26071 173.459 9.89326C175.783 10.429 177.963 10.9159 177.963 13.1058C177.963 15.2958 175.832 16.5618 173.701 16.5618C172.49 16.5618 171.376 16.2695 170.505 15.6859C169.682 15.1501 169.245 14.4687 168.809 13.6905C168.616 13.3981 168.422 13.0579 167.987 13.0579C167.551 13.0579 167.309 13.447 167.309 13.8371C167.309 14.9565 168.568 16.2226 169.246 16.7574C170.311 17.5366 171.716 17.9257 173.411 17.9257C175.251 17.9257 176.753 17.4388 177.867 16.5139C179.029 15.5402 179.756 14.1285 179.756 12.6678C179.804 11.2561 179.223 9.99004 178.206 9.16295V9.1649Z" fill="#59595B"/>
<path d="M195.303 16.3692L195.206 16.3203C195.157 16.3203 195.108 16.2715 195.012 16.2715C194.721 16.1737 194.528 16.0769 194.528 15.8823V3.37229C194.479 3.27453 194.479 3.22662 194.479 3.12886C194.479 2.44743 194.479 2.34967 195.206 2.10623H195.254C195.545 2.00846 195.787 1.91168 195.787 1.52257C195.787 0.986816 195.254 0.986816 194.965 0.986816H191.865C191.525 0.986816 190.993 0.986816 190.993 1.52257C190.993 1.91168 191.284 2.05832 191.574 2.15511L191.671 2.204C191.72 2.204 191.768 2.204 191.816 2.25288C192.155 2.35064 192.397 2.44743 192.397 2.64198V15.2498C192.397 15.9801 192.397 16.1258 191.67 16.3692C191.379 16.467 191.041 16.5638 191.041 16.9529C191.041 17.5365 191.622 17.5365 191.912 17.5365H195.012C195.352 17.5365 195.884 17.5365 195.884 16.9529C195.884 16.5638 195.593 16.466 195.303 16.3692Z" fill="#59595B"/>
<path d="M140.189 31.6539H137.09V29.464H136.218V35.2566H137.09V32.5309H140.189V35.2566H141.109V29.464H140.189V31.6539Z" fill="#59595B"/>
<path d="M132.876 2.83659C132.731 1.81397 132.585 1.27919 132.44 1.13254C132.295 0.986871 132.15 0.986871 132.053 0.937988H119.558C119.025 0.937988 118.929 2.15517 118.88 2.73883V2.93338C118.88 2.98226 118.88 3.03114 118.832 3.07905C118.832 3.17682 118.783 3.32249 118.783 3.46816C118.783 3.80936 118.977 4.05182 119.268 4.05182C119.51 4.05182 119.752 3.85726 119.897 3.66271C119.946 3.61383 119.994 3.61383 119.994 3.56494C120.672 2.98128 121.059 2.64008 121.979 2.44553C122.464 2.34776 123.239 2.20209 123.82 2.20209C124.207 2.20209 124.449 2.25098 124.595 2.39665C124.788 2.5912 124.788 2.88352 124.74 3.32151V15.2968C124.74 16.0271 124.74 16.1728 124.013 16.4162C123.722 16.514 123.384 16.6108 123.384 16.9999C123.384 17.5835 123.966 17.5835 124.255 17.5835H127.355C127.695 17.5835 128.227 17.5835 128.227 16.9999C128.227 16.6108 127.936 16.513 127.646 16.4162L127.501 16.3673C127.21 16.2696 126.92 16.2216 126.92 15.9293V3.5669C126.92 3.03115 126.92 2.64204 127.114 2.44749C127.259 2.30182 127.55 2.20405 128.034 2.20405C128.567 2.20405 129.439 2.30182 129.923 2.44749C130.698 2.69092 130.988 2.93436 131.521 3.37235L131.666 3.47011C131.715 3.47011 131.715 3.51899 131.763 3.56788C131.957 3.76243 132.199 3.95698 132.441 3.95698C132.732 3.95698 132.926 3.76243 132.926 3.42123C132.974 3.27556 132.926 3.08003 132.877 2.83757L132.876 2.83659Z" fill="#59595B"/>
<path d="M152.103 29.464H151.183V35.2566H155.735V34.4295H152.103V29.464Z" fill="#59595B"/>
<path d="M115.2 29.464H114.328V35.2566H118.832V34.4295H115.2V29.464Z" fill="#59595B"/>
<path d="M110.114 31.1192C110.114 30.0965 109.436 29.464 108.274 29.464H104.98V35.2566H105.852V32.8222H107.837L109.242 35.2566H110.259L108.855 32.7743C109.63 32.5798 110.114 31.9472 110.114 31.1192ZM105.804 31.9463V30.2911H108.226C108.807 30.2911 109.146 30.5834 109.146 31.1182C109.146 31.653 108.807 31.9453 108.178 31.9453H105.804V31.9463Z" fill="#59595B"/>
<path d="M146.63 29.415H145.71V35.3054H146.63V29.415Z" fill="#59595B"/>
<path d="M240.197 11.5015C235.451 5.31886 226.879 6.39036 220.777 9.31062C220.228 9.5824 219.637 9.9021 219.019 10.2335C217.901 7.24777 216.564 4.3236 215.255 2.0574L215.207 1.95964C214.82 1.27821 214.335 0.499023 213.947 0.499023C213.656 0.499023 213.269 1.13157 212.882 1.86187L212.785 2.00754C211.187 4.92779 209.346 9.11508 207.99 13.1547L207.168 15.4913C206.974 15.9293 206.877 16.075 206.49 16.3184C206.296 16.4162 206.103 16.6108 206.103 16.9021C206.103 17.4379 206.684 17.4858 207.12 17.4858H209.396C209.783 17.4858 210.267 17.4369 210.267 16.9021C210.267 16.6098 210.025 16.4641 209.783 16.3663C209.444 16.1718 209.056 15.9772 209.056 15.198C209.056 15.1003 209.056 14.9546 209.105 14.8089C209.182 14.3641 209.321 13.8166 209.521 13.1743C209.638 13.2584 209.757 13.3112 209.832 13.3483C212.698 14.4472 215.078 13.7521 217.698 12.6229C217.981 13.3953 218.22 14.1246 218.356 14.7122L218.405 14.8099C218.55 15.3457 218.647 15.637 218.647 15.7837C218.647 16.1249 218.405 16.2216 218.114 16.3194C217.823 16.4172 217.532 16.5628 217.532 16.952C217.532 17.5356 218.162 17.5356 218.404 17.5356H221.261C221.455 17.5356 221.649 17.5356 221.842 17.4867C222.036 17.389 222.133 17.2433 222.133 16.9999C222.084 16.6587 221.891 16.513 221.697 16.4162C221.31 16.1728 221.116 16.075 220.922 15.637L220.05 13.2027C219.9 12.7314 219.741 12.2563 219.577 11.7802C220.7 11.2698 221.892 10.7399 223.199 10.2824C228.526 8.43268 235.064 7.16662 239.229 11.9865C240.005 12.8624 240.827 14.8099 239.762 15.7837C239.423 16.1249 238.649 16.3673 238.407 15.8325C238.164 15.3457 238.067 14.8099 237.196 15.0054C236.324 15.201 236.324 16.4172 236.711 16.9529C237.34 17.8289 238.696 17.9267 239.762 17.3909C241.99 16.2226 241.506 13.2046 240.198 11.5006L240.197 11.5015ZM210.123 12.2807C210.052 12.2103 209.961 12.1722 209.862 12.1566C210.127 11.4038 210.456 10.5522 210.849 9.60391L210.898 9.45824C211.818 7.21941 212.738 5.27193 212.738 5.27193L213.61 3.32444L214.578 5.46648C214.82 5.95335 215.45 7.36509 216.176 8.92249L216.274 9.11704L216.322 9.21481C216.581 9.82095 216.87 10.5082 217.151 11.2073C214.792 12.3658 212.247 13.2545 210.124 12.2817L210.123 12.2807Z" fill="#59595B"/>
</g>
<defs>
<clipPath id="clip0_331_2975">
<rect width="241" height="35" fill="white" transform="translate(0.304688 0.5)"/>
</clipPath>
</defs>
</svg>
