<svg width="1201" height="625" viewBox="0 0 1201 625" fill="none" xmlns="http://www.w3.org/2000/svg">
<path d="M269.189 625C326.37 625 372.724 578.363 372.724 520.834C372.724 463.304 326.37 416.668 269.189 416.668C212.008 416.668 165.654 463.304 165.654 520.834C165.654 578.363 212.008 625 269.189 625Z" fill="#3F94B1" fill-opacity="0.2"/>
<path d="M248.494 257.01C248.494 207.115 288.696 166.668 338.289 166.668H986.977C1036.57 166.668 1076.77 207.115 1076.77 257.01V284.658C1076.77 334.552 1036.57 375 986.977 375H338.289C288.696 375 248.494 334.552 248.494 284.658V257.01Z" fill="#63B9D7" fill-opacity="0.2"/>
<path d="M414.136 507.01C414.136 457.115 454.338 416.668 503.931 416.668H1111.21C1160.8 416.668 1201 457.115 1201 507.01V534.658C1201 584.552 1160.8 625 1111.21 625H503.931C454.338 625 414.136 584.552 414.136 534.658V507.01Z" fill="#5878A5" fill-opacity="0.2"/>
<path d="M0 90.3424C0 40.4477 40.2025 0 89.7948 0H779.897C829.49 0 869.692 40.4477 869.692 90.3424V117.99C869.692 167.885 829.489 208.332 779.897 208.332H89.7947C40.2024 208.332 0 167.885 0 117.99V90.3424Z" fill="#3F94B1" fill-opacity="0.2"/>
</svg>
