<svg width="51" height="50" viewBox="0 0 51 50" fill="none" xmlns="http://www.w3.org/2000/svg">
<path d="M0.304688 37.2826V37.2848C0.334635 38.3947 0.343872 39.5111 0.53124 40.6142C0.729788 41.7812 1.01361 42.9192 1.5551 43.9785C2.28716 45.4121 3.29255 46.6228 4.56163 47.6117C5.47279 48.3219 6.46816 48.8856 7.57 49.2412C9.17667 49.759 10.8342 49.9575 12.5159 49.9672C13.5652 49.9738 14.6137 50.0001 15.6633 49.9957C23.2859 49.9636 30.9086 50.0507 38.5314 49.9487C39.5429 49.935 40.5379 49.8117 41.5306 49.6303C43.4334 49.2823 45.115 48.471 46.5537 47.1884C48.2305 45.6941 49.3618 43.8652 49.8725 41.6579C50.2067 40.2151 50.2903 38.7513 50.3046 37.2824V36.9894C50.3046 36.8757 50.2613 12.0305 50.2573 11.7021C50.2462 10.8 50.1796 9.90468 50.0104 9.01705C49.8045 7.9354 49.5137 6.88144 48.9954 5.90288C48.448 4.86903 47.7624 3.93943 46.9145 3.1271C45.6155 1.88252 44.1166 1.00237 42.3716 0.536793C40.7954 0.116394 39.1875 0.0233178 37.5678 0.0247752C37.5652 0.0243865 37.5591 0.00796688 37.5587 0H13.0428C13.0423 0.00835551 13.0421 0.0167111 13.0415 0.0247752C12.1222 0.0415833 11.2016 0.034685 10.2871 0.14797C9.28518 0.272428 8.29293 0.459844 7.34462 0.809804C5.85093 1.36185 4.55317 2.22169 3.44462 3.3696C2.18867 4.67015 1.30336 6.17424 0.833633 7.92569C0.414561 9.48836 0.323357 11.0821 0.32112 12.6872" fill="#59595B"/>
<path d="M25.5311 42.1858C25.4273 42.1858 25.3282 42.182 25.2528 42.1784C25.193 42.1836 25.1313 42.1858 25.0694 42.1858C22.8878 42.1858 21.4291 41.1552 20.1419 40.2453C19.2192 39.594 18.3491 38.9792 17.3297 38.8098C16.8291 38.7268 16.331 38.6847 15.8498 38.6847C14.9828 38.6847 14.2976 38.8191 13.7974 38.9168C13.4895 38.9768 13.2241 39.0284 13.0189 39.0284C12.804 39.0284 12.543 38.9808 12.4342 38.6095C12.3479 38.3167 12.2861 38.033 12.2264 37.7598C12.077 37.0771 11.9687 36.6604 11.7129 36.6208C8.97667 36.199 7.35998 35.5776 7.03795 34.825C7.00421 34.7459 6.98535 34.6663 6.98116 34.5876C6.96862 34.3633 7.12711 34.1665 7.34841 34.1299C9.52136 33.7724 11.4535 32.6248 13.0914 30.7179C14.3601 29.2416 14.9832 27.831 15.0501 27.6753C15.053 27.6683 15.0564 27.6609 15.0599 27.6542C15.3756 27.0141 15.4385 26.461 15.2472 26.0107C14.8946 25.1799 13.727 24.8097 12.9545 24.5648C12.7623 24.5041 12.5806 24.4466 12.4358 24.3891C11.751 24.1188 10.6248 23.5478 10.7748 22.7595C10.8841 22.1847 11.6449 21.7845 12.2598 21.7845C12.4306 21.7845 12.5819 21.8144 12.7092 21.8741C13.4041 22.1994 14.0292 22.3643 14.5668 22.3643C15.2353 22.3643 15.5582 22.1099 15.6363 22.0376C15.6171 21.6813 15.5935 21.3045 15.5708 20.9481C15.5708 20.9477 15.5703 20.9435 15.5703 20.9435C15.4134 18.449 15.2176 15.3446 16.0123 13.5644C18.3908 8.2356 23.435 7.82123 24.9238 7.82123C24.9635 7.82123 25.5727 7.8152 25.5727 7.8152C25.6002 7.81472 25.6301 7.81433 25.661 7.81433C27.1539 7.81433 32.2085 8.22919 34.5885 13.5612C35.3832 15.3425 35.1873 18.4495 35.0298 20.9467L35.0225 21.0662C35.0009 21.4052 34.9809 21.7262 34.9641 22.0373C35.0376 22.1049 35.3331 22.3381 35.9343 22.3617C36.4468 22.342 37.0357 22.1779 37.6843 21.8745C37.8848 21.7805 38.1068 21.7609 38.2575 21.7609C38.4853 21.7609 38.7171 21.8052 38.9103 21.8858L38.9206 21.8898C39.4709 22.085 39.8314 22.475 39.8392 22.8849C39.8461 23.2669 39.562 23.8379 38.1645 24.3893C38.0214 24.446 37.8388 24.5039 37.6459 24.565C36.8727 24.8102 35.706 25.1802 35.3534 26.0105C35.1619 26.4608 35.2249 27.0137 35.5407 27.6536C35.5442 27.6606 35.5472 27.6677 35.5506 27.6751C35.6479 27.9028 38.0014 33.265 43.2523 34.1294C43.4735 34.1662 43.6323 34.3632 43.6197 34.5871C43.615 34.6676 43.5955 34.748 43.5615 34.8266C43.2417 35.575 41.6251 36.1956 38.8881 36.618C38.6312 36.6576 38.523 37.0725 38.375 37.7516C38.3138 38.0321 38.2514 38.3071 38.1664 38.596C38.0867 38.8678 37.9096 39.0006 37.6251 39.0006H37.5822C37.397 39.0006 37.1345 38.967 36.8036 38.9023C36.225 38.7898 35.5762 38.685 34.7511 38.685C34.27 38.685 33.772 38.7272 33.2708 38.8101C32.2525 38.9795 31.3825 39.5933 30.4615 40.2439C29.1717 41.1551 27.7125 42.1858 25.5311 42.1858Z" fill="#F5F5F5"/>
<path d="M25.6613 8.25347C27.0668 8.25347 31.9066 8.63073 34.1874 13.7401C34.9385 15.4226 34.7459 18.4703 34.5915 20.9186C34.5674 21.3071 34.5435 21.6837 34.524 22.0433L34.5159 22.1978L34.6191 22.313C34.6609 22.3592 35.0512 22.7669 35.9195 22.8004L35.9335 22.8012L35.9481 22.8009C36.5222 22.779 37.1688 22.6009 37.871 22.2722C37.9744 22.2238 38.1121 22.2002 38.2578 22.2002C38.4238 22.2002 38.6001 22.2314 38.7456 22.2926L38.7676 22.3013C39.1358 22.4302 39.3961 22.6733 39.4001 22.8933C39.4022 23.0177 39.3092 23.4657 38.0039 23.9809C37.8763 24.0312 37.7084 24.0847 37.5138 24.146C36.6643 24.4156 35.3811 24.8223 34.9492 25.8392C34.706 26.412 34.7726 27.0881 35.1469 27.8482C35.3009 28.2074 37.7255 33.6645 43.1813 34.5628C43.1803 34.5887 43.1737 34.617 43.1591 34.6503C43.0666 34.8679 42.4788 35.6198 38.8213 36.1837C38.249 36.2713 38.1088 36.9124 37.9462 37.6576C37.8875 37.9244 37.8278 38.1937 37.7458 38.4719C37.7207 38.5559 37.716 38.5607 37.6259 38.5607C37.6134 38.5607 37.5988 38.5607 37.5829 38.5607C37.4207 38.5607 37.1745 38.527 36.8891 38.4711C36.3694 38.3699 35.6594 38.2459 34.7518 38.2459C34.2452 38.2459 33.7233 38.2899 33.1997 38.3772C32.0805 38.5632 31.1703 39.2065 30.2063 39.8873C28.9118 40.8014 27.5738 41.7472 25.5323 41.7472C25.4431 41.7472 25.3561 41.7442 25.2689 41.7398L25.2459 41.7389L25.2229 41.7406C25.1728 41.745 25.1223 41.7472 25.0708 41.7472C23.0296 41.7472 21.691 40.8017 20.397 39.8873C19.4329 39.2065 18.5222 38.5632 17.4031 38.3772C16.88 38.2902 16.3577 38.2459 15.8514 38.2459C14.9439 38.2459 14.2331 38.3846 13.7144 38.4859C13.4291 38.5417 13.182 38.5895 13.0203 38.5895C12.8879 38.5895 12.8853 38.5817 12.8573 38.4861C12.7753 38.2078 12.7153 37.9321 12.6568 37.6656C12.4939 36.9197 12.3536 36.2751 11.7815 36.1874C8.12434 35.623 7.53647 34.8699 7.44371 34.6528C7.42923 34.6186 7.42271 34.5895 7.42125 34.5636C12.877 33.6661 15.3011 28.2088 15.4556 27.8482C15.8306 27.0886 15.8971 26.4127 15.6532 25.8392C15.2212 24.8228 13.9382 24.4156 13.0893 24.1465C12.8942 24.0848 12.7262 24.0312 12.5985 23.9809C11.4963 23.5457 11.1572 23.1073 11.2076 22.8417C11.266 22.5354 11.7975 22.2239 12.2613 22.2239C12.3655 22.2239 12.4569 22.2407 12.5245 22.2723C13.2778 22.625 13.9654 22.8039 14.5685 22.8039C15.5166 22.8039 15.9386 22.3631 15.9839 22.3128L16.0867 22.1979L16.0784 22.0441C16.0593 21.6848 16.0357 21.3083 16.0108 20.9205C15.8569 18.4717 15.6643 15.426 16.4151 13.7434C18.6874 8.65279 23.5036 8.26037 24.9253 8.26037C24.9604 8.26037 25.5785 8.25405 25.5785 8.25405C25.6037 8.25386 25.6318 8.25347 25.6613 8.25347ZM25.6613 7.37537H25.6596C25.6273 7.37537 25.5968 7.37537 25.5679 7.37575C25.3368 7.37809 24.957 7.38178 24.9229 7.38217C24.09 7.38217 22.4236 7.49973 20.6335 8.28923C19.61 8.74033 18.6894 9.35028 17.8974 10.1022C16.9531 10.9981 16.1838 12.1026 15.6112 13.3857C14.7728 15.2643 14.9718 18.4286 15.1317 20.9715L15.1323 20.9755C15.1494 21.2478 15.1674 21.5322 15.1838 21.8093C15.0608 21.8658 14.8614 21.9253 14.5675 21.9253C14.0945 21.9253 13.5321 21.7742 12.8963 21.4766C12.7092 21.3895 12.4957 21.3455 12.2601 21.3455C11.8816 21.3455 11.4826 21.4568 11.1364 21.6602C10.7009 21.9157 10.4195 22.2768 10.3431 22.6772C10.2927 22.9421 10.2952 23.4656 10.8771 23.9964C11.1972 24.2887 11.6674 24.5582 12.2743 24.7979C12.4336 24.8605 12.6226 24.9204 12.8228 24.9838C13.5175 25.2045 14.569 25.5378 14.8432 26.1826C14.9822 26.5096 14.9224 26.9398 14.666 27.4598C14.6592 27.474 14.6525 27.4879 14.6464 27.5024C14.5823 27.652 13.9845 29.005 12.7583 30.4319C12.0616 31.2434 11.2941 31.9215 10.4785 32.4481C9.48307 33.091 8.40593 33.5113 7.27735 33.6971C6.83416 33.7697 6.51767 34.1643 6.54237 34.6127C6.54995 34.7419 6.58029 34.8707 6.63289 34.9954L6.63415 34.9976C6.81335 35.4165 7.22883 35.7722 7.9043 36.0861C8.72971 36.4692 9.96417 36.7914 11.5731 37.0435C11.6544 37.198 11.7388 37.5863 11.7972 37.8521C11.8584 38.1346 11.9221 38.4251 12.0131 38.7337C12.1112 39.068 12.3656 39.4675 13.0193 39.4675C13.2671 39.4675 13.552 39.4118 13.8819 39.3478C14.365 39.2531 15.0257 39.1239 15.8503 39.1239C16.3075 39.1239 16.7813 39.1641 17.2583 39.2433C18.1776 39.3962 18.9701 39.9556 19.8871 40.6035C21.2293 41.5515 22.7486 42.6246 25.0698 42.6246C25.1331 42.6246 25.1966 42.6226 25.2593 42.6182C25.3361 42.6218 25.4312 42.6246 25.5315 42.6246C27.8534 42.6246 29.3723 41.5512 30.713 40.6039L30.7152 40.6019C31.6324 39.9549 32.424 39.3962 33.3431 39.2433C33.8198 39.1642 34.2935 39.1239 34.7509 39.1239C35.5387 39.1239 36.1624 39.2242 36.7194 39.3328C37.0828 39.4043 37.3653 39.4387 37.582 39.4387L37.6032 39.4391H37.6252C38.1033 39.4391 38.4546 39.1768 38.5887 38.718C38.6777 38.4159 38.7413 38.1322 38.804 37.8449C38.8587 37.5958 38.946 37.1965 39.0273 37.0403C40.6373 36.7877 41.8712 36.4661 42.6967 36.0831C43.3707 35.7708 43.7856 35.4154 43.9659 34.9983C44.02 34.8733 44.0516 34.7436 44.0587 34.6117C44.0841 34.1641 43.7671 33.7688 43.3236 33.6961C38.3079 32.8701 36.0483 27.7204 35.9548 27.5016C35.9488 27.4872 35.942 27.4729 35.9349 27.459C35.6785 26.9388 35.6193 26.5091 35.7583 26.1816C36.0319 25.5373 37.0827 25.204 37.7779 24.9834C37.9792 24.9201 38.1689 24.8599 38.3269 24.7975C39.0113 24.5274 39.5005 24.2344 39.8232 23.9016C40.2087 23.5049 40.2837 23.1248 40.2791 22.8761C40.2673 22.2743 39.8069 21.7396 39.0745 21.4777C38.8272 21.3755 38.5451 21.3216 38.2579 21.3216C38.0623 21.3216 37.7728 21.3484 37.4987 21.4763C36.9119 21.7506 36.3862 21.9006 35.935 21.922C35.695 21.9099 35.5267 21.8579 35.4177 21.8082C35.4314 21.5735 35.4466 21.3324 35.4622 21.0809L35.4688 20.9733C35.6295 18.4287 35.8292 15.262 34.9904 13.382C34.4154 12.0944 33.6434 10.987 32.6953 10.0892C31.9001 9.33677 30.9764 8.72692 29.9493 8.27611C28.1617 7.49244 26.4954 7.37537 25.6613 7.37537Z" fill="#020202"/>
</svg>
