<svg width="45" height="73" viewBox="0 0 45 73" fill="none" xmlns="http://www.w3.org/2000/svg">
<path d="M44.988 0.5L43.0088 1.46957C43.0088 1.46957 42.9315 2.72377 42.8642 3.91258C42.2752 12.2377 42.1912 15.7835 42.2114 18.3598C42.2383 24.989 42.9654 32.6558 42.9654 32.6558L43.0699 33.958L44.988 33.0807C44.988 33.0807 45.015 1.82242 44.988 0.5V0.5ZM40.5188 2.6894L38.6407 3.49437C38.6407 3.49437 38.5628 4.47095 38.4922 5.65634C37.8191 14.0157 37.7589 18.281 37.7454 20.0454C37.6949 26.2429 38.5533 34.8004 38.5533 34.8004L38.6841 36.0269L40.902 34.9991L41.0164 33.0091C41.3529 28.9185 41.3531 28.9357 41.4844 19.3053C41.5685 13.5086 40.6665 4.62459 40.6463 4.33681C40.6059 3.74412 40.5188 2.6894 40.5188 2.6894ZM36.0423 4.82327L34.1406 5.7112C34.1406 5.7112 34.0666 6.67382 33.9959 7.85577C33.3228 16.2185 33.2621 20.4835 33.2453 22.2615C33.1981 28.4522 34.0564 37.0172 34.0564 37.0172L34.1813 38.1822L36.4058 37.1544L36.5169 35.2253C36.5169 35.2253 36.8535 31.142 36.9882 21.5014C37.0723 15.7047 36.167 6.8206 36.1468 6.53625C36.1064 5.94355 36.0423 4.82327 36.0423 4.82327V4.82327ZM31.6229 6.93036L29.6647 7.77682C29.6541 8.4561 29.6069 9.13428 29.5234 9.8083C29.0398 14.6621 28.8016 19.5381 28.8095 24.4168C28.7355 30.5356 29.6542 39.1484 29.6542 39.1484L29.7653 40.3134L31.7846 39.3197L31.9398 37.4455C31.9398 37.4455 32.4374 32.992 32.5485 23.2759C32.6023 18.2706 31.7913 9.48998 31.7577 8.5684C31.7308 8.00997 31.6229 6.93036 31.6229 6.93036V6.93036ZM26.9453 9.12646L25.4912 9.726L25.2927 11.7475C24.4715 19.7436 24.394 24.3895 24.3705 26.2395C24.2998 32.3583 25.3802 41.0528 25.3802 41.0528L25.4945 42.3415L27.3285 41.4536L27.4363 39.5285C27.4363 39.5285 27.8737 34.9926 28.0049 25.28C28.079 20.1411 27.1501 11.5178 27.0491 10.3804C27.002 9.81856 26.9453 9.12646 26.9453 9.12646V9.12646ZM22.3413 11.2402L21.375 11.6651C21.375 11.6651 21.3783 11.8573 21.3783 12.6521C20.8465 16.8386 19.901 21.8817 19.7967 28.0689C19.6789 34.8421 21.0719 43.0301 21.0719 43.0301L21.2067 44.3215L22.3071 43.7835L22.4859 41.7453C23.3138 34.2082 23.4951 33.3685 23.5725 27.1435C23.6465 21.9463 22.7653 16.3623 22.3715 12.3711C22.337 11.9952 22.3269 11.6175 22.3413 11.2402H22.3413ZM17.9219 13.3507L16.9458 13.803C16.9458 13.803 17.0771 19.2708 16.7742 21.6004C15.7915 27.1402 15.4282 29.0725 15.5595 31.7037C15.6848 34.0566 15.9795 36.397 16.4409 38.7061C16.6563 40.1861 16.7269 41.1043 16.7269 41.1043L16.7676 46.4453L17.7136 45.9696C17.7136 45.9696 17.7129 41.5156 17.7399 41.2689C17.7668 41.0222 17.7669 40.7654 17.8207 40.1247C17.9856 38.165 18.5982 34.174 18.8304 30.9228C19.1064 26.7363 18.218 22.7685 18.0396 20.8088C17.9454 19.7571 17.8782 18.3492 17.9219 13.3507H17.9219ZM13.5401 15.4645L12.6146 15.8653C12.6448 22.217 12.645 24.0361 12.6382 24.8343C11.7362 29.5964 11.5642 29.8469 11.4195 32.1834C11.3084 34.0197 11.6081 35.3348 11.9178 36.9142C12.1904 38.2846 12.5166 39.7614 12.5166 39.7614L12.4864 48.4808L13.4961 47.9837L13.523 39.3298C13.523 39.3298 14.368 34.6708 14.4959 32.0054C14.6473 28.8022 13.5401 25.3761 13.5401 24.5881V15.4645ZM9.20163 17.5375L8.30633 17.9209V32.0255C8.30633 32.3681 7.66001 33.2625 7.49846 33.8141C7.33691 34.3657 7.09785 35.1162 8.06377 35.8048C8.37341 36.0275 8.27941 36.7399 8.30633 37.2093C8.33326 37.6786 8.30633 50.4267 8.30633 50.4267L9.2253 50.0292V35.8864C9.2253 35.4616 10.5712 34.2493 10.1068 32.9543C9.95198 32.526 9.37664 32.0156 9.36991 31.9265C9.2925 31.2618 9.20163 17.5375 9.20163 17.5375V17.5375ZM4.97755 19.5208L4.14338 19.8841V52.3658L4.98478 52.0092L4.97755 19.5208ZM1.07687 21.3709L0.228902 21.7309L0.235476 54.2153L1.08016 53.8493L1.07687 21.3709ZM16.0104 57.5523C13.5266 57.5523 10.5381 58.789 10.5919 61.636C10.6458 64.4829 13.5602 65.5899 16.0104 65.5899C18.4605 65.5899 21.1325 64.4829 21.183 61.636C21.2335 58.789 18.5413 57.5523 16.0104 57.5523ZM4.0737 57.6085C3.15446 57.6086 2.17514 57.752 1.31943 58.1451C-0.521546 58.9879 -0.00313965 60.6458 0.33342 61.0672C0.733926 61.6154 1.43734 61.8826 2.35278 62.095C3.63843 62.393 5.36817 62.4997 6.45525 62.647C7.4683 62.7806 7.38739 63.7845 6.82534 64.0997C5.87961 64.6239 3.5072 64.5926 2.21145 63.8595C1.08061 63.2257 1.20177 62.6227 1.20177 62.4617H0.192091V65.2024H1.31286V64.9662C1.28594 64.5723 1.82756 64.8738 2.16412 64.9937C4.0152 65.6446 6.62343 65.761 8.11439 64.7675C9.77363 63.6609 9.23552 61.585 7.34069 60.9615C5.90359 60.4853 3.58127 60.5639 2.40668 60.1973C1.4946 59.913 1.76708 58.5628 4.45956 58.669C7.09819 58.7718 7.74102 60.0122 7.74102 60.461H8.64946V57.9604H7.67397C7.77494 58.4332 7.51216 58.4915 7.32032 58.303C6.97114 58.0054 5.60577 57.6082 4.0737 57.6085V57.6085ZM22.2466 57.9363V58.8992H23.1419C23.6366 58.9163 23.6369 59.1595 23.6369 59.4472V63.8495C23.6234 64.0653 23.5695 64.2677 23.1925 64.2951H22.2637V65.1857H26.4536V64.257H25.5011C25.2891 64.2672 25.0469 64.295 25.0469 63.8153L25.0502 60.1906L30.6336 65.1857H31.9595V59.3234C31.9595 59.1076 32.0672 58.8718 32.2961 58.8718H33.2689V57.9363H29.2138V58.8611H30.1084C30.3171 58.8885 30.5666 58.8884 30.5666 59.4057V62.445L25.7838 57.9363H22.2466ZM34.1912 57.943V58.8918H34.9787C35.2942 58.8788 35.5964 59.0219 35.7898 59.2759C35.8168 59.317 38.6105 62.4416 38.6105 62.4416V64.0823C38.6105 64.1919 38.5902 64.2536 38.3916 64.2536H37.234V65.1824H42.0096V64.2536H40.9664C40.7645 64.2536 40.7639 64.257 40.7639 64.0823V62.455C40.7639 62.455 43.2847 59.4193 43.4867 59.2104C43.6218 59.0304 43.824 58.9151 44.0454 58.8918H44.9677V57.943H41.0203V58.8918H41.6192C41.8177 58.8918 41.8481 59.1732 41.7539 59.3034L40.1112 61.2733C40.1112 61.2733 38.6744 59.5189 38.4725 59.3167C38.2705 59.1146 38.4187 58.8918 38.5264 58.8918H39.0207V57.943H34.1912ZM15.9631 58.6316C17.6728 58.6316 18.9684 59.7008 18.9684 61.5851C18.9617 63.4557 17.6189 64.4867 15.9631 64.5346C14.3072 64.5826 12.9643 63.4694 12.961 61.5851C12.9576 59.7008 14.2533 58.6316 15.9631 58.6316ZM11.9447 67.5805C10.6456 67.5565 9.06362 68.2758 9.09054 70.1018C9.11747 71.9279 10.7699 72.5 12.0959 72.5C13.4994 72.5 14.2735 71.5853 14.3644 70.9001L13.8563 70.9135C13.6678 71.7597 12.7355 71.9413 12.1465 71.9413C11.1514 71.93 10.351 71.1048 10.3526 70.0918C10.3526 69.1017 10.8675 68.2995 11.8974 68.1727C12.8734 68.046 13.7889 68.5568 13.8326 69.3584H14.3006V67.8301H13.7925C13.8464 68.1659 13.7018 68.1594 13.5907 68.0429C13.0977 67.7297 12.5258 67.569 11.9447 67.5805V67.5805ZM42.0846 67.6896C42.0442 67.6898 42.0039 67.6906 41.9636 67.6923C41.497 67.7105 41.0388 67.8239 40.616 68.0256C39.9401 68.3219 39.692 69.1685 40.0981 69.7934C40.3642 70.1297 40.7452 70.3512 41.1649 70.4137C41.8755 70.5649 42.5931 70.6792 43.3151 70.7563C43.9748 70.8591 43.8469 71.4554 43.5103 71.661C42.8036 72.1132 41.959 72.0509 41.0906 71.4857C40.5084 71.1054 40.5654 70.7391 40.5654 70.6432H40.0409V72.3047H40.6298V72.1608C40.6164 71.9073 40.8991 72.0923 41.0775 72.1608C42.0468 72.5582 43.4131 72.63 44.194 72.027C45.0657 71.3555 44.7994 70.1054 43.7897 69.7252C43.0324 69.4408 41.8008 69.5403 41.2017 69.2628C40.6666 69.0161 40.8785 68.2315 42.2719 68.2691C43.6653 68.3068 44.002 69.1527 44.002 69.4234H44.4766V67.875H43.9652C44.0157 68.1936 43.9075 68.1933 43.7595 68.1179C43.2452 67.8346 42.6693 67.6873 42.0846 67.6897V67.6896ZM6.09174 67.8101V68.3889H6.58672C6.77856 68.3889 6.82862 68.4987 6.82862 68.6665V71.4481C6.82862 71.6194 6.77856 71.695 6.58672 71.695H6.09174V72.2738H8.65998V71.6984H8.15843C7.96322 71.6984 7.92244 71.6194 7.92244 71.4481L7.93953 68.6665C7.93953 68.4987 7.97966 68.3855 8.17486 68.3855H8.67642V67.8101H6.09174ZM20.9004 67.8135V68.3923H21.3986C21.5905 68.3923 21.6372 68.5021 21.6372 68.67V70.8554C21.6372 72.2292 22.7381 72.476 23.7848 72.476C24.8517 72.476 25.8715 72.2193 25.858 70.9243V68.8687C25.8547 68.5295 25.9623 68.4023 26.0868 68.4023H26.5851V67.8269H24.3941V68.4063H24.8885C25.0837 68.4063 25.131 68.5155 25.131 68.6834V70.9343C25.131 71.4174 25.0132 71.9621 23.7848 71.9621C22.6876 71.9621 22.7449 71.0851 22.7449 70.9343V68.67C22.7449 68.4987 22.7922 68.3889 22.9874 68.3889H23.485V67.8135H20.9004ZM15.0783 67.8235V69.5158L15.6134 69.5231C15.6134 68.3617 15.6705 68.4367 16.1215 68.3956H17.1312V71.479C17.1312 71.6503 17.0804 71.76 16.8886 71.76H16.3903V72.3047H18.9789V71.7533H18.4807C18.2888 71.7533 18.2447 71.6436 18.2447 71.4723V68.3889H19.2544C19.6582 68.4369 19.7632 68.3201 19.7632 69.5158H20.2844V67.8235L15.0783 67.8235ZM0.111238 67.8269V68.4164H0.582553C0.774392 68.4164 0.824455 68.5056 0.824455 68.6701V71.4516C0.824455 71.6195 0.781044 71.6985 0.58584 71.6985H0.0875737V72.2773H2.68605V71.6985H2.17792C1.98609 71.6985 1.93865 71.6229 1.93865 71.455V70.3589H3.50378C4.92407 70.3589 5.49619 69.9852 5.49619 69.0568C5.49619 68.1284 5.08559 67.8269 3.81339 67.8269H0.111238ZM27.1905 67.8376V68.389H27.6618C27.8536 68.389 27.9011 68.5122 27.9011 68.6801V71.4583C27.9011 71.6296 27.8602 71.7086 27.6684 71.7086H27.1675V72.3048H29.7554V71.7193H29.2572C29.0653 71.7193 29.0185 71.6436 29.0185 71.4757V70.3797H30.2938C30.7919 70.3797 31.0576 70.5128 31.0576 70.8554V71.3452C31.0576 72.2326 31.6133 72.4178 32.1922 72.4178C32.8788 72.4178 33.0671 72.1883 33.0671 71.3901V71.0475H32.6024V71.3218C32.6125 71.5651 32.6265 71.8216 32.4111 71.8216C32.1957 71.8216 32.1751 71.6332 32.1751 71.5098V70.8661C32.1515 70.3248 31.8455 70.2324 31.408 70.1227C31.9128 70.0268 32.4984 69.8002 32.5018 69.0876C32.5018 68.2482 32.0878 67.8376 30.819 67.8376H27.1905ZM33.639 67.8376V68.4164H34.1373C34.3291 68.4164 34.3765 68.5296 34.3765 68.6975V71.4757C34.3765 71.6436 34.3291 71.726 34.1373 71.726H33.639V72.3048H38.8524V70.5851H38.3476C38.3476 71.4519 38.27 71.6674 37.8191 71.7119H35.4934V70.3074H36.574C36.7188 70.3074 36.8094 70.3622 36.8094 70.5918V71.0716H37.2912V68.9785H36.8094V69.4375C36.8094 69.6739 36.7188 69.7253 36.574 69.7253H35.4934V68.3823H37.8191C38.27 68.4268 38.3476 68.6666 38.3476 69.5265H38.8524V67.8376H33.639ZM1.93865 68.3923H3.42622C3.92096 68.3923 4.25776 68.5499 4.25776 69.0775C4.25776 69.6051 3.92072 69.7627 3.35194 69.7627H1.93865V68.3923ZM30.5561 68.4051C30.5666 68.405 30.5771 68.4053 30.5876 68.4057C30.9566 68.4185 31.253 68.7194 31.2667 69.0949C31.2667 69.5232 30.9737 69.7801 30.4318 69.7801H29.0185V68.4098H30.4857C30.5091 68.407 30.5326 68.4054 30.5561 68.4051V68.4051Z" fill="#59595B"/>
</svg>
