<svg width="249" height="36" viewBox="0 0 249 36" fill="none" xmlns="http://www.w3.org/2000/svg">
<g clip-path="url(#clip0_333_3041)">
<path d="M0.304688 30.4901H35.0547L11.8547 24.7001L0.304688 30.4901Z" fill="#59595B"/>
<path d="M0.304688 30.49L11.8547 24.7L4.68469 22.91L0.304688 30.49Z" fill="#999999"/>
<path d="M11.8545 24.7L35.0545 30.48L27.2545 16.98L11.8545 24.7Z" fill="#999999"/>
<path d="M17.6845 0.390015L5.60449 21.31L26.3345 15.37L17.6845 0.390015Z" fill="#B3B3B3"/>
<path d="M239.184 17.2301L242.574 27.1001L245.904 17.2301H248.684C248.684 17.2301 244.854 27.5601 243.394 31.5601C242.074 35.1701 239.864 35.3601 238.734 35.3601C238.244 35.3601 237.744 35.2801 237.664 35.2501L237.304 32.8801C237.384 32.9101 238.054 33.1301 238.764 33.1301C240.114 33.1301 240.584 32.1901 240.804 31.5801C241.024 30.9701 241.214 30.4001 241.214 30.4001L236.364 17.2301H239.174H239.184ZM235.144 20.9801V30.4901H232.444V21.8901C232.444 20.3701 231.944 19.3501 230.324 19.3501C228.944 19.3501 227.544 20.6701 226.994 21.3601V30.4801H224.294V17.2301H226.614L226.834 18.9401C227.414 18.4201 229.094 16.9801 231.214 16.9801C233.864 16.9801 235.154 18.5801 235.154 20.9801M219.014 23.9301C215.984 24.2301 213.474 24.8701 213.474 26.7101C213.474 27.9001 214.304 28.4701 215.514 28.4701C217.334 28.4701 218.714 27.0401 219.014 26.7301V23.9201V23.9301ZM219.344 30.4901L219.234 28.8601C218.984 29.2501 217.664 30.7601 215.294 30.7601C212.924 30.7601 210.834 29.4601 210.834 26.6301C210.834 22.6601 216.204 22.1101 219.014 21.8101V21.4001C219.014 20.4301 218.634 19.2801 216.424 19.2801C214.444 19.2801 212.404 20.3301 212.074 20.4901L211.714 18.1201C212.094 17.9301 214.244 16.9901 216.614 16.9901C220.554 16.9901 221.714 18.7801 221.714 21.6701V30.4901H219.344ZM200.544 21.0701V28.0201C200.764 28.1001 201.834 28.4901 203.084 28.4901C205.674 28.4901 206.964 26.5101 206.964 23.8901C206.964 21.1101 205.784 19.2901 203.684 19.2901C202.114 19.2901 200.814 20.7501 200.544 21.0801M200.294 18.9601C200.594 18.6301 202.004 17.0001 204.424 17.0001C207.564 17.0001 209.654 19.2101 209.654 23.8901C209.654 28.5701 206.404 30.7801 203.264 30.7801C201.964 30.7801 200.734 30.3101 200.534 30.2301V34.8601L197.834 35.6301V17.2301H200.034L200.284 18.9401L200.294 18.9601ZM195.354 21.0001V30.5101H192.684V21.9101C192.684 20.3901 192.244 19.3701 190.614 19.3701C189.234 19.3701 187.914 20.6701 187.364 21.3801V30.5001H184.664V21.9001C184.664 20.3801 184.224 19.3601 182.594 19.3601C181.214 19.3601 179.894 20.6801 179.344 21.3701V30.4901H176.644V17.2401H178.964L179.184 18.9501C179.764 18.4301 181.414 16.9901 183.534 16.9901C185.384 16.9901 186.514 17.7601 187.034 19.0601C187.884 18.2301 189.484 16.9901 191.554 16.9901C194.204 16.9901 195.354 18.5901 195.354 20.9901M168.854 28.4801C170.924 28.4801 172.274 26.5201 172.274 23.8801C172.274 21.2401 170.954 19.2801 168.854 19.2801C166.544 19.2801 165.434 21.4801 165.434 23.8801C165.434 26.4401 166.674 28.4801 168.854 28.4801ZM168.854 30.7701C165.434 30.7701 162.704 28.5601 162.704 23.8801C162.704 19.2001 165.484 16.9901 168.854 16.9901C172.384 16.9901 174.974 19.4201 174.974 23.8801C174.974 28.3401 172.224 30.7701 168.854 30.7701ZM161.534 12.7501L161.124 15.5601C160.764 15.2601 158.834 13.7101 156.024 13.7101C152.054 13.7101 150.094 16.9001 150.094 20.9801C150.094 25.3101 152.214 28.2301 156.024 28.2301C158.664 28.2301 160.764 26.7201 161.394 26.2201L161.784 29.0301C161.534 29.3301 159.664 30.7701 155.994 30.7701C150.844 30.7701 147.174 27.0501 147.174 20.9901C147.174 14.9301 150.834 11.2101 155.994 11.2101C159.404 11.2101 161.144 12.4801 161.534 12.7501ZM139.254 20.9901V30.5001H136.554V21.9001C136.554 20.3801 136.054 19.3601 134.434 19.3601C133.054 19.3601 131.654 20.6801 131.104 21.3701V30.4901H128.404V17.2401H130.724L130.944 18.9501C131.524 18.4301 133.204 16.9901 135.324 16.9901C137.974 16.9901 139.264 18.5901 139.264 20.9901M122.064 19.6101C122.864 18.4501 124.374 16.9901 126.634 16.9901L127.024 19.4201C124.934 19.4201 123.474 20.2701 122.204 22.3101V30.4901H119.504V17.2401H121.734L122.064 19.6101ZM114.504 22.1701C114.334 21.2901 113.974 19.1401 111.584 19.1401C109.654 19.1401 108.804 20.8501 108.584 22.1701H114.514H114.504ZM108.444 24.2601C108.474 25.6701 108.994 28.4501 112.164 28.4501C114.614 28.4501 116.464 26.9301 116.844 26.5701L117.234 28.9401C116.684 29.4101 115.024 30.7601 111.864 30.7601C108.224 30.7601 105.744 28.3101 105.744 23.8401C105.744 19.3701 108.524 16.9501 111.614 16.9501C115.554 16.9501 117.264 20.1801 117.264 23.5901V24.2501H108.444V24.2601ZM103.834 20.9801V30.4901H101.164V21.8901C101.164 20.3701 100.644 19.3501 99.0144 19.3501C97.6344 19.3501 96.2644 20.6701 95.6844 21.3601V30.4801H93.0144V11.3401L95.6844 10.5701V18.8101C96.2644 18.3201 97.8344 16.9901 99.9044 16.9901C102.544 16.9901 103.844 18.5901 103.844 20.9901M90.8244 30.5201C90.7144 30.5501 89.8044 30.7701 88.7544 30.7701C86.2244 30.7701 84.8944 29.5001 84.8944 26.8601V19.5301H82.9944V17.2401H84.8944V13.6601L87.5644 12.8901V17.2401H90.3444L90.7344 19.5301H87.5644V26.5801C87.5644 27.8201 88.2544 28.2301 89.2444 28.2301C89.7944 28.2301 90.3144 28.1501 90.4544 28.0901L90.8144 30.5101L90.8244 30.5201ZM70.0744 26.7501V17.2401H72.7744V25.8401C72.7744 27.3801 73.2644 28.3801 74.8944 28.3801C76.2744 28.3801 77.6744 27.0801 78.2244 26.4001V17.2501H80.9244V30.5001H78.6144L78.3944 28.8201C77.8144 29.3101 76.1644 30.7801 74.0144 30.7801C71.3744 30.7801 70.0744 29.1501 70.0744 26.7601M62.1844 28.5001C64.2544 28.5001 65.5944 26.5401 65.5944 23.9001C65.5944 21.2601 64.2744 19.3001 62.1844 19.3001C59.8644 19.3001 58.7644 21.5001 58.7644 23.9001C58.7644 26.4601 60.0044 28.5001 62.1844 28.5001ZM62.1844 30.7901C58.7644 30.7901 56.0344 28.5801 56.0344 23.9001C56.0344 19.2201 58.8144 17.0101 62.1844 17.0101C65.5544 17.0101 68.3044 19.4401 68.3044 23.9001C68.3044 28.3601 65.5544 30.7901 62.1844 30.7901ZM42.0244 29.4701L42.4644 26.7201C42.8744 27.0001 44.7544 28.2601 47.8644 28.2601C50.2644 28.2601 51.8044 27.2401 51.8044 25.5901C51.8044 24.3501 51.0344 23.5501 49.0544 22.5601C48.6144 22.3401 46.6844 21.5101 46.0244 21.2101C43.7344 20.1601 42.2544 18.6201 42.2544 16.1101C42.2544 13.2401 44.6244 11.2301 48.6244 11.2301C51.4044 11.2301 53.1144 12.1701 53.5544 12.4201L53.0844 15.0601C52.6144 14.7901 50.8844 13.7401 48.4844 13.7401C46.2244 13.7401 45.0644 14.7901 45.0644 16.1601C45.0644 17.3201 45.8644 18.0101 47.3244 18.6901C47.8444 18.9401 50.2144 19.9301 50.6544 20.1201C53.4044 21.3901 54.6544 23.0101 54.6544 25.3601C54.6544 28.5801 51.9844 30.7901 47.9844 30.7901C44.4044 30.7901 42.5344 29.7701 42.0344 29.4701" fill="#59595B"/>
</g>
<defs>
<clipPath id="clip0_333_3041">
<rect width="248.39" height="35.22" fill="white" transform="translate(0.304688 0.390015)"/>
</clipPath>
</defs>
</svg>
