<?xml version="1.0" encoding="UTF-8"?><svg id="Layer_2" xmlns="http://www.w3.org/2000/svg" xmlns:xlink="http://www.w3.org/1999/xlink" viewBox="0 0 608.93 217.68"><defs><style>.cls-1{fill:none;}.cls-2{clip-path:url(#clippath);}.cls-3{fill:#faae61;}.cls-4{fill:#ee585e;}.cls-5{fill:#f5f5f5;}.cls-6{fill:#fff;}.cls-7{fill:#f69361;}.cls-8{fill:#999;}.cls-9{fill:#bbb;}.cls-10{fill:#898989;}.cls-11{fill:#59595b;}.cls-12{fill:#4aba0f;}.cls-13{clip-path:url(#clippath-1);}.cls-14{clip-path:url(#clippath-3);}.cls-15{clip-path:url(#clippath-2);}</style><clipPath id="clippath"><path class="cls-1" d="M437.72,189.21c-.25-.03-.44-.13-.52-.32-.15-.61-2.65-1.1-5.72-1.1s-5.52,.48-5.72,1.08h0c-.07,.2-.28,.32-.54,.34-2.18,.21-3.58,.53-3.58,.89v.7c0,.64,4.4,1.16,9.83,1.16s9.83-.52,9.83-1.16v-.7c0-.36-1.4-.68-3.59-.89Z"/></clipPath><clipPath id="clippath-1"><path class="cls-1" d="M433.16,159.45c0-.93-.75-1.68-1.68-1.68s-1.68,.75-1.68,1.68c0,.63,.35,1.18,.86,1.47h0s.47,.69,.46,1.65h-.46v25.31h1.63v-25.31h-.46c-.01-.96,.46-1.65,.46-1.65h0c.52-.29,.86-.84,.86-1.47Z"/></clipPath><clipPath id="clippath-2"><path class="cls-3" d="M431.48,162.87s1.45-1.54,4.17-1.54,4.35,1.86,6.61,1.86c1.59,0,2.72-.72,2.72-.72l.41,.72s-1.77,.95-3.85,.95-3.4-1.4-5.89-1.4-4.17,2.94-4.17,2.94v-2.81Z"/></clipPath><clipPath id="clippath-3"><path class="cls-1" d="M431.48,162.87s-1.45-1.54-4.17-1.54-4.35,1.86-6.61,1.86c-1.59,0-2.72-.72-2.72-.72l-.41,.72s1.77,.95,3.85,.95,3.4-1.4,5.89-1.4,4.17,2.94,4.17,2.94v-2.81Z"/></clipPath></defs><g id="svg6480"><rect class="cls-5" width="388.83" height="93.85"/><g><rect class="cls-6" x="11.65" y="11.94" width="365.53" height="68.85"/><rect class="cls-4" x="128.36" y="28.12" width="74.87" height="36.49"/><polygon class="cls-4" points="200.64 19.06 224.13 46.15 200.64 73.24 200.64 19.06"/><g><polygon class="cls-6" points="143.51 41.45 141.15 42.87 138.78 44.28 143.51 47.12 143.51 41.45"/><polygon class="cls-6" points="143.9 47.12 148.62 44.28 146.26 42.87 143.9 41.45 143.9 47.12"/><polygon class="cls-6" points="146.45 42.52 148.81 43.93 148.81 38.27 146.45 39.68 144.09 41.1 146.45 42.52"/><polygon class="cls-6" points="143.9 35.08 143.9 40.75 146.26 39.33 148.62 37.92 146.26 36.5 143.9 35.08"/><path class="cls-6" d="M148.29,32.29c-.06,0-.12,.01-.18,.03l-.17,.1-3.85,2.31,2.36,1.42,2.36,1.42v-4.79c-.02-.27-.25-.49-.52-.49Z"/><path class="cls-6" d="M139.45,38.78l-.12-.07c-.06-.03-.13-.04-.2-.04-.29,0-.53,.24-.53,.53v4.74l2.36-1.42,2.36-1.42-3.87-2.32Z"/></g></g><rect class="cls-5" y="98.55" width="388.83" height="119.13"/><g><rect class="cls-6" x="18.65" y="137.18" width="111.76" height="67.47"/><path class="cls-8" d="M69.88,154.21h-30.8c-4.02,0-7.3,3.29-7.3,7.3v21.93c0,4.02,3.29,7.3,7.3,7.3h30.8c4.02,0,7.3-3.29,7.3-7.3v-21.93c0-4.02-3.29-7.3-7.3-7.3Zm-19.62,5.01l.32,1.62c.08,.41,.16,.85,.23,1.31h.02c.08-.45,.19-.91,.29-1.3l.42-1.63h.97l.4,1.58c.11,.45,.21,.89,.29,1.35h.02c.06-.45,.14-.9,.23-1.35l.34-1.57h1.21l-1.22,3.96h-1.16l-.37-1.39c-.1-.39-.17-.75-.25-1.23h-.02c-.07,.49-.15,.86-.26,1.23l-.4,1.39h-1.16l-1.15-3.96h1.26Zm-6.42,0l.32,1.62c.08,.41,.16,.85,.23,1.31h.02c.08-.45,.19-.91,.29-1.3l.42-1.63h.97l.4,1.58c.11,.45,.21,.89,.29,1.35h.02c.06-.45,.14-.9,.23-1.35l.34-1.57h1.21l-1.22,3.96h-1.16l-.37-1.39c-.1-.39-.17-.75-.25-1.23h-.02c-.07,.49-.15,.86-.26,1.23l-.4,1.39h-1.16l-1.15-3.96h1.26Zm-6.42,0l.32,1.62c.08,.41,.16,.85,.23,1.31h.02c.08-.45,.19-.91,.29-1.3l.42-1.63h.97l.4,1.58c.11,.45,.21,.89,.29,1.35h.02c.06-.45,.14-.9,.23-1.35l.34-1.57h1.21l-1.22,3.96h-1.16l-.37-1.39c-.1-.39-.17-.75-.25-1.23h-.02c-.07,.49-.15,.86-.26,1.23l-.4,1.39h-1.16l-1.15-3.96h1.26Zm35.72,24.22c0,1.79-1.46,3.25-3.25,3.25h-30.8c-1.79,0-3.25-1.46-3.25-3.25v-16.85h37.29v16.85Z"/></g><g><rect class="cls-6" x="257.26" y="137.18" width="112.06" height="67.47"/><path class="cls-12" d="M268.35,165.48c.73,0,1.32,.22,1.76,.67,.45,.45,.67,1.04,.67,1.76v10.33c0,.73-.22,1.29-.67,1.68-.5,.5-1.09,.76-1.76,.76s-1.26-.25-1.76-.76c-.45-.45-.67-1.01-.67-1.68v-10.33c0-.62,.22-1.2,.67-1.76,.45-.45,1.04-.67,1.76-.67Zm19.9-9.32c1.85,1.01,3.22,2.24,4.11,3.69,1.01,1.62,1.51,3.36,1.51,5.21h-22.17c0-1.9,.5-3.64,1.51-5.21,.9-1.46,2.27-2.69,4.11-3.69l-1.68-3.11c-.11-.28-.08-.45,.08-.5,.22-.06,.39,0,.5,.17l1.76,3.19c1.51-.67,3.11-1.01,4.79-1.01s3.27,.34,4.79,1.01l1.76-3.19c.11-.17,.28-.22,.5-.17,.17,.06,.2,.22,.08,.5l-1.68,3.11Zm5.54,9.74v15.95c0,.67-.25,1.32-.76,1.93-.5,.5-1.12,.76-1.85,.76h-1.76v5.46c0,.73-.25,1.29-.76,1.68-.5,.5-1.09,.76-1.76,.76s-1.26-.25-1.76-.76c-.45-.45-.67-1.01-.67-1.68v-5.46h-3.36v5.46c0,.67-.22,1.23-.67,1.68-.5,.5-1.09,.76-1.76,.76s-1.26-.25-1.76-.76c-.45-.45-.67-1.01-.67-1.68l-.08-5.46h-1.76c-.73,0-1.34-.25-1.85-.76-.5-.62-.76-1.26-.76-1.93v-15.95h22Zm-16.04-4.87c.22,0,.45-.08,.67-.25,.17-.17,.25-.39,.25-.67s-.08-.5-.25-.67c-.22-.17-.45-.25-.67-.25-.28,0-.5,.08-.67,.25s-.25,.39-.25,.67,.08,.5,.25,.67,.39,.25,.67,.25Zm10.08,0c.28,0,.5-.08,.67-.25s.25-.39,.25-.67-.08-.5-.25-.67-.39-.25-.67-.25c-.22,0-.45,.08-.67,.25-.17,.17-.25,.39-.25,.67s.08,.5,.25,.67c.22,.17,.45,.25,.67,.25Zm11.84,6.89v10.33c0,.67-.22,1.23-.67,1.68-.5,.5-1.09,.76-1.76,.76s-1.26-.25-1.76-.76c-.45-.39-.67-.95-.67-1.68v-10.33c0-.73,.22-1.32,.67-1.76,.45-.45,1.04-.67,1.76-.67s1.32,.22,1.76,.67c.45,.56,.67,1.15,.67,1.76Z"/></g><g><rect class="cls-6" x="138.6" y="137.18" width="112.06" height="67.47"/><path class="cls-10" d="M189.28,179.46c-.68,2.03-1.59,3.9-2.73,5.62-1.98,2.92-3.9,4.37-5.78,4.37-.73,0-1.77-.26-3.12-.78-1.25-.47-2.37-.7-3.36-.7s-2.03,.26-3.12,.78c-1.25,.47-2.24,.7-2.97,.7-2.34,0-4.58-1.93-6.72-5.78-2.19-3.8-3.28-7.52-3.28-11.17,0-3.33,.83-6.12,2.5-8.36,1.61-2.13,3.72-3.2,6.33-3.2,.99,0,2.32,.21,3.98,.62,1.56,.47,2.58,.7,3.05,.7,.73,0,1.8-.26,3.2-.78,1.72-.52,3.02-.78,3.9-.78,1.72,0,3.28,.49,4.69,1.48,.89,.62,1.67,1.38,2.34,2.26-1.09,.89-1.93,1.74-2.5,2.58-.99,1.35-1.48,2.89-1.48,4.61,0,1.82,.52,3.49,1.56,5,1.04,1.51,2.21,2.45,3.51,2.81Zm-8.43-26.16c0,1.04-.21,2.06-.62,3.05-.52,1.2-1.2,2.21-2.03,3.05-.73,.73-1.54,1.28-2.42,1.64-.68,.21-1.46,.34-2.34,.39,.05-2.24,.62-4.17,1.72-5.78,1.09-1.56,2.97-2.66,5.62-3.28v.23l.08,.23v.47Z"/></g><g><rect class="cls-5" x="396.33" y="0" width="212.59" height="217.68"/><g><g><g><circle class="cls-6" cx="431.4" cy="44.58" r="17.63"/><path class="cls-11" d="M431.4,63.98c-10.7,0-19.4-8.7-19.4-19.4s8.7-19.4,19.4-19.4,19.4,8.7,19.4,19.4-8.7,19.4-19.4,19.4Zm0-35.26c-8.74,0-15.86,7.11-15.86,15.86s7.11,15.86,15.86,15.86,15.86-7.11,15.86-15.86-7.11-15.86-15.86-15.86Z"/></g><path class="cls-11" d="M431.39,58.41c-.17,0-.35,0-.52,0l.11-3c.31,.01,.61,0,.92,0h.05l.1,3-.05-1.44,.09,1.44h-.03c-.23,.01-.45,.02-.67,.02Zm-6.31-1.53c-.36-.18-.71-.39-1.05-.6l1.6-2.54c.26,.17,.54,.32,.82,.47l-1.37,2.67Zm12.78-.07l-1.4-2.65c.28-.15,.55-.31,.82-.48l1.63,2.52c-.34,.22-.69,.42-1.04,.61Zm-18.08-4.74c-.22-.34-.42-.69-.61-1.04l2.65-1.4c.15,.28,.31,.55,.48,.82l-2.52,1.63Zm23.33-.12l-2.53-1.6c.17-.27,.33-.54,.47-.82l2.67,1.37c-.18,.36-.39,.71-.6,1.05Zm-25.53-6.69v-.02c-.01-.23-.02-.45-.02-.68,0-.17,0-.34,0-.51l3,.11c0,.13,0,.26,0,.4,0,.18,0,.35,.01,.53l-2.99,.17Zm27.65-.15l-3-.12c0-.14,0-.28,0-.42,0-.18,0-.35-.01-.53v-.04l2.99-.15v.05c.01,.23,.02,.45,.02,.68,0,.18,0,.36-.01,.53Zm-23.48-5.48l-2.67-1.37c.18-.36,.38-.71,.6-1.05l2.54,1.6c-.17,.27-.32,.54-.47,.82Zm19.23-.14c-.15-.28-.31-.55-.48-.81l2.51-1.63c.22,.34,.42,.69,.61,1.04l-2.65,1.41Zm-15.46-4.02l-1.63-2.52c.34-.22,.69-.42,1.04-.61l1.4,2.65c-.28,.15-.55,.31-.81,.48Zm11.64-.08c-.27-.17-.54-.32-.82-.47l1.37-2.67c.36,.18,.71,.38,1.05,.6l-1.59,2.54Zm-6.27-1.64l-.19-2.99h.05c.38-.02,.78-.02,1.16,0l-.11,3c-.3-.01-.61,0-.92,0Z"/><path class="cls-11" d="M420.64,51.42c-.29,0-.56-.15-.71-.42-.22-.39-.08-.89,.31-1.11l11.31-6.33,5.8,5.8c.32,.32,.32,.84,0,1.16-.32,.32-.84,.32-1.16,0l-4.92-4.92-10.23,5.72c-.13,.07-.26,.1-.4,.1Z"/></g><g><path class="cls-6" d="M431.48,90.78c.31,0,.62,.24,.86,.72l2.16,4.37,2.16,4.37,.86,1.74,3.05,.44,8.52,1.24c1.06,.16,1.3,.89,.53,1.63l-6.99,6.81-1.39,1.35,.49,2.88,1.48,8.65c.13,.76-.16,1.21-.69,1.21-.2,0-.44-.06-.7-.2l-4.32-2.27-4.32-2.27-1.72-.9-1.72,.9-4.32,2.27-4.32,2.27c-.26,.14-.5,.2-.7,.2-.53,0-.82-.45-.69-1.21l1.65-9.61,.33-1.91-1.39-1.35-6.99-6.81c-.76-.74-.52-1.48,.53-1.63l4.82-.7,6.75-.98,.86-1.74,2.16-4.37,2.16-4.37c.24-.48,.55-.72,.86-.72"/><path class="cls-4" d="M435.91,111.73l-6.72,3.85c-.79,.45-1.44,.08-1.44-.82v-7.69c0-.9,.64-1.27,1.44-.82l6.72,3.85c.79,.45,.79,1.19,0,1.64"/><path class="cls-4" d="M431.48,90.78c.31,0,.62,.24,.86,.72l2.16,4.37,2.16,4.37,.86,1.74,3.05,.44,8.52,1.24c1.06,.16,1.3,.89,.53,1.63l-6.99,6.81-1.39,1.35,.49,2.88,1.48,8.65c.13,.76-.16,1.21-.69,1.21-.2,0-.44-.06-.7-.2l-4.32-2.27-4.32-2.27-1.72-.9-1.72,.9-4.32,2.27-4.32,2.27c-.26,.14-.5,.2-.7,.2-.53,0-.82-.45-.69-1.21l1.65-9.61,.33-1.91-1.39-1.35-6.99-6.81c-.76-.74-.52-1.48,.53-1.63l4.82-.7,6.75-.98,.86-1.74,2.16-4.37,2.16-4.37c.24-.48,.55-.72,.86-.72m0-2.48c-1.28,0-2.43,.78-3.08,2.1l-2.16,4.37-2.16,4.37-.28,.57-5.46,.79-4.82,.7c-1.45,.21-2.55,1.06-2.95,2.28-.4,1.22,0,2.56,1.04,3.58l6.99,6.81,.46,.44-.11,.63-1.65,9.61c-.2,1.16,.05,2.22,.71,3,.6,.7,1.48,1.1,2.42,1.1,.62,0,1.24-.16,1.85-.49l4.32-2.27,4.32-2.27,.56-.29,.56,.29,4.32,2.27,4.32,2.27c.61,.32,1.23,.49,1.85,.49,.94,0,1.83-.4,2.42-1.1,.66-.78,.91-1.84,.71-3l-1.48-8.65-.28-1.59,.46-.44,6.99-6.81c1.05-1.02,1.44-2.36,1.04-3.58-.4-1.22-1.5-2.07-2.95-2.28l-8.52-1.24-1.76-.26-.28-.57-2.16-4.37-2.16-4.37c-.65-1.32-1.8-2.1-3.08-2.1"/></g><g><path class="cls-3" d="M431.48,162.87s1.45-1.54,4.17-1.54,4.35,1.86,6.61,1.86c1.59,0,2.72-.72,2.72-.72l.41,.72s-1.77,.95-3.85,.95-3.4-1.4-5.89-1.4-4.17,2.94-4.17,2.94v-2.81Z"/><path class="cls-3" d="M431.48,162.87s-1.45-1.54-4.17-1.54-4.35,1.86-6.61,1.86c-1.59,0-2.72-.72-2.72-.72l-.41,.72s1.77,.95,3.85,.95,3.4-1.4,5.89-1.4,4.17,2.94,4.17,2.94v-2.81Z"/><rect class="cls-3" x="432.58" y="171.69" width="19.72" height=".36" transform="translate(133.99 532.64) rotate(-70.7)"/><rect class="cls-3" x="448.77" y="162.01" width=".36" height="19.72" transform="translate(-31.57 157.95) rotate(-19.29)"/><ellipse class="cls-7" cx="445.7" cy="182.45" rx="6.76" ry="1.27"/><rect class="cls-3" x="404.15" y="171.69" width="19.72" height=".36" transform="translate(114.96 505.81) rotate(-70.7)"/><rect class="cls-3" x="420.34" y="162.01" width=".36" height="19.72" transform="translate(-33.17 148.56) rotate(-19.29)"/><ellipse class="cls-7" cx="417.27" cy="182.45" rx="6.76" ry="1.27"/><ellipse class="cls-3" cx="431.48" cy="188.95" rx="5.73" ry="1.16"/><ellipse class="cls-7" cx="431.48" cy="190.8" rx="9.83" ry="1.16"/><path class="cls-3" d="M425.76,188.87c-.07,.2-.28,.32-.54,.34s1.41,.18,1.41,.18l-.87-.52Z"/><path class="cls-9" d="M437.2,188.87c.07,.2,.28,.32,.54,.34s-1.41,.18-1.41,.18l.87-.52Z"/><rect class="cls-7" x="421.65" y="190.1" width=".91" height=".7"/><rect class="cls-7" x="440.41" y="190.1" width=".91" height=".7"/><path class="cls-3" d="M433.16,159.45c0-.93-.75-1.68-1.68-1.68s-1.68,.75-1.68,1.68c0,.63,.35,1.18,.86,1.47h0s.47,.69,.46,1.65h-.46v25.31h1.63v-25.31h-.46c-.01-.96,.46-1.65,.46-1.65h0c.52-.29,.86-.84,.86-1.47Z"/><ellipse class="cls-3" cx="445.7" cy="181.86" rx="8.48" ry="1.27"/><ellipse class="cls-3" cx="417.27" cy="181.86" rx="8.48" ry="1.27"/><ellipse class="cls-3" cx="431.48" cy="190.1" rx="9.83" ry="1.16"/><ellipse class="cls-7" cx="445.7" cy="181.7" rx="6.76" ry=".75"/><ellipse class="cls-7" cx="417.1" cy="181.7" rx="6.76" ry=".75"/><g class="cls-2"><polygon class="cls-7" points="432.29 187.72 427.04 192.97 419.48 192.62 420.81 186.86 432.29 187.72"/></g><path class="cls-3" d="M430.67,187.79c0,.3,.36,.54,.81,.54s.81-.24,.81-.54h-1.63Z"/><polyline class="cls-7" points="430.24 190.06 429.25 190.06 427.71 191.61 429.12 191.61 430.23 190.5"/><path class="cls-7" d="M430.75,189.26s-.2,.23-.21,.48c0,.45-.2,.65-.37,.82s-.31-.26-.31-.26l.11-.87,.1-.23,.67,.07Z"/><g class="cls-13"><polygon class="cls-7" points="432.43 160.86 430.72 162.57 430.72 160.15 432.43 160.86"/></g><circle class="cls-3" cx="431.48" cy="159.46" r="1.68"/><g><path class="cls-3" d="M431.48,162.87s1.45-1.54,4.17-1.54,4.35,1.86,6.61,1.86c1.59,0,2.72-.72,2.72-.72l.41,.72s-1.77,.95-3.85,.95-3.4-1.4-5.89-1.4-4.17,2.94-4.17,2.94v-2.81Z"/><g class="cls-15"><polygon class="cls-3" points="445.41 162 443.08 164.32 446.25 164.32 445.41 162"/></g></g><circle class="cls-3" cx="445.7" cy="162.57" r=".85"/><g class="cls-14"><polygon class="cls-7" points="417.1 164.07 419.45 161.72 417.57 161.72 417.1 164.07"/></g><circle class="cls-3" cx="417.27" cy="162.57" r=".85"/></g></g></g></g></svg>